<svg width="27" height="22" viewBox="0 0 27 22" fill="none" xmlns="http://www.w3.org/2000/svg">
<path d="M27 9.12501V9.87501C27 10.4963 26.4963 11 25.875 11H25.5L24.276 19.5682C24.1176 20.6767 23.1683 21.5 22.0486 21.5H4.95141C3.8317 21.5 2.88239 20.6767 2.724 19.5682L1.5 11H1.125C0.503672 11 0 10.4963 0 9.87501V9.12501C0 8.50368 0.503672 8.00001 1.125 8.00001H4.28161L9.28692 1.11778C9.77419 0.447839 10.7123 0.299667 11.3823 0.786933C12.0523 1.2742 12.2004 2.21231 11.7131 2.88229L7.99111 8.00001H19.0089L15.2869 2.88225C14.7996 2.21231 14.9478 1.27415 15.6178 0.786886C16.2877 0.29962 17.2259 0.447745 17.7131 1.11773L22.7184 8.00001H25.875C26.4963 8.00001 27 8.50368 27 9.12501ZM14.625 17.375V12.125C14.625 11.5037 14.1213 11 13.5 11C12.8787 11 12.375 11.5037 12.375 12.125V17.375C12.375 17.9963 12.8787 18.5 13.5 18.5C14.1213 18.5 14.625 17.9963 14.625 17.375ZM19.875 17.375V12.125C19.875 11.5037 19.3713 11 18.75 11C18.1287 11 17.625 11.5037 17.625 12.125V17.375C17.625 17.9963 18.1287 18.5 18.75 18.5C19.3713 18.5 19.875 17.9963 19.875 17.375ZM9.375 17.375V12.125C9.375 11.5037 8.87133 11 8.25 11C7.62867 11 7.125 11.5037 7.125 12.125V17.375C7.125 17.9963 7.62867 18.5 8.25 18.5C8.87133 18.5 9.375 17.9963 9.375 17.375Z" fill="#001C61"/>
</svg>
