<svg width="396" height="249" viewBox="0 0 396 249" fill="none" xmlns="http://www.w3.org/2000/svg">
<g clip-path="url(#clip0)">
<path d="M168.476 142.765L179.95 154.248L168.703 165.495" stroke="#7CC7EC" stroke-width="5" stroke-linecap="round" stroke-linejoin="bevel"/>
<path d="M179.95 154.248H147.72" stroke="#7CC7EC" stroke-width="5" stroke-linecap="round" stroke-linejoin="bevel"/>
<path d="M86.7484 234.357H13.2133C11.412 234.358 9.62906 233.997 7.97085 233.293C6.31263 232.59 4.8132 231.559 3.56214 230.264C2.31108 228.968 1.33405 227.433 0.689432 225.751C0.0448107 224.069 -0.254179 222.274 -0.189675 220.474L3.72254 125.232H96.2391L100.133 220.474C100.199 222.273 99.9014 224.067 99.2583 225.748C98.6153 227.43 97.6399 228.964 96.3905 230.26C95.1411 231.556 93.6434 232.586 91.9867 233.29C90.33 233.994 88.5484 234.357 86.7484 234.357Z" fill="#DFEDF7"/>
<path d="M45.8513 212.116C57.2447 212.116 66.4809 202.88 66.4809 191.486C66.4809 180.093 57.2447 170.856 45.8513 170.856C34.4578 170.856 25.2216 180.093 25.2216 191.486C25.2216 202.88 34.4578 212.116 45.8513 212.116Z" fill="#E8B423"/>
<path d="M42.2379 213.927C53.6314 213.927 62.8676 204.691 62.8676 193.297C62.8676 181.904 53.6314 172.668 42.2379 172.668C30.8445 172.668 21.6082 181.904 21.6082 193.297C21.6082 204.691 30.8445 213.927 42.2379 213.927Z" fill="#F7C939"/>
<path d="M48.6315 206.284C49.6318 206.284 50.4427 205.473 50.4427 204.472C50.4427 203.472 49.6318 202.661 48.6315 202.661C47.6312 202.661 46.8203 203.472 46.8203 204.472C46.8203 205.473 47.6312 206.284 48.6315 206.284Z" fill="#E8B423"/>
<path d="M53.8296 183.517C54.83 183.517 55.6409 182.706 55.6409 181.706C55.6409 180.705 54.83 179.894 53.8296 179.894C52.8293 179.894 52.0184 180.705 52.0184 181.706C52.0184 182.706 52.8293 183.517 53.8296 183.517Z" fill="#E8B423"/>
<path d="M32.6475 195.779C33.4278 195.779 34.0603 194.818 34.0603 193.632C34.0603 192.447 33.4278 191.486 32.6475 191.486C31.8673 191.486 31.2348 192.447 31.2348 193.632C31.2348 194.818 31.8673 195.779 32.6475 195.779Z" fill="#E8B423"/>
<path d="M42.6712 184.285C43.6978 183.692 44.2137 182.664 43.8236 181.989C43.4334 181.313 42.285 181.246 41.2585 181.838C40.2319 182.431 39.716 183.459 40.1061 184.135C40.4962 184.811 41.6446 184.878 42.6712 184.285Z" fill="#E8B423"/>
<path d="M31.2348 183.064C31.6099 183.064 31.914 182.76 31.914 182.385C31.914 182.01 31.6099 181.706 31.2348 181.706C30.8597 181.706 30.5556 182.01 30.5556 182.385C30.5556 182.76 30.8597 183.064 31.2348 183.064Z" fill="#E8B423"/>
<path d="M52.0184 194.312C52.3935 194.312 52.6976 194.007 52.6976 193.632C52.6976 193.257 52.3935 192.953 52.0184 192.953C51.6433 192.953 51.3392 193.257 51.3392 193.632C51.3392 194.007 51.6433 194.312 52.0184 194.312Z" fill="#E8B423"/>
<path d="M31.9412 205.206C32.7064 205.206 33.3267 204.878 33.3267 204.473C33.3267 204.067 32.7064 203.739 31.9412 203.739C31.1759 203.739 30.5556 204.067 30.5556 204.473C30.5556 204.878 31.1759 205.206 31.9412 205.206Z" fill="#E8B423"/>
<path d="M5.24396 213.592C5.24396 213.592 4.20251 223.635 12.2986 226.442C20.3947 229.25 26.1363 230.273 26.3898 228.335C26.6434 226.397 19.0816 227.819 13.6027 223.807C10.0858 221.072 7.22909 217.581 5.24396 213.592Z" fill="#FAFDFF"/>
<path d="M93.1963 198.188C91.1134 198.188 90.9413 218.491 93.1963 218.817C95.4512 219.143 95.2882 198.188 93.1963 198.188Z" fill="#FAFDFF"/>
<path d="M83.126 35.9304L75.8811 57.8913L87.7264 83.3297L109.271 91.8787C110.056 92.1898 110.896 92.3375 111.74 92.3126C112.584 92.2876 113.414 92.0907 114.179 91.7337L179.229 61.3417C180.507 60.7378 181.544 59.7198 182.172 58.4528L184.363 53.9791C184.77 53.1473 184.986 52.2351 184.996 51.3092C185.005 50.3833 184.808 49.4669 184.418 48.627L164.558 6.09981C164.166 5.26027 163.591 4.51934 162.874 3.93161C162.158 3.34387 161.319 2.9243 160.419 2.70379L155.493 1.49934C154.12 1.16145 152.673 1.30201 151.39 1.89781L86.3952 32.2627C85.6289 32.6188 84.9436 33.1278 84.3814 33.7586C83.8192 34.3893 83.3919 35.1284 83.126 35.9304Z" fill="#C8E9FC"/>
<path d="M184.418 48.5998L177.571 33.9199C175.371 45.3124 176.965 54.8484 139.989 70.7599C126.993 76.3566 118.327 83.5742 105.757 77.7512C96.701 73.5582 83.4882 63.0895 76.7777 55.1745L87.7264 83.3297L109.271 91.8786C110.056 92.1898 110.896 92.3374 111.74 92.3125C112.584 92.2876 113.414 92.0907 114.179 91.7337L179.229 61.3416C180.507 60.7377 181.544 59.7198 182.172 58.4528L184.363 53.9791C184.774 53.1436 184.993 52.2266 185.002 51.2956C185.012 50.3646 184.812 49.4433 184.418 48.5998Z" fill="#B7E2F7"/>
<path d="M64.2119 61.0613L77.7078 89.9507L90.2367 84.0977L76.7407 55.2083L64.2119 61.0613Z" fill="#001C61"/>
<path d="M95.6233 46.3713L109.119 75.2607L148.806 56.7206L135.31 27.8312L95.6233 46.3713Z" fill="#EBF6FF"/>
<path d="M139.929 25.8655L153.425 54.7549L163.345 50.1208L149.849 21.2314L139.929 25.8655Z" fill="#EBF6FF"/>
<path d="M76.7324 55.2017C78.7718 61.6205 79.9325 68.2859 80.1827 75.0163C80.4997 85.793 77.7738 89.9769 77.7738 89.9769L90.2349 84.0905L76.7324 55.2017Z" fill="#001C61"/>
<path opacity="0.5" d="M77.7738 89.9769L68.8084 70.7871C68.8084 70.7871 49.9265 77.6425 45.8513 101.442C45.2091 105.501 44.822 109.596 44.6921 113.704H71.8602C73.4179 97.6926 77.7738 89.9769 77.7738 89.9769Z" fill="#C5EAFF"/>
<path opacity="0.5" d="M96.538 191.495C96.538 191.495 74.8035 171.508 71.8965 138.535C71.1228 130.276 71.1228 121.963 71.8965 113.704H44.7283C43.7774 137.367 47.8345 168.23 38.8691 179.903C28.2373 193.75 3.55048 189.946 3.55048 189.946L2.3098 218.428C2.24525 220.139 2.52656 221.846 3.13691 223.446C3.74726 225.046 4.6741 226.506 5.86197 227.74C7.04985 228.973 8.47435 229.955 10.0502 230.625C11.6261 231.295 13.321 231.64 15.0335 231.64H84.9372C86.6459 231.634 88.3358 231.284 89.9064 230.612C91.477 229.939 92.8961 228.956 94.0792 227.723C95.2622 226.491 96.185 225.032 96.7926 223.435C97.4001 221.838 97.6801 220.135 97.6156 218.428L96.538 191.495Z" fill="#FAFDFF"/>
<path opacity="0.8" d="M96.2391 113.704H3.72253V125.223H96.2391V113.704Z" fill="#5CB9E7"/>
<path d="M96.2391 123.53H3.72253V125.223H96.2391V123.53Z" fill="#FEFEFE"/>
<path d="M303.003 245.103C352.167 245.103 392.023 205.248 392.023 156.083C392.023 106.919 352.167 67.0635 303.003 67.0635C253.839 67.0635 213.983 106.919 213.983 156.083C213.983 205.248 253.839 245.103 303.003 245.103Z" fill="white"/>
<mask id="mask0" mask-type="alpha" maskUnits="userSpaceOnUse" x="213" y="67" width="180" height="179">
<path d="M303.003 245.103C352.167 245.103 392.023 205.248 392.023 156.083C392.023 106.919 352.167 67.0635 303.003 67.0635C253.839 67.0635 213.983 106.919 213.983 156.083C213.983 205.248 253.839 245.103 303.003 245.103Z" fill="white"/>
</mask>
<g mask="url(#mask0)">
<path d="M341.446 222.727H261.616C259.66 222.726 257.724 222.331 255.925 221.565C254.125 220.799 252.498 219.678 251.141 218.269C249.784 216.859 248.726 215.191 248.028 213.364C247.331 211.536 247.009 209.587 247.082 207.632L251.322 104.253H351.749L355.981 207.632C356.055 209.587 355.734 211.537 355.037 213.365C354.34 215.193 353.281 216.862 351.924 218.271C350.567 219.681 348.94 220.802 347.139 221.567C345.339 222.333 343.403 222.727 341.446 222.727Z" fill="#DFEDF7"/>
<path d="M311.422 160.428C311.422 160.034 308.295 136.388 306.814 128.442C306.472 126.611 305.342 120.636 307.532 119.042C308.803 119.156 310.52 122.397 311.431 124.298C312.947 127.382 315.514 131.456 318.44 131.254C320.28 131.123 320.981 129.958 320.805 128.933C320.332 126.243 318.624 117.158 317.196 114.775C315.636 112.147 308.768 98.3483 300.41 96.4472L300.532 6.34957L291.771 -2.41138L275.336 14.0942L276.405 97.148C274.828 98.5585 272.822 101.914 271.332 105.033C269.081 109.72 270.807 120.654 270.132 125.814C268.941 133.142 267.264 140.383 265.112 147.488C264.315 149.977 264.455 151.939 265.541 152.64C266.628 153.341 268.818 152.64 269.755 149.749C272.121 142.398 276.273 133.348 276.273 133.348C276.273 133.348 276.834 133.497 277.027 133.576C277.22 133.655 276.151 155.303 275.459 162.873C275.047 166.456 276.23 168.024 277.658 168.234C278.788 168.401 280.452 167.358 281.267 165.475C281.688 164.52 286.348 135.451 286.524 135.46H287.216C287.531 135.46 289.66 159.544 290.063 167.831C290.159 171.441 291.517 172.44 294.146 172.431C295.898 172.431 297.089 170.635 297.466 168.138C297.554 167.507 297.466 134.575 297.624 134.531L298.281 134.408C299.525 141.259 302.144 149.074 304.904 161.567C305.693 165.072 307.804 165.799 309.144 165.405C310.485 165.01 311.598 163.179 311.422 160.428Z" fill="#EAA192"/>
<path d="M297.063 198.591C309.431 198.591 319.456 188.565 319.456 176.198C319.456 163.831 309.431 153.805 297.063 153.805C284.696 153.805 274.67 163.831 274.67 176.198C274.67 188.565 284.696 198.591 297.063 198.591Z" fill="#E8B423"/>
<path d="M293.138 200.554C305.506 200.554 315.531 190.528 315.531 178.161C315.531 165.793 305.506 155.768 293.138 155.768C280.771 155.768 270.745 165.793 270.745 178.161C270.745 190.528 280.771 200.554 293.138 200.554Z" fill="#F7C939"/>
<path d="M300.077 192.248C301.161 192.248 302.039 191.37 302.039 190.286C302.039 189.202 301.161 188.323 300.077 188.323C298.993 188.323 298.114 189.202 298.114 190.286C298.114 191.37 298.993 192.248 300.077 192.248Z" fill="#E8B423"/>
<path d="M305.71 167.543C306.794 167.543 307.673 166.665 307.673 165.581C307.673 164.497 306.794 163.618 305.71 163.618C304.626 163.618 303.748 164.497 303.748 165.581C303.748 166.665 304.626 167.543 305.71 167.543Z" fill="#E8B423"/>
<path d="M282.721 180.859C283.568 180.859 284.255 179.815 284.255 178.528C284.255 177.241 283.568 176.198 282.721 176.198C281.875 176.198 281.188 177.241 281.188 178.528C281.188 179.815 281.875 180.859 282.721 180.859Z" fill="#E8B423"/>
<path d="M293.61 168.379C294.724 167.735 295.285 166.619 294.861 165.886C294.438 165.153 293.191 165.08 292.076 165.723C290.962 166.367 290.402 167.483 290.825 168.216C291.248 168.95 292.495 169.023 293.61 168.379Z" fill="#E8B423"/>
<path d="M281.188 167.052C281.595 167.052 281.924 166.723 281.924 166.316C281.924 165.91 281.595 165.581 281.188 165.581C280.782 165.581 280.452 165.91 280.452 166.316C280.452 166.723 280.782 167.052 281.188 167.052Z" fill="#E8B423"/>
<path d="M303.748 179.266C304.154 179.266 304.484 178.936 304.484 178.53C304.484 178.123 304.154 177.794 303.748 177.794C303.341 177.794 303.012 178.123 303.012 178.53C303.012 178.936 303.341 179.266 303.748 179.266Z" fill="#E8B423"/>
<path d="M281.959 191.084C282.787 191.084 283.457 190.727 283.457 190.287C283.457 189.846 282.787 189.49 281.959 189.49C281.132 189.49 280.461 189.846 280.461 190.287C280.461 190.727 281.132 191.084 281.959 191.084Z" fill="#E8B423"/>
<path d="M296.888 169.277C296.888 168.883 300.024 145.237 301.496 137.291C301.838 135.46 302.977 129.485 300.778 127.9C299.516 128.005 297.79 131.246 296.879 133.104C295.364 136.187 292.805 140.261 289.87 140.06C288.031 139.937 287.33 138.763 287.514 137.738C287.987 135.048 289.686 125.972 291.114 123.58C292.674 120.952 299.551 107.162 307.9 105.252L307.787 15.1549L316.548 6.43774L332.983 22.9434L331.914 106.023C333.491 107.443 335.489 110.789 336.978 113.908C339.23 118.604 337.513 129.529 338.178 134.698C339.373 142.023 341.053 149.261 343.207 156.364C344.004 158.852 343.856 160.814 342.778 161.524C341.7 162.234 339.501 161.524 338.564 158.624C336.19 151.274 332.037 142.232 332.037 142.232C332.037 142.232 331.476 142.381 331.284 142.451C331.091 142.522 332.16 164.187 332.86 171.748C333.272 175.331 332.09 176.908 330.653 177.118C329.531 177.276 327.867 176.242 327.043 174.35C326.631 173.395 321.962 144.335 321.787 144.344H321.086C320.77 144.344 318.65 168.436 318.247 176.759C318.151 180.369 316.793 181.368 314.156 181.359C312.404 181.359 311.221 179.554 310.844 177.057C310.748 176.435 310.844 143.494 310.686 143.459C310.529 143.424 310.17 143.371 310.021 143.328C308.785 150.187 306.157 157.993 303.397 170.486C302.618 173.991 300.497 174.718 299.166 174.324C297.834 173.93 296.721 172.028 296.888 169.277Z" fill="#F3AB99"/>
<path opacity="0.8" d="M351.749 91.7607H251.322V104.271H351.749V91.7607Z" fill="#5CB9E7"/>
<path d="M351.749 102.423H251.322V104.263H351.749V102.423Z" fill="#FEFEFE"/>
<path opacity="0.5" d="M339.466 219.802H263.605C261.747 219.796 259.91 219.417 258.202 218.685C256.495 217.953 254.952 216.885 253.667 215.544C252.381 214.203 251.379 212.616 250.72 210.879C250.062 209.142 249.76 207.29 249.833 205.434L251.103 174.526C267.989 179.729 286.004 180.033 303.056 175.402C330.828 167.517 352.117 176.216 352.117 176.216L353.309 205.452C353.379 207.312 353.074 209.168 352.409 210.908C351.745 212.647 350.737 214.235 349.444 215.575C348.151 216.915 346.601 217.981 344.886 218.707C343.172 219.433 341.328 219.806 339.466 219.802Z" fill="#FAFDFF"/>
<path d="M252.952 200.185C252.952 200.185 251.813 211.084 260.6 214.141C269.387 217.199 275.616 218.303 275.905 216.183C276.194 214.063 267.968 215.631 262.019 211.294C258.195 208.325 255.094 204.527 252.952 200.185Z" fill="#FAFDFF"/>
<path d="M348.446 183.47C346.186 183.47 345.993 205.504 348.446 205.854C351.039 206.231 350.715 183.47 348.446 183.47Z" fill="#FAFDFF"/>
</g>
<path d="M303.003 245.103C352.167 245.103 392.023 205.248 392.023 156.083C392.023 106.919 352.167 67.0635 303.003 67.0635C253.839 67.0635 213.983 106.919 213.983 156.083C213.983 205.248 253.839 245.103 303.003 245.103Z" stroke="#EBF6FF" stroke-width="7" stroke-miterlimit="10"/>
<path d="M330.504 93.7749H275.511C274.853 93.7749 274.32 94.3084 274.32 94.9664V99.1366C274.32 99.7946 274.853 100.328 275.511 100.328H330.504C331.162 100.328 331.695 99.7946 331.695 99.1366V94.9664C331.695 94.3084 331.162 93.7749 330.504 93.7749Z" fill="#001C61"/>
<path d="M113.825 59.908L112.06 58.2258L109.467 59.435L109.63 61.8643L108.869 62.2192L108.397 54.5301L109.03 54.235L114.604 59.5448L113.825 59.908ZM111.51 57.6581L109.823 56.0042C109.607 55.7959 109.362 55.5314 109.086 55.2108C109.153 55.5243 109.206 55.8789 109.243 56.2745L109.417 58.6341L111.51 57.6581ZM116.027 58.8813L115.292 59.2239L112.081 52.3381L112.816 51.9955L116.027 58.8813ZM119.473 57.3819C118.771 57.7093 118.126 57.7478 117.539 57.4972C116.953 57.2424 116.476 56.7196 116.107 55.929C115.729 55.1177 115.631 54.4 115.815 53.7758C116.001 53.1503 116.455 52.6691 117.178 52.332C117.411 52.2233 117.656 52.1397 117.912 52.0812C118.169 52.0227 118.379 51.9964 118.543 52.0023L118.609 52.7315C118.416 52.7423 118.214 52.7717 118.003 52.8199C117.791 52.865 117.611 52.922 117.463 52.9908C116.478 53.4503 116.278 54.3084 116.864 55.5652C117.142 56.1611 117.475 56.5627 117.863 56.7699C118.253 56.9757 118.684 56.9686 119.156 56.7485C119.561 56.56 119.935 56.2797 120.278 55.9075L120.582 56.558C120.335 56.8775 119.966 57.1521 119.473 57.3819ZM124.776 51.8438C125.144 52.6345 125.233 53.3454 125.043 53.9766C124.851 54.6048 124.404 55.0827 123.702 55.4101C123.268 55.6123 122.836 55.6901 122.404 55.6433C121.973 55.5966 121.577 55.4256 121.217 55.1303C120.857 54.835 120.557 54.4322 120.319 53.9218C119.951 53.1311 119.862 52.4239 120.052 51.7999C120.241 51.173 120.686 50.6959 121.389 50.3685C122.067 50.0521 122.711 50.0267 123.32 50.2924C123.931 50.5566 124.417 51.0738 124.776 51.8438ZM121.081 53.5669C121.369 54.1864 121.713 54.6007 122.113 54.8096C122.512 55.0186 122.952 55.011 123.433 54.7867C123.914 54.5625 124.203 54.2318 124.301 53.7947C124.4 53.3532 124.305 52.8212 124.015 52.1987C123.727 51.5821 123.384 51.173 122.984 50.9713C122.586 50.7653 122.144 50.7758 121.657 51.0028C121.177 51.227 120.887 51.5541 120.79 51.9839C120.692 52.4138 120.789 52.9414 121.081 53.5669ZM130.429 52.1653L128.966 49.0278C128.782 48.6324 128.554 48.3794 128.283 48.2686C128.013 48.1578 127.686 48.1918 127.302 48.3706C126.792 48.6086 126.483 48.9213 126.376 49.3087C126.273 49.6947 126.368 50.2034 126.662 50.8347L127.845 53.3705L127.11 53.713L123.899 46.8272L124.634 46.4846L125.606 48.569C125.723 48.8197 125.808 49.0332 125.861 49.2094L125.906 49.1888C125.942 48.8883 126.061 48.6098 126.265 48.3532C126.47 48.0923 126.744 47.8821 127.086 47.7225C127.679 47.446 128.189 47.3806 128.616 47.5262C129.045 47.6675 129.402 48.045 129.688 48.6587L131.164 51.8228L130.429 52.1653ZM135.64 46.7777C136.009 47.5683 136.098 48.2793 135.907 48.9105C135.715 49.5387 135.268 50.0165 134.566 50.344C134.132 50.5462 133.7 50.6239 133.269 50.5772C132.838 50.5305 132.442 50.3595 132.081 50.0642C131.721 49.7689 131.422 49.3661 131.184 48.8557C130.815 48.065 130.726 47.3577 130.916 46.7338C131.105 46.1069 131.551 45.6298 132.253 45.3023C132.931 44.9859 133.575 44.9606 134.184 45.2262C134.796 45.4905 135.281 46.0077 135.64 46.7777ZM131.945 48.5007C132.234 49.1203 132.578 49.5345 132.977 49.7435C133.376 49.9525 133.816 49.9448 134.297 49.7206C134.778 49.4963 135.067 49.1657 135.165 48.7285C135.265 48.2871 135.169 47.7551 134.879 47.1326C134.591 46.516 134.248 46.1069 133.849 45.9052C133.451 45.6992 133.009 45.7096 132.522 45.9366C132.041 46.1609 131.752 46.4879 131.654 46.9178C131.556 47.3476 131.653 47.8753 131.945 48.5007ZM138.709 48.3043L137.975 48.6469L134.764 41.7611L135.498 41.4185L138.709 48.3043Z" fill="#5CBEF6"/>
</g>
<defs>
<clipPath id="clip0">
<rect y="0.811035" width="396" height="248" fill="white"/>
</clipPath>
</defs>
</svg>
