<svg width="355" height="324" viewBox="0 0 355 324" fill="none" xmlns="http://www.w3.org/2000/svg">
<g opacity="0.9">
<path opacity="0.3" d="M133.874 271.883C133.874 261.624 139.005 256.494 149.265 256.494C159.525 256.494 164.654 261.624 164.654 271.883C164.654 282.143 159.525 287.273 149.265 287.273C139.005 287.273 133.874 282.143 133.874 271.883Z" fill="#002688"/>
<path d="M10.7572 112.857C10.7572 102.597 21.0164 97.4674 26.1463 97.4674C36.4061 97.4674 41.5369 107.727 41.5369 112.857C41.5369 123.117 31.2762 128.247 26.1463 128.247C15.8865 133.377 10.7572 123.117 10.7572 112.857Z" fill="#0B2D88"/>
<path d="M292.901 164.156C292.901 148.767 308.291 133.377 323.681 133.377C339.07 133.377 354.46 148.767 354.46 164.156C354.46 179.546 339.07 194.935 323.681 194.935C308.291 194.935 292.901 179.546 292.901 164.156Z" fill="#0B2D88"/>
<path d="M113.355 205.196C113.355 189.806 123.615 179.546 139.004 179.546C154.394 179.546 164.654 189.806 164.654 205.196C164.654 220.585 154.394 230.845 139.004 230.845C123.615 230.845 113.355 220.585 113.355 205.196Z" fill="#0B2D88"/>
<path d="M77.4452 20.5192C77.4452 15.3893 82.576 5.12939 92.8358 5.12939C97.9657 5.12939 108.225 10.2594 108.225 20.5192C108.225 25.6491 103.096 35.909 92.8358 35.909C82.576 35.909 77.4452 30.779 77.4452 20.5192Z" fill="#0B2D88"/>
<path opacity="0.3" d="M236.472 261.624C236.472 246.234 246.732 230.845 267.252 230.845C282.641 230.845 298.031 241.104 298.031 261.624C298.031 277.014 287.771 292.404 267.252 292.404C246.732 287.274 236.472 277.014 236.472 261.624Z" fill="#002688"/>
<path d="M195.434 302.663C189.767 302.663 185.173 307.256 185.173 312.923C185.173 318.589 189.767 323.182 195.434 323.182C201.1 323.182 205.692 318.589 205.692 312.923C205.692 307.256 201.1 302.663 195.434 302.663Z" fill="#0B2D88"/>
<path d="M31.2764 251.364C31.2764 246.234 36.407 241.105 41.5368 241.105C46.6667 241.105 51.7957 246.234 51.7957 251.364C51.7957 256.494 46.6667 261.624 41.5368 261.624C36.407 261.624 31.2764 256.494 31.2764 251.364Z" fill="#0B2D88"/>
<path opacity="0.3" d="M205.692 30.7788C205.692 15.3892 215.953 -2.35582e-05 236.472 -2.17643e-05C251.862 -2.04189e-05 267.252 10.2593 267.252 30.7789C267.252 46.1685 256.992 61.5585 236.472 61.5585C215.952 61.5585 205.692 46.1685 205.692 30.7788Z" fill="#002688"/>
<path opacity="0.3" d="M0.496824 205.196C0.496824 200.066 5.62765 189.806 15.8874 189.806C21.0173 189.806 31.2765 194.936 31.2765 205.196C31.2765 210.325 26.1472 220.585 15.8874 220.585C5.62765 220.585 0.496823 215.455 0.496824 205.196Z" fill="#002688"/>
</g>
</svg>
