<svg width="544" height="545" viewBox="0 0 544 545" fill="none" xmlns="http://www.w3.org/2000/svg">
<path opacity="0.2" d="M543.457 300.667C543.457 454.862 433.435 543.914 279.24 543.914C110.903 553.815 0.045073 404.916 0.045105 264.719C0.045137 124.523 100.1 -16.8721 288.227 2.30012C476.354 21.4723 543.667 166.113 543.457 300.667Z" fill="#082674"/>
<path opacity="0.5" d="M517.808 298.005C517.808 437.644 418.172 518.29 278.533 518.29C126.087 527.256 25.6937 392.413 25.6937 265.45C25.6937 138.488 116.304 10.4408 286.672 27.8032C457.04 45.1656 517.998 176.152 517.808 298.005Z" fill="#082674"/>
<path opacity="0.8" d="M498.5 296C498.5 424.682 406.682 499 278 499C137.516 507.263 45 383 45 266C45.0001 149 128.5 31 285.5 47C442.5 63 498.675 183.708 498.5 296Z" fill="#082878"/>
</svg>
