<svg width="442" height="322" viewBox="0 0 442 322" fill="none" xmlns="http://www.w3.org/2000/svg">
<mask id="mask0" mask-type="alpha" maskUnits="userSpaceOnUse" x="0" y="0" width="396" height="310">
<path d="M23.945 265.646C-15.9478 212.547 -14.4662 136.246 94.4114 81.098C203.719 25.7217 244.023 -19.3841 301.521 9.53413C367.095 42.513 427.053 195.061 376.926 262.317C326.8 329.573 63.8287 318.781 23.945 265.646Z" fill="#EBF6FF"/>
</mask>
<g mask="url(#mask0)">
<path d="M23.945 265.646C-15.9478 212.547 -14.4662 136.246 94.4114 81.098C203.719 25.7217 244.023 -19.3841 301.521 9.53413C367.095 42.513 427.053 195.061 376.926 262.317C326.8 329.573 63.8287 318.781 23.945 265.646Z" fill="#EBF6FF"/>
<path d="M-60.5781 241.703L-46.8873 319.147H54.6923L67.7155 241.703H-60.5781Z" fill="#B5DEF7"/>
<path d="M31.3071 98.6483L28.911 81.2718H21.3934L23.4511 98.0904L31.3071 98.6483Z" fill="#D4EEFF"/>
<path d="M-23.118 56.6063C-28.2761 60.045 -33.5165 79.5524 -30.0137 83.5399C-26.511 87.5273 41.5684 85.8354 44.1932 83.5399C46.818 81.2444 45.0254 62.5051 39.2729 56.6063C33.2186 50.4056 -15.2345 51.3567 -23.118 56.6063Z" fill="#CAE8FF"/>
<path d="M-55.3651 198.06C-55.3651 198.06 -54.4506 108.946 -41.0158 100.514C-29.7028 93.4354 42.6476 92.4294 52.8083 103.185C62.3928 113.3 62.0727 198.06 62.0727 198.06H-55.3651Z" fill="#CAE8FF"/>
<path d="M56.2836 194.539H-49.1462C-61.3088 194.539 -71.1686 204.399 -71.1686 216.562V223.211C-71.1686 235.373 -61.3088 245.233 -49.1462 245.233H56.2836C68.4463 245.233 78.3061 235.373 78.3061 223.211V216.562C78.3061 204.399 68.4463 194.539 56.2836 194.539Z" fill="#CAE8FF"/>
<path d="M52.3784 318.443C52.3784 318.443 55.1221 247.254 69.3526 247.254C83.583 247.254 95.71 244.822 102.341 251.479C108.971 258.137 113.919 319.156 113.919 319.156L52.3784 318.443Z" fill="#B3D5F2"/>
<path d="M81.379 247.154L84.7903 229.667" stroke="#A6CCE8" stroke-width="5" stroke-miterlimit="10" stroke-linecap="round"/>
<path d="M85.275 230.783C87.4267 230.783 89.171 229.198 89.171 227.244C89.171 225.289 87.4267 223.704 85.275 223.704C83.1233 223.704 81.379 225.289 81.379 227.244C81.379 229.198 83.1233 230.783 85.275 230.783Z" fill="#A6CCE8"/>
<path d="M119.644 241.703L135.2 314.044H250.663L265.451 241.703H119.644Z" fill="#133777"/>
<path d="M163.067 98.6483L165.463 81.2718H172.972L170.923 98.0904L163.067 98.6483Z" fill="#2A5993"/>
<path d="M210.962 98.6483L208.566 81.2718H201.048L203.106 98.0904L210.962 98.6483Z" fill="#2A5993"/>
<path d="M156.537 56.6063C151.379 60.045 146.139 79.5524 149.641 83.5399C153.144 87.5273 221.223 85.8354 223.848 83.5399C226.473 81.2444 224.68 62.5051 218.928 56.6063C212.874 50.4056 164.411 51.3567 156.537 56.6063Z" fill="#073799"/>
<path d="M124.29 198.06C124.29 198.06 125.204 108.946 138.639 100.514C149.952 93.4354 222.303 92.4294 232.463 103.185C242.048 113.3 241.728 198.06 241.728 198.06H124.29Z" fill="#073799"/>
<path d="M235.939 194.539H130.509C118.346 194.539 108.486 204.399 108.486 216.562V223.211C108.486 235.373 118.346 245.233 130.509 245.233H235.939C248.101 245.233 257.961 235.373 257.961 223.211V216.562C257.961 204.399 248.101 194.539 235.939 194.539Z" fill="#073799"/>
<path d="M279.416 201.975C274.432 194.969 269.21 192.472 264.363 193.231C245.615 190.387 206.005 196.981 190.851 196.981C172.414 196.981 155.293 191.421 131.588 191.155C126.145 190.965 120.708 191.683 115.501 193.277C113.4 193.699 111.426 194.607 109.739 195.929C105.167 198.838 104.069 201.975 104.069 201.975C96.4417 212.693 101.764 238.913 105.706 262.125C109.52 284.614 111.834 314.044 111.834 314.044H136.197C136.197 314.044 133.993 292.762 136.142 273.237C137.706 259.015 137.313 232.841 142.087 230.847C146.861 228.853 150.748 233.591 157.927 233.591C176.456 233.536 199.613 233.591 229.903 233.591C233.927 233.591 238.6 229.146 242.094 232.228C245.587 235.31 245.569 255.531 247.343 269.405C249.511 286.324 248.797 314.62 247.288 314.071H271.624C271.624 314.071 273.938 284.641 277.752 262.152C281.685 238.913 287.044 212.693 279.416 201.975Z" fill="#001C61"/>
<path d="M155.476 277.37C157.671 280.407 166.89 285.803 182.693 284.797C198.497 283.791 215.178 282.775 218.69 283.443C222.202 284.111 224.397 258.823 223.958 250.391C223.519 241.959 221.763 240.075 221.763 240.075H155.476V277.37Z" fill="#DFEDF7"/>
<path d="M186.681 244.831C183.37 245.224 179.867 254.561 179.483 256.5C179.099 258.439 184.925 267.009 188.428 267.786C192.149 268.564 195.991 268.564 199.713 267.786C202.823 267.009 204.771 258.64 203.993 256.601C203.216 254.561 205.969 248.37 201.478 246.385C198.394 244.961 195.148 243.917 191.811 243.276C189.598 242.873 186.681 244.831 186.681 244.831Z" fill="#F7C939"/>
<path d="M158.284 269.267C158.284 269.267 164.96 265.81 174.17 269.267C183.379 272.724 189.717 271.005 195.268 269.267C200.82 267.53 209.682 267.182 213.953 267.731C216.088 267.954 218.198 268.377 220.254 268.993C220.254 268.993 220.007 278.184 216.596 280.16C213.185 282.135 202.64 280.224 195.241 280.681C187.842 281.138 177.773 282.199 169.304 280.37C160.835 278.541 158.284 274.49 158.284 274.49V269.267Z" fill="#FAFDFF"/>
<path d="M242.734 217.156C232.107 223.695 227.095 209.428 227.095 209.428C223.153 208.322 211.904 220.668 186.333 219.882C171.197 219.415 160.726 207.59 158.284 209.995C153.803 214.33 150.053 225.433 139.38 220.732C128.707 216.031 133.463 245.928 132.283 261.604C131.368 274.27 130.372 296.905 130.042 305.118H135.676C135.676 305.118 133.463 293.613 135.621 274.078C137.185 259.866 136.792 233.691 141.566 231.698C146.34 229.704 150.217 234.441 157.406 234.441C175.935 234.386 199.091 234.441 229.381 234.441C233.396 234.441 238.079 229.997 241.563 233.079C245.048 236.161 245.048 256.372 246.822 270.246C248.98 287.174 248.267 305.703 246.767 305.145H252.419C251.943 296.475 250.635 271.554 250.535 256.674C250.416 240.55 248.669 213.498 242.734 217.156Z" fill="#041942"/>
<path d="M201.314 227.61C201.314 227.61 194.116 231.094 192.891 235.274C191.665 239.453 190.449 247.547 191.857 251.736C193.266 255.924 193.211 254.315 194.747 254.571C196.576 254.882 197.683 256.052 199.32 255.778C200.801 255.522 201.57 249.623 204.515 246.742C207.459 243.861 207.459 243.861 210.276 239.078C211.127 237.552 211.642 235.862 211.785 234.121L201.314 227.61Z" fill="#F3AB99"/>
<path d="M165.737 228.021C165.737 228.021 166.78 230.125 166.652 231.295C166.524 232.466 166.359 238.026 167.823 240.953C169.286 243.879 175.038 254.196 177.398 254.854C179.758 255.513 179.538 256.217 179.767 255.513C179.995 254.808 180.846 255.147 182.017 255.147C183.187 255.147 184.065 255.147 184.358 254.415C184.65 253.683 185.583 253.391 186.141 252.367C186.699 251.342 185.227 243.294 183.919 240.075C182.611 236.856 181.824 237.551 183.242 236.417C184.66 235.283 188.674 243.221 189.799 240.075C190.604 237.816 187.193 234.368 184.358 231.295C181.523 228.222 176.465 223.695 176.465 223.695L165.737 228.021Z" fill="#F3AB99"/>
<path d="M181.998 97.5692C229.116 97.5692 223.775 109.001 237.603 131.463C251.431 153.924 235.545 201.975 235.545 201.975C219.218 204.013 202.787 205.112 186.333 205.267C161.942 205.267 146.093 200.557 146.093 200.557C146.093 200.557 117.12 183.089 124.363 154.829C131.606 126.57 131.698 97.5692 181.998 97.5692Z" fill="#F13454"/>
<path d="M186.507 103.861C195.515 103.861 207.158 88.0578 209.106 68.3034C211.054 48.549 199.439 48.0735 186.507 47.6528C173.575 47.2321 162.262 51.1646 163.433 67.4071C164.603 83.6496 177.508 103.861 186.507 103.861Z" fill="#F3AB99"/>
<path d="M166.277 79.9822C166.277 79.9822 167.192 73.809 169.46 71.1385C170.93 69.417 172.509 67.7918 174.188 66.2731L162.93 60.9504C162.93 60.9504 162.82 66.0993 163.058 70.4617C163.336 73.8508 164.441 77.1198 166.277 79.9822Z" fill="#233554"/>
<path d="M159.473 64.5355C167.539 70.1874 176.392 72.7664 186.068 70.288C198.369 67.0962 199.11 64.0599 203.893 67.7547C208.676 71.4495 204.515 79.4152 207.35 77.8879C210.185 76.3606 213.431 63.9136 210.249 55.7649C207.066 47.6162 196.329 43.2538 186.333 43.2538C172.972 43.2538 174.133 50.433 166.899 47.5888C162.326 45.7597 161.357 45.1926 160.881 45.6499C160.406 46.1072 160.479 49.8203 160.479 49.8203C160.479 49.8203 155.101 49.6282 154.79 50.0855C154.479 50.5428 158.686 55.3899 158.686 55.3899C158.686 55.3899 155.028 55.9112 153.958 55.3899C152.888 54.8686 155.476 61.7918 159.473 64.5355Z" fill="#001C61"/>
<path d="M206.142 76.1412C206.142 76.1412 210.002 71.4404 210.852 74.6687C211.703 77.8971 209.362 81.5187 207.505 82.4333L205.676 83.3478L206.142 76.1412Z" fill="#F3AB99"/>
<path d="M167.256 75.9308C167.256 75.9308 163.396 71.2391 162.555 74.4584C161.713 77.6776 164.036 81.3084 165.902 82.2321L167.731 83.1466L167.256 75.9308Z" fill="#F3AB99"/>
<path d="M146.605 141.029C146.605 141.029 149.742 164.277 172.972 172.435C229.107 192.152 229.363 146.571 229.363 146.571L244.188 172.453L220.409 203.612C220.409 203.612 173.685 205.358 167.795 203.612C158.979 201.005 136.216 174.94 142.124 157.207C148.032 139.474 146.605 141.029 146.605 141.029Z" fill="#EA1C53"/>
<path d="M171.206 98.6483C148.644 98.6483 127.116 115.321 117.248 134.316C102.798 162.137 102.533 183.117 121.564 195.216C131.021 201.216 143.678 206.09 149.23 211.824C157.872 220.75 164.292 228.579 164.292 228.579L177.425 223.32C177.425 223.32 175.688 206.227 163.177 193.524C150.666 180.821 135.612 167.999 144.081 152.177C159.317 123.625 179.767 98.6483 171.206 98.6483Z" fill="#F13454"/>
<path d="M200.747 98.6483C223.299 98.6483 245.688 113.601 255.565 132.624C270.015 160.445 269.228 179.486 249.163 198.966C237.073 210.709 213.761 235.173 213.761 235.173L200.902 228.241C200.902 228.241 210.331 206.529 219.76 191.402C229.336 176.038 236.387 168.036 227.909 152.214C212.636 123.625 192.186 98.6483 200.747 98.6483Z" fill="#F13454"/>
<path d="M166.149 74.7602C165.911 76.5893 166.314 99.3983 171.289 106.321C177.032 114.296 198.725 113.72 205.246 105.7C210.962 98.6484 207.075 77.4307 207.304 74.9248C207.395 73.8822 207.203 69.7302 206.389 73.0043C205.182 77.577 201.698 91.6154 198.771 91.9538C194.765 92.4294 194.582 90.8655 191.272 90.2162C190.43 90.0607 188.327 91.3594 186.964 91.3685C185.419 91.3685 183.882 90.3442 182.684 90.6551C178.706 91.6977 177.572 93.6092 174.234 92.2373C171.408 91.085 169.066 79.5433 167.631 74.7602C166.807 72.1995 166.149 74.7602 166.149 74.7602Z" fill="#001C61"/>
<path opacity="0.8" d="M221.8 235.283H155.513V240.075H221.8V235.283Z" fill="#5CB9E7"/>
</g>
<path d="M365.016 222.708C406.131 222.708 439.461 189.377 439.461 148.263C439.461 107.148 406.131 73.8181 365.016 73.8181C323.902 73.8181 290.572 107.148 290.572 148.263C290.572 189.377 323.902 222.708 365.016 222.708Z" fill="white"/>
<mask id="mask1" mask-type="alpha" maskUnits="userSpaceOnUse" x="290" y="73" width="150" height="150">
<path d="M365.016 222.708C406.131 222.708 439.461 189.377 439.461 148.263C439.461 107.148 406.131 73.8181 365.016 73.8181C323.902 73.8181 290.572 107.148 290.572 148.263C290.572 189.377 323.902 222.708 365.016 222.708Z" fill="white"/>
</mask>
<g mask="url(#mask1)">
<path d="M397.163 203.987H330.401C328.764 203.988 327.145 203.659 325.639 203.019C324.133 202.379 322.772 201.442 321.637 200.263C320.502 199.085 319.617 197.689 319.034 196.16C318.451 194.631 318.183 193.001 318.246 191.366L321.785 104.931H405.769L409.308 191.366C409.368 192.999 409.099 194.628 408.516 196.155C407.933 197.682 407.048 199.077 405.915 200.254C404.781 201.432 403.422 202.37 401.919 203.011C400.415 203.652 398.798 203.984 397.163 203.987Z" fill="#DFEDF7"/>
<path d="M372.058 151.894C372.058 151.564 369.434 131.773 368.199 125.143C367.916 123.616 366.964 118.613 368.803 117.287C369.864 117.378 371.299 120.085 372.068 121.64C373.33 124.219 375.47 127.621 377.921 127.457C379.466 127.356 380.043 126.378 379.896 125.518C379.503 123.268 378.067 115.677 376.878 113.629C375.579 111.443 369.836 99.9103 362.849 98.3007L362.94 22.9597L355.624 15.6433L341.906 29.4439L342.82 98.95C341.494 100.13 339.83 102.928 338.577 105.535C336.693 109.458 338.138 118.595 337.571 122.911C336.578 129.04 335.175 135.096 333.373 141.038C332.705 143.114 332.824 144.76 333.73 145.345C334.635 145.931 336.473 145.345 337.26 142.922C339.235 136.785 342.747 129.203 342.747 129.203C342.747 129.203 343.213 129.332 343.378 129.396C343.543 129.46 342.656 147.568 342.061 153.896C341.723 156.887 342.71 158.204 343.89 158.378C344.805 158.515 346.222 157.637 346.908 156.073C347.256 155.268 351.152 130.969 351.271 130.969H351.856C352.121 130.969 353.895 151.089 354.234 158.049C354.316 161.067 355.45 161.899 357.654 161.89C359.099 161.89 360.114 160.381 360.398 158.295C360.48 157.774 360.398 130.228 360.535 130.2C360.672 130.173 360.956 130.127 361.084 130.091C362.117 135.825 364.312 142.355 366.626 152.781C367.275 155.726 369.05 156.32 370.165 155.991C371.281 155.662 372.196 154.162 372.058 151.894Z" fill="#EAA192"/>
<path d="M360.041 183.802C370.381 183.802 378.762 175.421 378.762 165.081C378.762 154.742 370.381 146.36 360.041 146.36C349.702 146.36 341.32 154.742 341.32 165.081C341.32 175.421 349.702 183.802 360.041 183.802Z" fill="#E8B423"/>
<path d="M356.767 185.439C367.106 185.439 375.488 177.058 375.488 166.718C375.488 156.379 367.106 147.998 356.767 147.998C346.428 147.998 338.046 156.379 338.046 166.718C338.046 177.058 346.428 185.439 356.767 185.439Z" fill="#F7C939"/>
<path d="M362.565 178.498C363.47 178.498 364.202 177.765 364.202 176.861C364.202 175.957 363.47 175.224 362.565 175.224C361.661 175.224 360.928 175.957 360.928 176.861C360.928 177.765 361.661 178.498 362.565 178.498Z" fill="#E8B423"/>
<path d="M367.285 157.838C368.189 157.838 368.922 157.105 368.922 156.201C368.922 155.297 368.189 154.564 367.285 154.564C366.38 154.564 365.647 155.297 365.647 156.201C365.647 157.105 366.38 157.838 367.285 157.838Z" fill="#E8B423"/>
<path d="M348.061 168.977C348.768 168.977 349.341 168.105 349.341 167.029C349.341 165.954 348.768 165.081 348.061 165.081C347.353 165.081 346.78 165.954 346.78 167.029C346.78 168.105 347.353 168.977 348.061 168.977Z" fill="#E8B423"/>
<path d="M358.538 159.163C359.474 158.625 359.946 157.691 359.592 157.075C359.239 156.46 358.193 156.397 357.257 156.935C356.321 157.473 355.849 158.408 356.203 159.023C356.556 159.639 357.602 159.701 358.538 159.163Z" fill="#E8B423"/>
<path d="M346.771 157.427C347.109 157.427 347.384 157.152 347.384 156.814C347.384 156.475 347.109 156.201 346.771 156.201C346.433 156.201 346.158 156.475 346.158 156.814C346.158 157.152 346.433 157.427 346.771 157.427Z" fill="#E8B423"/>
<path d="M365.638 167.642C365.977 167.642 366.251 167.368 366.251 167.029C366.251 166.691 365.977 166.417 365.638 166.417C365.3 166.417 365.026 166.691 365.026 167.029C365.026 167.368 365.3 167.642 365.638 167.642Z" fill="#E8B423"/>
<path d="M347.411 177.528C348.103 177.528 348.664 177.23 348.664 176.861C348.664 176.492 348.103 176.193 347.411 176.193C346.719 176.193 346.158 176.492 346.158 176.861C346.158 177.23 346.719 177.528 347.411 177.528Z" fill="#E8B423"/>
<path d="M359.895 159.292C359.895 158.963 362.52 139.172 363.754 132.542C364.038 131.014 364.989 126.021 363.151 124.686C362.099 124.777 360.654 127.484 359.895 129.039C358.624 131.627 356.484 135.029 354.033 134.855C352.496 134.755 351.911 133.776 352.057 132.917C352.45 130.667 353.886 123.076 355.075 121.027C356.374 118.851 362.126 107.309 369.104 105.709L369.013 30.3676L376.329 23.0512L390.048 36.861L389.133 106.367C390.459 107.556 392.133 110.355 393.377 112.952C395.261 116.875 393.816 126.021 394.383 130.328C395.381 136.453 396.784 142.506 398.581 148.446C399.248 150.531 399.129 152.168 398.224 152.762C397.318 153.357 395.48 152.762 394.694 150.339C392.718 144.193 389.206 136.621 389.206 136.621C389.206 136.621 388.74 136.739 388.575 136.803C388.411 136.867 389.298 154.976 389.892 161.304C390.24 164.295 389.252 165.621 388.063 165.795C387.149 165.932 385.74 165.045 385.054 163.481C384.707 162.685 380.802 138.376 380.683 138.386H380.097C379.832 138.386 378.058 158.506 377.72 165.456C377.637 168.474 376.503 169.307 374.299 169.307C372.854 169.307 371.848 167.798 371.555 165.703C371.482 165.182 371.555 137.645 371.427 137.608L370.87 137.508C369.836 143.233 367.641 149.772 365.327 160.189C364.678 163.133 362.904 163.737 361.788 163.399C360.672 163.06 359.758 161.597 359.895 159.292Z" fill="#F3AB99"/>
<path opacity="0.8" d="M405.778 94.4687H321.795V104.931H405.778V94.4687Z" fill="#5CB9E7"/>
<path d="M388.706 96H338.866C338.27 96 337.786 96.4884 337.786 97.0909V100.909C337.786 101.512 338.27 102 338.866 102H388.706C389.303 102 389.786 101.512 389.786 100.909V97.0909C389.786 96.4884 389.303 96 388.706 96Z" fill="#001C61"/>
<path d="M405.778 103.386H321.795V104.922H405.778V103.386Z" fill="#FEFEFE"/>
<path opacity="0.5" d="M395.508 201.526H332.065C330.51 201.526 328.971 201.212 327.54 200.604C326.109 199.995 324.816 199.104 323.738 197.984C322.659 196.863 321.818 195.537 321.264 194.084C320.71 192.631 320.455 191.081 320.514 189.527L321.575 163.673C335.698 168.023 350.766 168.274 365.026 164.395C388.237 157.838 406.052 165.081 406.052 165.081L407.058 189.527C407.117 191.081 406.862 192.631 406.309 194.084C405.755 195.537 404.913 196.863 403.835 197.984C402.757 199.104 401.463 199.995 400.032 200.604C398.602 201.212 397.063 201.526 395.508 201.526Z" fill="#FAFDFF"/>
</g>
<path d="M323.157 185.138C323.157 185.138 322.243 194.283 329.559 196.807C336.876 199.332 342.125 200.283 342.363 198.518C342.601 196.752 335.723 198.051 330.748 194.43C327.55 191.944 324.955 188.768 323.157 185.138Z" fill="#FAFDFF"/>
<path d="M403.016 171.154C401.123 171.154 400.968 189.582 403.016 189.884C405.065 190.186 404.918 171.154 403.016 171.154Z" fill="#FAFDFF"/>
<path d="M365.016 222.708C406.131 222.708 439.461 189.377 439.461 148.263C439.461 107.148 406.131 73.8181 365.016 73.8181C323.902 73.8181 290.572 107.148 290.572 148.263C290.572 189.377 323.902 222.708 365.016 222.708Z" stroke="#50B0D6" stroke-width="4" stroke-miterlimit="10"/>
<path d="M209.606 284.156C209.606 284.156 209.817 284.586 210.283 285.345" stroke="#5CB9E7" stroke-miterlimit="10" stroke-linecap="round"/>
<path d="M212.862 289.058C221.093 299.932 246.124 324.726 302.241 319.897C360.846 314.876 371.098 248.663 372.735 232.356" stroke="#5CB9E7" stroke-miterlimit="10" stroke-linecap="round" stroke-dasharray="2.95 4.92"/>
<path d="M372.909 230.115C372.973 229.201 373 228.753 373 228.753" stroke="#5CB9E7" stroke-miterlimit="10" stroke-linecap="round"/>
<path d="M377.564 258.321H372.075V257.166L374.046 255.174C374.63 254.576 375.011 254.162 375.19 253.933C375.369 253.7 375.498 253.485 375.577 253.288C375.656 253.091 375.695 252.887 375.695 252.676C375.695 252.361 375.607 252.126 375.432 251.972C375.26 251.818 375.029 251.741 374.739 251.741C374.435 251.741 374.139 251.811 373.853 251.951C373.566 252.091 373.267 252.289 372.956 252.547L372.054 251.478C372.44 251.149 372.761 250.916 373.015 250.78C373.269 250.644 373.547 250.54 373.848 250.469C374.148 250.393 374.485 250.356 374.857 250.356C375.348 250.356 375.781 250.445 376.157 250.624C376.533 250.803 376.825 251.054 377.033 251.376C377.24 251.698 377.344 252.067 377.344 252.483C377.344 252.844 377.28 253.184 377.151 253.503C377.025 253.818 376.828 254.142 376.56 254.475C376.295 254.808 375.826 255.283 375.153 255.899L374.143 256.849V256.925H377.564V258.321ZM383.806 254.395C383.806 255.766 383.58 256.781 383.129 257.44C382.681 258.099 381.99 258.428 381.056 258.428C380.15 258.428 379.466 258.088 379.004 257.408C378.545 256.728 378.316 255.723 378.316 254.395C378.316 253.009 378.54 251.989 378.988 251.333C379.435 250.674 380.125 250.345 381.056 250.345C381.961 250.345 382.645 250.689 383.107 251.376C383.573 252.064 383.806 253.07 383.806 254.395ZM379.965 254.395C379.965 255.358 380.048 256.049 380.212 256.468C380.381 256.883 380.662 257.091 381.056 257.091C381.442 257.091 381.722 256.88 381.893 256.457C382.065 256.035 382.151 255.347 382.151 254.395C382.151 253.432 382.064 252.74 381.888 252.322C381.716 251.899 381.439 251.688 381.056 251.688C380.665 251.688 380.386 251.899 380.218 252.322C380.049 252.74 379.965 253.432 379.965 254.395ZM392.109 256.538C392.109 257.154 391.894 257.623 391.465 257.945C391.039 258.267 390.399 258.428 389.547 258.428C389.11 258.428 388.738 258.398 388.43 258.337C388.122 258.28 387.834 258.194 387.565 258.079V256.726C387.87 256.869 388.212 256.989 388.591 257.086C388.974 257.182 389.311 257.231 389.601 257.231C390.195 257.231 390.493 257.059 390.493 256.715C390.493 256.586 390.453 256.482 390.374 256.404C390.296 256.321 390.16 256.23 389.966 256.13C389.773 256.026 389.515 255.906 389.193 255.77C388.731 255.576 388.391 255.397 388.172 255.233C387.957 255.068 387.8 254.88 387.7 254.669C387.603 254.454 387.555 254.191 387.555 253.879C387.555 253.346 387.76 252.934 388.172 252.644C388.588 252.35 389.175 252.203 389.934 252.203C390.657 252.203 391.361 252.361 392.045 252.676L391.551 253.858C391.25 253.729 390.969 253.623 390.707 253.541C390.446 253.458 390.179 253.417 389.907 253.417C389.424 253.417 389.182 253.548 389.182 253.809C389.182 253.956 389.259 254.083 389.413 254.191C389.571 254.298 389.912 254.457 390.439 254.669C390.908 254.858 391.252 255.036 391.47 255.2C391.689 255.365 391.85 255.555 391.953 255.77C392.057 255.985 392.109 256.241 392.109 256.538ZM395.874 253.369C395.527 253.369 395.255 253.48 395.058 253.702C394.861 253.92 394.748 254.232 394.72 254.636H397.018C397.011 254.232 396.906 253.92 396.702 253.702C396.497 253.48 396.222 253.369 395.874 253.369ZM396.105 258.428C395.139 258.428 394.383 258.162 393.839 257.628C393.294 257.095 393.022 256.339 393.022 255.362C393.022 254.355 393.273 253.578 393.774 253.031C394.279 252.479 394.976 252.203 395.864 252.203C396.712 252.203 397.373 252.445 397.846 252.928C398.318 253.412 398.555 254.08 398.555 254.932V255.727H394.682C394.7 256.192 394.838 256.556 395.096 256.817C395.353 257.079 395.715 257.209 396.181 257.209C396.542 257.209 396.884 257.172 397.206 257.096C397.529 257.021 397.865 256.901 398.216 256.737V258.004C397.93 258.147 397.624 258.253 397.298 258.321C396.972 258.393 396.574 258.428 396.105 258.428ZM402.325 258.428C400.456 258.428 399.521 257.403 399.521 255.351C399.521 254.33 399.776 253.552 400.284 253.014C400.793 252.474 401.521 252.203 402.47 252.203C403.165 252.203 403.788 252.339 404.339 252.612L403.856 253.879C403.598 253.775 403.358 253.691 403.136 253.627C402.914 253.559 402.692 253.525 402.47 253.525C401.618 253.525 401.192 254.13 401.192 255.34C401.192 256.515 401.618 257.102 402.47 257.102C402.785 257.102 403.077 257.061 403.346 256.978C403.614 256.892 403.883 256.76 404.151 256.581V257.983C403.886 258.151 403.618 258.267 403.346 258.332C403.077 258.396 402.737 258.428 402.325 258.428Z" fill="#001C61"/>
<path d="M353.715 257.596C351.169 257.596 348.726 256.6 346.925 254.828C345.124 253.055 344.113 250.652 344.113 248.145C344.113 245.639 345.124 243.235 346.925 241.463C348.726 239.69 351.169 238.695 353.715 238.695C356.262 238.695 358.705 239.69 360.506 241.463C362.307 243.235 363.318 245.639 363.318 248.145C363.318 250.652 362.307 253.055 360.506 254.828C358.705 256.6 356.262 257.596 353.715 257.596ZM363.359 240.571L365.307 238.654C364.69 237.966 364.073 237.345 363.373 236.751L361.425 238.695C359.299 236.994 356.624 235.995 353.715 235.995C350.441 235.995 347.301 237.275 344.985 239.553C342.67 241.832 341.369 244.923 341.369 248.145C341.369 251.368 342.67 254.458 344.985 256.737C347.301 259.016 350.441 260.296 353.715 260.296C360.575 260.296 366.062 254.855 366.062 248.145C366.062 245.283 365.047 242.65 363.359 240.571ZM352.344 249.495H355.087V241.395H352.344V249.495ZM357.831 231.945H349.6V234.645H357.831V231.945Z" fill="#001C61"/>
</svg>
