<svg width="87" height="122" viewBox="0 0 87 122" fill="none" xmlns="http://www.w3.org/2000/svg">
    <path d="M11.7555 117.466H10.525L8.36438 110.296C8.26184 109.978 8.14709 109.578 8.02014 109.094C7.89319 108.611 7.82727 108.32 7.82239 108.223C7.71497 108.867 7.54407 109.573 7.30969 110.339L5.21497 117.466H3.9845L1.13538 106.758H2.45374L4.14563 113.372C4.38 114.299 4.5509 115.139 4.65833 115.891C4.79016 114.998 4.98547 114.124 5.24426 113.269L7.16321 106.758H8.48157L10.4957 113.328C10.7301 114.085 10.9279 114.939 11.089 115.891C11.1818 115.198 11.3575 114.353 11.6163 113.357L13.3009 106.758H14.6193L11.7555 117.466ZM21.0499 117.466L20.8082 116.323H20.7496C20.3492 116.826 19.9489 117.168 19.5485 117.349C19.153 117.525 18.6573 117.612 18.0616 117.612C17.2657 117.612 16.6407 117.407 16.1866 116.997C15.7374 116.587 15.5128 116.004 15.5128 115.247C15.5128 113.626 16.8092 112.776 19.402 112.698L20.7643 112.654V112.156C20.7643 111.526 20.6276 111.062 20.3541 110.764C20.0856 110.462 19.6534 110.31 19.0577 110.31C18.3888 110.31 17.632 110.515 16.7872 110.925L16.4137 109.995C16.8092 109.78 17.2413 109.612 17.7101 109.49C18.1837 109.368 18.6573 109.307 19.131 109.307C20.088 109.307 20.796 109.519 21.255 109.944C21.7189 110.369 21.9508 111.05 21.9508 111.987V117.466H21.0499ZM18.3033 116.609C19.0602 116.609 19.6534 116.401 20.0831 115.986C20.5177 115.571 20.735 114.99 20.735 114.243V113.518L19.5192 113.569C18.5524 113.604 17.8541 113.755 17.4244 114.024C16.9996 114.287 16.7872 114.7 16.7872 115.261C16.7872 115.701 16.9191 116.035 17.1827 116.265C17.4513 116.494 17.8248 116.609 18.3033 116.609ZM27.0558 116.609C27.2706 116.609 27.4781 116.594 27.6783 116.565C27.8785 116.531 28.0372 116.497 28.1544 116.463V117.393C28.0226 117.456 27.8273 117.507 27.5685 117.547C27.3146 117.59 27.0851 117.612 26.88 117.612C25.3273 117.612 24.5509 116.795 24.5509 115.159V110.383H23.401V109.797L24.5509 109.292L25.0636 107.578H25.7667V109.439H28.0958V110.383H25.7667V115.108C25.7667 115.591 25.8815 115.962 26.111 116.221C26.3405 116.48 26.6554 116.609 27.0558 116.609ZM32.9738 117.612C31.8116 117.612 30.9108 117.256 30.2711 116.543C29.6364 115.825 29.319 114.812 29.319 113.504C29.319 112.161 29.6412 111.123 30.2858 110.391C30.9352 109.658 31.858 109.292 33.0543 109.292C33.4401 109.292 33.8258 109.334 34.2115 109.417C34.5973 109.5 34.9 109.597 35.1198 109.71L34.7462 110.742C34.4777 110.635 34.1847 110.547 33.8673 110.479C33.5499 110.405 33.2692 110.369 33.025 110.369C31.3942 110.369 30.5787 111.409 30.5787 113.489C30.5787 114.475 30.7765 115.232 31.172 115.759C31.5724 116.287 32.1632 116.55 32.9445 116.55C33.6134 116.55 34.2994 116.406 35.0026 116.118V117.195C34.4655 117.473 33.7892 117.612 32.9738 117.612ZM42.4073 117.466V112.273C42.4073 111.619 42.2584 111.13 41.9606 110.808C41.6627 110.486 41.1964 110.325 40.5616 110.325C39.7169 110.325 39.0992 110.554 38.7086 111.013C38.3229 111.472 38.13 112.224 38.13 113.269V117.466H36.9142V106.069H38.13V109.519C38.13 109.934 38.1105 110.278 38.0714 110.552H38.1447C38.3839 110.166 38.7233 109.863 39.1627 109.644C39.6071 109.419 40.1124 109.307 40.6788 109.307C41.6603 109.307 42.3951 109.541 42.8834 110.01C43.3766 110.474 43.6232 111.214 43.6232 112.229V117.466H42.4073ZM51.7823 117.466L48.7355 109.439H50.0392L51.7677 114.199C52.1583 115.313 52.3878 116.035 52.4562 116.367H52.5148C52.5685 116.109 52.7369 115.574 53.0201 114.763C53.3082 113.948 53.9503 112.173 54.9464 109.439H56.2501L53.2032 117.466H51.7823ZM58.755 117.466H57.5392V109.439H58.755V117.466ZM57.4366 107.263C57.4366 106.985 57.505 106.782 57.6417 106.655C57.7784 106.524 57.9493 106.458 58.1544 106.458C58.3497 106.458 58.5182 106.524 58.6598 106.655C58.8014 106.787 58.8722 106.99 58.8722 107.263C58.8722 107.537 58.8014 107.742 58.6598 107.879C58.5182 108.01 58.3497 108.076 58.1544 108.076C57.9493 108.076 57.7784 108.01 57.6417 107.879C57.505 107.742 57.4366 107.537 57.4366 107.263ZM66.797 116.389H66.7311C66.1696 117.205 65.3297 117.612 64.2115 117.612C63.1617 117.612 62.3439 117.254 61.7579 116.536C61.1769 115.818 60.8864 114.797 60.8864 113.474C60.8864 112.151 61.1793 111.123 61.7653 110.391C62.3512 109.658 63.1666 109.292 64.2115 109.292C65.3004 109.292 66.1354 109.688 66.7164 110.479H66.8116L66.7604 109.9L66.7311 109.336V106.069H67.9469V117.466H66.9581L66.797 116.389ZM64.3654 116.594C65.1954 116.594 65.796 116.37 66.1671 115.921C66.5431 115.466 66.7311 114.736 66.7311 113.731V113.474C66.7311 112.337 66.5406 111.526 66.1598 111.043C65.7838 110.554 65.1808 110.31 64.3507 110.31C63.6378 110.31 63.0909 110.589 62.7101 111.145C62.3341 111.697 62.1461 112.478 62.1461 113.489C62.1461 114.514 62.3341 115.288 62.7101 115.811C63.0861 116.333 63.6378 116.594 64.3654 116.594ZM73.9235 117.612C72.7369 117.612 71.7994 117.251 71.111 116.528C70.4274 115.806 70.0856 114.802 70.0856 113.518C70.0856 112.224 70.403 111.196 71.0377 110.435C71.6774 109.673 72.5343 109.292 73.6085 109.292C74.6144 109.292 75.4103 109.624 75.9962 110.288C76.5822 110.947 76.8751 111.819 76.8751 112.903V113.672H71.3453C71.3698 114.614 71.6066 115.33 72.0558 115.818C72.5099 116.306 73.1471 116.55 73.9674 116.55C74.8317 116.55 75.6862 116.37 76.5309 116.008V117.092C76.1012 117.278 75.6935 117.41 75.3077 117.488C74.9269 117.571 74.4655 117.612 73.9235 117.612ZM73.5939 110.31C72.9493 110.31 72.4342 110.52 72.0485 110.94C71.6676 111.36 71.443 111.941 71.3746 112.683H75.5714C75.5714 111.917 75.4005 111.331 75.0587 110.925C74.7169 110.515 74.2286 110.31 73.5939 110.31ZM85.8839 113.445C85.8839 114.754 85.5543 115.776 84.8951 116.514C84.236 117.246 83.3253 117.612 82.1632 117.612C81.4454 117.612 80.8082 117.444 80.2516 117.107C79.6949 116.77 79.2653 116.287 78.9625 115.657C78.6598 115.027 78.5084 114.29 78.5084 113.445C78.5084 112.136 78.8356 111.118 79.4899 110.391C80.1442 109.658 81.0524 109.292 82.2145 109.292C83.3375 109.292 84.2286 109.666 84.8878 110.413C85.5519 111.16 85.8839 112.171 85.8839 113.445ZM79.7682 113.445C79.7682 114.47 79.9733 115.252 80.3834 115.789C80.7936 116.326 81.3966 116.594 82.1925 116.594C82.9884 116.594 83.5914 116.328 84.0016 115.796C84.4166 115.259 84.6241 114.475 84.6241 113.445C84.6241 112.424 84.4166 111.651 84.0016 111.123C83.5914 110.591 82.9835 110.325 82.1779 110.325C81.382 110.325 80.7814 110.586 80.3761 111.109C79.9708 111.631 79.7682 112.41 79.7682 113.445Z" fill="#EBF6FF"/>
    <path d="M43.8356 83.1326C65.927 83.1326 83.8356 65.224 83.8356 43.1326C83.8356 21.0412 65.927 3.13257 43.8356 3.13257C21.7442 3.13257 3.83557 21.0412 3.83557 43.1326C3.83557 65.224 21.7442 83.1326 43.8356 83.1326Z" stroke="#F13454" stroke-width="5" stroke-linecap="round" stroke-linejoin="round"/>
    <path d="M35.8356 27.1326L59.8356 43.1326L35.8356 59.1326V27.1326Z" fill="#F13454"/>
</svg>
