<svg width="115" height="138" viewBox="0 0 115 138" fill="none" xmlns="http://www.w3.org/2000/svg">
<path d="M98.7802 137.2H15.8835C13.8519 137.2 11.8411 136.791 9.9716 135.996C8.10205 135.2 6.41218 134.036 5.00314 132.573C3.59411 131.109 2.4949 129.376 1.77131 127.478C1.04773 125.579 0.714651 123.555 0.792022 121.524L5.18869 14.1863H109.484L113.881 121.524C113.957 123.555 113.623 125.58 112.898 127.478C112.174 129.377 111.073 131.11 109.664 132.573C108.254 134.037 106.564 135.201 104.693 135.996C102.823 136.791 100.812 137.2 98.7802 137.2Z" fill="#C7EBFF"/>
<path opacity="0.8" d="M109.715 1.2002H5.41888V14.1861H109.715V1.2002Z" fill="#001C61"/>
<path d="M109.715 12.3312H5.41888V14.242H109.715V12.3312Z" fill="#FEFEFE"/>
<path opacity="0.7" d="M96.1744 133.877H17.8414C15.9186 133.879 14.0153 133.492 12.2459 132.739C10.4764 131.986 8.87744 130.884 7.54492 129.497C6.2124 128.111 5.17387 126.47 4.49172 124.672C3.80958 122.874 3.4979 120.957 3.57541 119.036L4.92966 87.1463C22.3646 92.5291 40.9696 92.8508 58.5801 88.0738C87.2512 79.9762 109.244 88.9179 109.244 88.9179L110.478 119.11C110.545 121.029 110.225 122.941 109.535 124.732C108.846 126.524 107.803 128.158 106.468 129.537C105.132 130.915 103.532 132.01 101.764 132.756C99.9949 133.502 98.0939 133.883 96.1744 133.877Z" fill="#FAFDFF"/>
<path opacity="0.3" d="M110.178 14.1863H106.607C106.607 14.1863 88.4919 54.7766 53.8194 77.8452C19.1469 100.914 7.27405 133.972 7.27405 133.972C9.91746 136.056 13.1837 137.193 16.5497 137.2H99.4464C101.478 137.2 103.489 136.791 105.358 135.996C107.228 135.2 108.918 134.036 110.327 132.573C111.736 131.109 112.835 129.376 113.559 127.478C114.282 125.579 114.615 123.555 114.538 121.524L110.178 14.1863Z" fill="#FAFDFF"/>
<path d="M109.716 14.1861H109.484V1.2002H5.18869V14.1861L0.792022 121.524C0.714651 123.554 1.04773 125.579 1.77131 127.478C2.4949 129.376 3.59411 131.109 5.00315 132.572C6.41218 134.036 8.10205 135.2 9.9716 135.995C11.8412 136.791 13.8519 137.2 15.8835 137.2H99.0214C101.053 137.2 103.064 136.791 104.933 135.995C106.803 135.2 108.493 134.036 109.902 132.572C111.311 131.109 112.41 129.376 113.134 127.478C113.857 125.579 114.19 123.554 114.113 121.524L109.716 14.1861Z" stroke="#001C61" stroke-miterlimit="10"/>
<path d="M6.48918 114.364C6.48918 114.364 4.77318 123.565 13.2419 128.092C21.3303 132.405 29.9381 133.063 30.1885 130.874C30.439 128.685 21.9981 130.299 15.8483 125.819C11.9059 122.754 8.70654 118.838 6.48918 114.364Z" fill="#FBFFFE"/>
<path d="M104.405 96.7399C101.177 96.7399 100.917 119.493 104.405 119.855C108.078 120.244 107.624 96.7399 104.405 96.7399Z" fill="#FBFFFE"/>
</svg>
