<svg width="146" height="122" viewBox="0 0 146 122" fill="none" xmlns="http://www.w3.org/2000/svg">
<path d="M145 41.807H1V121.264H145V41.807Z" fill="#3BB3E2"/>
<path d="M79.6992 85.5287V87.6662C79.7429 86.9544 79.7429 86.2405 79.6992 85.5287V85.5287Z" stroke="#0C3689" stroke-miterlimit="10"/>
<path d="M145 41.807H1V115.697H145V41.807Z" fill="#073287"/>
<path d="M64.2702 70.4495V40.8353H1V108.39H64.2702V108.322C68.9029 107.994 73.2588 105.995 76.5276 102.696C79.7964 99.3963 81.7555 95.0222 82.0407 90.3866V88.2103C81.4674 78.7372 73.617 71.4503 64.2702 70.4495Z" fill="#001C61"/>
<path d="M62.5699 1H28.2047V70.1484H62.5699C72.8494 70.1484 83.0512 77.8337 83.6633 88.0063V18.8579C83.0512 8.68531 72.898 1 62.5699 1Z" fill="#0D4399"/>
<path d="M1 107.943H64.2702V107.875C68.9029 107.547 73.2588 105.548 76.5276 102.249C79.7964 98.9494 81.7555 94.5752 82.0407 89.9397V87.7633V87.8411C81.4189 77.6685 72.3247 69.9832 62.0841 69.9832H27.7188" stroke="#3BB3E2" stroke-width="3" stroke-miterlimit="10"/>
<path d="M91.3583 51.5229V56.721" stroke="#107BC4" stroke-width="2" stroke-miterlimit="10" stroke-linecap="round"/>
<path d="M91.3583 70.9548V76.1431" stroke="#107BC4" stroke-width="2" stroke-miterlimit="10" stroke-linecap="round"/>
<path d="M91.3583 90.3867V95.575" stroke="#107BC4" stroke-width="2" stroke-miterlimit="10" stroke-linecap="round"/>
<path d="M104.961 58.3241V63.5124" stroke="#107BC4" stroke-width="2" stroke-miterlimit="10" stroke-linecap="round"/>
<path d="M104.961 77.756V82.9443" stroke="#107BC4" stroke-width="2" stroke-miterlimit="10" stroke-linecap="round"/>
<path d="M104.961 97.1879V102.376" stroke="#107BC4" stroke-width="2" stroke-miterlimit="10" stroke-linecap="round"/>
<path d="M118.563 51.5229V56.721" stroke="#107BC4" stroke-width="2" stroke-miterlimit="10" stroke-linecap="round"/>
<path d="M118.563 70.9548V76.1431" stroke="#107BC4" stroke-width="2" stroke-miterlimit="10" stroke-linecap="round"/>
<path d="M118.563 90.3867V95.575" stroke="#107BC4" stroke-width="2" stroke-miterlimit="10" stroke-linecap="round"/>
<path d="M133.137 58.3241V63.5124" stroke="#107BC4" stroke-width="2" stroke-miterlimit="10" stroke-linecap="round"/>
<path d="M133.137 77.756V82.9443" stroke="#107BC4" stroke-width="2" stroke-miterlimit="10" stroke-linecap="round"/>
<path d="M133.137 97.1879V102.376" stroke="#107BC4" stroke-width="2" stroke-miterlimit="10" stroke-linecap="round"/>
<path d="M39.8638 5.85803V6.82963" stroke="#107BC4" stroke-width="2" stroke-miterlimit="10" stroke-linecap="round"/>
<path d="M39.8638 11.6875V56.9638" stroke="#107BC4" stroke-width="2" stroke-miterlimit="10" stroke-linecap="round" stroke-dasharray="2 5"/>
<path d="M39.8638 59.2957V60.2672" stroke="#107BC4" stroke-width="2" stroke-miterlimit="10" stroke-linecap="round"/>
<path d="M57.3525 5.85803V6.82963" stroke="#107BC4" stroke-width="2" stroke-miterlimit="10" stroke-linecap="round"/>
<path d="M57.3525 11.6875V56.9638" stroke="#107BC4" stroke-width="2" stroke-miterlimit="10" stroke-linecap="round" stroke-dasharray="2 5"/>
<path d="M57.3525 59.2957V60.2672" stroke="#107BC4" stroke-width="2" stroke-miterlimit="10" stroke-linecap="round"/>
<path d="M73.8696 8.77271V9.7443" stroke="#107BC4" stroke-width="2" stroke-miterlimit="10" stroke-linecap="round"/>
<path d="M73.8696 14.6023V59.83" stroke="#107BC4" stroke-width="2" stroke-miterlimit="10" stroke-linecap="round" stroke-dasharray="2 5"/>
<path d="M73.8696 62.2104V63.182" stroke="#107BC4" stroke-width="2" stroke-miterlimit="10" stroke-linecap="round"/>
<path d="M83.1775 41.5835V18.8579C82.5653 8.68531 72.4122 1 62.0841 1H27.7188V40.5828H1V121.04H145V41.5835H83.1775Z" stroke="#001C61" stroke-miterlimit="10"/>
</svg>
