<svg width="480" height="220" viewBox="0 0 480 220" fill="none" xmlns="http://www.w3.org/2000/svg">
<path d="M259.892 82.8115L270.101 93.0198L260.097 103.024" stroke="#7CC7EC" stroke-width="5" stroke-linecap="round" stroke-linejoin="bevel"/>
<path d="M270.101 93.0198H241.432" stroke="#7CC7EC" stroke-width="5" stroke-linecap="round" stroke-linejoin="bevel"/>
<path d="M383.353 196.286C434.295 196.286 475.592 154.989 475.592 104.046C475.592 53.1037 434.295 11.8066 383.353 11.8066C332.41 11.8066 291.113 53.1037 291.113 104.046C291.113 154.989 332.41 196.286 383.353 196.286Z" fill="white"/>
<mask id="mask0" mask-type="alpha" maskUnits="userSpaceOnUse" x="291" y="11" width="185" height="186">
<path d="M383.353 196.286C434.295 196.286 475.592 154.989 475.592 104.046C475.592 53.104 434.295 11.8069 383.353 11.8069C332.41 11.8069 291.113 53.104 291.113 104.046C291.113 154.989 332.41 196.286 383.353 196.286Z" fill="white"/>
</mask>
<g mask="url(#mask0)">
<path d="M423.19 173.095H340.492C338.466 173.089 336.463 172.676 334.6 171.88C332.737 171.085 331.053 169.923 329.648 168.464C328.243 167.005 327.145 165.279 326.42 163.387C325.695 161.496 325.358 159.478 325.428 157.453L329.821 50.3547H433.861L438.245 157.453C438.323 159.479 437.991 161.499 437.269 163.393C436.548 165.288 435.451 167.017 434.046 168.477C432.64 169.938 430.954 171.099 429.089 171.893C427.223 172.686 425.217 173.095 423.19 173.095Z" fill="#DFEDF7"/>
<path d="M392.076 108.546C392.076 108.137 388.83 83.6475 387.301 75.4044C386.945 73.5103 385.771 67.3213 388.048 65.6229C389.364 65.7385 391.142 69.0909 392.094 71.0205C393.659 74.2217 396.309 78.4366 399.35 78.2232C401.262 78.0987 402.018 76.8894 401.795 75.8223C401.306 73.039 399.546 63.6221 398.061 61.15C396.442 58.4824 389.328 44.1391 380.667 42.165L380.792 -51.2039L371.704 -60.1851L354.684 -43.0763L355.787 43.0098C354.151 44.477 352.079 47.945 350.531 51.1729C348.202 56.0281 349.98 67.3569 349.286 72.7011C348.051 80.2952 346.313 87.799 344.084 95.163C343.257 97.7329 343.409 99.7692 344.529 100.498C345.649 101.228 347.917 100.498 348.895 97.5017C351.349 89.881 355.644 80.5085 355.644 80.5085C355.644 80.5085 356.231 80.6686 356.427 80.7397C356.623 80.8109 355.538 103.255 354.8 111.098C354.373 114.806 355.6 116.433 357.085 116.656C358.25 116.825 359.975 115.766 360.82 113.792C361.255 112.805 366.093 82.6693 366.235 82.6693H366.964C367.293 82.6693 369.49 107.63 369.908 116.22C370.005 119.955 371.41 120.986 374.14 120.977C375.919 120.977 377.19 119.11 377.573 116.531C377.671 115.891 377.573 81.7623 377.742 81.7179C377.911 81.6734 378.275 81.629 378.426 81.5845C379.707 88.6983 382.428 96.7814 385.291 109.702C386.1 113.348 388.297 114.086 389.675 113.677C391.054 113.268 392.254 111.4 392.076 108.546Z" fill="#EAA192"/>
<path d="M377.19 148.09C390.003 148.09 400.39 137.703 400.39 124.89C400.39 112.077 390.003 101.69 377.19 101.69C364.377 101.69 353.99 112.077 353.99 124.89C353.99 137.703 364.377 148.09 377.19 148.09Z" fill="#E8B423"/>
<path d="M373.127 150.117C385.94 150.117 396.327 139.73 396.327 126.917C396.327 114.104 385.94 103.717 373.127 103.717C360.314 103.717 349.927 114.104 349.927 126.917C349.927 139.73 360.314 150.117 373.127 150.117Z" fill="#F7C939"/>
<path d="M380.32 141.527C381.445 141.527 382.357 140.616 382.357 139.491C382.357 138.366 381.445 137.455 380.32 137.455C379.196 137.455 378.284 138.366 378.284 139.491C378.284 140.616 379.196 141.527 380.32 141.527Z" fill="#E8B423"/>
<path d="M386.163 115.926C387.287 115.926 388.199 115.015 388.199 113.89C388.199 112.765 387.287 111.854 386.163 111.854C385.038 111.854 384.126 112.765 384.126 113.89C384.126 115.015 385.038 115.926 386.163 115.926Z" fill="#E8B423"/>
<path d="M362.34 129.71C363.219 129.71 363.932 128.631 363.932 127.3C363.932 125.969 363.219 124.89 362.34 124.89C361.461 124.89 360.749 125.969 360.749 127.3C360.749 128.631 361.461 129.71 362.34 129.71Z" fill="#E8B423"/>
<path d="M373.616 116.786C374.768 116.12 375.346 114.964 374.907 114.203C374.467 113.441 373.177 113.364 372.024 114.029C370.871 114.694 370.293 115.851 370.733 116.612C371.173 117.374 372.463 117.451 373.616 116.786Z" fill="#E8B423"/>
<path d="M360.749 115.411C361.171 115.411 361.513 115.068 361.513 114.646C361.513 114.224 361.171 113.881 360.749 113.881C360.326 113.881 359.984 114.224 359.984 114.646C359.984 115.068 360.326 115.411 360.749 115.411Z" fill="#E8B423"/>
<path d="M384.126 128.064C384.549 128.064 384.891 127.722 384.891 127.3C384.891 126.877 384.549 126.535 384.126 126.535C383.704 126.535 383.362 126.877 383.362 127.3C383.362 127.722 383.704 128.064 384.126 128.064Z" fill="#E8B423"/>
<path d="M361.549 140.318C362.408 140.318 363.105 139.948 363.105 139.491C363.105 139.034 362.408 138.664 361.549 138.664C360.69 138.664 359.993 139.034 359.993 139.491C359.993 139.948 360.69 140.318 361.549 140.318Z" fill="#E8B423"/>
<path d="M377.021 117.723C377.021 117.314 380.267 92.8244 381.797 84.5723C382.152 82.6783 383.326 76.4893 381.05 74.7908C379.743 74.9064 377.955 78.2677 377.013 80.1973C375.439 83.3897 372.789 87.6046 369.748 87.4001C367.845 87.2667 367.08 86.0573 367.302 84.9992C367.791 82.207 369.552 72.799 371.037 70.3269C372.655 67.6592 379.769 53.3071 388.43 51.333L388.306 -42.0359L397.394 -51.0793L414.413 -33.9706L413.311 52.1155C414.947 53.5827 417.01 57.0507 418.557 60.2786C420.896 65.1338 419.109 76.4626 419.802 81.8157C421.038 89.4069 422.775 96.9077 425.004 104.269C425.831 106.847 425.689 108.875 424.56 109.604C423.43 110.333 421.172 109.604 420.193 106.598C417.739 98.9867 413.444 89.6143 413.444 89.6143C413.444 89.6143 412.857 89.7654 412.662 89.8454C412.466 89.9255 413.551 112.361 414.289 120.195C414.716 123.912 413.489 125.53 412.004 125.761C410.839 125.93 409.114 124.872 408.269 122.898C407.833 121.902 402.996 91.7751 402.854 91.7751H402.133C401.804 91.7751 399.599 116.736 399.181 125.326C399.083 129.06 397.678 130.101 394.948 130.092C393.17 130.092 391.898 128.225 391.516 125.646C391.418 124.997 391.516 90.8681 391.347 90.8325L390.662 90.6991C389.382 97.8129 386.661 105.896 383.797 118.808C382.988 122.453 380.792 123.2 379.414 122.791C378.035 122.382 376.844 120.568 377.021 117.723Z" fill="#F3AB99"/>
<path opacity="0.8" d="M433.87 37.3987H329.803V50.3547H433.87V37.3987Z" fill="#5CB9E7"/>
<path d="M433.87 48.4519H329.803V50.3549H433.87V48.4519Z" fill="#FEFEFE"/>
<path opacity="0.5" d="M421.136 170.045H342.528C340.602 170.045 338.696 169.657 336.924 168.903C335.152 168.149 333.55 167.046 332.214 165.659C330.878 164.271 329.836 162.629 329.15 160.829C328.464 159.03 328.148 157.11 328.221 155.186L329.528 123.174C329.528 123.174 354.595 132.199 383.371 124.063C412.146 115.927 434.208 124.908 434.208 124.908L435.444 155.204C435.514 157.127 435.196 159.044 434.509 160.842C433.822 162.639 432.779 164.279 431.444 165.665C430.108 167.05 428.507 168.152 426.736 168.905C424.965 169.657 423.06 170.045 421.136 170.045Z" fill="#FAFDFF"/>
<path d="M331.493 149.744C331.493 149.744 330.31 161.037 339.416 164.202C348.522 167.368 354.978 168.515 355.271 166.319C355.564 164.122 347.055 165.741 340.883 161.25C336.925 158.173 333.714 154.239 331.493 149.744Z" fill="#FAFDFF"/>
<path d="M430.446 132.422C428.099 132.422 427.903 155.248 430.446 155.622C432.989 155.995 432.794 132.422 430.446 132.422Z" fill="#FAFDFF"/>
</g>
<path d="M383.353 196.286C434.295 196.286 475.592 154.989 475.592 104.046C475.592 53.1037 434.295 11.8066 383.353 11.8066C332.41 11.8066 291.113 53.1037 291.113 104.046C291.113 154.989 332.41 196.286 383.353 196.286Z" stroke="#EBF6FF" stroke-width="7" stroke-miterlimit="10"/>
<path d="M410.839 39.6218H355.022C354.354 39.6218 353.813 40.1633 353.813 40.8312V45.0639C353.813 45.7318 354.354 46.2732 355.022 46.2732H410.839C411.507 46.2732 412.048 45.7318 412.048 45.0639V40.8312C412.048 40.1633 411.507 39.6218 410.839 39.6218Z" fill="#001C61"/>
<path opacity="0.75" d="M160.023 19.4008C164.292 15.0347 172.881 6.9516 188.479 9.7171C204.076 12.4826 212.221 -1.40714 223.141 1.01156C234.06 3.43026 232.922 13.1851 243.895 16.2974C254.868 19.4097 268.064 35.3002 259.368 40.4844C250.671 45.6686 241.672 61.8258 225.577 61.8258C209.482 61.8258 198.74 53.1114 190.515 57.4775C182.289 61.8436 159.507 64.7247 157.142 52.1421C154.777 39.5596 142.914 40.1465 139.109 31.3075C135.303 22.4686 155.755 23.7669 160.023 19.4008Z" fill="#EBF6FF"/>
<path opacity="0.75" d="M74.5863 70.398C71.4828 73.5725 65.2494 79.4148 53.9117 77.4318C42.5741 75.4488 36.6874 85.5149 28.7555 83.7542C20.8235 81.9935 21.6416 74.9153 13.6919 72.6566C5.74225 70.398 -3.86141 58.8558 2.4521 55.0944C8.76562 51.333 15.3014 39.6129 26.9681 39.6218C38.6348 39.6307 46.4422 45.9531 52.4178 42.7786C58.3934 39.604 74.933 37.5233 76.6581 46.6645C78.3833 55.8058 86.991 55.3701 89.7476 61.7814C92.5042 68.1927 77.6897 67.2323 74.5863 70.398Z" fill="#EBF6FF"/>
<path opacity="0.75" d="M74.1505 172.873C78.8545 168.062 88.3248 159.196 105.531 162.202C122.738 165.208 131.675 149.94 143.706 152.607C155.737 155.275 154.466 166.026 166.577 169.449C178.688 172.873 193.254 190.399 183.632 196.126C174.011 201.853 164.131 219.619 146.427 219.602C128.722 219.584 116.86 209.998 107.799 214.809C98.7377 219.619 73.6259 222.812 71.0116 208.922C68.3972 195.032 55.3167 195.699 51.1373 185.962C46.958 176.225 69.4376 177.683 74.1505 172.873Z" fill="#EBF6FF"/>
<path d="M137.054 116.407L116.469 113.419C113.801 113.036 111.711 110.253 111.711 107.194V59.4161C111.711 56.366 113.837 54.2052 116.469 54.5875L137.054 57.6376C139.722 58.02 141.821 60.8033 141.821 63.8622V111.614C141.794 114.619 139.687 116.78 137.054 116.407Z" fill="#67D3F4"/>
<path d="M114.646 54.7744L111.925 55.7526L136.023 117.269L139.224 116.113L114.646 54.7744Z" fill="#62C8EF"/>
<path d="M134.333 117.385L113.748 114.397C111.08 114.015 108.982 111.232 108.982 108.173V60.43C108.982 57.3799 111.116 55.2191 113.748 55.6015L134.333 58.5893C137.001 58.9716 139.091 61.7549 139.091 64.8139V112.565C139.126 115.598 136.966 117.758 134.333 117.385Z" fill="#5CB9E7"/>
<path d="M83.4607 130.252C92.353 128.98 109.595 116.469 111.116 102.97C112.956 86.5998 87.6401 80.2507 87.6401 80.2507L80.0728 124.49L83.4607 130.252Z" fill="#F3AB99"/>
<path d="M100 96.0167C100 96.0167 96.4435 104.998 100.756 102.606C105.069 100.214 105.985 97.3773 105.985 97.3773L100.721 93.6069L100 96.0167Z" fill="#E09A8C"/>
<path d="M122.729 77.0674C122.453 77.0674 120.061 77.0674 119.777 77.1385L113.188 77.9033L113.739 96.0168L122.729 94.683C126.286 94.683 129.203 90.7348 129.203 85.8707C129.203 81.0067 126.304 77.0674 122.729 77.0674Z" fill="#67D3F4"/>
<path d="M116.958 98.3197C121.511 97.5817 127.371 89.9699 121.698 81.3088C116.362 73.2346 90.3611 73.9727 77.823 75.68C61.3456 77.9386 46.4066 87.978 48.7186 92.3174C51.1195 96.808 66.5032 86.0928 88.8139 90.7613C111.125 95.4297 112.396 99.0489 116.958 98.3197Z" fill="#6CE3FF"/>
<path d="M115.242 98.8445C119.795 98.1064 124.134 91.3661 118.496 83.2474C112.654 74.8442 87.32 75.769 74.7908 77.4852C58.3045 79.735 43.3655 89.7744 45.6775 94.096C48.0784 98.5421 63.462 87.8714 85.7816 92.5399C108.101 97.2083 110.671 99.5736 115.242 98.8445Z" fill="#5CB9E7"/>
<path d="M102.428 73.2969C100.916 66.5121 95.9633 67.677 90.868 69.74C90.7139 69.8052 90.5627 69.8763 90.4145 69.9534H89.9254C85.1681 66.2097 80.4374 68.1571 75.6266 72.6033C71.0649 68.3617 65.8451 68.2283 61.9325 75.8579H61.8703C60.4209 75.3065 58.5001 76.4092 56.4905 78.1698C52.0443 82.0824 51.5997 90.619 51.5641 93.8114C51.3418 98.0263 50.6305 104.482 51.5197 113.028C52.3467 120.853 53.2981 123.014 54.9966 128.144C56.695 133.275 48.7513 147.4 48.7513 147.4L69.8486 173.862C69.8486 173.862 84.759 136.521 87.6668 131.959C89.1045 129.838 90.8868 127.971 92.9399 126.437C92.9399 126.437 91.5527 114.939 95.8833 106.252C101.628 94.7362 104.447 79.8683 102.428 73.2969Z" fill="#F3AB99"/>
<path d="M61.9325 75.8579H60.2875C60.2875 75.8579 58.9892 76.7471 58.429 81.7179C58.111 84.2282 57.9417 86.755 57.9221 89.2852C57.9221 89.2852 59.3805 80.7131 60.3319 78.6145C60.7367 77.6267 61.2753 76.6992 61.9325 75.8579Z" fill="#E09A8C"/>
<path d="M75.6266 72.6034L74.0616 71.3318C74.0616 71.3318 72.6566 71.2873 71.5984 77.0673C70.5402 82.8473 70.2468 88.5561 70.5314 87.9959C70.8159 87.4357 71.305 78.7835 73.8393 74.8798C74.3489 74.0571 74.9483 73.2936 75.6266 72.6034Z" fill="#E09A8C"/>
<path d="M90.2189 70.1935L88.5116 69.0464C88.5116 69.0464 86.573 70.4514 85.0347 75.8579C83.7186 80.4907 82.9005 86.1729 83.2562 86.5286C83.6119 86.8843 85.1058 77.7786 87.2933 73.8038C88.0141 72.4147 89.0094 71.1865 90.2189 70.1935Z" fill="#E09A8C"/>
<path d="M222.216 85.9151C222.572 84.6168 220.099 84.2167 220.864 82.7495C221.629 81.2822 226.2 85.0437 226.902 83.781C227.605 82.5183 221.513 80.8554 221.869 80.144C222.225 79.4326 225.088 80.7665 225.106 79.7172C225.124 78.6679 222.625 78.9791 222.376 78.6501C222.127 78.3211 222.136 77.6364 223.728 77.4852C225.319 77.3341 226.618 76.4982 226.395 75.7512C226.173 75.0043 224.448 74.5864 222.563 76.4804C221.78 77.2629 220.526 77.3696 220.962 76.6405C221.994 74.8087 221.496 73.2703 220.153 73.786C218.81 74.3018 218.036 76.5693 218.161 74.8887C218.187 74.5082 218.166 74.1259 218.099 73.7505C217.903 72.7457 217.343 72.2032 216.809 72.6389C215.92 73.3859 216.294 76.0891 215.724 76.1247C215.155 76.1603 215.369 73.457 214.533 72.5678C213.697 71.6786 212.114 72.9324 213.439 74.9954C214.426 76.5249 213.635 77.6631 212.55 76.4715C210.033 73.7238 208.006 74.5952 207.499 76.0625C206.521 78.908 211.323 79.6994 210.629 81.3978C210.149 82.5805 206.183 81.3978 205.641 82.9184C205 84.6969 208.673 84.6435 210.54 84.2345C212.408 83.8254 210.843 85.4705 210.069 86.5109C208.291 88.9652 208.744 89.6854 209.286 90.0145C209.829 90.3435 211.225 89.4987 211.954 87.0089C212.683 84.519 213.857 85.8173 213.893 86.2441C214.044 87.7558 213.67 89.6588 214.88 89.6588C216.089 89.6588 215.582 86.6532 216.187 86.1997C216.792 85.7462 216.898 87.5335 217.547 88.3961C218.01 89.0096 219.219 88.6273 218.623 87.1422C218.028 85.6572 219.13 84.7769 220.162 85.6928C221.193 86.6087 221.985 86.7866 222.216 85.9151Z" fill="#D4EEFF"/>
<path d="M225.844 76.0713C225.776 76.165 225.695 76.2487 225.604 76.3203C225.499 76.3903 225.389 76.4527 225.275 76.5071C224.003 77.1117 221.113 77.3963 221.967 78.9524C222.189 79.3615 223.487 79.3615 224.137 79.4593C224.368 79.4593 224.519 79.5393 224.51 79.6194C224.501 79.6994 224.332 79.7172 224.092 79.6905C223.399 79.6194 222.065 79.2903 221.647 79.6283C221.548 79.7051 221.466 79.8021 221.407 79.9128C221.371 79.9942 221.353 80.082 221.353 80.1707C221.353 80.2594 221.371 80.3471 221.407 80.4286C221.531 80.7842 221.94 81.0688 222.723 81.4601L223.71 81.9402L223.852 82.0025C224.795 82.3684 225.672 82.8849 226.449 83.532C225.689 83.4045 224.956 83.1521 224.279 82.785C223.994 82.6605 223.719 82.5271 223.443 82.4204C223.015 82.2232 222.568 82.0712 222.109 81.9669C221.884 81.8944 221.645 81.8719 221.41 81.9011C221.175 81.9303 220.949 82.0104 220.749 82.1359L220.642 82.2337C220.559 82.3191 220.487 82.4147 220.428 82.5182C220.268 82.7959 220.199 83.117 220.231 83.4361C220.263 83.7553 220.394 84.0563 220.606 84.2967C220.777 84.5041 220.965 84.6974 221.167 84.8747C221.629 85.3015 221.825 85.5149 221.753 85.7639C221.74 85.8326 221.709 85.8968 221.665 85.9507C221.665 85.9507 221.362 86.0218 220.553 85.3104L220.5 85.2571C220.275 85.064 220.011 84.9215 219.726 84.8391C219.541 84.8038 219.351 84.8038 219.166 84.8391C218.94 84.8645 218.725 84.9505 218.543 85.0881L218.446 85.1681C218.182 85.4658 218.018 85.8377 217.975 86.2326C217.932 86.6276 218.012 87.0261 218.205 87.3734C218.374 87.818 218.339 88.1026 218.205 88.1826C218.187 88.1939 218.167 88.2015 218.146 88.205C218.125 88.2084 218.104 88.2076 218.083 88.2026C218.062 88.1977 218.043 88.1886 218.026 88.176C218.009 88.1634 217.994 88.1475 217.983 88.1293C217.808 87.8557 217.679 87.5553 217.601 87.24C217.576 87.1436 217.547 87.0486 217.512 86.9555C217.325 86.3241 217.165 85.7817 216.685 85.6216C216.552 85.5837 216.412 85.5792 216.277 85.6087C216.142 85.6382 216.016 85.7007 215.911 85.7906C215.484 86.1107 215.422 86.751 215.342 87.5691C215.289 88.0848 215.2 88.9474 214.969 89.1252C214.969 89.1252 214.969 89.1252 214.906 89.1252C214.844 89.1252 214.684 89.1252 214.595 88.814C214.503 88.3425 214.465 87.8623 214.48 87.3823C214.48 86.9822 214.48 86.5731 214.435 86.173C214.405 85.9727 214.326 85.7832 214.204 85.6216C214.049 85.3905 213.834 85.206 213.581 85.0881L213.359 85.017C213.194 84.9829 213.023 84.9852 212.859 85.0235C212.695 85.0619 212.541 85.1355 212.408 85.2393C211.953 85.6684 211.643 86.2275 211.518 86.8399C211.303 87.806 210.79 88.6801 210.051 89.3386C209.923 89.4611 209.757 89.5364 209.58 89.552C209.521 89.525 209.469 89.4843 209.429 89.4332C209.389 89.3822 209.361 89.3223 209.349 89.2586C209.295 89.0007 209.349 88.3694 210.522 86.7954L210.887 86.3241C212.666 84.021 211.847 83.4075 210.46 83.7187C207.739 84.3145 205.258 83.6565 206.325 82.8295C206.995 82.5426 207.724 82.4206 208.451 82.4738C209.249 82.5445 210.05 82.3872 210.763 82.0203C210.891 81.9347 211.001 81.824 211.086 81.695C211.17 81.5659 211.228 81.421 211.256 81.2691C211.283 81.1171 211.279 80.9612 211.245 80.8107C211.211 80.6601 211.147 80.5181 211.056 80.393C211.003 80.2952 210.932 80.1974 210.86 80.0906C210.661 79.8415 210.441 79.6095 210.202 79.3971C210.042 79.2548 209.856 79.1125 209.651 78.9613C206.21 76.4004 209.046 73.3058 212.212 76.756C213.101 77.752 213.99 77.5652 214.248 76.756C214.307 76.5693 214.328 76.3729 214.311 76.178C214.295 75.8729 214.229 75.5725 214.115 75.2888C214.017 75.0549 213.901 74.8289 213.768 74.613C212.879 73.1636 213.928 72.5411 214.239 72.8346C214.581 73.433 214.779 74.1028 214.817 74.7909C215.164 77.094 216.729 77.3429 216.694 74.7909C216.683 74.4547 216.704 74.1183 216.756 73.786C216.784 73.588 216.844 73.3959 216.934 73.2169C217.218 72.6834 217.681 73.0569 217.779 73.786C217.783 73.8719 217.783 73.958 217.779 74.0439C217.778 74.272 217.748 74.4992 217.69 74.7197C217.606 74.9097 217.591 75.1231 217.648 75.3228C217.704 75.5226 217.829 75.6962 218.001 75.8135C218.454 76.0625 218.89 75.4222 219.353 74.9242C219.815 74.4263 220.58 73.7949 220.9 74.1684C221.104 74.3907 221.175 75.1643 220.553 76.267C220.429 76.4228 220.37 76.6199 220.386 76.8181C220.403 77.0163 220.494 77.2008 220.642 77.334C221.86 78.2233 223.754 75.1021 225.684 75.4578C225.977 75.6356 225.986 75.849 225.844 76.0713Z" fill="#B9DFFC"/>
<path d="M209.9 76.7028C209.93 76.7431 209.953 76.789 209.965 76.8378C209.978 76.8867 209.981 76.9375 209.974 76.9875C209.967 77.0374 209.95 77.0855 209.924 77.129C209.899 77.1724 209.865 77.2104 209.824 77.2408C209.784 77.2712 209.738 77.2933 209.689 77.3059C209.641 77.3186 209.59 77.3215 209.54 77.3144C209.49 77.3074 209.442 77.2906 209.398 77.265C209.355 77.2394 209.317 77.2055 209.286 77.1652C209.255 77.1259 209.232 77.0807 209.219 77.0322C209.205 76.9838 209.202 76.9331 209.209 76.8833C209.215 76.8335 209.232 76.7855 209.257 76.7423C209.283 76.6991 209.317 76.6614 209.358 76.6317C209.398 76.6002 209.444 76.577 209.493 76.5635C209.542 76.55 209.593 76.5464 209.644 76.5531C209.694 76.5597 209.743 76.5763 209.787 76.6021C209.831 76.6278 209.869 76.662 209.9 76.7028Z" fill="#EBF6FF"/>
<path d="M220.58 80.8465C220.611 80.8871 220.633 80.9335 220.646 80.983C220.659 81.0325 220.662 81.084 220.654 81.1346C220.647 81.1852 220.629 81.2337 220.603 81.2774C220.576 81.3211 220.541 81.359 220.5 81.3889C220.416 81.449 220.312 81.4735 220.21 81.4568C220.108 81.4401 220.017 81.3837 219.957 81.3C219.897 81.2163 219.873 81.1121 219.889 81.0104C219.906 80.9086 219.962 80.8177 220.046 80.7576C220.087 80.7284 220.133 80.7075 220.182 80.6961C220.231 80.6848 220.282 80.6832 220.331 80.6915C220.381 80.6997 220.428 80.7177 220.471 80.7443C220.514 80.7709 220.55 80.8056 220.58 80.8465Z" fill="#EBF6FF"/>
<path d="M213.635 83.283C213.664 83.3226 213.685 83.3676 213.697 83.4155C213.709 83.4634 213.712 83.5132 213.704 83.562C213.697 83.6108 213.68 83.6576 213.654 83.6998C213.628 83.7419 213.595 83.7786 213.555 83.8076C213.516 83.8387 213.472 83.8616 213.424 83.8749C213.376 83.8882 213.326 83.8916 213.277 83.8849C213.228 83.8783 213.181 83.8617 213.138 83.8361C213.096 83.8106 213.059 83.7767 213.03 83.7365C213.001 83.6969 212.979 83.6518 212.968 83.6039C212.956 83.556 212.953 83.5062 212.961 83.4575C212.968 83.4087 212.985 83.3619 213.011 83.3197C213.037 83.2775 213.07 83.2409 213.11 83.2118C213.19 83.1537 213.289 83.1286 213.387 83.1419C213.485 83.1552 213.573 83.2057 213.635 83.283Z" fill="#EBF6FF"/>
<path d="M212.55 78.9791C212.604 79.0429 212.644 79.1169 212.668 79.1966C212.692 79.2764 212.7 79.3603 212.69 79.4431C212.681 79.5259 212.655 79.606 212.614 79.6784C212.572 79.7508 212.517 79.814 212.45 79.8642C212.384 79.9144 212.308 79.9506 212.227 79.9704C212.146 79.9902 212.062 79.9934 211.979 79.9796C211.897 79.9658 211.819 79.9355 211.749 79.8903C211.678 79.8452 211.618 79.7863 211.572 79.7172C211.518 79.6534 211.478 79.5794 211.454 79.4996C211.43 79.4199 211.422 79.336 211.431 79.2532C211.441 79.1703 211.467 79.0903 211.508 79.0179C211.549 78.9455 211.605 78.8822 211.671 78.832C211.738 78.7818 211.814 78.7457 211.895 78.7259C211.976 78.706 212.06 78.7029 212.142 78.7167C212.225 78.7304 212.303 78.7608 212.373 78.8059C212.443 78.851 212.503 78.91 212.55 78.9791Z" fill="#EBF6FF"/>
<path d="M220.758 78.4544C220.812 78.5193 220.852 78.5949 220.875 78.6762C220.899 78.7576 220.905 78.8429 220.893 78.9267C220.881 79.0105 220.852 79.091 220.807 79.1628C220.762 79.2346 220.703 79.2962 220.633 79.3437C220.57 79.4023 220.495 79.4469 220.414 79.4747C220.332 79.5025 220.246 79.5129 220.16 79.505C220.074 79.4972 219.991 79.4714 219.916 79.4293C219.841 79.3872 219.775 79.3298 219.724 79.2607C219.672 79.1917 219.636 79.1125 219.617 79.0285C219.598 78.9444 219.597 78.8574 219.614 78.7729C219.631 78.6885 219.666 78.6086 219.716 78.5384C219.766 78.4682 219.83 78.4093 219.904 78.3655C219.966 78.315 220.037 78.2773 220.113 78.2544C220.19 78.2315 220.27 78.224 220.349 78.2323C220.429 78.2405 220.505 78.2644 220.576 78.3025C220.646 78.3407 220.707 78.3923 220.758 78.4544Z" fill="#EBF6FF"/>
<path d="M218.188 77.8943C218.243 77.9672 218.275 78.0548 218.28 78.146C218.286 78.2372 218.264 78.328 218.218 78.4068C218.172 78.4857 218.103 78.5491 218.021 78.589C217.939 78.629 217.847 78.6437 217.756 78.6313C217.665 78.6189 217.581 78.5799 217.512 78.5193C217.444 78.4588 217.395 78.3793 217.372 78.2909C217.348 78.2026 217.352 78.1093 217.381 78.0229C217.411 77.9364 217.466 77.8608 217.538 77.8054C217.586 77.7673 217.642 77.7393 217.701 77.7232C217.76 77.707 217.821 77.7029 217.882 77.7112C217.943 77.7195 218.001 77.74 218.054 77.7715C218.106 77.803 218.152 77.8447 218.188 77.8943Z" fill="#EBF6FF"/>
<path d="M215.271 85.5416C215.301 85.5807 215.323 85.6253 215.335 85.6728C215.348 85.7204 215.351 85.77 215.344 85.8187C215.338 85.8675 215.322 85.9144 215.297 85.9569C215.272 85.9994 215.239 86.0366 215.2 86.0663C215.119 86.1093 215.026 86.1221 214.937 86.1023C214.848 86.0826 214.769 86.0315 214.714 85.9585C214.659 85.8854 214.632 85.7951 214.638 85.704C214.644 85.6128 214.682 85.5269 214.746 85.4616C214.786 85.4322 214.831 85.4109 214.879 85.399C214.927 85.3871 214.977 85.3848 215.025 85.3922C215.074 85.3997 215.121 85.4167 215.163 85.4423C215.205 85.468 215.242 85.5017 215.271 85.5416Z" fill="#EBF6FF"/>
<path d="M209.109 83.034C209.165 83.1134 209.189 83.2118 209.174 83.3082C209.159 83.4046 209.107 83.4913 209.029 83.5498C208.991 83.5792 208.948 83.6007 208.902 83.6131C208.855 83.6255 208.807 83.6285 208.76 83.6218C208.713 83.6152 208.667 83.5991 208.626 83.5745C208.585 83.5499 208.55 83.5173 208.522 83.4786C208.493 83.4401 208.471 83.3962 208.459 83.3494C208.447 83.3026 208.444 83.2539 208.45 83.206C208.457 83.1581 208.473 83.112 208.497 83.0703C208.522 83.0286 208.554 82.9921 208.593 82.9629C208.631 82.9337 208.675 82.9124 208.722 82.9001C208.769 82.8879 208.818 82.885 208.865 82.8916C208.913 82.8982 208.959 82.9142 209.001 82.9386C209.043 82.9631 209.079 82.9955 209.109 83.034Z" fill="#EBF6FF"/>
<path d="M219.201 76.836C219.252 76.9063 219.274 76.9935 219.263 77.0797C219.251 77.1658 219.207 77.2441 219.139 77.2984C219.105 77.3247 219.065 77.3439 219.024 77.355C218.982 77.3661 218.938 77.3688 218.895 77.363C218.852 77.3572 218.811 77.3431 218.773 77.3213C218.736 77.2995 218.703 77.2706 218.677 77.2361C218.65 77.2017 218.631 77.1624 218.62 77.1205C218.609 77.0786 218.606 77.035 218.612 76.992C218.618 76.9491 218.632 76.9077 218.654 76.8703C218.676 76.8328 218.705 76.8 218.739 76.7737C218.809 76.7227 218.897 76.7007 218.983 76.7123C219.069 76.7238 219.147 76.7681 219.201 76.836Z" fill="#EBF6FF"/>
<path d="M215.031 80.9088C215.059 80.9366 215.08 80.9702 215.094 81.0071C215.108 81.044 215.114 81.0835 215.111 81.1228C215.108 81.1621 215.097 81.2004 215.078 81.2351C215.06 81.2698 215.034 81.3 215.002 81.3238C214.971 81.3475 214.934 81.3643 214.896 81.3728C214.858 81.3814 214.818 81.3816 214.779 81.3735C214.74 81.3653 214.704 81.349 214.672 81.3256C214.641 81.3022 214.614 81.2722 214.595 81.2378C214.567 81.2099 214.546 81.1764 214.532 81.1395C214.518 81.1025 214.512 81.0631 214.515 81.0237C214.518 80.9844 214.529 80.9461 214.548 80.9114C214.566 80.8768 214.592 80.8465 214.624 80.8228C214.655 80.799 214.691 80.7823 214.73 80.7737C214.768 80.7651 214.808 80.7649 214.847 80.773C214.886 80.7812 214.922 80.7975 214.954 80.8209C214.985 80.8444 215.012 80.8743 215.031 80.9088Z" fill="#EBF6FF"/>
<path d="M216.85 83.4189C216.944 83.3481 216.963 83.2144 216.893 83.1201C216.822 83.0259 216.688 83.0068 216.594 83.0776C216.5 83.1484 216.481 83.2822 216.551 83.3765C216.622 83.4707 216.756 83.4897 216.85 83.4189Z" fill="#EBF6FF"/>
<path d="M215.182 77.1028C215.212 77.1327 215.232 77.1707 215.24 77.2121C215.248 77.2535 215.244 77.2963 215.228 77.3353C215.212 77.3742 215.184 77.4075 215.149 77.4309C215.114 77.4544 215.073 77.4669 215.031 77.4669C214.989 77.4669 214.947 77.4544 214.912 77.4309C214.877 77.4075 214.85 77.3742 214.834 77.3353C214.818 77.2963 214.813 77.2535 214.821 77.2121C214.83 77.1707 214.85 77.1327 214.88 77.1028C214.9 77.0829 214.923 77.0671 214.949 77.0564C214.975 77.0456 215.003 77.04 215.031 77.04C215.059 77.04 215.087 77.0456 215.113 77.0564C215.139 77.0671 215.162 77.0829 215.182 77.1028Z" fill="#EBF6FF"/>
<path d="M214.062 73.7503C214.077 73.766 214.09 73.7847 214.099 73.8053C214.107 73.8259 214.112 73.848 214.112 73.8704C214.112 73.8927 214.107 73.9148 214.099 73.9354C214.09 73.956 214.077 73.9747 214.062 73.9904C214.03 74.0198 213.989 74.0361 213.946 74.0361C213.903 74.0361 213.862 74.0198 213.83 73.9904C213.815 73.9747 213.802 73.956 213.793 73.9354C213.785 73.9148 213.78 73.8927 213.78 73.8704C213.78 73.848 213.785 73.8259 213.793 73.8053C213.802 73.7847 213.815 73.766 213.83 73.7503C213.862 73.7209 213.903 73.7046 213.946 73.7046C213.989 73.7046 214.03 73.7209 214.062 73.7503Z" fill="#EBF6FF"/>
<path d="M217.263 74.2574C217.294 74.3011 217.308 74.3555 217.299 74.4088C217.291 74.4621 217.262 74.51 217.218 74.542C217.179 74.5795 217.126 74.6004 217.072 74.6004C217.017 74.6004 216.965 74.5795 216.925 74.542C216.889 74.5014 216.87 74.4492 216.87 74.3952C216.87 74.3412 216.889 74.2891 216.925 74.2485C216.944 74.2215 216.97 74.1996 217 74.1848C217.03 74.17 217.063 74.1628 217.096 74.1636C217.13 74.1645 217.162 74.1735 217.191 74.1899C217.22 74.2062 217.245 74.2294 217.263 74.2574Z" fill="#EBF6FF"/>
<path d="M219.53 83.7899C219.566 83.8305 219.586 83.8827 219.586 83.9367C219.586 83.9907 219.566 84.0428 219.53 84.0834C219.511 84.103 219.488 84.1186 219.463 84.1293C219.438 84.1399 219.411 84.1454 219.384 84.1454C219.356 84.1454 219.329 84.1399 219.304 84.1293C219.279 84.1186 219.256 84.103 219.237 84.0834C219.205 84.0397 219.192 83.9852 219.201 83.932C219.209 83.8787 219.238 83.8308 219.281 83.7988C219.317 83.7715 219.36 83.7559 219.404 83.7543C219.449 83.7527 219.493 83.7652 219.53 83.7899Z" fill="#EBF6FF"/>
<path d="M224.217 76.4538C224.248 76.4975 224.261 76.552 224.253 76.6053C224.245 76.6585 224.216 76.7064 224.172 76.7384C224.133 76.7759 224.08 76.7968 224.025 76.7968C223.971 76.7968 223.918 76.7759 223.879 76.7384C223.849 76.6926 223.837 76.6373 223.845 76.5831C223.853 76.529 223.881 76.4798 223.923 76.4449C223.943 76.4259 223.966 76.4109 223.992 76.401C224.017 76.3911 224.044 76.3865 224.072 76.3873C224.099 76.3881 224.126 76.3944 224.151 76.4059C224.176 76.4173 224.198 76.4336 224.217 76.4538Z" fill="#EBF6FF"/>
<path d="M68.3083 49.19C66.0675 50.9685 67.0278 59.3005 76.8093 61.328C86.5908 63.3554 90.6368 56.9441 89.2585 53.7695C87.8802 50.595 81.1221 54.9789 76.8093 51.9911C72.4966 49.0033 70.5492 47.4471 68.3083 49.19Z" fill="#D4EEFF"/>
<path d="M69.8555 50.6128C68.9663 51.3864 70.1668 52.7203 70.9493 52.6136C71.1126 52.5805 71.2655 52.5086 71.3953 52.4041C71.525 52.2996 71.6278 52.1654 71.6949 52.0129C71.762 51.8604 71.7915 51.694 71.7809 51.5277C71.7703 51.3615 71.7199 51.2002 71.634 51.0574C71.2961 50.6128 69.8555 50.6128 69.8555 50.6128Z" fill="#B9DFFC"/>
<path d="M82.7849 58.6781C82.7138 59.8607 84.5011 59.9408 84.9724 59.3005C85.0643 59.162 85.1213 59.0033 85.1386 58.838C85.156 58.6727 85.1331 58.5057 85.072 58.3511C85.0108 58.1965 84.9133 58.059 84.7876 57.9503C84.6619 57.8416 84.5117 57.7648 84.35 57.7266C83.7986 57.6377 82.7849 58.6781 82.7849 58.6781Z" fill="#B9DFFC"/>
<path d="M75.9912 58.7137C74.8352 59.3272 76.4003 60.3765 77.4318 60.2965C78.4633 60.2165 78.7656 59.4073 78.321 59.0605C77.5719 58.8045 76.7824 58.687 75.9912 58.7137Z" fill="#B9DFFC"/>
<g style="mix-blend-mode:screen" opacity="0.3">
<path d="M81.7979 54.8633C81.2199 55.1745 82.0024 55.6992 82.5181 55.6547C83.0339 55.6103 83.1851 55.2101 82.9628 55.0411C82.589 54.9097 82.1939 54.8494 81.7979 54.8633Z" fill="#FFBE6E"/>
</g>
<g style="mix-blend-mode:screen" opacity="0.3">
<path d="M71.1894 56.3661C71.4939 56.3661 71.7407 56.1192 71.7407 55.8147C71.7407 55.5103 71.4939 55.2634 71.1894 55.2634C70.8849 55.2634 70.6381 55.5103 70.6381 55.8147C70.6381 56.1192 70.8849 56.3661 71.1894 56.3661Z" fill="#FFBE6E"/>
</g>
<path d="M86.3063 55.8148C86.6107 55.8148 86.8576 55.568 86.8576 55.2635C86.8576 54.959 86.6107 54.7122 86.3063 54.7122C86.0018 54.7122 85.7549 54.959 85.7549 55.2635C85.7549 55.568 86.0018 55.8148 86.3063 55.8148Z" fill="#EBF6FF"/>
<path d="M76.3914 56.1082C76.8579 56.1082 77.2362 55.73 77.2362 55.2635C77.2362 54.7969 76.8579 54.4187 76.3914 54.4187C75.9248 54.4187 75.5466 54.7969 75.5466 55.2635C75.5466 55.73 75.9248 56.1082 76.3914 56.1082Z" fill="#B9DFFC"/>
<path d="M154.074 41.1869C155.097 41.0268 154.59 39.1684 155.853 39.2306C157.115 39.2928 155.959 43.6767 157.062 43.7834C158.165 43.8902 157.391 39.0794 158.005 39.1061C158.618 39.1328 158.592 41.5604 159.339 41.2314C160.085 40.9024 159.063 39.2662 159.214 38.9816C159.365 38.6971 159.845 38.5014 160.459 39.5596C161.073 40.6178 162.068 41.2758 162.531 40.9024C162.993 40.5289 162.727 39.1239 160.806 38.4481C160.005 38.1546 159.499 37.3188 160.174 37.381C161.784 37.5144 162.7 36.6785 161.953 35.9049C161.206 35.1313 159.33 35.3091 160.548 34.8645C160.822 34.761 161.082 34.6236 161.322 34.4554C161.971 34.0019 162.211 33.4328 161.695 33.2016C160.877 32.8015 159.107 33.9397 158.903 33.5484C158.698 33.1572 160.681 32.4458 161.019 31.5832C161.357 30.7207 159.988 30.0093 158.965 31.5832C158.209 32.7659 157.142 32.5792 157.64 31.4054C158.761 28.7377 157.507 27.6262 156.324 27.7418C154.021 27.9641 154.99 31.5743 153.567 31.6366C152.589 31.6366 152.189 28.5243 150.9 28.631C149.45 28.7466 150.651 31.2987 151.54 32.4725C152.429 33.6463 150.766 33.086 149.762 32.8726C147.467 32.3835 147.094 32.9527 147.094 33.4417C147.094 33.9308 148.072 34.6333 150.055 34.331C152.038 34.0286 151.496 35.2824 151.211 35.4514C150.197 36.0383 148.748 36.3406 149.13 37.2298C149.513 38.1191 151.46 36.7674 151.967 37.052C152.474 37.3365 151.264 37.9412 150.864 38.6971C150.58 39.2217 151.238 39.942 152.091 39.0528C152.945 38.1635 153.87 38.6526 153.594 39.6663C153.318 40.68 153.354 41.3025 154.074 41.1869Z" fill="#D4EEFF"/>
<path d="M162.122 40.5911C162.035 40.5741 161.951 40.5441 161.873 40.5022C161.787 40.455 161.706 40.3983 161.633 40.3332C160.806 39.6308 159.659 37.7189 158.867 38.7949C158.654 39.0794 159.072 39.9864 159.205 40.4755C159.259 40.6445 159.267 40.769 159.205 40.7867C159.143 40.8045 159.09 40.6978 159.027 40.5111C158.858 40.0131 158.663 38.9727 158.298 38.786C158.21 38.7406 158.113 38.7162 158.014 38.7148C157.946 38.7111 157.879 38.7218 157.816 38.7464C157.753 38.7709 157.696 38.8087 157.649 38.8571C157.436 39.0528 157.373 39.4351 157.347 40.102C157.347 40.3421 157.347 40.6267 157.347 40.9468V41.0713C157.39 41.8474 157.306 42.6255 157.098 43.3744C156.948 42.7941 156.891 42.194 156.929 41.5959C156.929 41.347 156.929 41.1158 156.929 40.8846C156.928 40.5233 156.892 40.163 156.822 39.8086C156.8 39.6294 156.739 39.4572 156.644 39.3037C156.548 39.1503 156.421 39.0191 156.271 38.9194H156.173C156.087 38.8889 155.997 38.8709 155.906 38.866C155.662 38.8396 155.415 38.8918 155.203 39.0149C154.99 39.138 154.822 39.3257 154.723 39.5507C154.63 39.7366 154.553 39.9299 154.492 40.1287C154.341 40.5911 154.252 40.7956 154.039 40.8312C153.986 40.844 153.931 40.844 153.879 40.8312C153.879 40.8312 153.736 40.6445 153.976 39.8531V39.7997C154.039 39.5831 154.054 39.3557 154.021 39.1328C153.999 38.9888 153.951 38.8501 153.879 38.7237C153.789 38.5706 153.66 38.4446 153.505 38.3592L153.416 38.3147C153.124 38.228 152.813 38.2327 152.524 38.3281C152.234 38.4234 151.981 38.6049 151.798 38.8482C151.54 39.115 151.327 39.1861 151.238 39.1328C151.226 39.1212 151.216 39.1074 151.21 39.0921C151.204 39.0768 151.2 39.0604 151.2 39.0439C151.2 39.0273 151.204 39.0109 151.21 38.9956C151.216 38.9804 151.226 38.9665 151.238 38.9549C151.371 38.7576 151.53 38.5783 151.709 38.4214L151.887 38.2702C152.26 37.9412 152.589 37.6478 152.545 37.2654C152.534 37.1598 152.495 37.0591 152.433 36.9732C152.37 36.8874 152.286 36.8195 152.189 36.7763C151.825 36.5807 151.353 36.7763 150.757 36.9453C150.384 37.0698 149.753 37.2921 149.557 37.1854C149.554 37.1708 149.554 37.1555 149.557 37.1409C149.557 37.0609 149.486 36.9897 149.673 36.8297C149.973 36.6112 150.298 36.4291 150.642 36.2873C150.918 36.1628 151.202 36.0205 151.469 35.8693C151.601 35.7874 151.711 35.6745 151.789 35.5403C151.896 35.3531 151.954 35.1422 151.958 34.9267C151.963 34.8676 151.963 34.8081 151.958 34.7489C151.927 34.6229 151.869 34.5048 151.79 34.4022C151.71 34.2997 151.61 34.2148 151.496 34.1531C151.048 33.9687 150.556 33.9223 150.082 34.0197C149.338 34.1754 148.563 34.0946 147.867 33.7885C147.744 33.7339 147.639 33.6443 147.565 33.5306C147.565 33.4802 147.578 33.4305 147.601 33.3857C147.624 33.3409 147.658 33.3022 147.699 33.2728C147.867 33.1483 148.357 32.9971 149.797 33.2728L150.242 33.3706C152.429 33.9041 152.589 33.1216 151.931 32.2502C150.642 30.534 150.322 28.5865 151.22 29.0756C151.62 29.4595 151.924 29.9315 152.109 30.4539C152.314 31.0344 152.677 31.5458 153.158 31.93C153.26 31.992 153.373 32.0329 153.491 32.0504C153.609 32.0678 153.729 32.0614 153.844 32.0316C153.959 32.0017 154.068 31.949 154.162 31.8766C154.257 31.8041 154.336 31.7135 154.394 31.6099C154.448 31.5366 154.495 31.4593 154.537 31.3787C154.655 31.1622 154.748 30.9323 154.812 30.694C154.869 30.5256 154.914 30.3532 154.946 30.1783C155.648 26.9504 158.716 27.9463 157.302 31.2631C156.902 32.2235 157.302 32.7748 157.951 32.6948C158.098 32.6744 158.24 32.6261 158.369 32.5525C158.58 32.4453 158.77 32.3007 158.929 32.1257C159.066 31.9876 159.189 31.8356 159.294 31.6722C160.023 30.5873 160.797 31.1297 160.672 31.441C160.548 31.7522 159.934 32.179 159.49 32.4636C157.996 33.4417 158.316 34.6155 160.059 33.7974C160.291 33.6854 160.532 33.5932 160.779 33.5218C160.929 33.4754 161.085 33.4543 161.241 33.4595C161.704 33.4595 161.579 33.9397 161.108 34.242L160.93 34.3398C160.77 34.4085 160.603 34.4592 160.432 34.491C160.121 34.5444 159.792 34.7311 159.765 35.0601C159.739 35.3891 160.317 35.5403 160.824 35.7181C161.33 35.896 162.006 36.2161 161.855 36.5629C161.757 36.7674 161.241 37.0698 160.272 36.9897C159.73 36.9364 159.57 37.2832 159.552 37.3899C159.321 38.5281 162.104 38.8482 162.469 40.3155C162.469 40.5467 162.317 40.6267 162.122 40.5911Z" fill="#B9DFFC"/>
<path d="M156.6 29.636C156.581 29.67 156.556 29.6999 156.526 29.7242C156.496 29.7484 156.461 29.7664 156.424 29.7771C156.387 29.7879 156.348 29.7911 156.309 29.7868C156.271 29.7824 156.233 29.7704 156.2 29.7516C156.165 29.7338 156.134 29.7092 156.109 29.6794C156.084 29.6495 156.065 29.6149 156.053 29.5777C156.042 29.5404 156.038 29.5012 156.041 29.4624C156.045 29.4235 156.057 29.3858 156.075 29.3515C156.114 29.2822 156.179 29.2313 156.256 29.2096C156.332 29.188 156.414 29.1974 156.484 29.2359C156.518 29.2544 156.548 29.2796 156.572 29.3098C156.596 29.34 156.614 29.3747 156.625 29.4119C156.636 29.4491 156.639 29.488 156.635 29.5265C156.63 29.565 156.619 29.6022 156.6 29.636Z" fill="#EBF6FF"/>
<path d="M157.098 38.4303C157.07 38.4809 157.027 38.5221 156.975 38.5486C156.924 38.5751 156.866 38.5857 156.808 38.5792C156.751 38.5726 156.696 38.5492 156.652 38.5118C156.608 38.4744 156.575 38.4247 156.559 38.369C156.543 38.3134 156.544 38.2542 156.562 38.1989C156.579 38.1437 156.613 38.0949 156.658 38.0586C156.703 38.0224 156.758 38.0003 156.816 37.9953C156.873 37.9902 156.931 38.0023 156.982 38.0301C157.016 38.0487 157.046 38.0738 157.07 38.104C157.094 38.1343 157.112 38.169 157.123 38.2062C157.134 38.2433 157.137 38.2823 157.133 38.3208C157.128 38.3592 157.117 38.3965 157.098 38.4303Z" fill="#EBF6FF"/>
<path d="M153.185 34.3399C153.167 34.3738 153.141 34.4038 153.111 34.428C153.081 34.4522 153.046 34.4702 153.009 34.481C152.972 34.4917 152.933 34.495 152.894 34.4906C152.856 34.4862 152.819 34.4743 152.785 34.4555C152.719 34.418 152.67 34.3562 152.648 34.2832C152.626 34.2102 152.634 34.1317 152.669 34.0642C152.709 34.0025 152.771 33.9581 152.842 33.9397C152.913 33.9214 152.989 33.9304 153.054 33.9651C153.119 33.9997 153.168 34.0575 153.193 34.1269C153.217 34.1963 153.214 34.2723 153.185 34.3399Z" fill="#EBF6FF"/>
<path d="M155.853 32.2148C155.808 32.2964 155.74 32.363 155.657 32.406C155.574 32.449 155.481 32.4665 155.388 32.4564C155.296 32.4462 155.208 32.4088 155.137 32.3489C155.065 32.289 155.013 32.2093 154.987 32.1199C154.961 32.0304 154.962 31.9352 154.99 31.8463C155.018 31.7574 155.072 31.6788 155.144 31.6205C155.217 31.5621 155.305 31.5266 155.398 31.5184C155.491 31.5102 155.584 31.5298 155.666 31.5745C155.774 31.6363 155.854 31.7375 155.889 31.8569C155.923 31.9764 155.911 32.1046 155.853 32.2148Z" fill="#EBF6FF"/>
<path d="M158.832 37.7901C158.802 37.8444 158.762 37.8923 158.713 37.9311C158.665 37.9699 158.61 37.9988 158.55 38.0162C158.491 38.0335 158.428 38.039 158.367 38.0322C158.305 38.0254 158.246 38.0066 158.191 37.9768C158.131 37.9486 158.077 37.9078 158.033 37.8571C157.989 37.8064 157.957 37.747 157.938 37.6829C157.919 37.6187 157.914 37.5512 157.923 37.4849C157.932 37.4186 157.956 37.3551 157.991 37.2984C158.027 37.2418 158.074 37.1934 158.13 37.1565C158.186 37.1195 158.249 37.0949 158.315 37.0842C158.381 37.0735 158.448 37.077 158.513 37.0944C158.578 37.1119 158.638 37.1429 158.689 37.1854C158.782 37.2518 158.848 37.3497 158.874 37.461C158.9 37.5722 158.885 37.6892 158.832 37.7901Z" fill="#EBF6FF"/>
<path d="M158.405 35.8162C158.383 35.8581 158.352 35.8951 158.315 35.925C158.278 35.9549 158.236 35.9772 158.19 35.9904C158.145 36.0037 158.097 36.0077 158.05 36.0022C158.003 35.9967 157.957 35.9818 157.916 35.9584C157.852 35.9243 157.799 35.8719 157.765 35.8079C157.731 35.7439 157.717 35.6712 157.725 35.5991C157.732 35.527 157.761 35.4588 157.808 35.4031C157.854 35.3475 157.916 35.307 157.986 35.2867C158.055 35.2665 158.129 35.2674 158.198 35.2895C158.267 35.3115 158.328 35.3536 158.373 35.4105C158.418 35.4673 158.445 35.5362 158.451 35.6085C158.457 35.6808 158.44 35.7531 158.405 35.8162Z" fill="#EBF6FF"/>
<path d="M152.127 36.2073C152.09 36.2745 152.029 36.3245 151.955 36.3461C151.882 36.3678 151.803 36.3595 151.736 36.3229C151.668 36.2864 151.618 36.2246 151.597 36.1512C151.575 36.0779 151.583 35.9989 151.62 35.9317C151.658 35.8654 151.719 35.8163 151.792 35.7947C151.865 35.7732 151.944 35.7808 152.011 35.8161C152.045 35.8338 152.075 35.858 152.099 35.8874C152.123 35.9169 152.141 35.9508 152.152 35.9873C152.162 36.0238 152.166 36.062 152.162 36.0998C152.157 36.1376 152.146 36.1742 152.127 36.2073Z" fill="#EBF6FF"/>
<path d="M151.913 31.0943C151.878 31.1599 151.818 31.2088 151.746 31.2305C151.674 31.2521 151.597 31.2447 151.531 31.2099C151.467 31.1725 151.42 31.1123 151.398 31.0414C151.377 30.9705 151.383 30.8941 151.416 30.8275C151.43 30.79 151.452 30.756 151.481 30.7277C151.51 30.6995 151.544 30.6776 151.582 30.6637C151.62 30.6497 151.66 30.6439 151.7 30.6467C151.74 30.6494 151.78 30.6607 151.815 30.6797C151.851 30.6987 151.882 30.7251 151.906 30.757C151.931 30.7889 151.948 30.8257 151.958 30.8649C151.967 30.9041 151.968 30.9448 151.96 30.9843C151.953 31.0239 151.937 31.0614 151.913 31.0943Z" fill="#EBF6FF"/>
<path d="M159.463 36.1894C159.448 36.2189 159.427 36.245 159.402 36.2661C159.377 36.2872 159.347 36.3028 159.315 36.312C159.284 36.3212 159.25 36.3237 159.218 36.3195C159.185 36.3152 159.153 36.3042 159.125 36.2873C159.096 36.2722 159.07 36.2515 159.048 36.2264C159.027 36.2012 159.011 36.172 159.001 36.1406C158.991 36.1092 158.988 36.0761 158.991 36.0432C158.994 36.0104 159.003 35.9785 159.018 35.9494C159.052 35.8911 159.107 35.8477 159.171 35.828C159.235 35.8082 159.305 35.8134 159.365 35.8426C159.395 35.8584 159.421 35.88 159.442 35.9062C159.464 35.9325 159.479 35.9627 159.488 35.9951C159.498 36.0275 159.5 36.0615 159.496 36.0949C159.491 36.1283 159.48 36.1604 159.463 36.1894Z" fill="#EBF6FF"/>
<path d="M155.293 34.5621C155.266 34.6112 155.222 34.6479 155.168 34.6645C155.115 34.6811 155.058 34.6763 155.008 34.6511C154.967 34.6207 154.939 34.5769 154.927 34.5273C154.916 34.4777 154.923 34.4258 154.946 34.3807C154.97 34.3357 155.009 34.3006 155.056 34.2817C155.103 34.2628 155.155 34.2613 155.204 34.2776C155.253 34.304 155.289 34.3486 155.306 34.4018C155.323 34.4549 155.318 34.5125 155.293 34.5621Z" fill="#EBF6FF"/>
<path d="M154.327 36.5812C154.372 36.4993 154.342 36.3966 154.26 36.3519C154.178 36.3073 154.075 36.3374 154.031 36.4193C153.986 36.5012 154.016 36.6039 154.098 36.6486C154.18 36.6932 154.283 36.6631 154.327 36.5812Z" fill="#EBF6FF"/>
<path d="M158.005 33.4596C157.994 33.4789 157.979 33.4959 157.961 33.5095C157.944 33.523 157.923 33.533 157.902 33.5388C157.881 33.5446 157.858 33.5461 157.836 33.5432C157.814 33.5403 157.793 33.533 157.773 33.5219C157.754 33.5117 157.738 33.4978 157.724 33.481C157.711 33.4641 157.701 33.4448 157.695 33.424C157.689 33.4032 157.688 33.3815 157.69 33.3601C157.693 33.3388 157.7 33.3182 157.711 33.2996C157.732 33.2614 157.767 33.2327 157.808 33.2195C157.85 33.2062 157.894 33.2094 157.934 33.2285C157.972 33.2509 158.001 33.2872 158.014 33.3301C158.028 33.373 158.024 33.4192 158.005 33.4596Z" fill="#EBF6FF"/>
<path d="M159.988 31.6101C159.971 31.6395 159.944 31.6612 159.911 31.6704C159.879 31.6796 159.844 31.6755 159.814 31.659C159.785 31.6425 159.763 31.6149 159.754 31.5824C159.745 31.5499 159.749 31.515 159.765 31.4856C159.782 31.4553 159.81 31.4328 159.843 31.4229C159.877 31.4129 159.912 31.4163 159.943 31.4322C159.972 31.4506 159.993 31.4792 160.001 31.5123C160.009 31.5454 160.004 31.5803 159.988 31.6101Z" fill="#EBF6FF"/>
<path d="M160.655 34.0021C160.647 34.0245 160.635 34.0451 160.619 34.0623C160.603 34.0795 160.583 34.0929 160.561 34.1016C160.539 34.1104 160.516 34.1141 160.492 34.1127C160.469 34.1112 160.446 34.1046 160.425 34.0933C160.405 34.0819 160.387 34.0662 160.373 34.0471C160.359 34.028 160.349 34.0061 160.345 33.983C160.341 33.9598 160.341 33.936 160.347 33.9131C160.353 33.8903 160.364 33.869 160.379 33.8509C160.399 33.8149 160.433 33.7883 160.473 33.7767C160.513 33.7651 160.556 33.7693 160.592 33.7886C160.611 33.7979 160.628 33.811 160.641 33.827C160.654 33.843 160.664 33.8617 160.67 33.8817C160.676 33.9018 160.678 33.9228 160.675 33.9435C160.672 33.9642 160.665 33.9842 160.655 34.0021Z" fill="#EBF6FF"/>
<path d="M154.706 38.6261C154.685 38.6643 154.65 38.693 154.609 38.7062C154.567 38.7195 154.522 38.7163 154.483 38.6972C154.448 38.6736 154.423 38.6383 154.411 38.5976C154.4 38.5568 154.403 38.5133 154.421 38.4749C154.441 38.4372 154.475 38.409 154.516 38.3965C154.557 38.384 154.601 38.3882 154.639 38.4082C154.677 38.4283 154.705 38.4625 154.717 38.5034C154.73 38.5442 154.726 38.5884 154.706 38.6261Z" fill="#EBF6FF"/>
<path d="M161.357 39.5686C161.338 39.6061 161.305 39.6346 161.265 39.648C161.225 39.6613 161.181 39.6583 161.144 39.6397C161.125 39.6295 161.108 39.6156 161.094 39.5988C161.081 39.582 161.071 39.5626 161.065 39.5418C161.059 39.5211 161.058 39.4993 161.061 39.478C161.063 39.4566 161.07 39.436 161.081 39.4174C161.105 39.3887 161.138 39.3692 161.175 39.3622C161.211 39.3552 161.249 39.3612 161.282 39.3791C161.314 39.397 161.34 39.4257 161.353 39.4603C161.367 39.4949 161.369 39.5332 161.357 39.5686Z" fill="#EBF6FF"/>
<path d="M130.741 18.2004C130.492 18.2004 130.287 18.5472 130.172 19.0897C129.772 19.1341 129.372 19.1608 128.971 19.1786C128.891 18.9207 128.767 18.7429 128.625 18.7429C128.482 18.7429 128.349 18.9296 128.26 19.1964H127.478C127.391 17.7208 127.007 16.278 126.348 14.9548C126.562 14.8125 126.784 14.6702 127.015 14.5368C127.22 14.7325 127.415 14.8303 127.549 14.7502C127.682 14.6702 127.691 14.4746 127.629 14.2078C127.984 14.0211 128.349 13.8432 128.722 13.6832C129.069 14.0655 129.425 14.2612 129.612 14.1367C129.798 14.0122 129.816 13.1852 129.363 12.4116C128.909 11.6379 128.304 11.1489 127.993 11.3267C127.682 11.5046 127.771 11.8603 127.922 12.3493C127.602 12.5894 127.264 12.8206 126.926 13.034C126.731 12.8473 126.535 12.7584 126.41 12.8295C126.286 12.9007 126.259 13.123 126.33 13.4075L125.637 13.7721C124.817 12.5432 123.762 11.4885 122.533 10.6687C122.658 10.4375 122.773 10.2063 122.907 9.98398C123.183 10.0462 123.405 10.0284 123.476 9.89506C123.547 9.76168 123.476 9.58383 123.28 9.37931C123.494 9.0414 123.716 8.71239 123.956 8.38337C124.454 8.54344 124.845 8.53454 124.988 8.32113C125.13 8.10771 124.676 7.4319 123.903 6.94283C123.129 6.45375 122.347 6.38261 122.169 6.69384C121.991 7.00507 122.24 7.26295 122.631 7.58307C122.462 7.94765 122.293 8.31224 122.107 8.66793C121.84 8.60568 121.626 8.66793 121.555 8.75685C121.484 8.84577 121.555 9.08586 121.769 9.29039C121.644 9.51269 121.502 9.735 121.36 9.95731C120.037 9.29665 118.594 8.90953 117.118 8.8191C117.118 8.56122 117.118 8.29445 117.118 8.03658C117.394 7.95655 117.572 7.82316 117.572 7.68088C117.572 7.53861 117.403 7.41412 117.145 7.33409C117.145 6.93393 117.189 6.52489 117.234 6.12474C117.74 6.01803 118.123 5.80461 118.123 5.55563C118.123 5.30665 117.394 4.90649 116.504 4.90649C115.615 4.90649 114.877 5.19994 114.877 5.55563C114.877 5.91132 115.224 6.01803 115.766 6.12474C115.766 6.52489 115.846 6.93393 115.855 7.33409C115.597 7.41412 115.428 7.53861 115.428 7.68088C115.428 7.82316 115.606 7.95655 115.882 8.03658C115.882 8.29445 115.882 8.56122 115.882 8.8191C114.38 8.90166 112.91 9.28573 111.56 9.94841C111.418 9.72611 111.285 9.5038 111.151 9.28149C111.347 9.07697 111.436 8.87245 111.365 8.74796C111.294 8.62347 111.08 8.59679 110.813 8.65903C110.627 8.30334 110.458 7.93876 110.298 7.57418C110.68 7.21849 110.876 6.86279 110.751 6.68495C110.627 6.5071 109.8 6.48932 109.017 6.93393C108.235 7.37855 107.754 8.00101 107.932 8.31224C108.11 8.62347 108.466 8.53454 108.964 8.37448C109.204 8.7035 109.426 9.03251 109.64 9.37042C109.462 9.57494 109.373 9.77057 109.444 9.88617C109.515 10.0018 109.737 10.0373 110.013 9.97509C110.146 10.1974 110.262 10.4286 110.387 10.6598C109.155 11.4805 108.1 12.5386 107.283 13.7721L106.59 13.3986C106.661 13.1141 106.59 12.9007 106.51 12.8206C106.429 12.7406 106.189 12.8206 105.994 13.0251C105.656 12.8117 105.318 12.5805 104.998 12.3404C105.149 11.8514 105.14 11.4512 104.927 11.3178C104.713 11.1844 104.037 11.6202 103.557 12.4027C103.077 13.1852 102.997 13.9499 103.308 14.1278C103.62 14.3056 103.877 14.0566 104.198 13.6743C104.571 13.8343 104.936 14.0122 105.291 14.1989C105.229 14.4657 105.291 14.6702 105.371 14.7414C105.451 14.8125 105.7 14.7414 105.914 14.5279L106.581 14.9459C105.915 16.2669 105.527 17.7106 105.442 19.1875H104.66C104.571 18.9207 104.447 18.734 104.304 18.734C104.162 18.734 104.029 18.9118 103.949 19.1697C103.548 19.1697 103.148 19.1697 102.748 19.0808C102.632 18.565 102.428 18.1916 102.179 18.1916C101.93 18.1916 101.53 18.9207 101.53 19.8188C101.53 20.717 101.814 21.4461 102.179 21.4461C102.544 21.4461 102.632 21.0904 102.748 20.5569C103.148 20.5124 103.548 20.4858 103.949 20.468C104.029 20.7259 104.153 20.9037 104.304 20.9037C104.455 20.9037 104.571 20.717 104.66 20.4502H105.442C105.524 21.9429 105.915 23.4023 106.59 24.7363L105.923 25.1542C105.709 24.9586 105.514 24.8608 105.38 24.9319C105.247 25.003 105.238 25.2165 105.3 25.4832C104.944 25.67 104.58 25.8478 104.206 26.0079C103.86 25.6255 103.504 25.4299 103.317 25.5544C103.13 25.6789 103.113 26.5058 103.566 27.2795C104.02 28.0531 104.624 28.5422 104.936 28.3643C105.247 28.1865 105.158 27.8308 105.007 27.3417C105.327 27.1016 105.665 26.8704 106.003 26.657C106.198 26.8437 106.394 26.9238 106.518 26.8526C106.643 26.7815 106.67 26.5592 106.598 26.2835L107.292 25.91C108.109 27.1436 109.164 28.2016 110.395 29.0223C110.28 29.2535 110.155 29.4847 110.022 29.7071C109.746 29.6448 109.524 29.6626 109.453 29.7871C109.382 29.9116 109.453 30.1072 109.657 30.3117C109.435 30.6496 109.213 30.9786 108.973 31.3077C108.475 31.1476 108.083 31.1565 107.941 31.3699C107.799 31.5833 108.252 32.2591 109.026 32.7482C109.8 33.2373 110.582 33.3084 110.76 32.9972C110.938 32.686 110.689 32.4281 110.307 32.108C110.467 31.7434 110.636 31.3788 110.822 31.0231C111.089 31.0854 111.302 31.0231 111.374 30.9342C111.445 30.8453 111.374 30.6052 111.16 30.4006C111.285 30.1783 111.427 29.956 111.569 29.7337C112.894 30.3903 114.336 30.7772 115.811 30.8719C115.811 31.1298 115.811 31.3877 115.811 31.6545C115.535 31.7345 115.357 31.859 115.357 32.0102C115.357 32.1613 115.526 32.2769 115.784 32.357C115.784 32.7571 115.74 33.1573 115.695 33.5663C115.188 33.673 114.806 33.8864 114.806 34.1354C114.806 34.3844 115.535 34.7845 116.433 34.7845C117.331 34.7845 118.052 34.4911 118.052 34.1354C118.052 33.7797 117.705 33.673 117.162 33.5663C117.162 33.1661 117.091 32.7571 117.074 32.357C117.331 32.2769 117.5 32.1524 117.5 32.0102C117.5 31.8679 117.323 31.7345 117.047 31.6545C117.047 31.3966 117.047 31.1298 117.047 30.8719C118.522 30.7772 119.964 30.3903 121.288 29.7337C121.431 29.956 121.573 30.1694 121.698 30.4006C121.502 30.6052 121.413 30.8097 121.484 30.9342C121.555 31.0587 121.769 31.0854 122.035 31.0231C122.222 31.3788 122.391 31.7434 122.56 32.108C122.169 32.4637 121.973 32.8193 122.098 32.9972C122.222 33.175 123.058 33.1928 123.832 32.7482C124.605 32.3036 125.094 31.6811 124.917 31.3699C124.739 31.0587 124.383 31.1476 123.885 31.3077C123.645 30.9786 123.423 30.6496 123.209 30.3117C123.387 30.1072 123.476 29.9116 123.405 29.7871C123.334 29.6626 123.111 29.6448 122.836 29.7071C122.705 29.4877 122.581 29.2565 122.462 29.0135C123.693 28.1961 124.748 27.141 125.566 25.91L126.259 26.2835C126.188 26.5592 126.259 26.7815 126.339 26.8526C126.419 26.9238 126.659 26.8526 126.855 26.657C127.193 26.8704 127.531 27.1016 127.851 27.3417C127.7 27.8308 127.709 28.2309 127.922 28.3643C128.136 28.4977 128.811 28.062 129.292 27.2795C129.772 26.4969 129.861 25.7322 129.541 25.5544C129.22 25.3765 128.971 25.6255 128.651 26.0079C128.278 25.8478 127.913 25.67 127.558 25.4832C127.62 25.2165 127.602 25.003 127.478 24.9319C127.353 24.8608 127.149 24.9319 126.944 25.1542C126.713 25.0208 126.49 24.8785 126.268 24.7363C126.926 23.4122 127.313 21.9702 127.406 20.4947H128.189C128.278 20.7614 128.402 20.9482 128.553 20.9482C128.705 20.9482 128.82 20.7703 128.9 20.5124C129.3 20.5124 129.701 20.5569 130.101 20.6014C130.216 21.1082 130.421 21.4906 130.67 21.4906C130.919 21.4906 131.319 20.7614 131.319 19.8633C131.319 18.9652 131.123 18.2004 130.741 18.2004Z" fill="#B9DFFC"/>
<path d="M109.088 16.3419C109.088 16.5777 108.995 16.8039 108.828 16.9706C108.661 17.1374 108.435 17.2311 108.199 17.2311C107.963 17.2311 107.737 17.1374 107.57 16.9706C107.403 16.8039 107.31 16.5777 107.31 16.3419C107.31 16.106 107.403 15.8798 107.57 15.7131C107.737 15.5463 107.963 15.4526 108.199 15.4526C108.435 15.4526 108.661 15.5463 108.828 15.7131C108.995 15.8798 109.088 16.106 109.088 16.3419Z" fill="#EBF6FF"/>
<path d="M114.886 27.7419C114.886 27.946 114.826 28.1454 114.712 28.315C114.599 28.4847 114.438 28.6169 114.249 28.6949C114.061 28.773 113.853 28.7934 113.653 28.7536C113.453 28.7138 113.269 28.6156 113.125 28.4713C112.981 28.3271 112.883 28.1433 112.843 27.9432C112.803 27.7431 112.823 27.5357 112.902 27.3472C112.98 27.1587 113.112 26.9976 113.281 26.8843C113.451 26.7709 113.651 26.7104 113.855 26.7104C114.128 26.7104 114.39 26.8191 114.584 27.0126C114.777 27.206 114.886 27.4684 114.886 27.7419Z" fill="#EBF6FF"/>
<path d="M112.254 13.1764C112.254 13.3826 112.193 13.5841 112.078 13.7553C111.963 13.9266 111.8 14.06 111.61 14.1384C111.419 14.2169 111.209 14.237 111.007 14.1961C110.805 14.1553 110.62 14.0553 110.475 13.9089C110.33 13.7625 110.231 13.5763 110.192 13.3739C110.153 13.1715 110.175 12.962 110.255 12.7721C110.335 12.5821 110.47 12.4203 110.642 12.307C110.814 12.1938 111.016 12.1343 111.222 12.136C111.359 12.136 111.493 12.163 111.619 12.2154C111.745 12.2678 111.859 12.3446 111.955 12.4413C112.051 12.538 112.127 12.6528 112.178 12.7789C112.229 12.9051 112.255 13.0402 112.254 13.1764Z" fill="#EBF6FF"/>
<path d="M111.765 13.1764C111.765 13.3202 111.708 13.4582 111.606 13.5599C111.504 13.6617 111.366 13.7188 111.222 13.7188C111.145 13.7287 111.066 13.722 110.991 13.699C110.916 13.6761 110.847 13.6375 110.788 13.5857C110.729 13.534 110.682 13.4703 110.65 13.399C110.618 13.3276 110.601 13.2502 110.601 13.1719C110.601 13.0936 110.618 13.0162 110.65 12.9449C110.682 12.8735 110.729 12.8099 110.788 12.7581C110.847 12.7064 110.916 12.6677 110.991 12.6448C111.066 12.6219 111.145 12.6151 111.222 12.6251C111.294 12.625 111.366 12.6394 111.432 12.6672C111.498 12.695 111.559 12.7357 111.609 12.7871C111.66 12.8384 111.699 12.8992 111.726 12.9661C111.753 13.0329 111.766 13.1044 111.765 13.1764Z" fill="#EBF6FF"/>
<path d="M115.918 13.8878C116.733 13.8878 117.394 13.2269 117.394 12.4117C117.394 11.5964 116.733 10.9355 115.918 10.9355C115.102 10.9355 114.441 11.5964 114.441 12.4117C114.441 13.2269 115.102 13.8878 115.918 13.8878Z" fill="#EBF6FF"/>
<path d="M122.231 13.1763C122.224 13.3653 122.16 13.5479 122.048 13.7006C121.936 13.8533 121.782 13.9692 121.604 14.0335C121.426 14.0978 121.233 14.1077 121.049 14.0617C120.866 14.0158 120.7 13.9162 120.573 13.7756C120.447 13.635 120.365 13.4599 120.338 13.2725C120.312 13.0852 120.342 12.8942 120.424 12.7239C120.507 12.5537 120.638 12.4118 120.801 12.3166C120.965 12.2214 121.153 12.177 121.342 12.1892C121.59 12.2053 121.821 12.3175 121.987 12.5019C122.153 12.6863 122.241 12.9283 122.231 13.1763Z" fill="#EBF6FF"/>
<path d="M121.769 13.1763C121.769 13.2677 121.742 13.3571 121.691 13.4332C121.64 13.5092 121.568 13.5685 121.483 13.6035C121.399 13.6385 121.306 13.6476 121.216 13.6298C121.126 13.6119 121.044 13.5679 120.979 13.5032C120.915 13.4386 120.871 13.3562 120.853 13.2665C120.835 13.1768 120.844 13.0838 120.879 12.9993C120.914 12.9148 120.973 12.8426 121.049 12.7918C121.125 12.741 121.215 12.7139 121.306 12.7139C121.429 12.7139 121.547 12.7626 121.633 12.8493C121.72 12.936 121.769 13.0536 121.769 13.1763Z" fill="#EBF6FF"/>
<path d="M122.08 17.8181C122.08 17.9526 122.026 18.0815 121.931 18.1765C121.836 18.2716 121.707 18.325 121.573 18.325C121.506 18.3262 121.44 18.3139 121.378 18.2889C121.316 18.2638 121.259 18.2265 121.212 18.1792C121.165 18.1319 121.127 18.0756 121.102 18.0135C121.077 17.9515 121.065 17.885 121.066 17.8181C121.066 17.6837 121.12 17.5548 121.215 17.4597C121.31 17.3647 121.439 17.3113 121.573 17.3113C121.707 17.3136 121.834 17.3677 121.929 17.4623C122.023 17.5568 122.078 17.6844 122.08 17.8181Z" fill="#EBF6FF"/>
<path d="M115.117 17.3113C115.119 17.6374 115.024 17.9567 114.844 18.2285C114.664 18.5004 114.407 18.7127 114.106 18.8383C113.805 18.9639 113.473 18.9972 113.153 18.934C112.833 18.8708 112.54 18.714 112.309 18.4834C112.078 18.2528 111.921 17.9588 111.858 17.6389C111.795 17.3189 111.828 16.9874 111.954 16.6865C112.08 16.3855 112.292 16.1287 112.564 15.9486C112.836 15.7685 113.155 15.6733 113.481 15.6751C113.915 15.6751 114.331 15.8475 114.638 16.1543C114.945 16.4611 115.117 16.8773 115.117 17.3113Z" fill="#EBF6FF"/>
<path d="M124.899 22.8066C124.899 23.2639 124.763 23.7109 124.509 24.0911C124.255 24.4713 123.894 24.7677 123.471 24.9426C123.049 25.1176 122.584 25.1634 122.136 25.0742C121.687 24.985 121.275 24.7648 120.952 24.4415C120.629 24.1181 120.408 23.7062 120.319 23.2577C120.23 22.8092 120.276 22.3443 120.451 21.9219C120.626 21.4994 120.922 21.1383 121.302 20.8843C121.682 20.6302 122.129 20.4946 122.587 20.4946C122.891 20.4935 123.192 20.5525 123.473 20.6682C123.754 20.784 124.009 20.9543 124.224 21.1692C124.439 21.3841 124.609 21.6395 124.725 21.9205C124.841 22.2015 124.9 22.5027 124.899 22.8066Z" fill="#EBF6FF"/>
<path d="M118.39 24.3629C118.274 24.6741 117.696 24.7541 117.091 24.5318C116.487 24.3095 116.104 23.8738 116.202 23.5537C116.3 23.2336 116.896 23.1713 117.491 23.3936C118.087 23.6159 118.505 24.0516 118.39 24.3629Z" fill="#EBF6FF"/>
<path d="M118.487 28.8801C119.224 28.8801 119.821 28.2829 119.821 27.5462C119.821 26.8096 119.224 26.2124 118.487 26.2124C117.751 26.2124 117.154 26.8096 117.154 27.5462C117.154 28.2829 117.751 28.8801 118.487 28.8801Z" fill="#EBF6FF"/>
<path d="M117.785 18.0048C117.785 18.1614 117.738 18.3144 117.652 18.4445C117.565 18.5747 117.441 18.6761 117.296 18.736C117.152 18.7959 116.993 18.8116 116.839 18.781C116.686 18.7505 116.545 18.6751 116.434 18.5645C116.323 18.4538 116.248 18.3128 116.217 18.1592C116.187 18.0057 116.202 17.8466 116.262 17.702C116.322 17.5574 116.424 17.4338 116.554 17.3468C116.684 17.2598 116.837 17.2134 116.993 17.2134C117.098 17.2122 117.201 17.2319 117.298 17.2712C117.394 17.3106 117.482 17.3688 117.556 17.4426C117.629 17.5163 117.688 17.604 117.727 17.7006C117.766 17.7971 117.786 17.9006 117.785 18.0048Z" fill="#EBF6FF"/>
<path d="M108.101 19.4899C106.981 19.8722 106.705 22.6555 108.733 25.0564C110.413 27.0394 112.619 26.7726 112.423 25.8212C112.227 24.8697 111.045 24.4606 110.644 22.8778C110.164 21.1794 109.889 18.8852 108.101 19.4899Z" fill="#EBF6FF"/>
<path d="M190.426 42.025L155.581 46.2355C153.475 46.49 151.974 48.4038 152.228 50.51L158.79 104.811C159.044 106.918 160.958 108.419 163.064 108.164L197.909 103.954C200.015 103.699 201.516 101.786 201.262 99.6793L194.7 45.3779C194.446 43.2716 192.532 41.7705 190.426 42.025Z" fill="#67D3F4"/>
<path d="M168.288 44.9428L160.343 45.9028L167.788 107.514L175.733 106.554L168.288 44.9428Z" fill="#001C61"/>
<path d="M162.984 109.515C162.984 109.515 154.67 114.806 156.173 119.474C157.676 124.143 159.383 124.49 159.383 124.49C159.383 124.49 157.107 127.753 159.623 132.662C159.623 132.662 158.254 140.398 162.86 141.927C167.466 143.457 168.471 115.002 162.984 109.515Z" fill="#E09A8C"/>
<path d="M209.098 158.068L203.72 151.896C203.72 151.896 210.362 122.374 200.27 103.371L176.198 106.279C176.198 106.279 173.184 82.8118 166.034 82.545C158.885 82.2783 157.925 93.8738 163.367 115.589C163.367 115.589 158.485 127.291 162.94 143.991C168.177 163.616 172.303 159.605 179.702 167.191C187.536 175.194 189.777 177.523 189.777 177.523L209.098 158.068Z" fill="#F3AB99"/>
<path d="M176.198 106.314L177.719 118.914C177.719 118.914 191.315 117.216 189.057 104.767L176.198 106.314Z" fill="#E09A8C"/>
<path d="M132.235 194.001C183.222 194.001 224.554 152.668 224.554 101.681C224.554 50.6942 183.222 9.36133 132.235 9.36133C81.2482 9.36133 39.9153 50.6942 39.9153 101.681C39.9153 152.668 81.2482 194.001 132.235 194.001Z" stroke="#EBF6FF" stroke-width="7" stroke-miterlimit="10"/>
<path d="M85.9061 195.583C84.2903 195.58 82.7048 195.145 81.3139 194.322C79.923 193.5 78.7773 192.321 77.9954 190.907C77.2136 189.493 76.8241 187.895 76.8672 186.28C76.9104 184.665 77.3847 183.091 78.241 181.72L121.013 113.25C121.825 111.949 122.954 110.876 124.295 110.132C125.636 109.388 127.144 108.997 128.678 108.997C130.212 108.997 131.72 109.388 133.061 110.132C134.402 110.876 135.531 111.949 136.343 113.25L179.142 181.72C179.998 183.091 180.472 184.665 180.515 186.28C180.559 187.895 180.169 189.493 179.387 190.907C178.605 192.321 177.46 193.5 176.069 194.322C174.678 195.145 173.092 195.58 171.476 195.583H85.9061Z" fill="#FFF615"/>
<path d="M128.678 111.623C129.759 111.617 130.823 111.89 131.769 112.415C132.714 112.94 133.508 113.699 134.076 114.619L176.847 183.09C177.451 184.056 177.786 185.167 177.817 186.307C177.847 187.446 177.572 188.573 177.021 189.571C176.47 190.568 175.661 191.4 174.68 191.981C173.699 192.561 172.581 192.869 171.441 192.871H85.9061C84.767 192.867 83.6497 192.558 82.6698 191.977C81.69 191.396 80.8831 190.564 80.3328 189.567C79.7824 188.569 79.5085 187.443 79.5394 186.304C79.5703 185.166 79.9049 184.056 80.5085 183.09L123.271 114.619C123.841 113.699 124.637 112.94 125.584 112.415C126.53 111.89 127.596 111.618 128.678 111.623ZM128.678 106.287C126.69 106.28 124.734 106.782 122.995 107.746C121.256 108.709 119.793 110.102 118.745 111.792L75.9912 180.351C74.8797 182.124 74.2633 184.163 74.206 186.255C74.1487 188.347 74.6527 190.416 75.6655 192.247C76.6783 194.079 78.1631 195.606 79.9655 196.669C81.7679 197.733 83.8222 198.294 85.915 198.296H171.45C173.541 198.292 175.594 197.728 177.395 196.664C179.195 195.6 180.679 194.073 181.691 192.243C182.703 190.412 183.208 188.345 183.152 186.254C183.096 184.163 182.482 182.125 181.374 180.351L138.602 111.88C137.556 110.191 136.095 108.798 134.357 107.835C132.62 106.871 130.665 106.369 128.678 106.376V106.287Z" fill="#F13454"/>
<path d="M148.668 153.034V151.362C148.665 150.086 148.173 148.859 147.293 147.934C146.413 147.01 145.212 146.457 143.937 146.391C142.872 143.94 141.232 141.782 139.156 140.098C137.081 138.414 134.631 137.254 132.013 136.717V134.707H125.343V136.726C122.742 137.29 120.31 138.459 118.244 140.138C116.179 141.818 114.538 143.96 113.454 146.391C112.172 146.449 110.962 146.997 110.073 147.922C109.184 148.847 108.685 150.079 108.679 151.362V153.034H105.336V159.694H109.115C109.584 160.928 110.41 161.995 111.486 162.76C112.563 163.524 113.842 163.952 115.162 163.989L116.727 167.76C116.793 167.905 116.9 168.029 117.035 168.115C117.17 168.202 117.327 168.248 117.487 168.248C117.647 168.248 117.804 168.202 117.939 168.115C118.074 168.029 118.181 167.905 118.247 167.76C119.214 165.836 120.695 164.218 122.526 163.085C124.356 161.951 126.465 161.347 128.618 161.339C130.771 161.33 132.884 161.918 134.723 163.038C136.562 164.157 138.056 165.764 139.037 167.68C139.102 167.826 139.208 167.95 139.343 168.037C139.477 168.125 139.633 168.171 139.793 168.171C139.953 168.171 140.11 168.125 140.244 168.037C140.378 167.95 140.484 167.826 140.549 167.68L142.079 164.007C143.412 163.983 144.707 163.561 145.798 162.794C146.888 162.026 147.724 160.95 148.196 159.703H151.985V153.043L148.668 153.034ZM127.006 156.004C127.007 156.36 126.893 156.707 126.682 156.993C126.47 157.28 126.173 157.491 125.832 157.596L116.327 160.521C116.007 160.619 115.674 160.67 115.34 160.672C114.457 160.67 113.611 160.318 112.987 159.693C112.364 159.068 112.014 158.221 112.014 157.338V151.362C112.016 150.92 112.193 150.498 112.507 150.186C112.82 149.874 113.244 149.699 113.686 149.699H125.343C125.784 149.699 126.207 149.875 126.519 150.186C126.831 150.498 127.006 150.921 127.006 151.362V156.004ZM145.351 153.034V157.338C145.352 157.775 145.267 158.207 145.101 158.611C144.935 159.015 144.691 159.382 144.383 159.692C144.075 160.002 143.709 160.248 143.306 160.416C142.903 160.584 142.471 160.671 142.034 160.672C141.697 160.67 141.361 160.619 141.038 160.521L131.532 157.596C131.193 157.49 130.896 157.278 130.685 156.992C130.474 156.706 130.359 156.36 130.359 156.004V151.362C130.361 150.92 130.538 150.498 130.851 150.186C131.165 149.874 131.588 149.699 132.03 149.699H143.688C143.906 149.699 144.123 149.742 144.324 149.826C144.526 149.91 144.71 150.032 144.864 150.186C145.018 150.341 145.141 150.524 145.224 150.726C145.308 150.928 145.351 151.144 145.351 151.362V153.034Z" fill="#E3373F"/>
<path d="M115.669 172.099C115.627 171.998 115.565 171.907 115.488 171.83C115.411 171.753 115.319 171.692 115.219 171.651C115.118 171.61 115.01 171.589 114.901 171.589C114.792 171.59 114.684 171.612 114.584 171.654L109.96 173.566C109.859 173.608 109.768 173.669 109.691 173.746C109.614 173.824 109.553 173.915 109.512 174.016C109.471 174.117 109.45 174.225 109.45 174.334C109.451 174.443 109.473 174.551 109.515 174.651L113.961 185.428C114.003 185.529 114.064 185.62 114.142 185.697C114.219 185.774 114.31 185.835 114.411 185.876C114.512 185.917 114.62 185.938 114.729 185.938C114.838 185.937 114.946 185.915 115.046 185.873L119.661 183.961C119.763 183.92 119.855 183.86 119.933 183.783C120.01 183.706 120.072 183.614 120.114 183.513C120.156 183.412 120.178 183.304 120.178 183.195C120.178 183.086 120.157 182.977 120.115 182.876L115.669 172.099Z" fill="#E3373F"/>
<path d="M147.387 173.566L142.772 171.654C142.568 171.568 142.338 171.567 142.133 171.65C141.928 171.734 141.765 171.895 141.678 172.099L137.232 182.876C137.19 182.977 137.168 183.084 137.167 183.193C137.167 183.302 137.188 183.41 137.229 183.511C137.27 183.612 137.331 183.704 137.408 183.781C137.485 183.858 137.576 183.919 137.677 183.961L142.292 185.873C142.497 185.945 142.722 185.94 142.923 185.858C143.125 185.776 143.289 185.623 143.386 185.428L147.832 174.651C147.874 174.551 147.896 174.443 147.897 174.334C147.897 174.225 147.876 174.117 147.835 174.016C147.794 173.915 147.733 173.824 147.656 173.746C147.579 173.669 147.488 173.608 147.387 173.566Z" fill="#E3373F"/>
<path d="M128.678 163.029C126.701 163.029 124.769 163.615 123.125 164.713C121.481 165.812 120.2 167.372 119.444 169.199C118.687 171.025 118.489 173.035 118.875 174.974C119.261 176.912 120.213 178.693 121.61 180.091C123.008 181.489 124.789 182.441 126.728 182.827C128.667 183.212 130.677 183.014 132.503 182.258C134.329 181.501 135.89 180.22 136.988 178.577C138.087 176.933 138.673 175.001 138.673 173.024C138.673 170.373 137.62 167.831 135.745 165.956C133.871 164.082 131.329 163.029 128.678 163.029ZM123.681 174.687C123.352 174.687 123.03 174.589 122.757 174.406C122.483 174.224 122.27 173.964 122.144 173.66C122.018 173.356 121.985 173.022 122.05 172.699C122.114 172.377 122.272 172.08 122.505 171.848C122.737 171.615 123.034 171.457 123.356 171.393C123.679 171.329 124.013 171.362 124.317 171.487C124.621 171.613 124.88 171.826 125.063 172.1C125.246 172.373 125.343 172.695 125.343 173.024C125.343 173.465 125.168 173.888 124.856 174.2C124.544 174.511 124.122 174.687 123.681 174.687ZM128.678 179.693C128.347 179.695 128.023 179.598 127.747 179.416C127.471 179.233 127.255 178.972 127.127 178.667C126.999 178.362 126.965 178.025 127.028 177.701C127.092 177.376 127.25 177.077 127.484 176.842C127.717 176.608 128.015 176.447 128.34 176.382C128.664 176.317 129.001 176.35 129.307 176.476C129.613 176.602 129.874 176.816 130.058 177.092C130.243 177.367 130.341 177.69 130.341 178.021C130.341 178.463 130.166 178.887 129.854 179.2C129.543 179.513 129.12 179.691 128.678 179.693ZM128.678 169.689C128.349 169.689 128.028 169.592 127.754 169.409C127.481 169.226 127.268 168.966 127.142 168.663C127.016 168.359 126.983 168.024 127.047 167.702C127.111 167.379 127.27 167.083 127.502 166.85C127.735 166.618 128.031 166.46 128.354 166.395C128.676 166.331 129.01 166.364 129.314 166.49C129.618 166.616 129.878 166.829 130.061 167.102C130.243 167.376 130.341 167.697 130.341 168.026C130.338 168.466 130.162 168.886 129.851 169.196C129.539 169.506 129.117 169.68 128.678 169.68V169.689ZM133.675 174.687C133.347 174.687 133.025 174.589 132.752 174.406C132.478 174.224 132.265 173.964 132.139 173.66C132.013 173.356 131.98 173.022 132.045 172.699C132.109 172.377 132.267 172.08 132.5 171.848C132.732 171.615 133.028 171.457 133.351 171.393C133.674 171.329 134.008 171.362 134.312 171.487C134.616 171.613 134.875 171.826 135.058 172.1C135.241 172.373 135.338 172.695 135.338 173.024C135.339 173.242 135.297 173.459 135.214 173.661C135.131 173.864 135.009 174.048 134.854 174.202C134.699 174.357 134.515 174.479 134.313 174.562C134.111 174.646 133.894 174.688 133.675 174.687Z" fill="#E3373F"/>
</svg>
