<svg width="30" height="26" viewBox="0 0 30 26" fill="none" xmlns="http://www.w3.org/2000/svg">
<circle cx="14" cy="10.5" r="9.3" stroke="#F13454" stroke-width="1.4"/>
<ellipse cx="22.5676" cy="9.44107" rx="3.39512" ry="3.55893" fill="#FBFFFE"/>
<ellipse cx="6.90079" cy="6.64035" rx="3.39512" ry="3.55893" fill="#FBFFFE"/>
<path d="M11.1139 7.86859C11.2324 8.03546 11.4024 8.16091 11.599 8.22665C11.7956 8.29239 12.0085 8.29498 12.2067 8.23403C12.4049 8.17309 12.578 8.0518 12.7007 7.88787C12.8234 7.72393 12.8894 7.52594 12.8889 7.32277C12.8894 7.11961 12.8234 6.92161 12.7007 6.75768C12.578 6.59375 12.4049 6.47246 12.2067 6.41151C12.0085 6.35057 11.7956 6.35315 11.599 6.41889C11.4024 6.48463 11.2324 6.61009 11.1139 6.77695H10.6562C10.6562 5.92001 10.3771 5.13949 9.87475 4.48996L10.6227 3.75856C10.9353 3.81314 11.2534 3.72581 11.4935 3.50202C11.8674 3.1254 11.8674 2.51954 11.4935 2.13747C11.1083 1.77177 10.4887 1.77177 10.098 2.13747C9.86916 2.37217 9.77986 2.68329 9.83567 2.98895L9.08772 3.72035C8.5742 3.34373 7.97137 3.09265 7.30714 2.99987V2.23572C7.47778 2.11981 7.60608 1.95362 7.67331 1.76138C7.74053 1.56914 7.74318 1.36093 7.68085 1.16712C7.61853 0.97331 7.49449 0.80405 7.32685 0.684038C7.15921 0.564026 6.95673 0.499545 6.74897 0.500002C6.5412 0.499545 6.33873 0.564026 6.17109 0.684038C6.00344 0.80405 5.87941 0.97331 5.81708 1.16712C5.75476 1.36093 5.7574 1.56914 5.82463 1.76138C5.89186 1.95362 6.02015 2.11981 6.19079 2.23572V2.99987C5.68844 3.07082 5.21957 3.22911 4.79536 3.46927L4.17578 2.60142C4.28184 2.31759 4.25393 1.9901 4.06415 1.7281C3.99057 1.62513 3.89695 1.53736 3.78864 1.46982C3.68034 1.40228 3.55947 1.35629 3.43296 1.33449C3.30645 1.31269 3.17679 1.31551 3.0514 1.34277C2.926 1.37004 2.80734 1.42123 2.7022 1.4934C2.26124 1.7936 2.14961 2.38855 2.46219 2.81974C2.65197 3.0872 2.95338 3.22911 3.26038 3.22911L3.91902 4.14609C3.67901 4.38079 3.48923 4.64279 3.32736 4.93207C3.1514 4.86485 2.95935 4.84866 2.77422 4.88545C2.5891 4.92223 2.41874 5.01044 2.28357 5.13949C1.90959 5.52156 1.90959 6.12196 2.28357 6.50404C2.44544 6.65141 2.6408 6.73874 2.84175 6.77695C2.84175 7.07169 2.88082 7.35552 2.94222 7.62843L2.21101 7.81947C1.97657 7.62843 1.65283 7.54656 1.32909 7.62843C1.07891 7.69502 0.866025 7.85607 0.737271 8.07615C0.608517 8.29622 0.57444 8.5573 0.642537 8.80195C0.710634 9.0466 0.875327 9.25477 1.10038 9.38067C1.32544 9.50658 1.59243 9.5399 1.84261 9.47331C2.16077 9.38598 2.40079 9.15673 2.50126 8.87291L3.3441 8.64912C3.59528 9.08032 3.93019 9.46239 4.32091 9.77897L3.70692 10.8706C3.39992 10.9143 3.12083 11.0835 2.95896 11.3728C2.89812 11.4832 2.86011 11.6042 2.8471 11.7289C2.83409 11.8537 2.84634 11.9797 2.88314 12.0998C2.91994 12.2199 2.98057 12.3318 3.06158 12.429C3.14259 12.5262 3.24238 12.6069 3.35527 12.6664C3.46815 12.7259 3.59191 12.763 3.71948 12.7757C3.84705 12.7885 3.97594 12.7765 4.09878 12.7405C4.22162 12.7045 4.33601 12.6452 4.43542 12.566C4.53482 12.4868 4.6173 12.3892 4.67814 12.2788C4.83443 11.995 4.82885 11.6675 4.6893 11.4001L5.28655 10.3248C5.73867 10.4995 6.22987 10.5977 6.74897 10.5977H6.84944C6.77688 10.7396 6.74897 10.9034 6.74897 11.078C6.79362 11.6075 7.26249 12.0005 7.79834 11.9623C8.33418 11.924 8.74165 11.4601 8.70258 10.9361C8.68025 10.6632 8.54071 10.423 8.33977 10.2648C8.60211 10.1501 8.85329 10.0028 9.08772 9.83355L10.3938 11.1108C10.338 11.4164 10.4273 11.7276 10.6562 11.9623C11.0469 12.328 11.6609 12.328 12.0516 11.9623C12.4423 11.5966 12.4256 10.9798 12.0516 10.5977C11.8116 10.3739 11.4935 10.2866 11.1809 10.3412L9.87475 9.06394C10.1483 8.70916 10.3604 8.30525 10.4943 7.86859H11.1139ZM5.91171 6.77695C5.44842 6.77695 5.07444 6.41125 5.07444 5.95822C5.07444 5.50519 5.44842 5.13949 5.91171 5.13949C6.37499 5.13949 6.74897 5.50519 6.74897 5.95822C6.74897 6.41125 6.37499 6.77695 5.91171 6.77695ZM7.86532 8.41442C7.55832 8.41442 7.30714 8.1688 7.30714 7.86859C7.30714 7.56839 7.55832 7.32277 7.86532 7.32277C8.17231 7.32277 8.42349 7.56839 8.42349 7.86859C8.42349 8.1688 8.17231 8.41442 7.86532 8.41442Z" fill="#001C61"/>
<path d="M14.0355 21.9689C14.129 22.1005 14.263 22.1994 14.4181 22.2513C14.5732 22.3032 14.7411 22.3052 14.8975 22.2571C15.0538 22.209 15.1903 22.1134 15.2871 21.9841C15.384 21.8548 15.436 21.6986 15.4356 21.5383C15.436 21.3781 15.384 21.2219 15.2871 21.0926C15.1903 20.9633 15.0538 20.8676 14.8975 20.8195C14.7411 20.7714 14.5732 20.7735 14.4181 20.8253C14.263 20.8772 14.129 20.9762 14.0355 21.1078H13.6744C13.6744 20.4318 13.4543 19.8161 13.058 19.3038L13.648 18.7269C13.8946 18.7699 14.1456 18.701 14.3349 18.5245C14.6299 18.2274 14.6299 17.7495 14.3349 17.4481C14.0311 17.1597 13.5424 17.1597 13.2342 17.4481C13.0536 17.6333 12.9832 17.8787 13.0272 18.1198L12.4372 18.6967C12.0322 18.3996 11.5566 18.2016 11.0327 18.1284V17.5256C11.1673 17.4342 11.2685 17.3031 11.3215 17.1515C11.3746 16.9998 11.3766 16.8356 11.3275 16.6827C11.2783 16.5298 11.1805 16.3963 11.0482 16.3017C10.916 16.207 10.7563 16.1561 10.5924 16.1565C10.4285 16.1561 10.2688 16.207 10.1366 16.3017C10.0043 16.3963 9.9065 16.5298 9.85734 16.6827C9.80818 16.8356 9.81026 16.9998 9.86329 17.1515C9.91632 17.3031 10.0175 17.4342 10.1521 17.5256V18.1284C9.75586 18.1844 9.38602 18.3092 9.0514 18.4987L8.56267 17.8141C8.64633 17.5902 8.62432 17.3319 8.47462 17.1252C8.41658 17.044 8.34273 16.9748 8.2573 16.9215C8.17186 16.8682 8.07652 16.8319 7.97673 16.8147C7.87694 16.7975 7.77467 16.7998 7.67575 16.8213C7.57684 16.8428 7.48324 16.8832 7.40031 16.9401C7.05248 17.1769 6.96442 17.6462 7.21098 17.9863C7.36068 18.1973 7.59844 18.3092 7.8406 18.3092L8.36014 19.0325C8.17082 19.2177 8.02112 19.4243 7.89343 19.6525C7.75464 19.5995 7.60315 19.5867 7.45712 19.6157C7.31109 19.6448 7.17671 19.7143 7.07009 19.8161C6.7751 20.1175 6.7751 20.5911 7.07009 20.8925C7.19778 21.0087 7.35188 21.0776 7.51038 21.1078C7.51038 21.3403 7.5412 21.5642 7.58963 21.7794L7.01285 21.9301C6.82793 21.7794 6.57256 21.7148 6.3172 21.7794C6.11985 21.832 5.95193 21.959 5.85037 22.1326C5.7488 22.3062 5.72192 22.5121 5.77564 22.7051C5.82935 22.8981 5.95926 23.0623 6.13679 23.1616C6.31432 23.2609 6.52492 23.2872 6.72226 23.2347C6.97323 23.1658 7.16255 22.985 7.2418 22.7611L7.90664 22.5845C8.10477 22.9247 8.36895 23.2261 8.67715 23.4758L8.19283 24.3369C7.95067 24.3713 7.73053 24.5048 7.60284 24.733C7.55485 24.82 7.52487 24.9155 7.51461 25.0139C7.50435 25.1123 7.514 25.2117 7.54303 25.3065C7.57206 25.4012 7.61989 25.4895 7.68379 25.5661C7.74769 25.6428 7.82641 25.7064 7.91545 25.7534C8.00449 25.8003 8.10211 25.8296 8.20274 25.8396C8.30337 25.8497 8.40504 25.8402 8.50193 25.8118C8.59883 25.7835 8.68906 25.7367 8.76747 25.6742C8.84589 25.6117 8.91095 25.5347 8.95894 25.4477C9.08222 25.2238 9.07781 24.9655 8.96774 24.7545L9.43885 23.9063C9.79549 24.0441 10.1829 24.1216 10.5924 24.1216H10.6717C10.6144 24.2335 10.5924 24.3627 10.5924 24.5005C10.6276 24.9181 10.9975 25.2281 11.4202 25.198C11.8428 25.1678 12.1642 24.8019 12.1334 24.3885C12.1158 24.1733 12.0057 23.9838 11.8472 23.859C12.0542 23.7685 12.2523 23.6523 12.4372 23.5188L13.4675 24.5263C13.4235 24.7674 13.4939 25.0128 13.6744 25.198C13.9826 25.4864 14.467 25.4864 14.7752 25.198C15.0834 24.9095 15.0702 24.423 14.7752 24.1216C14.5858 23.9451 14.3349 23.8762 14.0883 23.9192L13.058 22.9118C13.2738 22.6319 13.4411 22.3133 13.5468 21.9689H14.0355ZM9.93198 21.1078C9.56654 21.1078 9.27154 20.8193 9.27154 20.462C9.27154 20.1046 9.56654 19.8161 9.93198 19.8161C10.2974 19.8161 10.5924 20.1046 10.5924 20.462C10.5924 20.8193 10.2974 21.1078 9.93198 21.1078ZM11.473 22.3994C11.2308 22.3994 11.0327 22.2057 11.0327 21.9689C11.0327 21.7321 11.2308 21.5383 11.473 21.5383C11.7152 21.5383 11.9133 21.7321 11.9133 21.9689C11.9133 22.2057 11.7152 22.3994 11.473 22.3994Z" fill="#001C61"/>
<path d="M22.2461 1.59363C21.9888 1.59306 21.7382 1.6729 21.5306 1.82148C21.323 1.97007 21.1695 2.17963 21.0923 2.41959C21.0151 2.65954 21.0184 2.91733 21.1017 3.15534C21.1849 3.39334 21.3437 3.59911 21.555 3.74261V4.6887C20.933 4.77655 20.3525 4.97253 19.8273 5.26987L19.0602 4.19538C19.1915 3.84398 19.157 3.43851 18.922 3.11413C18.6801 2.783 18.3069 2.6073 17.9268 2.6073C17.685 2.6073 17.4431 2.67488 17.2358 2.82355C16.6898 3.19523 16.5516 3.93183 16.9386 4.46569C17.1736 4.79682 17.5468 4.97253 17.9268 4.97253L18.7423 6.10784C18.4452 6.39842 18.2102 6.7228 18.0098 7.08096C17.8716 7.0269 17.7264 6.99986 17.5813 6.99986C17.2703 6.99986 16.9593 7.11475 16.7175 7.33775C16.2544 7.8108 16.2544 8.55416 16.7175 9.0272C16.9179 9.20966 17.1597 9.31103 17.4085 9.36509C17.4085 9.73001 17.4569 10.0814 17.5329 10.4193L16.6276 10.6558C16.4134 10.4801 16.137 10.3788 15.8536 10.3788C15.75 10.3788 15.6394 10.3788 15.5357 10.4193C15.226 10.5018 14.9625 10.7012 14.8031 10.9737C14.6437 11.2461 14.6015 11.5693 14.6857 11.8722C14.8308 12.4061 15.3353 12.744 15.8536 12.744C15.9573 12.744 16.0609 12.744 16.1715 12.7034C16.5654 12.5953 16.8626 12.3115 16.987 11.9601L18.0305 11.683C18.3415 12.2169 18.7561 12.6899 19.2399 13.0819L18.4797 14.4334C18.0996 14.4875 17.7541 14.697 17.5537 15.0552C17.4783 15.1918 17.4313 15.3417 17.4152 15.4961C17.3991 15.6506 17.4142 15.8066 17.4598 15.9553C17.5053 16.104 17.5804 16.2425 17.6807 16.3629C17.781 16.4832 17.9046 16.5831 18.0443 16.6567C18.1841 16.7304 18.3373 16.7764 18.4953 16.7922C18.6532 16.8079 18.8128 16.7931 18.9649 16.7485C19.117 16.704 19.2586 16.6306 19.3817 16.5325C19.5047 16.4344 19.6069 16.3136 19.6822 16.1769C19.8757 15.8255 19.8688 15.4201 19.696 15.0889L20.4355 13.7577C20.9952 13.9739 21.6034 14.0955 22.2461 14.0955H22.3705C22.2806 14.2712 22.2461 14.474 22.2461 14.6902C22.3014 15.3119 22.8266 15.785 23.4555 15.785H23.5453C24.2156 15.7309 24.7132 15.1633 24.6648 14.5145C24.6372 14.1766 24.4644 13.8793 24.2156 13.6833C24.5405 13.5414 24.8514 13.3589 25.1417 13.1495L26.7588 14.7308C26.6897 15.1092 26.8003 15.4944 27.0836 15.785C27.3255 16.008 27.6365 16.1229 27.9475 16.1229C28.2584 16.1229 28.5694 16.008 28.8113 15.785C29.2743 15.3119 29.2743 14.5686 28.8113 14.0955C28.5694 13.8725 28.2584 13.7577 27.9475 13.7577C27.8784 13.7577 27.8092 13.7577 27.7332 13.7779L26.1161 12.1966C26.4547 11.7573 26.7173 11.2573 26.8832 10.7167H27.6503C27.797 10.9232 28.0075 11.0786 28.2509 11.16C28.4943 11.2414 28.7579 11.2446 29.0033 11.1691C29.2487 11.0936 29.463 10.9435 29.6149 10.7405C29.7669 10.5375 29.8485 10.2924 29.8479 10.0409C29.8485 9.78933 29.7669 9.54419 29.6149 9.34123C29.463 9.13827 29.2487 8.9881 29.0033 8.91264C28.7579 8.83719 28.4943 8.84039 28.2509 8.92178C28.0075 9.00317 27.797 9.1585 27.6503 9.36509H27.0836C27.0836 8.30412 26.7381 7.33775 26.1161 6.53358L27.0422 5.62803C27.1182 5.64831 27.1873 5.64831 27.2564 5.64831C27.5674 5.64831 27.8784 5.53342 28.1202 5.31042C28.5833 4.84413 28.5833 4.09401 28.1202 3.62097C27.8784 3.39796 27.5674 3.28308 27.2564 3.28308C26.9454 3.28308 26.6344 3.39796 26.3925 3.62097C26.1092 3.91155 25.9986 4.29675 26.0677 4.67518L25.1417 5.58073C24.5059 5.11444 23.7595 4.80358 22.9372 4.6887V3.74261C23.1484 3.59911 23.3073 3.39334 23.3905 3.15534C23.4737 2.91733 23.477 2.65954 23.3998 2.41959C23.3227 2.17963 23.1691 1.97007 22.9616 1.82148C22.754 1.6729 22.5033 1.59306 22.2461 1.59363ZM22.2461 12.744C20.3387 12.744 18.7907 11.2302 18.7907 9.36509C18.7907 7.49994 20.3387 5.9862 22.2461 5.9862C24.1534 5.9862 25.7015 7.49994 25.7015 9.36509C25.7015 11.2302 24.1534 12.744 22.2461 12.744ZM21.2095 7.33775C20.6359 7.33775 20.1728 7.79053 20.1728 8.35142C20.1728 8.91232 20.6359 9.36509 21.2095 9.36509C21.7831 9.36509 22.2461 8.91232 22.2461 8.35142C22.2461 7.79053 21.7831 7.33775 21.2095 7.33775ZM23.6282 10.0409C23.2481 10.0409 22.9372 10.345 22.9372 10.7167C22.9372 11.0883 23.2481 11.3924 23.6282 11.3924C24.0083 11.3924 24.3193 11.0883 24.3193 10.7167C24.3193 10.345 24.0083 10.0409 23.6282 10.0409Z" fill="#001C61"/>
<line x1="21.5861" y1="4.05646" x2="7.3876" y2="17.7969" stroke="#F13454" stroke-width="1.4"/>
</svg>
