<svg width="28" height="28" viewBox="0 0 28 28" fill="none" xmlns="http://www.w3.org/2000/svg">
<path d="M12.2634 13.0668C12.3629 13.207 12.5057 13.3124 12.6708 13.3676C12.836 13.4228 13.0148 13.425 13.1813 13.3738C13.3478 13.3226 13.4932 13.2207 13.5963 13.083C13.6994 12.9453 13.7548 12.779 13.7544 12.6083C13.7548 12.4377 13.6994 12.2714 13.5963 12.1337C13.4932 11.996 13.3478 11.8941 13.1813 11.8429C13.0148 11.7917 12.836 11.7939 12.6708 11.8491C12.5057 11.9043 12.3629 12.0097 12.2634 12.1498H11.8789C11.8789 11.43 11.6445 10.7744 11.2225 10.2288L11.8508 9.61439C12.1133 9.66024 12.3806 9.58688 12.5822 9.3989C12.8964 9.08254 12.8964 8.57362 12.5822 8.25267C12.2587 7.94548 11.7383 7.94548 11.41 8.25267C11.2178 8.44982 11.1428 8.71116 11.1897 8.96792L10.5614 9.5823C10.13 9.26594 9.62366 9.05503 9.06571 8.97709V8.3352C9.20905 8.23784 9.31681 8.09824 9.37329 7.93676C9.42976 7.77528 9.43198 7.60038 9.37963 7.43758C9.32727 7.27478 9.22308 7.1326 9.08226 7.03179C8.94144 6.93098 8.77136 6.87681 8.59684 6.8772C8.42232 6.87681 8.25224 6.93098 8.11142 7.03179C7.9706 7.1326 7.86641 7.27478 7.81406 7.43758C7.7617 7.60038 7.76393 7.77528 7.8204 7.93676C7.87687 8.09824 7.98464 8.23784 8.12797 8.3352V8.97709C7.70599 9.03669 7.31214 9.16965 6.9558 9.37139L6.43536 8.64239C6.52445 8.40397 6.501 8.12888 6.34159 7.9088C6.27979 7.82231 6.20114 7.74858 6.11016 7.69185C6.01919 7.63512 5.91766 7.59649 5.81139 7.57817C5.70512 7.55986 5.59621 7.56222 5.49088 7.58513C5.38554 7.60803 5.28587 7.65103 5.19755 7.71165C4.82715 7.96382 4.73337 8.46358 4.99594 8.82579C5.15535 9.05045 5.40854 9.16965 5.66642 9.16965L6.21968 9.93992C6.01807 10.1371 5.85865 10.3571 5.72268 10.6001C5.57488 10.5437 5.41356 10.5301 5.25805 10.561C5.10254 10.5919 4.95944 10.666 4.8459 10.7744C4.53176 11.0953 4.53176 11.5997 4.8459 11.9206C4.98187 12.0444 5.14598 12.1178 5.31477 12.1498C5.31477 12.3974 5.34759 12.6358 5.39916 12.8651L4.78495 13.0256C4.58802 12.8651 4.31608 12.7963 4.04414 12.8651C3.83398 12.921 3.65516 13.0563 3.54701 13.2412C3.43885 13.426 3.41023 13.6453 3.46743 13.8508C3.52463 14.0564 3.66297 14.2312 3.85202 14.337C4.04107 14.4427 4.26534 14.4707 4.47549 14.4148C4.74275 14.3414 4.94436 14.1489 5.02876 13.9105L5.73675 13.7225C5.94774 14.0847 6.22906 14.4056 6.55727 14.6715L6.04151 15.5885C5.78364 15.6252 5.5492 15.7673 5.41323 16.0103C5.36212 16.1031 5.3302 16.2047 5.31927 16.3095C5.30834 16.4143 5.31863 16.5202 5.34954 16.6211C5.38045 16.722 5.43138 16.8159 5.49943 16.8976C5.56748 16.9792 5.6513 17.047 5.74613 17.097C5.84095 17.1469 5.94491 17.1782 6.05207 17.1888C6.15923 17.1995 6.26749 17.1895 6.37068 17.1592C6.47387 17.129 6.56995 17.0792 6.65345 17.0127C6.73696 16.9461 6.80624 16.8642 6.85734 16.7714C6.98863 16.533 6.98394 16.2579 6.86672 16.0333L7.36841 15.13C7.74819 15.2768 8.1608 15.3593 8.59684 15.3593H8.68124C8.62029 15.4785 8.59684 15.616 8.59684 15.7628C8.63435 16.2075 9.0282 16.5376 9.47831 16.5055C9.92843 16.4734 10.2707 16.0837 10.2379 15.6435C10.2191 15.4143 10.1019 15.2126 9.93312 15.0796C10.1535 14.9833 10.3645 14.8595 10.5614 14.7174L11.6585 15.7903C11.6117 16.047 11.6867 16.3084 11.8789 16.5055C12.2071 16.8127 12.7229 16.8127 13.0511 16.5055C13.3793 16.1983 13.3652 15.6802 13.0511 15.3593C12.8495 15.1713 12.5822 15.0979 12.3197 15.1438L11.2225 14.0709C11.4522 13.7729 11.6304 13.4336 11.7429 13.0668H12.2634ZM7.89354 12.1498C7.50438 12.1498 7.19024 11.8427 7.19024 11.4621C7.19024 11.0816 7.50438 10.7744 7.89354 10.7744C8.2827 10.7744 8.59684 11.0816 8.59684 11.4621C8.59684 11.8427 8.2827 12.1498 7.89354 12.1498ZM9.53458 13.5253C9.2767 13.5253 9.06571 13.319 9.06571 13.0668C9.06571 12.8147 9.2767 12.6083 9.53458 12.6083C9.79245 12.6083 10.0034 12.8147 10.0034 13.0668C10.0034 13.319 9.79245 13.5253 9.53458 13.5253Z" fill="#16C6B4"/>
<path d="M13.0444 25.5439C13.0918 25.6107 13.1598 25.6609 13.2384 25.6872C13.317 25.7135 13.4022 25.7145 13.4815 25.6901C13.5608 25.6657 13.63 25.6172 13.6791 25.5516C13.7282 25.4861 13.7546 25.4069 13.7544 25.3256C13.7546 25.2443 13.7282 25.1651 13.6791 25.0996C13.63 25.034 13.5608 24.9855 13.4815 24.9611C13.4022 24.9367 13.317 24.9378 13.2384 24.9641C13.1598 24.9903 13.0918 25.0405 13.0444 25.1073H12.8613C12.8613 24.7645 12.7497 24.4523 12.5487 24.1925L12.8479 23.8999C12.9729 23.9217 13.1002 23.8868 13.1962 23.7973C13.3458 23.6467 13.3458 23.4043 13.1962 23.2515C13.0421 23.1052 12.7943 23.1052 12.638 23.2515C12.5465 23.3454 12.5108 23.4698 12.5331 23.5921L12.2339 23.8846C12.0285 23.734 11.7874 23.6336 11.5217 23.5964V23.2908C11.5899 23.2444 11.6413 23.1779 11.6681 23.101C11.695 23.0241 11.6961 22.9409 11.6712 22.8633C11.6462 22.7858 11.5966 22.7181 11.5296 22.6701C11.4625 22.6221 11.3815 22.5963 11.2984 22.5965C11.2153 22.5963 11.1343 22.6221 11.0673 22.6701C11.0002 22.7181 10.9506 22.7858 10.9257 22.8633C10.9007 22.9409 10.9018 23.0241 10.9287 23.101C10.9556 23.1779 11.0069 23.2444 11.0751 23.2908V23.5964C10.8742 23.6248 10.6866 23.6881 10.517 23.7842L10.2691 23.4371C10.3116 23.3235 10.3004 23.1925 10.2245 23.0877C10.195 23.0465 10.1576 23.0114 10.1143 22.9844C10.071 22.9574 10.0226 22.939 9.972 22.9303C9.9214 22.9216 9.86953 22.9227 9.81938 22.9336C9.76922 22.9445 9.72175 22.965 9.6797 22.9938C9.50331 23.1139 9.45866 23.3519 9.58369 23.5244C9.6596 23.6314 9.78017 23.6881 9.90297 23.6881L10.1664 24.0549C10.0704 24.1488 9.99451 24.2536 9.92976 24.3693C9.85938 24.3424 9.78256 24.336 9.70851 24.3507C9.63446 24.3654 9.56631 24.4007 9.51225 24.4523C9.36265 24.6051 9.36265 24.8453 9.51225 24.9981C9.57699 25.0571 9.65514 25.092 9.73552 25.1073C9.73552 25.2252 9.75114 25.3387 9.7757 25.4479L9.48322 25.5243C9.38945 25.4479 9.25995 25.4151 9.13045 25.4479C9.03038 25.4745 8.94523 25.5389 8.89372 25.627C8.84222 25.715 8.82859 25.8194 8.85583 25.9173C8.88307 26.0151 8.94895 26.0984 9.03897 26.1488C9.12899 26.1991 9.23579 26.2125 9.33586 26.1858C9.46313 26.1509 9.55913 26.0592 9.59932 25.9457L9.93646 25.8561C10.0369 26.0286 10.1709 26.1815 10.3272 26.3081L10.0816 26.7447C9.95879 26.7622 9.84715 26.8299 9.7824 26.9456C9.75807 26.9898 9.74286 27.0382 9.73766 27.0881C9.73245 27.138 9.73735 27.1884 9.75207 27.2364C9.76679 27.2845 9.79105 27.3292 9.82345 27.3681C9.85585 27.407 9.89577 27.4392 9.94092 27.463C9.98608 27.4868 10.0356 27.5017 10.0866 27.5068C10.1376 27.5119 10.1892 27.5071 10.2383 27.4927C10.2875 27.4783 10.3332 27.4546 10.373 27.4229C10.4127 27.3912 10.4457 27.3522 10.4701 27.308C10.5326 27.1945 10.5304 27.0635 10.4745 26.9565L10.7134 26.5264C10.8943 26.5963 11.0908 26.6356 11.2984 26.6356H11.3386C11.3096 26.6923 11.2984 26.7578 11.2984 26.8277C11.3163 27.0395 11.5038 27.1967 11.7182 27.1814C11.9325 27.1661 12.0955 26.9805 12.0799 26.7709C12.0709 26.6618 12.0151 26.5657 11.9347 26.5024C12.0397 26.4565 12.1401 26.3976 12.2339 26.3299L12.7564 26.8408C12.734 26.9631 12.7698 27.0875 12.8613 27.1814C13.0176 27.3277 13.2632 27.3277 13.4195 27.1814C13.5758 27.0351 13.5691 26.7884 13.4195 26.6356C13.3235 26.5461 13.1962 26.5111 13.0712 26.533L12.5487 26.0221C12.6581 25.8802 12.743 25.7186 12.7966 25.5439H13.0444ZM10.9635 25.1073C10.7782 25.1073 10.6286 24.961 10.6286 24.7798C10.6286 24.5986 10.7782 24.4523 10.9635 24.4523C11.1488 24.4523 11.2984 24.5986 11.2984 24.7798C11.2984 24.961 11.1488 25.1073 10.9635 25.1073ZM11.7449 25.7623C11.6222 25.7623 11.5217 25.664 11.5217 25.5439C11.5217 25.4239 11.6222 25.3256 11.7449 25.3256C11.8677 25.3256 11.9682 25.4239 11.9682 25.5439C11.9682 25.664 11.8677 25.7623 11.7449 25.7623Z" fill="#16C6B4"/>
<path d="M21.6144 10.3158C21.3984 10.3153 21.1878 10.3824 21.0134 10.5072C20.8391 10.632 20.7101 10.808 20.6453 11.0096C20.5805 11.2112 20.5832 11.4277 20.6531 11.6276C20.7231 11.8276 20.8565 12.0004 21.0339 12.1209V12.9157C20.5115 12.9894 20.0239 13.1541 19.5827 13.4038L18.9383 12.5013C19.0486 12.2061 19.0196 11.8655 18.8222 11.593C18.619 11.3149 18.3056 11.1673 17.9863 11.1673C17.7831 11.1673 17.5799 11.224 17.4058 11.3489C16.9472 11.6611 16.8311 12.2799 17.1562 12.7283C17.3535 13.0065 17.667 13.1541 17.9863 13.1541L18.6713 14.1077C18.4217 14.3518 18.2243 14.6243 18.0559 14.9252C17.9398 14.8797 17.8179 14.857 17.696 14.857C17.4348 14.857 17.1736 14.9535 16.9704 15.1409C16.5815 15.5382 16.5815 16.1626 16.9704 16.56C17.1387 16.7133 17.3419 16.7984 17.5509 16.8438C17.5509 17.1504 17.5915 17.4455 17.6554 17.7294L16.8949 17.9281C16.715 17.7805 16.4828 17.6953 16.2448 17.6953C16.1577 17.6953 16.0648 17.6953 15.9777 17.7294C15.7176 17.7987 15.4962 17.9662 15.3623 18.1951C15.2285 18.4239 15.193 18.6954 15.2637 18.9498C15.3856 19.3983 15.8094 19.6821 16.2448 19.6821C16.3318 19.6821 16.4189 19.6821 16.5118 19.648C16.8427 19.5572 17.0923 19.3188 17.1968 19.0236L18.0734 18.7909C18.3346 19.2393 18.6829 19.6367 19.0892 19.9659L18.4507 21.1012C18.1314 21.1467 17.8412 21.3226 17.6728 21.6235C17.6095 21.7383 17.57 21.8642 17.5565 21.9939C17.543 22.1236 17.5557 22.2547 17.594 22.3796C17.6322 22.5046 17.6953 22.6209 17.7795 22.722C17.8638 22.8231 17.9676 22.907 18.085 22.9688C18.2024 23.0307 18.3311 23.0694 18.4638 23.0826C18.5964 23.0958 18.7305 23.0834 18.8582 23.0459C18.986 23.0085 19.105 22.9469 19.2083 22.8645C19.3117 22.7821 19.3975 22.6806 19.4608 22.5658C19.6233 22.2706 19.6175 21.93 19.4724 21.6519L20.0935 20.5336C20.5637 20.7152 21.0746 20.8174 21.6144 20.8174H21.7189C21.6435 20.965 21.6144 21.1353 21.6144 21.317C21.6609 21.8392 22.1021 22.2366 22.6303 22.2366H22.7058C23.2689 22.1911 23.6869 21.7143 23.6462 21.1694C23.623 20.8855 23.4779 20.6358 23.2689 20.4711C23.5417 20.3519 23.803 20.1987 24.0468 20.0227L25.4052 21.351C25.3471 21.6689 25.44 21.9925 25.678 22.2366C25.8812 22.4239 26.1424 22.5204 26.4036 22.5204C26.6649 22.5204 26.9261 22.4239 27.1293 22.2366C27.5182 21.8392 27.5182 21.2148 27.1293 20.8174C26.9261 20.6301 26.6649 20.5336 26.4036 20.5336C26.3456 20.5336 26.2875 20.5336 26.2237 20.5506L24.8653 19.2223C25.1497 18.8533 25.3703 18.4333 25.5096 17.9791H26.154C26.2773 18.1527 26.454 18.2832 26.6585 18.3515C26.8629 18.4199 27.0844 18.4226 27.2905 18.3592C27.4966 18.2958 27.6766 18.1697 27.8043 17.9992C27.9319 17.8287 28.0005 17.6228 28 17.4115C28.0005 17.2002 27.9319 16.9943 27.8043 16.8238C27.6766 16.6533 27.4966 16.5272 27.2905 16.4638C27.0844 16.4004 26.8629 16.4031 26.6585 16.4714C26.454 16.5398 26.2773 16.6703 26.154 16.8438H25.678C25.678 15.9526 25.3877 15.1409 24.8653 14.4654L25.6432 13.7047C25.707 13.7217 25.7651 13.7217 25.8231 13.7217C26.0843 13.7217 26.3456 13.6252 26.5487 13.4379C26.9377 13.0462 26.9377 12.4161 26.5487 12.0188C26.3456 11.8314 26.0843 11.7349 25.8231 11.7349C25.5619 11.7349 25.3007 11.8314 25.0975 12.0188C24.8595 12.2628 24.7666 12.5864 24.8246 12.9043L24.0468 13.665C23.5127 13.2733 22.8858 13.0122 22.195 12.9157V12.1209C22.3724 12.0004 22.5058 11.8276 22.5758 11.6276C22.6457 11.4277 22.6484 11.2112 22.5836 11.0096C22.5188 10.808 22.3898 10.632 22.2155 10.5072C22.0411 10.3824 21.8305 10.3153 21.6144 10.3158ZM21.6144 19.6821C20.0123 19.6821 18.7119 18.4106 18.7119 16.8438C18.7119 15.2771 20.0123 14.0056 21.6144 14.0056C23.2166 14.0056 24.517 15.2771 24.517 16.8438C24.517 18.4106 23.2166 19.6821 21.6144 19.6821ZM20.7437 15.1409C20.2619 15.1409 19.8729 15.5212 19.8729 15.9923C19.8729 16.4635 20.2619 16.8438 20.7437 16.8438C21.2255 16.8438 21.6144 16.4635 21.6144 15.9923C21.6144 15.5212 21.2255 15.1409 20.7437 15.1409ZM22.7755 17.4115C22.4562 17.4115 22.195 17.6669 22.195 17.9791C22.195 18.2914 22.4562 18.5468 22.7755 18.5468C23.0947 18.5468 23.356 18.2914 23.356 17.9791C23.356 17.6669 23.0947 17.4115 22.7755 17.4115Z" fill="#16C6B4"/>
<circle cx="14" cy="14" r="13.25" stroke="#16C6B4" stroke-width="1.5"/>
<line x1="24.4605" y1="4.81375" x2="4.58264" y2="24.0504" stroke="#16C6B4" stroke-width="1.5"/>
</svg>
