<svg width="364" height="125" viewBox="0 0 364 125" fill="none" xmlns="http://www.w3.org/2000/svg">
    <path d="M363.075 56.8418H280V102.681H363.075V56.8418Z" fill="#3BB3E2"/>
    <path d="M325 81.8418V83.0745C325.025 82.664 325.025 82.2523 325 81.8418V81.8418Z" stroke="#0C3689" stroke-width="0.682824" stroke-miterlimit="10"/>
    <path d="M363.075 56.8418H280V99.4693H363.075V56.8418Z" fill="#073287"/>
    <path d="M316.501 72.9264V55.8418H280V94.8147H316.501V94.7755C319.174 94.5863 321.687 93.4327 323.572 91.5294C325.458 89.6261 326.588 87.1026 326.753 84.4283V83.1727C326.422 77.7077 321.893 73.5038 316.501 72.9264Z" fill="#1749C6"/>
    <path d="M315.826 32.8418H296V72.734H315.826C321.756 72.734 327.641 77.1677 327.994 83.0364V43.1442C327.641 37.2755 321.784 32.8418 315.826 32.8418Z" fill="#0D4399"/>
    <path d="M280 94.7413H316.501V94.7021C319.174 94.5128 321.687 93.3593 323.572 91.456C325.458 89.5526 326.588 87.0292 326.753 84.3549V83.0993V83.1442C326.394 77.2755 321.148 72.8418 315.24 72.8418H295.414" stroke="#3BB3E2" stroke-width="2.04847" stroke-miterlimit="10"/>
    <path d="M332 61.8418V64.8406" stroke="#107BC4" stroke-width="1.36565" stroke-miterlimit="10" stroke-linecap="round"/>
    <path d="M332 72.8418V75.835" stroke="#107BC4" stroke-width="1.36565" stroke-miterlimit="10" stroke-linecap="round"/>
    <path d="M332 84.8418V87.835" stroke="#107BC4" stroke-width="1.36565" stroke-miterlimit="10" stroke-linecap="round"/>
    <path d="M340 65.8418V68.835" stroke="#107BC4" stroke-width="1.36565" stroke-miterlimit="10" stroke-linecap="round"/>
    <path d="M340 76.8418V79.835" stroke="#107BC4" stroke-width="1.36565" stroke-miterlimit="10" stroke-linecap="round"/>
    <path d="M340 87.8418V90.835" stroke="#107BC4" stroke-width="1.36565" stroke-miterlimit="10" stroke-linecap="round"/>
    <path d="M348 61.8418V64.8406" stroke="#107BC4" stroke-width="1.36565" stroke-miterlimit="10" stroke-linecap="round"/>
    <path d="M348 72.8418V75.835" stroke="#107BC4" stroke-width="1.36565" stroke-miterlimit="10" stroke-linecap="round"/>
    <path d="M348 84.8418V87.835" stroke="#107BC4" stroke-width="1.36565" stroke-miterlimit="10" stroke-linecap="round"/>
    <path d="M356 65.8418V68.835" stroke="#107BC4" stroke-width="1.36565" stroke-miterlimit="10" stroke-linecap="round"/>
    <path d="M356 76.8418V79.835" stroke="#107BC4" stroke-width="1.36565" stroke-miterlimit="10" stroke-linecap="round"/>
    <path d="M356 87.8418V90.835" stroke="#107BC4" stroke-width="1.36565" stroke-miterlimit="10" stroke-linecap="round"/>
    <path d="M302 35.8418V36.4021" stroke="#107BC4" stroke-width="1.36565" stroke-miterlimit="10" stroke-linecap="round"/>
    <path d="M302 38.8418V64.962" stroke="#107BC4" stroke-width="1.36565" stroke-miterlimit="10" stroke-linecap="round" stroke-dasharray="1.37 3.41"/>
    <path d="M302 66.8418V67.4021" stroke="#107BC4" stroke-width="1.36565" stroke-miterlimit="10" stroke-linecap="round"/>
    <path d="M313 35.8418V36.4021" stroke="#107BC4" stroke-width="1.36565" stroke-miterlimit="10" stroke-linecap="round"/>
    <path d="M313 38.8418V64.962" stroke="#107BC4" stroke-width="1.36565" stroke-miterlimit="10" stroke-linecap="round" stroke-dasharray="1.37 3.41"/>
    <path d="M313 66.8418V67.4021" stroke="#107BC4" stroke-width="1.36565" stroke-miterlimit="10" stroke-linecap="round"/>
    <path d="M322 36.8418V37.4021" stroke="#107BC4" stroke-width="1.36565" stroke-miterlimit="10" stroke-linecap="round"/>
    <path d="M322 40.8418V66.934" stroke="#107BC4" stroke-width="1.36565" stroke-miterlimit="10" stroke-linecap="round" stroke-dasharray="1.37 3.41"/>
    <path d="M322 67.8418V68.4021" stroke="#107BC4" stroke-width="1.36565" stroke-miterlimit="10" stroke-linecap="round"/>
    <path d="M327.409 56.2552V43.1446C327.056 37.276 321.198 32.8423 315.24 32.8423H295.414V55.6779H280V102.095H363.075V56.2552H327.409Z" stroke="#001C61" stroke-width="0.682824" stroke-miterlimit="10"/>
    <path d="M67.5762 106.86H11.2599C9.87975 106.86 8.51372 106.584 7.24363 106.047C5.97355 105.511 4.82552 104.725 3.86829 103.737C2.91106 102.75 2.1643 101.58 1.67273 100.299C1.18116 99.0177 0.95488 97.6512 1.00744 96.2811L3.99434 23.8418H74.8481L77.835 96.2811C77.8867 97.6515 77.6596 99.0181 77.1673 100.299C76.675 101.581 75.9277 102.75 74.97 103.738C74.0122 104.725 72.8638 105.511 71.5934 106.047C70.323 106.584 68.9567 106.86 67.5762 106.86Z" fill="#C7EBFF"/>
    <path opacity="0.8" d="M74.8538 14.8418H4V23.6056H74.8538V14.8418Z" fill="#194AC2"/>
    <path d="M74.8538 22.8418H4V24.1313H74.8538V22.8418Z" fill="#FEFEFE"/>
    <path opacity="0.7" d="M65.9155 104.043H12.6995C11.3933 104.044 10.1002 103.782 8.89819 103.274C7.69613 102.766 6.60984 102.022 5.70459 101.087C4.79933 100.151 4.0938 99.0436 3.63038 97.8304C3.16696 96.6171 2.95522 95.3233 3.00788 94.0267L3.92789 72.5053C15.7724 76.138 28.4118 76.3551 40.3756 73.1313C59.8535 67.6664 74.7942 73.7009 74.7942 73.7009L75.6323 94.0768C75.6781 95.3714 75.4605 96.6619 74.9924 97.8709C74.5243 99.08 73.8154 100.183 72.9081 101.113C72.0009 102.044 70.914 102.783 69.7124 103.286C68.5109 103.789 67.2195 104.047 65.9155 104.043Z" fill="#FAFDFF"/>
    <path opacity="0.3" d="M74.9086 23.8418H72.4825C72.4825 23.8418 60.1757 51.235 36.6208 66.8033C13.0659 82.3716 5 104.682 5 104.682C6.79582 106.088 9.01474 106.855 11.3015 106.86H67.6178C68.9979 106.86 70.364 106.584 71.6341 106.047C72.9041 105.511 74.0522 104.725 75.0094 103.737C75.9666 102.75 76.7134 101.58 77.205 100.299C77.6965 99.0177 77.9228 97.6512 77.8703 96.2811L74.9086 23.8418Z" fill="#FAFDFF"/>
    <path d="M75.0056 23.6061H74.8481V14.8423H3.99434V23.6061L1.00744 96.0454C0.95488 97.4155 1.18116 98.782 1.67273 100.063C2.1643 101.344 2.91106 102.514 3.86829 103.502C4.82552 104.489 5.97355 105.275 7.24363 105.812C8.51372 106.348 9.87975 106.625 11.2599 106.625H67.74C69.1202 106.625 70.4863 106.348 71.7563 105.812C73.0264 105.275 74.1745 104.489 75.1317 103.502C76.0889 102.514 76.8357 101.344 77.3272 100.063C77.8188 98.782 78.0451 97.4155 77.9925 96.0454L75.0056 23.6061Z" stroke="#1649C7" stroke-width="0.730353" stroke-miterlimit="10"/>
    <path d="M5.09695 91.8418C5.09695 91.8418 3.93118 98.0516 9.68443 101.106C15.1793 104.017 21.0271 104.462 21.1972 102.984C21.3674 101.507 15.633 102.596 11.4551 99.5727C8.7768 97.5042 6.60333 94.8615 5.09695 91.8418Z" fill="#FBFFFE"/>
    <path d="M70.7115 79.8418C68.5186 79.8418 68.3421 95.1973 70.7115 95.4414C73.2069 95.7043 72.8981 79.8418 70.7115 79.8418Z" fill="#FBFFFE"/>
    <path d="M201.497 57.4466C197.177 63.3784 203.126 76.1573 207.703 83.4191C212.279 90.6809 213.081 99.7479 216.905 102.201C220.729 104.653 229.937 105.017 235.089 102.59C240.242 100.163 248.542 95.576 248.467 88.294C248.392 81.012 249.815 75.3431 248.467 70.2205C247.119 65.0978 246.352 59.4289 240.503 55.6514C234.653 51.8739 230.177 50.7765 227.08 48.6223C223.982 46.468 211.161 49.3707 206.841 50.1798C202.52 50.9889 201.497 57.4466 201.497 57.4466Z" fill="#E3C900"/>
    <path d="M194.862 57.0829C190.542 62.7265 191.303 78.1198 195.865 85.0427C200.426 91.9657 203.779 95.0504 207.578 97.3564C211.377 99.6624 217.563 105.741 223.116 104.719C229.492 103.541 236.714 96.5877 236.649 89.6597C236.584 82.7317 237.997 77.3461 236.649 72.4661C235.301 67.5862 234.529 62.2106 228.68 58.6202C222.83 55.0298 218.354 54.0032 215.252 51.9501C212.149 49.897 208.084 51.1815 203.779 51.9501C199.473 52.7188 194.862 57.0829 194.862 57.0829Z" fill="#FFF615"/>
    <path d="M205.014 55.8418C204.217 56.1098 201.836 57.1972 203.691 57.7889C205.545 58.3807 206.733 59.0634 206.733 57.7889C206.733 56.5144 205.014 55.8418 205.014 55.8418Z" fill="#E8B423"/>
    <path d="M219.081 82.7936C219.582 82.2879 220.936 80.6189 219.352 80.8667C217.768 81.1145 216.64 81.0488 217.106 81.9946C217.572 82.9403 219.081 82.7936 219.081 82.7936Z" fill="#E8B423"/>
    <path d="M198.064 69.8418C197.653 70.4588 199.323 72.937 199.919 71.6979C200.516 70.4588 198.064 69.8418 198.064 69.8418Z" fill="#E8B423"/>
    <path d="M219.064 93.8418C218.653 94.4639 220.323 96.942 220.919 95.703C221.516 94.4639 219.064 93.8418 219.064 93.8418Z" fill="#E8B423"/>
    <path d="M221.189 67.9364C221.776 67.5943 221.777 66.4854 221.19 65.4598C220.603 64.4342 219.651 63.8801 219.064 64.2223C218.476 64.5644 218.476 65.6732 219.063 66.6989C219.65 67.7245 220.602 68.2786 221.189 67.9364Z" fill="#E8B423"/>
    <path d="M230.762 80.3793C231.183 80.3793 231.524 80.0351 231.524 79.6105C231.524 79.186 231.183 78.8418 230.762 78.8418C230.341 78.8418 230 79.186 230 79.6105C230 80.0351 230.341 80.3793 230.762 80.3793Z" fill="#E8B423"/>
    <path d="M204.619 85.1089C205.513 85.1089 206.238 84.3776 206.238 83.4754C206.238 82.5732 205.513 81.8418 204.619 81.8418C203.725 81.8418 203 82.5732 203 83.4754C203 84.3776 203.725 85.1089 204.619 85.1089Z" fill="#E8B423"/>
    <path d="M248.187 70.2002C246.834 65.0725 246.072 59.4087 240.223 55.6312C234.374 51.8536 229.898 50.7765 226.8 48.6223C223.702 46.468 210.881 49.3707 206.561 50.1798C205.788 50.326 205.063 50.6631 204.451 51.1608L203.779 51.2873C199.438 52.0559 194.862 56.4201 194.862 56.4201C190.542 62.0636 191.303 77.4569 195.865 84.3799C200.426 91.3028 203.779 94.3876 207.578 96.6935C211.377 98.9995 217.563 105.078 223.116 104.056C227.126 104.471 231.687 104.056 234.805 102.57C239.967 100.142 248.257 95.5557 248.182 88.2737C248.107 80.9917 249.536 75.3229 248.187 70.2002Z" stroke="#FFF615" stroke-width="0.682824" stroke-miterlimit="10"/>
    <path d="M177.631 78.9199H182.789V81.1431H177.631V86.987H175.268V81.1431H170.11V78.9199H175.268V73.5206H177.631V78.9199Z" fill="#5A80DF"/>
    <path d="M93.6307 78.9199H98.7885V81.1431H93.6307V86.987H91.2677V81.1431H86.1098V78.9199H91.2677V73.5206H93.6307V78.9199Z" fill="#5A80DF"/>
    <path d="M265.631 78.9199H270.789V81.1431H265.631V86.987H263.268V81.1431H258.11V78.9199H263.268V73.5206H265.631V78.9199Z" fill="#5A80DF"/>
    <path d="M161.312 34.7693L147.457 21.2854L123.979 21.041L109.641 34.3023C109.119 34.7856 108.699 35.3702 108.408 36.0205C108.117 36.6708 107.961 37.3729 107.948 38.084L106.924 98.547C106.909 99.7377 107.294 100.895 108.016 101.833L110.576 105.123C111.052 105.735 111.659 106.23 112.352 106.574C113.045 106.917 113.806 107.1 114.581 107.109L153.853 107.474C154.628 107.482 155.396 107.314 156.101 106.983C156.806 106.653 157.43 106.168 157.926 105.564L160.64 102.259C161.398 101.339 161.824 100.188 161.846 98.9976L162.87 38.5857C162.884 37.8742 162.753 37.1686 162.485 36.5123C162.217 35.8559 161.818 35.2628 161.312 34.7693Z" fill="#C8E9FC"/>
    <path d="M114.446 107.284L127.999 107.417C120.24 101.605 112.483 99.3512 114.091 65.4782C114.653 53.5717 112.406 44.3648 121.4 36.9312C127.877 31.5747 140.6 25.3407 149.016 23.1186L123.823 21.2059L109.486 34.4672C108.964 34.9504 108.544 35.5351 108.253 36.1854C107.962 36.8356 107.805 37.5378 107.793 38.2488L106.769 98.7118C106.754 99.9026 107.139 101.06 107.861 101.998L110.421 105.288C110.898 105.904 111.508 106.403 112.205 106.748C112.901 107.094 113.667 107.277 114.446 107.284Z" fill="#B7E2F7"/>
    <path d="M148.679 11.0861L122 10.8418L121.802 22.487L148.481 22.7314L148.679 11.0861Z" fill="#1540AF"/>
    <path d="M148.68 40.0861L122 39.8418L121.374 76.7298L148.053 76.9741L148.68 40.0861Z" fill="#EBF6FF"/>
    <path d="M147.68 81.0861L121 80.8418L120.843 90.0619L147.523 90.3062L147.68 81.0861Z" fill="#EBF6FF"/>
    <path d="M149 22.8418C143.424 22.0588 137.986 20.5186 132.833 18.2631C124.612 14.588 122.466 10.9968 122.466 10.9968L122.319 22.6027L149 22.8418Z" fill="#345CBF"/>
    <path d="M138.018 68.1929L136.108 68.9469L136.099 71.3499L138.003 72.0804L138 72.7857L131.989 70.4396L131.992 69.8532L138.021 67.4712L138.018 68.1929ZM135.48 69.1667L133.62 69.8713C133.384 69.9624 133.095 70.0566 132.753 70.1536C133.016 70.2127 133.304 70.2977 133.618 70.4085L135.472 71.1064L135.48 69.1667ZM138.026 66.1527L138.024 66.8334L131.643 66.859L131.646 66.1783L138.026 66.1527ZM138.121 62.9968C138.118 63.6474 137.917 64.1526 137.516 64.5124C137.113 64.8694 136.545 65.0493 135.812 65.0523C135.06 65.0553 134.48 64.8772 134.072 64.518C133.663 64.156 133.46 63.6401 133.463 62.9703C133.463 62.7544 133.488 62.5383 133.535 62.3221C133.582 62.106 133.638 61.9363 133.701 61.813L134.278 62.0198C134.218 62.1704 134.168 62.3346 134.129 62.5125C134.087 62.6904 134.066 62.8476 134.065 62.9843C134.062 63.8974 134.642 64.3516 135.807 64.347C136.359 64.3448 136.783 64.2323 137.079 64.0097C137.376 63.7844 137.524 63.453 137.526 63.0156C137.528 62.641 137.449 62.2573 137.289 61.8642L137.892 61.8618C138.046 62.1619 138.123 62.5402 138.121 62.9968ZM135.811 57.0046C136.544 57.0017 137.116 57.1839 137.527 57.5514C137.936 57.9188 138.139 58.4278 138.136 59.0785C138.135 59.4803 138.039 59.8375 137.849 60.1499C137.659 60.4623 137.388 60.704 137.034 60.8749C136.681 61.0458 136.268 61.1322 135.795 61.1341C135.062 61.137 134.493 60.9561 134.087 60.5914C133.679 60.2267 133.476 59.7191 133.478 59.0684C133.481 58.4396 133.692 57.9399 134.112 57.5691C134.531 57.1957 135.098 57.0075 135.811 57.0046ZM135.798 60.4287C136.372 60.4264 136.81 60.3099 137.111 60.079C137.413 59.8482 137.565 59.51 137.567 59.0643C137.568 58.6187 137.421 58.2817 137.124 58.0533C136.824 57.8221 136.385 57.7077 135.809 57.71C135.237 57.7123 134.803 57.8302 134.507 58.0637C134.208 58.2946 134.058 58.6355 134.056 59.0866C134.055 59.5322 134.199 59.8679 134.491 60.0936C134.783 60.3194 135.218 60.4311 135.798 60.4287ZM138.079 52.8066L135.172 52.8183C134.806 52.8198 134.532 52.9042 134.351 53.0717C134.17 53.2392 134.079 53.5007 134.077 53.856C134.075 54.329 134.202 54.6743 134.458 54.892C134.715 55.1069 135.135 55.2132 135.72 55.2109L138.07 55.2015L138.067 55.8822L131.686 55.9078L131.689 55.227L133.621 55.2193C133.853 55.2184 134.046 55.2285 134.199 55.2498L134.199 55.2088C133.983 55.0757 133.815 54.8864 133.693 54.6408C133.568 54.3925 133.506 54.1098 133.507 53.7927C133.51 53.2432 133.642 52.8313 133.906 52.5568C134.167 52.2797 134.581 52.14 135.15 52.1377L138.082 52.1259L138.079 52.8066ZM135.852 46.9372C136.584 46.9343 137.156 47.1165 137.568 47.4839C137.976 47.8513 138.179 48.3604 138.177 49.011C138.175 49.4129 138.079 49.77 137.889 50.0824C137.699 50.3948 137.428 50.6365 137.075 50.8074C136.721 50.9783 136.308 51.0647 135.835 51.0666C135.102 51.0696 134.533 50.8887 134.127 50.524C133.719 50.1593 133.516 49.6516 133.518 49.001C133.521 48.3722 133.732 47.8724 134.152 47.5017C134.571 47.1282 135.138 46.9401 135.852 46.9372ZM135.838 50.3613C136.412 50.359 136.85 50.2424 137.151 50.0116C137.453 49.7807 137.605 49.4425 137.607 48.9969C137.608 48.5513 137.461 48.2143 137.164 47.9858C136.864 47.7546 136.426 47.6402 135.849 47.6425C135.277 47.6448 134.844 47.7627 134.547 47.9963C134.248 48.2271 134.098 48.5681 134.096 49.0192C134.095 49.4648 134.24 49.8004 134.531 50.0262C134.823 50.2519 135.258 50.3636 135.838 50.3613ZM138.11 45.134L138.107 45.8147L131.727 45.8403L131.729 45.1596L138.11 45.134Z" fill="#001C61"/>
</svg>
