<svg width="500" height="140" viewBox="240 160 500 100" fill="none" xmlns="http://www.w3.org/2000/svg">
    <path d="M728.075 200.842H645V246.681H728.075V200.842Z" fill="#3BB3E2"/>
    <path d="M690 225.842V227.074C690.025 226.664 690.025 226.252 690 225.842V225.842Z" stroke="#0C3689" stroke-width="0.682824" stroke-miterlimit="10"/>
    <path d="M728.075 200.842H645V243.469H728.075V200.842Z" fill="#073287"/>
    <path d="M681.501 216.926V199.842H645V238.815H681.501V238.776C684.174 238.586 686.687 237.433 688.572 235.529C690.458 233.626 691.588 231.103 691.753 228.428V227.173C691.422 221.708 686.893 217.504 681.501 216.926Z" fill="#1749C6"/>
    <path d="M680.826 176.842H661V216.734H680.826C686.756 216.734 692.641 221.168 692.994 227.036V187.144C692.641 181.276 686.784 176.842 680.826 176.842Z" fill="#0D4399"/>
    <path d="M645 238.741H681.501V238.702C684.174 238.513 686.687 237.359 688.572 235.456C690.458 233.553 691.588 231.029 691.753 228.355V227.099V227.144C691.394 221.276 686.148 216.842 680.24 216.842H660.414" stroke="#3BB3E2" stroke-width="2.04847" stroke-miterlimit="10"/>
    <path d="M697 205.842V208.841" stroke="#107BC4" stroke-width="1.36565" stroke-miterlimit="10" stroke-linecap="round"/>
    <path d="M697 216.842V219.835" stroke="#107BC4" stroke-width="1.36565" stroke-miterlimit="10" stroke-linecap="round"/>
    <path d="M697 228.842V231.835" stroke="#107BC4" stroke-width="1.36565" stroke-miterlimit="10" stroke-linecap="round"/>
    <path d="M705 209.842V212.835" stroke="#107BC4" stroke-width="1.36565" stroke-miterlimit="10" stroke-linecap="round"/>
    <path d="M705 220.842V223.835" stroke="#107BC4" stroke-width="1.36565" stroke-miterlimit="10" stroke-linecap="round"/>
    <path d="M705 231.842V234.835" stroke="#107BC4" stroke-width="1.36565" stroke-miterlimit="10" stroke-linecap="round"/>
    <path d="M713 205.842V208.841" stroke="#107BC4" stroke-width="1.36565" stroke-miterlimit="10" stroke-linecap="round"/>
    <path d="M713 216.842V219.835" stroke="#107BC4" stroke-width="1.36565" stroke-miterlimit="10" stroke-linecap="round"/>
    <path d="M713 228.842V231.835" stroke="#107BC4" stroke-width="1.36565" stroke-miterlimit="10" stroke-linecap="round"/>
    <path d="M721 209.842V212.835" stroke="#107BC4" stroke-width="1.36565" stroke-miterlimit="10" stroke-linecap="round"/>
    <path d="M721 220.842V223.835" stroke="#107BC4" stroke-width="1.36565" stroke-miterlimit="10" stroke-linecap="round"/>
    <path d="M721 231.842V234.835" stroke="#107BC4" stroke-width="1.36565" stroke-miterlimit="10" stroke-linecap="round"/>
    <path d="M667 179.842V180.402" stroke="#107BC4" stroke-width="1.36565" stroke-miterlimit="10" stroke-linecap="round"/>
    <path d="M667 182.842V208.962" stroke="#107BC4" stroke-width="1.36565" stroke-miterlimit="10" stroke-linecap="round" stroke-dasharray="1.37 3.41"/>
    <path d="M667 210.842V211.402" stroke="#107BC4" stroke-width="1.36565" stroke-miterlimit="10" stroke-linecap="round"/>
    <path d="M678 179.842V180.402" stroke="#107BC4" stroke-width="1.36565" stroke-miterlimit="10" stroke-linecap="round"/>
    <path d="M678 182.842V208.962" stroke="#107BC4" stroke-width="1.36565" stroke-miterlimit="10" stroke-linecap="round" stroke-dasharray="1.37 3.41"/>
    <path d="M678 210.842V211.402" stroke="#107BC4" stroke-width="1.36565" stroke-miterlimit="10" stroke-linecap="round"/>
    <path d="M687 180.842V181.402" stroke="#107BC4" stroke-width="1.36565" stroke-miterlimit="10" stroke-linecap="round"/>
    <path d="M687 184.842V210.934" stroke="#107BC4" stroke-width="1.36565" stroke-miterlimit="10" stroke-linecap="round" stroke-dasharray="1.37 3.41"/>
    <path d="M687 211.842V212.402" stroke="#107BC4" stroke-width="1.36565" stroke-miterlimit="10" stroke-linecap="round"/>
    <path d="M692.409 200.255V187.145C692.056 181.276 686.198 176.842 680.24 176.842H660.414V199.678H645V246.095H728.075V200.255H692.409Z" stroke="#001C61" stroke-width="0.682824" stroke-miterlimit="10"/>
    <path d="M432.576 250.86H376.26C374.88 250.86 373.514 250.584 372.244 250.047C370.974 249.511 369.826 248.725 368.868 247.737C367.911 246.75 367.164 245.58 366.673 244.299C366.181 243.018 365.955 241.651 366.007 240.281L368.994 167.842H439.848L442.835 240.281C442.887 241.651 442.66 243.018 442.167 244.299C441.675 245.581 440.928 246.75 439.97 247.738C439.012 248.725 437.864 249.511 436.593 250.047C435.323 250.584 433.957 250.86 432.576 250.86Z" fill="#C7EBFF"/>
    <path opacity="0.8" d="M439.854 158.842H369V167.606H439.854V158.842Z" fill="#194AC2"/>
    <path d="M439.854 166.842H369V168.131H439.854V166.842Z" fill="#FEFEFE"/>
    <path opacity="0.7" d="M430.915 248.043H377.7C376.393 248.044 375.1 247.782 373.898 247.274C372.696 246.766 371.61 246.022 370.705 245.087C369.799 244.151 369.094 243.044 368.63 241.83C368.167 240.617 367.955 239.323 368.008 238.027L368.928 216.505C380.772 220.138 393.412 220.355 405.376 217.131C424.853 211.666 439.794 217.701 439.794 217.701L440.632 238.077C440.678 239.371 440.46 240.662 439.992 241.871C439.524 243.08 438.815 244.183 437.908 245.113C437.001 246.044 435.914 246.783 434.712 247.286C433.511 247.789 432.219 248.047 430.915 248.043Z" fill="#FAFDFF"/>
    <path opacity="0.3" d="M439.909 167.842H437.482C437.482 167.842 425.176 195.235 401.621 210.803C378.066 226.372 370 248.682 370 248.682C371.796 250.088 374.015 250.855 376.301 250.86H432.618C433.998 250.86 435.364 250.584 436.634 250.047C437.904 249.511 439.052 248.725 440.009 247.737C440.967 246.75 441.713 245.58 442.205 244.299C442.697 243.018 442.923 241.651 442.87 240.281L439.909 167.842Z" fill="#FAFDFF"/>
    <path d="M440.006 167.606H439.848V158.842H368.994V167.606L366.007 240.045C365.955 241.415 366.181 242.782 366.673 244.063C367.164 245.344 367.911 246.514 368.868 247.502C369.826 248.489 370.974 249.275 372.244 249.812C373.514 250.348 374.88 250.625 376.26 250.625H432.74C434.12 250.625 435.486 250.348 436.756 249.812C438.026 249.275 439.174 248.489 440.132 247.502C441.089 246.514 441.836 245.344 442.327 244.063C442.819 242.782 443.045 241.415 442.993 240.045L440.006 167.606Z" stroke="#1649C7" stroke-width="0.730353" stroke-miterlimit="10"/>
    <path d="M370.097 235.842C370.097 235.842 368.931 242.052 374.684 245.106C380.179 248.017 386.027 248.462 386.197 246.984C386.367 245.507 380.633 246.596 376.455 243.573C373.777 241.504 371.603 238.861 370.097 235.842Z" fill="#FBFFFE"/>
    <path d="M435.711 223.842C433.519 223.842 433.342 239.197 435.711 239.441C438.207 239.704 437.898 223.842 435.711 223.842Z" fill="#FBFFFE"/>
    <path d="M566.497 201.447C562.177 207.378 568.126 220.157 572.703 227.419C577.279 234.681 578.081 243.748 581.905 246.201C585.729 248.653 594.937 249.017 600.089 246.59C605.242 244.163 613.542 239.576 613.467 232.294C613.392 225.012 614.815 219.343 613.467 214.22C612.119 209.098 611.352 203.429 605.503 199.651C599.653 195.874 595.177 194.777 592.08 192.622C588.982 190.468 576.161 193.371 571.841 194.18C567.52 194.989 566.497 201.447 566.497 201.447Z" fill="#E3C900"/>
    <path d="M559.862 201.083C555.542 206.726 556.303 222.12 560.865 229.043C565.426 235.966 568.779 239.05 572.578 241.356C576.377 243.662 582.563 249.741 588.116 248.719C594.492 247.541 601.714 240.588 601.649 233.66C601.584 226.732 602.997 221.346 601.649 216.466C600.301 211.586 599.529 206.211 593.68 202.62C587.83 199.03 583.354 198.003 580.252 195.95C577.149 193.897 573.084 195.181 568.779 195.95C564.473 196.719 559.862 201.083 559.862 201.083Z" fill="#FFF615"/>
    <path d="M570.014 199.842C569.217 200.11 566.836 201.197 568.691 201.789C570.545 202.381 571.733 203.063 571.733 201.789C571.733 200.514 570.014 199.842 570.014 199.842Z" fill="#E8B423"/>
    <path d="M584.081 226.794C584.582 226.288 585.936 224.619 584.352 224.867C582.768 225.115 581.64 225.049 582.106 225.995C582.572 226.94 584.081 226.794 584.081 226.794Z" fill="#E8B423"/>
    <path d="M563.064 213.842C562.653 214.459 564.323 216.937 564.919 215.698C565.516 214.459 563.064 213.842 563.064 213.842Z" fill="#E8B423"/>
    <path d="M584.064 237.842C583.653 238.464 585.323 240.942 585.919 239.703C586.516 238.464 584.064 237.842 584.064 237.842Z" fill="#E8B423"/>
    <path d="M586.189 211.936C586.776 211.594 586.777 210.485 586.19 209.46C585.603 208.434 584.651 207.88 584.064 208.222C583.476 208.564 583.476 209.673 584.063 210.699C584.65 211.725 585.602 212.279 586.189 211.936Z" fill="#E8B423"/>
    <path d="M595.762 224.379C596.183 224.379 596.524 224.035 596.524 223.611C596.524 223.186 596.183 222.842 595.762 222.842C595.341 222.842 595 223.186 595 223.611C595 224.035 595.341 224.379 595.762 224.379Z" fill="#E8B423"/>
    <path d="M569.619 229.109C570.513 229.109 571.238 228.378 571.238 227.475C571.238 226.573 570.513 225.842 569.619 225.842C568.725 225.842 568 226.573 568 227.475C568 228.378 568.725 229.109 569.619 229.109Z" fill="#E8B423"/>
    <path d="M613.187 214.2C611.834 209.072 611.072 203.409 605.223 199.631C599.374 195.854 594.898 194.777 591.8 192.622C588.702 190.468 575.881 193.371 571.561 194.18C570.788 194.326 570.063 194.663 569.451 195.161L568.779 195.287C564.438 196.056 559.862 200.42 559.862 200.42C555.542 206.064 556.303 221.457 560.865 228.38C565.426 235.303 568.779 238.388 572.578 240.694C576.377 242.999 582.563 249.078 588.116 248.056C592.126 248.471 596.687 248.056 599.805 246.57C604.967 244.142 613.257 239.556 613.182 232.274C613.107 224.992 614.536 219.323 613.187 214.2Z" stroke="#FFF615" stroke-width="0.682824" stroke-miterlimit="10"/>
    <g opacity="0.4" filter="url(#filter0_dddddd)">
        <path d="M305.544 166.842L314.26 174.2L325.305 171.352L329.965 181.763L341.152 183.99L340.833 195.392L349.946 202.251L344.712 212.386L349.946 222.52L340.833 229.38L341.152 240.782L329.965 243.009L325.305 253.42L314.26 250.572L305.544 257.93L296.828 250.572L285.783 253.42L281.123 243.009L269.936 240.782L270.255 229.38L261.142 222.52L266.376 212.386L261.142 202.251L270.255 195.392L269.936 183.99L281.123 181.763L285.783 171.352L296.828 174.2L305.544 166.842Z" fill="#FFF615"/>
    </g>
    <g filter="url(#filter1_dddddd)">
        <path d="M302.544 165.842L311.26 173.2L322.305 170.352L326.965 180.763L338.152 182.99L337.833 194.392L346.946 201.251L341.712 211.386L346.946 221.52L337.833 228.38L338.152 239.782L326.965 242.009L322.305 252.42L311.26 249.572L302.544 256.93L293.828 249.572L282.783 252.42L278.123 242.009L266.936 239.782L267.255 228.38L258.142 221.52L263.376 211.386L258.142 201.251L267.255 194.392L266.936 182.99L278.123 180.763L282.783 170.352L293.828 173.2L302.544 165.842Z" fill="#FFF615"/>
    </g>
    <path d="M542.631 222.92H547.789V225.143H542.631V230.987H540.268V225.143H535.11V222.92H540.268V217.521H542.631V222.92Z" fill="#5A80DF"/>
    <path d="M458.631 222.92H463.789V225.143H458.631V230.987H456.268V225.143H451.11V222.92H456.268V217.521H458.631V222.92Z" fill="#5A80DF"/>
    <path d="M630.631 222.92H635.789V225.143H630.631V230.987H628.268V225.143H623.11V222.92H628.268V217.521H630.631V222.92Z" fill="#5A80DF"/>
    <path d="M526.312 178.769L512.457 165.285L488.979 165.041L474.641 178.302C474.119 178.786 473.699 179.37 473.408 180.02C473.117 180.671 472.961 181.373 472.948 182.084L471.924 242.547C471.909 243.738 472.294 244.895 473.016 245.833L475.576 249.123C476.052 249.735 476.659 250.23 477.352 250.574C478.045 250.917 478.806 251.1 479.581 251.109L518.853 251.474C519.628 251.482 520.396 251.314 521.101 250.983C521.806 250.653 522.43 250.168 522.926 249.564L525.64 246.259C526.398 245.339 526.824 244.188 526.846 242.998L527.87 182.586C527.884 181.874 527.753 181.169 527.485 180.512C527.217 179.856 526.818 179.263 526.312 178.769Z" fill="#C8E9FC"/>
    <path d="M479.446 251.284L492.999 251.417C485.24 245.605 477.483 243.351 479.091 209.478C479.653 197.572 477.406 188.365 486.4 180.931C492.877 175.575 505.6 169.341 514.016 167.119L488.823 165.206L474.486 178.467C473.964 178.95 473.544 179.535 473.253 180.185C472.962 180.836 472.805 181.538 472.793 182.249L471.769 242.712C471.754 243.903 472.139 245.06 472.861 245.998L475.421 249.288C475.898 249.904 476.508 250.403 477.205 250.748C477.901 251.094 478.667 251.277 479.446 251.284Z" fill="#B7E2F7"/>
    <path d="M513.679 155.086L487 154.842L486.802 166.487L513.481 166.731L513.679 155.086Z" fill="#1540AF"/>
    <path d="M513.68 184.086L487 183.842L486.374 220.73L513.053 220.974L513.68 184.086Z" fill="#EBF6FF"/>
    <path d="M512.68 225.086L486 224.842L485.843 234.062L512.523 234.306L512.68 225.086Z" fill="#EBF6FF"/>
    <path d="M514 166.842C508.424 166.059 502.986 164.519 497.833 162.263C489.612 158.588 487.466 154.997 487.466 154.997L487.319 166.603L514 166.842Z" fill="#345CBF"/>
    <path d="M503.018 212.193L501.108 212.947L501.099 215.35L503.003 216.08L503 216.786L496.989 214.44L496.992 213.853L503.021 211.471L503.018 212.193ZM500.48 213.167L498.62 213.871C498.384 213.962 498.095 214.057 497.753 214.154C498.016 214.213 498.304 214.298 498.618 214.408L500.472 215.106L500.48 213.167ZM503.026 210.153L503.024 210.833L496.643 210.859L496.646 210.178L503.026 210.153ZM503.121 206.997C503.118 207.647 502.917 208.153 502.516 208.512C502.113 208.869 501.545 209.049 500.812 209.052C500.06 209.055 499.48 208.877 499.072 208.518C498.663 208.156 498.46 207.64 498.463 206.97C498.463 206.754 498.488 206.538 498.535 206.322C498.582 206.106 498.638 205.936 498.701 205.813L499.278 206.02C499.218 206.17 499.168 206.335 499.129 206.512C499.087 206.69 499.066 206.848 499.065 206.984C499.062 207.897 499.642 208.352 500.807 208.347C501.359 208.345 501.783 208.232 502.079 208.01C502.376 207.784 502.524 207.453 502.526 207.016C502.528 206.641 502.449 206.257 502.289 205.864L502.892 205.862C503.046 206.162 503.123 206.54 503.121 206.997ZM500.811 201.005C501.544 201.002 502.116 201.184 502.527 201.551C502.936 201.919 503.139 202.428 503.136 203.078C503.135 203.48 503.039 203.837 502.849 204.15C502.659 204.462 502.388 204.704 502.034 204.875C501.681 205.046 501.268 205.132 500.795 205.134C500.062 205.137 499.493 204.956 499.087 204.591C498.679 204.227 498.476 203.719 498.478 203.068C498.481 202.44 498.692 201.94 499.112 201.569C499.531 201.196 500.098 201.007 500.811 201.005ZM500.798 204.429C501.372 204.426 501.81 204.31 502.111 204.079C502.413 203.848 502.565 203.51 502.567 203.064C502.568 202.619 502.421 202.282 502.124 202.053C501.824 201.822 501.385 201.708 500.809 201.71C500.237 201.712 499.803 201.83 499.507 202.064C499.208 202.295 499.058 202.636 499.056 203.087C499.055 203.532 499.199 203.868 499.491 204.094C499.783 204.319 500.218 204.431 500.798 204.429ZM503.079 196.807L500.172 196.818C499.806 196.82 499.532 196.904 499.351 197.072C499.17 197.239 499.079 197.501 499.077 197.856C499.075 198.329 499.202 198.674 499.458 198.892C499.715 199.107 500.135 199.213 500.72 199.211L503.07 199.201L503.067 199.882L496.686 199.908L496.689 199.227L498.621 199.219C498.853 199.218 499.046 199.229 499.199 199.25L499.199 199.209C498.983 199.076 498.815 198.886 498.693 198.641C498.568 198.393 498.506 198.11 498.507 197.793C498.51 197.243 498.642 196.831 498.906 196.557C499.167 196.28 499.581 196.14 500.15 196.138L503.082 196.126L503.079 196.807ZM500.852 190.937C501.584 190.934 502.156 191.116 502.568 191.484C502.976 191.851 503.179 192.36 503.177 193.011C503.175 193.413 503.079 193.77 502.889 194.082C502.699 194.395 502.428 194.637 502.075 194.807C501.721 194.978 501.308 195.065 500.835 195.067C500.102 195.07 499.533 194.889 499.127 194.524C498.719 194.159 498.516 193.652 498.518 193.001C498.521 192.372 498.732 191.872 499.152 191.502C499.571 191.128 500.138 190.94 500.852 190.937ZM500.838 194.361C501.412 194.359 501.85 194.242 502.151 194.012C502.453 193.781 502.605 193.443 502.607 192.997C502.608 192.551 502.461 192.214 502.164 191.986C501.864 191.755 501.426 191.64 500.849 191.643C500.277 191.645 499.844 191.763 499.547 191.996C499.248 192.227 499.098 192.568 499.096 193.019C499.095 193.465 499.24 193.8 499.531 194.026C499.823 194.252 500.258 194.364 500.838 194.361ZM503.11 189.134L503.107 189.815L496.727 189.84L496.729 189.16L503.11 189.134Z" fill="#001C61"/>
    <defs>
        <filter id="filter0_dddddd" x="3.01459" y="1.90112" width="605.059" height="607.343" filterUnits="userSpaceOnUse" color-interpolation-filters="sRGB">
            <feFlood flood-opacity="0" result="BackgroundImageFix"/>
            <feColorMatrix in="SourceAlpha" type="matrix" values="0 0 0 0 0 0 0 0 0 0 0 0 0 0 0 0 0 0 127 0"/>
            <feOffset dy="2.57872"/>
            <feGaussianBlur stdDeviation="3.57152"/>
            <feColorMatrix type="matrix" values="0 0 0 0 0.027451 0 0 0 0 0.0470588 0 0 0 0 0.286275 0 0 0 0.0506062 0"/>
            <feBlend mode="normal" in2="BackgroundImageFix" result="effect1_dropShadow"/>
            <feColorMatrix in="SourceAlpha" type="matrix" values="0 0 0 0 0 0 0 0 0 0 0 0 0 0 0 0 0 0 127 0"/>
            <feOffset dy="6.19702"/>
            <feGaussianBlur stdDeviation="8.58287"/>
            <feColorMatrix type="matrix" values="0 0 0 0 0.027451 0 0 0 0 0.0470588 0 0 0 0 0.286275 0 0 0 0.0727007 0"/>
            <feBlend mode="normal" in2="effect1_dropShadow" result="effect2_dropShadow"/>
            <feColorMatrix in="SourceAlpha" type="matrix" values="0 0 0 0 0 0 0 0 0 0 0 0 0 0 0 0 0 0 127 0"/>
            <feOffset dy="11.6684"/>
            <feGaussianBlur stdDeviation="16.1608"/>
            <feColorMatrix type="matrix" values="0 0 0 0 0.027451 0 0 0 0 0.0470588 0 0 0 0 0.286275 0 0 0 0.09 0"/>
            <feBlend mode="normal" in2="effect2_dropShadow" result="effect3_dropShadow"/>
            <feColorMatrix in="SourceAlpha" type="matrix" values="0 0 0 0 0 0 0 0 0 0 0 0 0 0 0 0 0 0 127 0"/>
            <feOffset dy="20.8145"/>
            <feGaussianBlur stdDeviation="28.8281"/>
            <feColorMatrix type="matrix" values="0 0 0 0 0.027451 0 0 0 0 0.0470588 0 0 0 0 0.286275 0 0 0 0.107299 0"/>
            <feBlend mode="normal" in2="effect3_dropShadow" result="effect4_dropShadow"/>
            <feColorMatrix in="SourceAlpha" type="matrix" values="0 0 0 0 0 0 0 0 0 0 0 0 0 0 0 0 0 0 127 0"/>
            <feOffset dy="38.9312"/>
            <feGaussianBlur stdDeviation="53.9197"/>
            <feColorMatrix type="matrix" values="0 0 0 0 0.027451 0 0 0 0 0.0470588 0 0 0 0 0.286275 0 0 0 0.129394 0"/>
            <feBlend mode="normal" in2="effect4_dropShadow" result="effect5_dropShadow"/>
            <feColorMatrix in="SourceAlpha" type="matrix" values="0 0 0 0 0 0 0 0 0 0 0 0 0 0 0 0 0 0 127 0"/>
            <feOffset dy="93.1868"/>
            <feGaussianBlur stdDeviation="129.064"/>
            <feColorMatrix type="matrix" values="0 0 0 0 0.027451 0 0 0 0 0.0470588 0 0 0 0 0.286275 0 0 0 0.18 0"/>
            <feBlend mode="normal" in2="effect5_dropShadow" result="effect6_dropShadow"/>
            <feBlend mode="normal" in="SourceGraphic" in2="effect6_dropShadow" result="shape"/>
        </filter>
        <filter id="filter1_dddddd" x="0.0145874" y="0.901115" width="605.059" height="607.343" filterUnits="userSpaceOnUse" color-interpolation-filters="sRGB">
            <feFlood flood-opacity="0" result="BackgroundImageFix"/>
            <feColorMatrix in="SourceAlpha" type="matrix" values="0 0 0 0 0 0 0 0 0 0 0 0 0 0 0 0 0 0 127 0"/>
            <feOffset dy="2.57872"/>
            <feGaussianBlur stdDeviation="3.57152"/>
            <feColorMatrix type="matrix" values="0 0 0 0 0.027451 0 0 0 0 0.0470588 0 0 0 0 0.286275 0 0 0 0.0506062 0"/>
            <feBlend mode="normal" in2="BackgroundImageFix" result="effect1_dropShadow"/>
            <feColorMatrix in="SourceAlpha" type="matrix" values="0 0 0 0 0 0 0 0 0 0 0 0 0 0 0 0 0 0 127 0"/>
            <feOffset dy="6.19702"/>
            <feGaussianBlur stdDeviation="8.58287"/>
            <feColorMatrix type="matrix" values="0 0 0 0 0.027451 0 0 0 0 0.0470588 0 0 0 0 0.286275 0 0 0 0.0727007 0"/>
            <feBlend mode="normal" in2="effect1_dropShadow" result="effect2_dropShadow"/>
            <feColorMatrix in="SourceAlpha" type="matrix" values="0 0 0 0 0 0 0 0 0 0 0 0 0 0 0 0 0 0 127 0"/>
            <feOffset dy="11.6684"/>
            <feGaussianBlur stdDeviation="16.1608"/>
            <feColorMatrix type="matrix" values="0 0 0 0 0.027451 0 0 0 0 0.0470588 0 0 0 0 0.286275 0 0 0 0.09 0"/>
            <feBlend mode="normal" in2="effect2_dropShadow" result="effect3_dropShadow"/>
            <feColorMatrix in="SourceAlpha" type="matrix" values="0 0 0 0 0 0 0 0 0 0 0 0 0 0 0 0 0 0 127 0"/>
            <feOffset dy="20.8145"/>
            <feGaussianBlur stdDeviation="28.8281"/>
            <feColorMatrix type="matrix" values="0 0 0 0 0.027451 0 0 0 0 0.0470588 0 0 0 0 0.286275 0 0 0 0.107299 0"/>
            <feBlend mode="normal" in2="effect3_dropShadow" result="effect4_dropShadow"/>
            <feColorMatrix in="SourceAlpha" type="matrix" values="0 0 0 0 0 0 0 0 0 0 0 0 0 0 0 0 0 0 127 0"/>
            <feOffset dy="38.9312"/>
            <feGaussianBlur stdDeviation="53.9197"/>
            <feColorMatrix type="matrix" values="0 0 0 0 0.027451 0 0 0 0 0.0470588 0 0 0 0 0.286275 0 0 0 0.129394 0"/>
            <feBlend mode="normal" in2="effect4_dropShadow" result="effect5_dropShadow"/>
            <feColorMatrix in="SourceAlpha" type="matrix" values="0 0 0 0 0 0 0 0 0 0 0 0 0 0 0 0 0 0 127 0"/>
            <feOffset dy="93.1868"/>
            <feGaussianBlur stdDeviation="129.064"/>
            <feColorMatrix type="matrix" values="0 0 0 0 0.027451 0 0 0 0 0.0470588 0 0 0 0 0.286275 0 0 0 0.18 0"/>
            <feBlend mode="normal" in2="effect5_dropShadow" result="effect6_dropShadow"/>
            <feBlend mode="normal" in="SourceGraphic" in2="effect6_dropShadow" result="shape"/>
        </filter>
    </defs>
</svg>
