<svg width="431" height="302" viewBox="0 0 431 302" fill="none" xmlns="http://www.w3.org/2000/svg">
<path d="M59.4633 151.823C48.3851 96.2535 77.7026 38.1063 181.812 35.8767C286.323 33.6471 342.272 5.52957 375.824 49.0374C414.083 98.5837 401.565 225.546 338.161 258.835C274.757 292.124 70.5416 207.392 59.4633 151.823Z" fill="#EBF6FF"/>
<path d="M157.054 105.93C158.195 109.732 159.533 113.471 161.064 117.133C162.922 121.189 181.425 116.939 182.926 114.524C184.428 112.108 181.688 99.652 181.688 99.652L157.054 105.93Z" fill="#B3D5F2"/>
<path d="M148.786 101.162C148.786 101.162 150.52 113.068 152.742 115.871C154.964 118.673 162.31 118.836 162.31 118.836L158.92 106.139L148.786 101.162Z" fill="#A6CCE8"/>
<path d="M148.786 101.162C148.786 103.693 155.537 106.139 158.92 106.139C162.303 106.139 180.457 101.494 181.688 99.6751C182.919 97.8559 174.612 93.6212 172.46 93.7219C170.308 93.8225 148.786 98.6223 148.786 101.162Z" fill="#62CBF4"/>
<path d="M157.588 101.812L173.551 97.7321" stroke="#50B0D6" stroke-width="2" stroke-miterlimit="10" stroke-linecap="round"/>
<path d="M184.289 46.1653L225.854 39.0198L374.632 90.246L328.507 102.718L184.289 46.1653Z" fill="#50B0D6"/>
<path d="M102.499 163.427C102.499 163.427 102.499 191.916 115.211 209.188C128.495 227.249 208.536 270.943 256.789 263.797C305.043 256.652 366.403 180.513 365.806 169.133C365.432 162.764 365.432 156.38 365.806 150.011L243.086 98.5836L102.499 163.427Z" fill="#5CB9E7"/>
<path d="M311.476 225.213C279.658 246.835 233.247 256.04 174.403 225.213C133.117 203.583 113.035 176.712 104.728 162.591L102.545 163.605C102.545 163.605 102.545 192.087 115.257 209.366C128.534 227.419 208.574 271.121 256.812 263.975C303.951 257.008 363.584 184.183 365.76 170.217C353.582 185.878 332.316 211.046 311.476 225.213Z" fill="#3BB3E2"/>
<path d="M99.5648 156.808C99.5648 135.302 131.112 121.274 158.896 114.392C190.637 106.527 243.086 98.5836 243.086 98.5836L363.468 149.322C363.468 149.322 327.687 161.925 307.829 182.185C287.972 202.445 271.289 219.12 236.336 217.928C201.382 216.736 99.5648 179.236 99.5648 156.808Z" fill="#62CBF4"/>
<path d="M210.363 213.67C210.363 213.67 205.439 200.51 237.683 176.944C271.281 152.396 338.401 138.84 338.401 138.84" stroke="#5F9BBC" stroke-width="0.75" stroke-miterlimit="10"/>
<path d="M116.751 174.173C116.751 174.173 125.135 145.947 177.136 130.154C228.424 114.593 261.318 106.279 261.318 106.279" stroke="#5F9BBC" stroke-width="0.75" stroke-miterlimit="10"/>
<path d="M179.783 129.372C179.783 129.372 193.842 130.68 217.276 138.84C240.71 147 261.349 163.427 261.349 163.427" stroke="#5F9BBC" stroke-width="0.75" stroke-miterlimit="10"/>
<path d="M322.918 153.224C322.918 153.224 325.968 158.643 331.434 159.889C338.401 161.5 340.933 159.247 340.933 159.247L322.918 153.224Z" fill="#3BB3E2"/>
<path d="M344.145 157.954C344.145 157.954 349.356 159.053 356.091 155.035C362.826 151.018 365.814 150.011 365.814 150.011C365.814 150.011 376.072 129.372 376.072 107.657C376.155 101.82 375.673 95.9895 374.632 90.2459L333.16 99.6287L331.426 136.456L344.145 157.954Z" fill="#5CB9E7"/>
<path d="M216.494 112.178C216.494 112.178 235.91 120.129 255.009 127.53C274.107 134.931 327.78 155.036 327.78 155.036L311.971 93.5904L205.509 53.0244C205.509 53.0244 196.172 69.8624 203.612 91.9027C207.266 102.78 216.494 112.178 216.494 112.178Z" fill="#5CB9E7"/>
<path d="M216.494 112.178C216.494 112.178 198.239 115.274 189.662 98.3203C181.084 81.3662 184.289 46.1652 184.289 46.1652L205.509 53.0242C205.509 53.0242 205.416 84.9041 209.124 94.3876C212.832 103.871 216.494 112.178 216.494 112.178Z" fill="#62CBF4"/>
<path d="M210.099 53.0244C208.914 64.3668 209.56 75.8261 212.012 86.9636C216.084 104.769 220.775 110.963 244.317 120.198C267.86 129.434 322.128 150.832 322.128 150.832L327.749 155.02C327.749 155.02 220.976 117.543 216.494 112.178C212.012 106.813 206.848 92.3672 206.198 74.8944C205.547 57.4216 205.509 53.0244 205.509 53.0244H210.099Z" fill="#3BB3E2"/>
<path d="M344.145 157.954C344.145 157.954 325.891 161.051 317.313 144.097C308.735 127.142 311.94 93.5903 311.94 93.5903L333.16 99.6287C333.16 99.6287 333.067 130.68 336.775 140.172C340.484 149.663 344.145 157.954 344.145 157.954Z" fill="#62CBF4"/>
<path d="M348.79 176.449C343.371 177.223 339.972 172.307 341.165 165.479L347.884 127.026C349.077 120.206 354.465 113.974 359.853 113.184C365.272 112.41 368.671 117.326 367.478 124.154L360.759 162.599C359.566 169.412 354.178 175.659 348.79 176.449Z" fill="#A6CCE8"/>
<path d="M353.041 178.702C347.622 179.476 344.215 174.552 345.407 167.732L352.135 129.279C353.327 122.459 358.708 116.227 364.096 115.429C369.515 114.655 372.921 119.579 371.729 126.399L365.001 164.852C363.809 171.734 358.429 177.927 353.041 178.702Z" fill="#B3D5F2"/>
<path d="M196.11 106.558C196.11 106.558 200.244 110.591 208.551 112.395C216.858 114.199 224.367 115.375 224.367 115.375C224.367 115.375 211.439 116.575 202.776 113.099C194.113 109.623 192.433 107.254 192.433 107.254L196.11 106.558Z" fill="#3BB3E2"/>
<path d="M80.5436 194.649C80.5436 194.649 90.7703 214.158 85.9628 224.671C81.1552 235.184 74.1026 247.044 75.8213 257.96C77.5399 268.876 116.558 288.555 128.604 295.437C140.649 302.32 156.133 304.232 169.139 298.882C182.145 293.533 197.055 285.303 197.821 275.17C198.588 265.036 195.716 255.096 196.869 244.977C198.023 234.859 198.967 221.458 198.967 221.458C198.967 221.458 194.663 239.45 185.497 243.274C175.433 247.47 170.671 246.131 169.139 245.558C167.606 244.985 136.252 230.849 120.761 220.7C105.27 210.551 80.5436 194.649 80.5436 194.649Z" fill="#DFEDF7"/>
<path opacity="0.66" d="M198.998 221.42C198.998 221.42 175.672 208.801 161.327 202.492C146.982 196.182 111.611 181.264 110.271 181.078C108.932 180.893 105.301 187.194 100.138 192.164C94.9739 197.134 80.5436 194.649 80.5436 194.649C80.5436 194.649 108.297 215.126 131.166 226.824C154.035 238.521 166.421 247.308 173.42 246.178C180.418 245.047 181.239 248.663 189.677 240.294C194.771 235.196 198.046 228.564 198.998 221.42Z" fill="#FAFDFF"/>
<path d="M127.21 195.447V203.838C127.209 204.038 127.267 204.234 127.375 204.402C127.484 204.569 127.639 204.702 127.822 204.783L176.656 226.699C176.814 226.771 176.988 226.801 177.161 226.788C177.335 226.774 177.502 226.718 177.647 226.623C177.793 226.528 177.913 226.398 177.995 226.245C178.077 226.092 178.12 225.921 178.119 225.747V216.829C178.118 216.627 178.059 216.43 177.947 216.263C177.836 216.095 177.677 215.963 177.492 215.884L128.665 194.494C128.507 194.425 128.334 194.396 128.162 194.41C127.99 194.424 127.824 194.481 127.679 194.576C127.535 194.67 127.416 194.799 127.334 194.952C127.252 195.104 127.21 195.274 127.21 195.447Z" fill="#3E5676"/>
<path d="M126.289 195.447V203.838C126.288 204.038 126.346 204.234 126.454 204.402C126.563 204.569 126.718 204.702 126.9 204.783L175.734 226.699C175.893 226.771 176.067 226.801 176.24 226.788C176.413 226.774 176.58 226.718 176.726 226.623C176.872 226.528 176.991 226.398 177.074 226.245C177.156 226.092 177.199 225.921 177.198 225.747V216.829C177.199 216.628 177.14 216.431 177.03 216.263C176.92 216.095 176.763 215.963 176.578 215.884L127.744 194.494C127.586 194.425 127.413 194.396 127.241 194.41C127.069 194.424 126.903 194.481 126.758 194.576C126.614 194.67 126.495 194.799 126.413 194.952C126.331 195.104 126.288 195.274 126.289 195.447Z" fill="#032872"/>
<path opacity="0.7" d="M83.4002 228.178C83.4002 228.178 96.321 214.243 108.793 217.34C121.264 220.437 133.442 222.558 147.207 228.178C160.971 233.799 162.783 236.911 173.791 239.853C184.8 242.794 196.172 255.947 196.172 255.947C196.172 255.947 180.48 273.567 166.715 268.024C152.951 262.481 152.37 256.745 142.043 256.164C131.716 255.584 122.573 252.82 116.612 247.865C110.651 242.911 103.226 239.349 95.7713 236.47C91.1116 234.604 86.8966 231.779 83.4002 228.178Z" fill="#FAFDFF"/>
<path d="M117.765 245.868C114.514 250.296 118.988 259.803 122.41 265.222C125.832 270.641 126.459 277.392 129.331 279.203C132.203 281.015 139.124 281.309 143.003 279.497C146.881 277.686 153.121 274.272 153.067 268.837C153.013 263.402 154.081 259.191 153.067 255.367C152.053 251.542 151.472 247.323 147.075 244.528C142.678 241.734 139.333 240.905 137.011 239.303C134.688 237.7 125.042 239.86 121.791 240.464C118.539 241.068 117.765 245.868 117.765 245.868Z" fill="#E8B423"/>
<path d="M112.989 245.101C109.737 249.313 110.31 260.786 113.763 265.949C117.216 271.113 119.685 273.405 122.557 275.123C125.429 276.842 130.469 281.247 134.356 279.52C138.242 277.794 144.474 274.55 144.42 269.387C144.365 264.223 145.434 260.213 144.42 256.574C143.405 252.936 142.833 248.926 138.435 246.255C134.038 243.584 130.694 242.81 128.371 241.277C126.049 239.744 122.952 240.704 119.724 241.277C116.496 241.85 112.989 245.101 112.989 245.101Z" fill="#F7C939"/>
<path d="M120.165 244.041C119.244 244.343 116.473 245.589 118.617 246.278C120.761 246.967 122.154 247.749 122.154 246.278C122.154 244.807 120.165 244.041 120.165 244.041Z" fill="#E8B423"/>
<path d="M132.219 264.571C132.908 263.882 134.835 261.537 132.606 261.877C130.376 262.218 128.782 262.133 129.432 263.426C130.082 264.718 132.219 264.571 132.219 264.571Z" fill="#E8B423"/>
<path d="M115.242 255.421C114.932 255.885 116.194 257.743 116.643 256.807C117.092 255.87 115.242 255.421 115.242 255.421Z" fill="#E8B423"/>
<path d="M130.756 272.855C130.446 273.319 131.708 275.177 132.157 274.241C132.606 273.304 130.756 272.855 130.756 272.855Z" fill="#E8B423"/>
<path d="M133.377 253.188C134.165 253.054 134.617 251.839 134.386 250.473C134.155 249.107 133.329 248.108 132.541 248.242C131.752 248.375 131.3 249.59 131.531 250.956C131.762 252.322 132.589 253.321 133.377 253.188Z" fill="#E8B423"/>
<path d="M139.713 262.992C140.029 262.992 140.286 262.736 140.286 262.419C140.286 262.103 140.029 261.846 139.713 261.846C139.396 261.846 139.14 262.103 139.14 262.419C139.14 262.736 139.396 262.992 139.713 262.992Z" fill="#E8B423"/>
<path d="M120.281 266.863C121.068 266.863 121.706 266.225 121.706 265.438C121.706 264.652 121.068 264.014 120.281 264.014C119.495 264.014 118.857 264.652 118.857 265.438C118.857 266.225 119.495 266.863 120.281 266.863Z" fill="#E8B423"/>
<path opacity="0.5" d="M197.349 255.676C197.349 255.676 181.657 273.304 167.892 267.73C154.128 262.156 153.547 256.451 143.227 255.878C132.908 255.305 123.75 252.526 117.796 247.571C111.843 242.616 104.411 239.055 96.9482 236.183C92.2835 234.319 88.0632 231.494 84.5616 227.892C84.5616 227.892 74.5517 246.317 76.2781 257.217C78.0045 268.117 117.03 287.858 129.076 294.717C141.122 301.576 156.613 303.512 169.611 298.162C182.609 292.813 197.527 284.584 198.255 274.45C198.713 268.178 198.409 261.875 197.349 255.676Z" fill="#FAFDFF"/>
<path d="M194.794 241.548C195.905 239.619 196.91 237.632 197.806 235.595C198.51 227.969 198.998 221.087 198.998 221.087C198.998 221.087 194.694 239.078 185.528 242.903C175.464 247.091 170.702 245.752 169.17 245.179C167.637 244.606 136.283 230.47 120.792 220.32C105.301 210.171 80.536 194.316 80.536 194.316C80.536 194.316 82.7578 196.918 84.6468 202.507C101.222 212.571 162.729 250.505 171.647 250.667C181.982 250.861 191.876 246.464 194.794 241.548Z" fill="#B9DFFC"/>
<path d="M87.271 198.636C87.271 198.636 96.6616 199.511 101.283 194.649C105.905 189.788 109.458 184.965 110.836 185.174C112.214 185.383 163.882 206.177 175.649 212.478C187.416 218.78 197.612 225.693 197.612 225.693L198.998 221.087C198.998 221.087 168.179 205.325 151.557 198.249C134.936 191.173 114.011 180.552 110.271 181.078C106.532 181.605 102.754 191.684 97.5054 193.364C92.2566 195.044 80.5436 194.316 80.5436 194.316L87.271 198.636Z" fill="#C8E9FC"/>
<path d="M82.8042 198.056C82.8042 198.056 111.789 217.247 129.254 226.831C148.964 237.623 165.183 248.167 172.328 248.337C179.474 248.508 189.127 245.357 192.634 240.495C194.671 237.703 196.383 234.687 197.736 231.507" stroke="white" stroke-miterlimit="10" stroke-linecap="round"/>
<path d="M81.1939 247.803C80.265 249.955 80.0095 257.959 82.595 259.802C85.1805 261.644 81.9448 256.411 81.5732 252.107L81.1939 247.803Z" fill="#FAFDFF"/>
<path d="M136.167 291.574C135.083 292.805 139.411 296.993 149.715 297.899C160.019 298.805 164.168 294.957 163.239 294.191C162.31 293.424 157.209 296.335 149.777 296.087C143.011 295.871 137.251 290.343 136.167 291.574Z" fill="#FAFDFF"/>
<path d="M166.475 293.277C166.475 294.725 169.703 293.579 171.244 292.503C172.784 291.427 171.399 290.607 169.549 291.404C167.699 292.201 166.475 291.814 166.475 293.277Z" fill="#FAFDFF"/>
<path d="M342.982 39.0246C345.389 37.1486 341.451 33.025 344.831 31.4057C348.212 29.7863 351.459 42.9092 354.432 41.5465C357.406 40.1838 348.619 28.8306 350.247 28.0254C351.875 27.2201 355.264 33.5648 356.733 31.6711C358.202 29.7775 353.194 26.937 353.194 25.9901C353.194 25.0433 354.14 23.831 357.255 25.7247C360.37 27.6183 363.883 27.8838 364.556 26.2645C365.228 24.6451 362.591 21.4595 356.592 22.3444C354.096 22.7072 351.583 21.256 353.432 20.4507C357.857 18.5217 359.025 15.0352 355.875 14.1326C352.494 13.1681 348.203 16.3006 350.734 13.4159C351.321 12.7705 351.821 12.0505 352.22 11.2744C353.238 9.1684 352.955 7.40747 351.397 7.47826C348.698 7.5933 345.716 13.0708 344.637 12.3452C343.557 11.6195 347.698 6.93848 347.336 4.23072C346.973 1.52296 342.424 1.57605 342.026 7.1774C341.725 11.3098 338.69 12.3452 338.319 8.58438C337.496 0.133684 332.593 -1.06092 329.673 0.921235C323.992 4.7705 331.655 12.7964 328.054 14.9644C325.558 16.4599 320.028 8.83214 316.869 10.9028C313.276 13.2654 320.028 18.212 323.992 20.0171C327.956 21.8223 322.86 22.6718 320.028 23.5567C313.347 25.5389 313.258 27.521 313.834 28.866C314.409 30.2111 318.072 30.5827 322.851 27.0963C327.629 23.6098 327.956 27.521 327.452 28.3528C325.682 31.3349 322.364 34.2904 324.567 35.9275C326.771 37.5645 329.956 31.4234 331.691 31.4234C333.77 31.4234 331.151 34.8213 331.151 37.2813C331.151 39.0511 333.885 39.9891 334.85 36.4672C335.885 32.6799 339 32.8657 339.628 35.9275C340.256 38.9892 341.363 40.3077 342.982 39.0246Z" fill="#D4EEFF"/>
<path d="M363.06 26.0609C362.815 26.1432 362.557 26.1821 362.299 26.1759C362.001 26.1729 361.705 26.1403 361.414 26.0786C358.255 25.4415 352.565 22.07 352.025 26.0078C351.884 27.052 354.246 28.8217 355.291 29.8925C355.671 30.273 355.875 30.565 355.742 30.7065C355.609 30.8481 355.299 30.6358 354.857 30.2553C353.698 29.1934 351.724 26.7688 350.503 26.7953C350.214 26.7997 349.93 26.8693 349.672 26.9989C349.49 27.0864 349.328 27.21 349.196 27.3622C349.063 27.5143 348.963 27.6918 348.902 27.8837C348.645 28.7067 349.008 29.7774 349.893 31.5649C350.211 32.2109 350.601 32.9453 351.052 33.7948L351.22 34.1134C352.229 36.0247 353.99 39.4227 353.875 40.4492C353.131 40.0775 351.724 37.529 350.946 36.1221C350.601 35.4938 350.264 34.8832 349.919 34.2904C349.41 33.3545 348.817 32.4661 348.15 31.6357C347.835 31.1982 347.429 30.834 346.96 30.5682C346.491 30.3025 345.97 30.1413 345.433 30.096L345.141 30.1756C344.873 30.2088 344.613 30.2866 344.371 30.4057C343.7 30.6887 343.136 31.1767 342.76 31.7997C342.383 32.4228 342.213 33.149 342.274 33.8745C342.298 34.49 342.372 35.1026 342.495 35.7062C342.752 37.1043 342.814 37.7591 342.309 38.1573C342.191 38.2687 342.044 38.3452 341.885 38.3785C341.885 38.3785 341.247 38.1042 340.743 35.7239V35.5734C340.581 34.8939 340.27 34.259 339.832 33.7152C339.579 33.3589 339.257 33.0579 338.885 32.8303C338.435 32.5623 337.921 32.4216 337.398 32.4232H337.106C335.841 32.556 334.345 33.5736 333.655 36.1132C333.363 37.1574 332.903 37.6352 332.602 37.6352C332.502 37.6262 332.409 37.5788 332.343 37.5029C332.277 37.4271 332.243 37.3286 332.248 37.2282C332.299 36.5202 332.46 35.8245 332.726 35.1664C332.806 34.9452 332.885 34.7328 332.956 34.5204C333.469 33.1223 333.92 31.8658 333.266 30.9809C333.076 30.7271 332.827 30.5245 332.539 30.3917C332.252 30.2588 331.936 30.1997 331.62 30.2199C330.407 30.2199 329.416 31.3083 328.142 32.6887C327.346 33.5736 326.01 35.016 325.346 35.016C325.29 35.0152 325.236 34.993 325.195 34.954C324.983 34.7947 324.797 34.662 325.063 33.9718C325.543 32.983 326.137 32.0535 326.833 31.2021C327.372 30.4676 327.93 29.7066 328.399 28.9279C328.622 28.5242 328.741 28.0709 328.744 27.6094C328.785 26.963 328.641 26.3183 328.328 25.7512C328.104 25.3327 327.768 24.9855 327.356 24.7492C326.945 24.5129 326.475 24.3971 326.001 24.415C324.568 24.566 323.218 25.1563 322.134 26.1051C319.019 28.397 316.824 28.6448 316.028 28.6448C315.63 28.6863 315.229 28.5962 314.887 28.3881C314.814 28.2518 314.777 28.0999 314.777 27.9457C314.777 27.7915 314.814 27.6396 314.887 27.5032C315.143 26.9546 316.214 25.8574 320.382 24.6185C320.789 24.4946 321.267 24.3796 321.709 24.2469C328.142 22.5302 327.461 20.256 324.505 18.9375C318.709 16.2829 315.099 11.708 318.134 11.708C319.276 11.708 320.983 12.9114 322.497 13.9644C324.213 15.1767 325.833 16.3182 327.328 16.3182C327.679 16.3337 328.029 16.2793 328.359 16.1583C328.689 16.0373 328.991 15.8521 329.249 15.6135C329.506 15.3748 329.714 15.0874 329.86 14.7678C330.005 14.4483 330.086 14.1031 330.098 13.7521C330.134 13.4793 330.152 13.2043 330.151 12.9291C330.14 12.2 330.057 11.4738 329.903 10.7611C329.806 10.2833 329.673 9.76122 329.505 9.21259C326.735 -0.176084 336.142 -1.92816 337.186 8.69051C337.487 11.7788 339.354 12.6283 340.893 11.5133C341.242 11.2419 341.541 10.9126 341.778 10.5399C342.177 9.96271 342.476 9.32258 342.663 8.64626C342.815 8.08386 342.919 7.50956 342.973 6.92958C343.318 3.07146 346.105 3.39002 346.229 4.38109C346.353 5.37217 345.344 7.33662 344.61 8.7259C342.097 13.3981 344.61 15.9997 347.964 11.3806C348.412 10.7504 348.913 10.1584 349.459 9.61079C349.749 9.30592 350.083 9.0464 350.45 8.84094C351.698 8.26576 352.016 9.58424 351.22 11.0443C351.122 11.222 351.012 11.3934 350.893 11.5575C350.59 11.975 350.229 12.3475 349.822 12.6637C349.417 12.9143 349.108 13.2945 348.946 13.7426C348.783 14.1907 348.777 14.6805 348.928 15.1325C349.406 16.2032 351.034 15.6015 352.609 15.336C354.53 15.0175 356.397 14.9644 356.485 16.0793C356.538 16.7607 355.6 18.2739 352.946 19.4419C351.468 20.0879 351.547 21.2117 351.645 21.5037C352.654 24.7955 360.361 21.6984 363.405 24.9725C363.909 25.4415 363.635 25.8662 363.06 26.0609Z" fill="#B9DFFC"/>
<path d="M333.133 5.39868C333.133 5.57368 333.081 5.74475 332.984 5.89026C332.886 6.03576 332.748 6.14917 332.587 6.21614C332.425 6.28311 332.247 6.30064 332.075 6.2665C331.904 6.23235 331.746 6.14808 331.622 6.02434C331.499 5.90059 331.414 5.74293 331.38 5.5713C331.346 5.39966 331.363 5.22175 331.43 5.06007C331.497 4.89839 331.611 4.7602 331.756 4.66297C331.902 4.56575 332.073 4.51385 332.248 4.51385C332.483 4.51385 332.708 4.60708 332.874 4.77301C333.04 4.93895 333.133 5.16401 333.133 5.39868Z" fill="#EBF6FF"/>
<path d="M346.911 27.5651C346.911 27.7402 346.859 27.9112 346.762 28.0567C346.664 28.2022 346.526 28.3156 346.364 28.3826C346.203 28.4496 346.025 28.4671 345.853 28.433C345.682 28.3988 345.524 28.3146 345.4 28.1908C345.276 28.0671 345.192 27.9094 345.158 27.7378C345.124 27.5661 345.141 27.3882 345.208 27.2265C345.275 27.0649 345.389 26.9267 345.534 26.8294C345.68 26.7322 345.851 26.6803 346.026 26.6803C346.261 26.6803 346.486 26.7736 346.652 26.9395C346.817 27.1054 346.911 27.3305 346.911 27.5651Z" fill="#EBF6FF"/>
<path d="M330.93 22.4948C330.882 22.6861 330.771 22.8559 330.616 22.9772C330.46 23.0986 330.269 23.1645 330.071 23.1645C329.874 23.1645 329.683 23.0986 329.527 22.9772C329.372 22.8559 329.261 22.6861 329.213 22.4948C329.261 22.3034 329.372 22.1336 329.527 22.0123C329.683 21.8909 329.874 21.825 330.071 21.825C330.269 21.825 330.46 21.8909 330.616 22.0123C330.771 22.1336 330.882 22.3034 330.93 22.4948Z" fill="#EBF6FF"/>
<path d="M334.85 13.1592C334.85 13.4357 334.768 13.706 334.614 13.9359C334.46 14.1658 334.242 14.345 333.987 14.4508C333.731 14.5566 333.45 14.5843 333.179 14.5303C332.908 14.4764 332.659 14.3433 332.463 14.1477C332.267 13.9522 332.134 13.7031 332.08 13.4319C332.026 13.1607 332.054 12.8796 332.16 12.6242C332.266 12.3687 332.445 12.1504 332.675 11.9968C332.905 11.8432 333.175 11.7612 333.452 11.7612C333.822 11.7612 334.178 11.9085 334.44 12.1706C334.702 12.4328 334.85 12.7884 334.85 13.1592Z" fill="#EBF6FF"/>
<path d="M350.538 23.4416C350.538 23.7181 350.456 23.9884 350.303 24.2183C350.149 24.4482 349.931 24.6274 349.675 24.7332C349.42 24.839 349.139 24.8667 348.868 24.8127C348.597 24.7588 348.347 24.6256 348.152 24.4301C347.956 24.2346 347.823 23.9855 347.769 23.7143C347.715 23.4431 347.743 23.162 347.849 22.9066C347.955 22.6511 348.134 22.4328 348.364 22.2792C348.594 22.1255 348.864 22.0435 349.14 22.0435C349.511 22.0435 349.867 22.1908 350.129 22.453C350.391 22.7152 350.538 23.0708 350.538 23.4416Z" fill="#EBF6FF"/>
<path d="M346.619 18.911C346.619 19.121 346.556 19.3263 346.44 19.5009C346.323 19.6755 346.157 19.8116 345.963 19.892C345.769 19.9724 345.556 19.9934 345.35 19.9524C345.144 19.9114 344.955 19.8103 344.806 19.6618C344.658 19.5133 344.556 19.3241 344.515 19.1182C344.474 18.9122 344.496 18.6987 344.576 18.5047C344.656 18.3107 344.792 18.1449 344.967 18.0282C345.142 17.9115 345.347 17.8492 345.557 17.8492C345.838 17.8492 346.109 17.9611 346.308 18.1602C346.507 18.3594 346.619 18.6294 346.619 18.911Z" fill="#EBF6FF"/>
<path d="M330.832 28.8483C330.784 29.0396 330.674 29.2094 330.518 29.3308C330.363 29.4521 330.171 29.518 329.974 29.518C329.776 29.518 329.585 29.4521 329.429 29.3308C329.274 29.2094 329.163 29.0396 329.115 28.8483C329.163 28.657 329.274 28.4872 329.429 28.3658C329.585 28.2445 329.776 28.1786 329.974 28.1786C330.171 28.1786 330.363 28.2445 330.518 28.3658C330.674 28.4872 330.784 28.657 330.832 28.8483Z" fill="#EBF6FF"/>
<path d="M323.019 15.8403C323.019 16.0069 322.969 16.1698 322.876 16.3082C322.784 16.4466 322.652 16.5544 322.498 16.6177C322.344 16.6811 322.174 16.6972 322.011 16.664C321.847 16.6309 321.698 16.5499 321.581 16.4315C321.463 16.3131 321.384 16.1625 321.353 15.9988C321.321 15.8352 321.339 15.6659 321.404 15.5125C321.469 15.359 321.578 15.2284 321.717 15.1371C321.857 15.0458 322.02 14.998 322.187 14.9997C322.408 15.0021 322.62 15.0917 322.776 15.249C322.931 15.4064 323.019 15.6189 323.019 15.8403Z" fill="#EBF6FF"/>
<path d="M349.902 18.3713C349.902 18.5204 349.857 18.6661 349.774 18.79C349.691 18.9139 349.573 19.0103 349.435 19.0669C349.297 19.1236 349.146 19.1379 349 19.1082C348.853 19.0784 348.719 19.0059 348.615 18.8999C348.51 18.7938 348.439 18.659 348.411 18.5125C348.383 18.366 348.399 18.2145 348.457 18.0773C348.516 17.94 348.613 17.8232 348.738 17.7416C348.863 17.66 349.009 17.6174 349.158 17.6192C349.356 17.6215 349.545 17.7018 349.685 17.8426C349.824 17.9833 349.902 18.1733 349.902 18.3713Z" fill="#EBF6FF"/>
<path d="M336.734 20.0703C336.734 20.1528 336.718 20.2345 336.687 20.3107C336.655 20.3869 336.609 20.4562 336.55 20.5145C336.492 20.5728 336.423 20.6191 336.347 20.6507C336.27 20.6822 336.189 20.6985 336.106 20.6985C336.024 20.6985 335.943 20.6822 335.867 20.6505C335.791 20.6188 335.723 20.5724 335.665 20.514C335.607 20.4555 335.562 20.3862 335.531 20.31C335.501 20.2338 335.486 20.1524 335.487 20.0703C335.487 19.906 335.552 19.7485 335.668 19.6323C335.784 19.5162 335.942 19.4509 336.106 19.4509C336.188 19.4497 336.27 19.4649 336.346 19.4955C336.422 19.5261 336.491 19.5715 336.55 19.6292C336.608 19.6868 336.655 19.7555 336.686 19.8312C336.718 19.9069 336.734 19.9882 336.734 20.0703Z" fill="#EBF6FF"/>
<path d="M336.602 27.1846C336.876 27.1846 337.097 26.9628 337.097 26.6891C337.097 26.4154 336.876 26.1936 336.602 26.1936C336.328 26.1936 336.106 26.4154 336.106 26.6891C336.106 26.9628 336.328 27.1846 336.602 27.1846Z" fill="#EBF6FF"/>
<path d="M342.212 13.3628C342.212 13.4611 342.183 13.5573 342.128 13.6389C342.073 13.7206 341.995 13.7841 341.904 13.8213C341.813 13.8586 341.713 13.8678 341.616 13.848C341.52 13.8282 341.432 13.7801 341.363 13.7099C341.294 13.6397 341.247 13.5506 341.229 13.4539C341.211 13.3572 341.222 13.2573 341.261 13.1669C341.3 13.0766 341.365 12.9998 341.448 12.9464C341.53 12.8931 341.627 12.8655 341.725 12.8673C341.855 12.8696 341.979 12.9228 342.07 13.0155C342.161 13.1082 342.212 13.2329 342.212 13.3628Z" fill="#EBF6FF"/>
<path d="M344.76 5.69963C344.76 5.77488 344.738 5.84844 344.696 5.91101C344.654 5.97357 344.595 6.02234 344.526 6.05114C344.456 6.07993 344.38 6.08747 344.306 6.07279C344.232 6.05811 344.164 6.02187 344.111 5.96866C344.058 5.91545 344.021 5.84766 344.007 5.77385C343.992 5.70005 344 5.62355 344.028 5.55403C344.057 5.4845 344.106 5.42508 344.169 5.38327C344.231 5.34147 344.305 5.31915 344.38 5.31915C344.481 5.31915 344.578 5.35924 344.649 5.43059C344.72 5.50194 344.76 5.59872 344.76 5.69963Z" fill="#EBF6FF"/>
<path d="M349.901 11C349.901 11.0949 349.873 11.1876 349.82 11.2664C349.767 11.3451 349.692 11.4063 349.604 11.4422C349.517 11.4781 349.42 11.487 349.327 11.4679C349.234 11.4487 349.149 11.4023 349.083 11.3346C349.016 11.2669 348.971 11.1809 348.954 11.0877C348.937 10.9944 348.947 10.8981 348.985 10.8109C349.022 10.7238 349.085 10.6498 349.165 10.5984C349.244 10.547 349.338 10.5205 349.432 10.5222C349.495 10.5222 349.556 10.5346 349.614 10.5587C349.671 10.5829 349.724 10.6182 349.767 10.6627C349.811 10.7072 349.845 10.7599 349.868 10.8178C349.891 10.8758 349.903 10.9377 349.901 11Z" fill="#EBF6FF"/>
<path d="M340.973 31.4852C340.974 31.5475 340.963 31.6095 340.94 31.6674C340.917 31.7253 340.883 31.7781 340.839 31.8226C340.795 31.867 340.743 31.9024 340.686 31.9265C340.628 31.9506 340.566 31.963 340.504 31.963C340.437 31.9723 340.368 31.967 340.302 31.9474C340.237 31.9279 340.177 31.8946 340.125 31.8497C340.074 31.8049 340.033 31.7495 340.004 31.6874C339.976 31.6253 339.961 31.5579 339.961 31.4896C339.961 31.4214 339.976 31.354 340.004 31.2919C340.033 31.2298 340.074 31.1744 340.125 31.1296C340.177 31.0847 340.237 31.0514 340.302 31.0319C340.368 31.0123 340.437 31.007 340.504 31.0163C340.629 31.0163 340.748 31.0657 340.836 31.1536C340.924 31.2416 340.973 31.3608 340.973 31.4852Z" fill="#EBF6FF"/>
<path d="M359.573 24.5212C359.575 24.6164 359.548 24.71 359.497 24.7899C359.445 24.8698 359.37 24.9324 359.283 24.9697C359.195 25.0069 359.098 25.0171 359.005 24.999C358.911 24.9808 358.825 24.9351 358.758 24.8678C358.69 24.8004 358.645 24.7145 358.627 24.621C358.608 24.5275 358.619 24.4307 358.656 24.343C358.693 24.2554 358.756 24.1809 358.836 24.129C358.916 24.0772 359.009 24.0505 359.104 24.0522C359.228 24.0545 359.346 24.1046 359.433 24.1921C359.521 24.2795 359.571 24.3975 359.573 24.5212Z" fill="#EBF6FF"/>
<path d="M338.099 249.228C337.797 247.78 335.165 248.616 335.18 246.797C335.196 244.978 341.591 246.371 341.637 244.792C341.683 243.213 334.879 244.606 334.871 243.723C334.863 242.841 338.347 242.725 337.844 241.687C337.34 240.65 335.033 242.206 334.623 242.005C334.213 241.804 333.888 241.13 335.397 240.178C336.907 239.226 337.72 237.762 337.186 237.081C336.651 236.4 334.685 236.911 333.779 239.713C333.408 240.875 332.231 241.656 332.285 240.681C332.386 238.359 331.132 237.097 330.063 238.273C328.995 239.45 329.367 242.067 328.654 240.356C328.495 239.966 328.284 239.598 328.027 239.264C327.33 238.374 326.479 238.119 326.2 238.808C325.674 240.007 327.416 242.469 326.874 242.787C326.332 243.104 325.178 240.302 323.924 239.884C322.67 239.466 321.733 241.432 324.071 242.818C325.798 243.832 325.62 245.372 323.893 244.73C320.022 243.29 318.474 245.156 318.714 246.851C319.179 250.141 324.296 248.523 324.466 250.552C324.59 251.953 320.092 252.727 320.317 254.546C320.58 256.613 324.187 254.732 325.798 253.393C327.408 252.053 326.719 254.461 326.479 255.87C325.914 259.191 326.758 259.648 327.462 259.702C328.167 259.756 329.111 258.231 328.6 255.406C328.089 252.58 329.877 253.277 330.148 253.679C331.054 255.096 331.635 257.155 332.819 256.544C334.004 255.932 332.045 253.238 332.386 252.487C332.827 251.589 333.741 253.447 334.817 253.973C335.591 254.353 336.574 253.362 335.25 252.193C333.926 251.024 334.569 249.623 336.024 250.002C337.48 250.381 338.316 250.203 338.099 249.228Z" fill="#D4EEFF"/>
<path d="M336.76 237.739C336.74 237.862 336.703 237.982 336.652 238.095C336.584 238.218 336.507 238.334 336.419 238.443C335.467 239.682 332.789 241.439 334.391 242.508C334.809 242.794 336.087 242.144 336.776 241.919C337.023 241.834 337.194 241.811 337.225 241.919C337.256 242.028 337.093 242.098 336.845 242.198C336.133 242.469 334.654 242.81 334.414 243.352C334.353 243.477 334.321 243.615 334.322 243.754C334.322 243.851 334.342 243.948 334.38 244.037C334.419 244.126 334.475 244.206 334.546 244.273C334.848 244.567 335.39 244.637 336.358 244.637H337.573H337.743C338.788 244.637 340.639 244.567 341.057 244.854C340.247 245.102 339.403 245.217 338.556 245.194L337.542 245.256C337.02 245.281 336.502 245.353 335.994 245.473C335.735 245.515 335.489 245.613 335.272 245.76C335.056 245.907 334.874 246.1 334.74 246.324C334.717 246.372 334.699 246.421 334.685 246.472C334.639 246.595 334.615 246.726 334.616 246.859C334.596 247.21 334.689 247.559 334.879 247.855C335.069 248.151 335.348 248.379 335.676 248.508C335.948 248.632 336.23 248.73 336.52 248.802C337.186 248.988 337.48 249.104 337.542 249.406C337.542 249.545 337.542 249.615 337.542 249.638C337.542 249.661 337.287 249.855 336.133 249.56H336.056C335.737 249.492 335.407 249.492 335.088 249.56C334.882 249.596 334.687 249.675 334.515 249.793C334.302 249.93 334.131 250.122 334.02 250.35C333.998 250.39 333.98 250.431 333.965 250.474C333.749 251.055 333.872 251.922 334.832 252.796C335.22 253.145 335.336 253.447 335.266 253.571C335.242 253.612 335.202 253.642 335.156 253.655C335.11 253.668 335.061 253.663 335.018 253.64C334.731 253.461 334.471 253.242 334.244 252.99L334.02 252.75C333.516 252.231 333.083 251.775 332.533 251.86C332.383 251.887 332.241 251.952 332.122 252.048C332.003 252.144 331.91 252.268 331.852 252.409C331.596 252.936 331.852 253.602 332.185 254.445C332.394 254.98 332.742 255.87 332.595 256.156C332.595 256.156 332.595 256.156 332.541 256.21C332.487 256.265 332.324 256.319 332.084 256.063C331.759 255.644 331.481 255.189 331.256 254.709C331.047 254.314 330.838 253.934 330.598 253.54C330.469 253.36 330.299 253.214 330.102 253.114C329.833 252.965 329.527 252.893 329.22 252.905C329.134 252.91 329.048 252.922 328.964 252.944C328.785 252.991 328.619 253.077 328.477 253.196C328.335 253.315 328.221 253.464 328.144 253.633C327.896 254.286 327.858 255 328.035 255.676C328.307 256.734 328.236 257.851 327.834 258.866C327.679 259.191 327.524 259.292 327.478 259.307C327.407 259.31 327.336 259.296 327.272 259.267C327.207 259.237 327.15 259.193 327.106 259.137C326.928 258.905 326.673 258.208 327.029 256.133C327.029 255.932 327.106 255.715 327.153 255.475C327.78 252.316 326.642 252.131 325.426 253.153C323.05 255.103 320.278 255.692 320.929 254.368C321.445 253.753 322.1 253.27 322.841 252.959C323.66 252.629 324.371 252.077 324.892 251.364C324.977 251.216 325.03 251.052 325.049 250.882C325.068 250.712 325.053 250.54 325.004 250.377C324.955 250.213 324.873 250.061 324.763 249.93C324.653 249.799 324.518 249.692 324.366 249.615C324.257 249.54 324.143 249.472 324.025 249.413C323.705 249.261 323.37 249.142 323.027 249.057C322.771 248.992 322.513 248.941 322.252 248.902C317.607 248.128 318.831 243.638 323.669 245.45C325.07 245.976 325.844 245.357 325.682 244.443C325.643 244.233 325.567 244.031 325.457 243.847C325.286 243.556 325.069 243.295 324.815 243.073C324.602 242.886 324.374 242.718 324.134 242.57C322.531 241.594 323.266 240.456 323.723 240.611C324.18 240.766 324.815 241.625 325.272 242.245C326.766 244.335 328.43 243.793 327.145 241.354C326.968 241.027 326.821 240.685 326.704 240.332C326.632 240.12 326.593 239.898 326.588 239.674C326.588 239.016 327.246 239.156 327.71 239.814C327.766 239.893 327.818 239.976 327.865 240.061C327.981 240.283 328.064 240.52 328.113 240.766C328.213 241.215 328.492 241.672 328.972 241.687C329.452 241.703 329.622 240.874 329.847 240.139C330.118 239.241 330.489 238.413 330.993 238.591C331.302 238.714 331.767 239.434 331.705 240.836C331.705 241.61 332.169 241.819 332.324 241.842C333.965 242.105 334.267 238.095 336.342 237.476C336.675 237.236 336.799 237.445 336.76 237.739Z" fill="#B9DFFC"/>
<path d="M321.393 246.325C321.493 246.375 321.569 246.462 321.605 246.568C321.642 246.673 321.635 246.789 321.586 246.89C321.562 246.941 321.528 246.987 321.486 247.025C321.445 247.062 321.395 247.092 321.342 247.11C321.289 247.129 321.232 247.137 321.176 247.134C321.119 247.13 321.064 247.116 321.014 247.091C320.913 247.039 320.837 246.951 320.8 246.844C320.764 246.737 320.771 246.62 320.82 246.518C320.845 246.468 320.879 246.423 320.921 246.385C320.964 246.348 321.013 246.32 321.066 246.302C321.119 246.284 321.176 246.277 321.232 246.281C321.288 246.284 321.343 246.299 321.393 246.325Z" fill="#EBF6FF"/>
<path d="M333.973 245.063C334.073 245.114 334.15 245.203 334.186 245.31C334.222 245.417 334.215 245.533 334.166 245.635C334.116 245.738 334.027 245.816 333.919 245.853C333.811 245.891 333.692 245.883 333.59 245.833C333.487 245.782 333.409 245.693 333.371 245.585C333.334 245.477 333.342 245.359 333.392 245.256C333.444 245.154 333.534 245.076 333.643 245.039C333.751 245.003 333.87 245.011 333.973 245.063Z" fill="#EBF6FF"/>
<path d="M328.353 250.931C328.455 250.979 328.534 251.066 328.573 251.173C328.611 251.279 328.606 251.397 328.558 251.5C328.509 251.602 328.422 251.682 328.316 251.72C328.209 251.759 328.091 251.753 327.989 251.705C327.886 251.657 327.807 251.57 327.768 251.463C327.73 251.356 327.735 251.239 327.784 251.136C327.832 251.033 327.919 250.954 328.026 250.916C328.132 250.877 328.25 250.883 328.353 250.931Z" fill="#EBF6FF"/>
<path d="M325.132 247.238C325.213 247.276 325.285 247.33 325.345 247.396C325.404 247.463 325.45 247.541 325.479 247.625C325.508 247.71 325.519 247.799 325.513 247.888C325.507 247.977 325.482 248.064 325.442 248.144C325.383 248.263 325.29 248.362 325.174 248.428C325.059 248.494 324.927 248.525 324.794 248.516C324.662 248.507 324.535 248.46 324.429 248.379C324.324 248.298 324.244 248.188 324.201 248.062C324.158 247.936 324.154 247.801 324.187 247.672C324.221 247.544 324.293 247.428 324.392 247.34C324.492 247.252 324.615 247.195 324.747 247.177C324.878 247.159 325.012 247.18 325.132 247.238Z" fill="#EBF6FF"/>
<path d="M332.951 242.616C333.112 242.695 333.235 242.835 333.293 243.005C333.351 243.175 333.34 243.361 333.26 243.522C333.181 243.683 333.042 243.806 332.872 243.864C332.702 243.922 332.516 243.911 332.355 243.831C332.274 243.794 332.202 243.74 332.142 243.673C332.082 243.607 332.037 243.529 332.008 243.444C331.979 243.36 331.967 243.27 331.974 243.181C331.98 243.092 332.004 243.005 332.045 242.926C332.125 242.765 332.265 242.643 332.434 242.585C332.604 242.527 332.789 242.538 332.951 242.616Z" fill="#EBF6FF"/>
<path d="M330.141 243.352C330.201 243.381 330.255 243.422 330.3 243.473C330.345 243.523 330.379 243.582 330.401 243.645C330.423 243.709 330.432 243.776 330.428 243.843C330.424 243.911 330.406 243.976 330.377 244.037C330.347 244.097 330.306 244.151 330.256 244.196C330.206 244.241 330.147 244.275 330.083 244.297C330.02 244.319 329.952 244.328 329.885 244.324C329.818 244.32 329.752 244.302 329.692 244.273C329.57 244.213 329.476 244.108 329.432 243.979C329.388 243.851 329.396 243.71 329.456 243.588C329.515 243.466 329.621 243.372 329.749 243.328C329.878 243.284 330.019 243.292 330.141 243.352Z" fill="#EBF6FF"/>
<path d="M331.132 252.332C331.231 252.38 331.307 252.466 331.343 252.571C331.38 252.675 331.373 252.79 331.325 252.889C331.275 252.987 331.189 253.062 331.085 253.097C330.98 253.131 330.866 253.124 330.768 253.075C330.668 253.027 330.592 252.941 330.556 252.836C330.52 252.732 330.526 252.617 330.574 252.518C330.624 252.42 330.71 252.345 330.815 252.31C330.919 252.276 331.033 252.283 331.132 252.332Z" fill="#EBF6FF"/>
<path d="M323.777 252.951C323.871 253.001 323.943 253.085 323.976 253.186C324.009 253.287 324.002 253.397 323.955 253.493C323.932 253.541 323.9 253.584 323.86 253.619C323.82 253.655 323.774 253.682 323.723 253.699C323.673 253.717 323.619 253.724 323.566 253.72C323.513 253.717 323.461 253.703 323.413 253.679C323.319 253.629 323.248 253.545 323.215 253.444C323.182 253.343 323.189 253.233 323.235 253.137C323.258 253.089 323.291 253.046 323.331 253.011C323.371 252.975 323.417 252.948 323.467 252.931C323.518 252.914 323.571 252.907 323.624 252.91C323.678 252.914 323.73 252.928 323.777 252.951Z" fill="#EBF6FF"/>
<path d="M330.613 241.811C330.656 241.832 330.695 241.861 330.727 241.897C330.759 241.933 330.783 241.975 330.798 242.02C330.813 242.066 330.819 242.114 330.815 242.162C330.811 242.21 330.798 242.256 330.775 242.299C330.755 242.344 330.726 242.384 330.69 242.417C330.654 242.451 330.612 242.476 330.566 242.493C330.519 242.509 330.47 242.516 330.421 242.513C330.372 242.51 330.324 242.497 330.281 242.475C330.237 242.454 330.198 242.423 330.166 242.385C330.134 242.348 330.11 242.305 330.096 242.258C330.081 242.211 330.076 242.162 330.081 242.113C330.086 242.064 330.101 242.017 330.125 241.974C330.168 241.887 330.244 241.822 330.335 241.792C330.427 241.761 330.527 241.768 330.613 241.811Z" fill="#EBF6FF"/>
<path d="M328.538 247.896C328.575 247.913 328.607 247.936 328.634 247.966C328.661 247.995 328.681 248.03 328.694 248.068C328.707 248.105 328.712 248.145 328.71 248.185C328.707 248.225 328.696 248.263 328.678 248.299C328.662 248.337 328.639 248.372 328.609 248.401C328.58 248.43 328.545 248.452 328.506 248.467C328.468 248.482 328.426 248.489 328.385 248.487C328.344 248.485 328.303 248.475 328.266 248.457C328.229 248.439 328.196 248.413 328.169 248.382C328.142 248.351 328.121 248.314 328.109 248.275C328.097 248.235 328.093 248.193 328.098 248.152C328.102 248.111 328.115 248.071 328.136 248.035C328.152 247.999 328.176 247.967 328.205 247.94C328.235 247.913 328.27 247.893 328.307 247.88C328.345 247.867 328.385 247.861 328.424 247.864C328.464 247.867 328.503 247.878 328.538 247.896Z" fill="#EBF6FF"/>
<path d="M331.602 249.482C331.661 249.363 331.611 249.219 331.493 249.16C331.374 249.102 331.23 249.151 331.171 249.27C331.113 249.389 331.162 249.533 331.281 249.591C331.4 249.65 331.544 249.601 331.602 249.482Z" fill="#EBF6FF"/>
<path d="M326.789 244.079C326.845 244.108 326.887 244.157 326.907 244.216C326.928 244.275 326.924 244.34 326.897 244.397C326.877 244.44 326.844 244.476 326.803 244.5C326.762 244.524 326.714 244.536 326.667 244.533C326.619 244.53 326.573 244.514 326.535 244.485C326.497 244.456 326.469 244.416 326.453 244.371C326.438 244.326 326.436 244.277 326.449 244.231C326.461 244.185 326.487 244.144 326.523 244.113C326.559 244.081 326.603 244.061 326.651 244.055C326.698 244.05 326.746 244.058 326.789 244.079Z" fill="#EBF6FF"/>
<path d="M324.009 241.339C324.042 241.355 324.07 241.38 324.088 241.412C324.107 241.444 324.116 241.48 324.114 241.517C324.111 241.554 324.098 241.589 324.076 241.618C324.054 241.648 324.023 241.67 323.988 241.682C323.954 241.694 323.916 241.695 323.881 241.686C323.845 241.676 323.813 241.656 323.789 241.629C323.764 241.601 323.749 241.567 323.744 241.531C323.739 241.494 323.745 241.457 323.761 241.424C323.783 241.38 323.821 241.346 323.868 241.33C323.914 241.314 323.965 241.317 324.009 241.339Z" fill="#EBF6FF"/>
<path d="M327.408 240.24C327.435 240.252 327.46 240.27 327.48 240.292C327.5 240.314 327.516 240.34 327.526 240.368C327.536 240.396 327.54 240.426 327.539 240.456C327.537 240.485 327.529 240.515 327.516 240.542C327.49 240.597 327.442 240.639 327.384 240.66C327.326 240.68 327.262 240.677 327.207 240.65C327.179 240.637 327.155 240.618 327.135 240.595C327.115 240.572 327.099 240.546 327.09 240.517C327.081 240.488 327.077 240.457 327.08 240.427C327.083 240.396 327.092 240.367 327.106 240.34C327.119 240.313 327.136 240.289 327.159 240.269C327.181 240.249 327.207 240.233 327.235 240.224C327.264 240.215 327.294 240.211 327.323 240.214C327.353 240.216 327.382 240.225 327.408 240.24Z" fill="#EBF6FF"/>
<path d="M334.407 248.484C334.459 248.513 334.499 248.56 334.517 248.617C334.536 248.674 334.531 248.736 334.505 248.789C334.48 248.843 334.434 248.885 334.378 248.906C334.322 248.927 334.26 248.926 334.205 248.902C334.15 248.876 334.108 248.828 334.087 248.77C334.067 248.712 334.07 248.648 334.097 248.593C334.124 248.537 334.171 248.495 334.23 248.475C334.288 248.454 334.351 248.458 334.407 248.484Z" fill="#EBF6FF"/>
<path d="M335.351 238.923C335.403 238.952 335.442 238.998 335.461 239.054C335.48 239.111 335.476 239.172 335.451 239.225C335.439 239.253 335.421 239.277 335.399 239.297C335.377 239.317 335.351 239.333 335.323 239.343C335.295 239.353 335.265 239.357 335.235 239.356C335.206 239.354 335.176 239.347 335.15 239.334C335.094 239.307 335.052 239.259 335.031 239.201C335.011 239.143 335.015 239.08 335.041 239.024C335.069 238.97 335.117 238.929 335.175 238.91C335.233 238.892 335.296 238.896 335.351 238.923Z" fill="#EBF6FF"/>
<path d="M56.8621 50.8257C56.3821 50.8257 55.9718 51.4992 55.7628 52.4747C54.9886 52.5598 54.2144 52.6218 53.4403 52.6527C53.2854 52.1495 53.0455 51.8166 52.7668 51.8166C52.4881 51.8166 52.2403 52.165 52.0855 52.6915C51.5746 52.6915 51.0714 52.6915 50.5372 52.645C50.3671 49.8023 49.6217 47.0238 48.3463 44.4776C48.7721 44.1989 49.1979 43.9279 49.6391 43.7034C50.034 44.0828 50.4133 44.2531 50.6688 44.1138C50.9243 43.9744 50.9475 43.5718 50.8314 43.0531C51.5204 42.697 52.2171 42.3564 52.9293 42.0467C53.6029 42.8209 54.2919 43.1693 54.7099 42.9293C55.306 42.5809 55.0892 41.0868 54.2299 39.5927C53.3706 38.0985 52.1707 37.1618 51.5746 37.5024C51.1642 37.7424 51.141 38.532 51.4507 39.4843C50.8236 39.9488 50.1811 40.3823 49.5308 40.8003C49.1437 40.4442 48.7566 40.2739 48.5321 40.4133C48.3076 40.5526 48.2457 40.9784 48.3773 41.5126C47.936 41.768 47.487 42.0003 47.038 42.2325C45.4751 39.8633 43.4535 37.8312 41.0924 36.256C41.3169 35.807 41.5492 35.358 41.8046 34.9245C42.3388 35.0483 42.7646 35.0096 42.9039 34.7619C43.0433 34.5142 42.9039 34.1503 42.5169 33.7632C42.9349 33.1129 43.3684 32.4704 43.8329 31.8433C44.7852 32.153 45.5748 32.1297 45.8148 31.7194C46.1554 31.1156 45.2264 29.9311 43.7246 29.0641C42.2227 28.197 40.7286 27.988 40.3879 28.5841C40.1479 29.0021 40.5273 29.6911 41.2705 30.3647C40.9608 31.0769 40.6202 31.7736 40.2641 32.4626C39.7454 32.3465 39.3428 32.393 39.2035 32.6252C39.0641 32.8575 39.2035 33.26 39.6215 33.6626C39.366 34.0961 39.0951 34.5219 38.8474 34.9399C36.2966 33.6706 33.5162 32.9281 30.6722 32.7568C30.6722 32.2536 30.6258 31.7504 30.6258 31.2085C31.1522 31.0537 31.5006 30.8059 31.5006 30.5272C31.5006 30.2485 31.1677 30.0085 30.6645 29.8537C30.6645 29.0795 30.7574 28.3054 30.8425 27.5312C31.8257 27.3222 32.4915 26.9119 32.4915 26.4319C32.4915 25.7429 31.0903 25.1855 29.3949 25.1855C27.6994 25.1855 26.2595 25.7429 26.2595 26.4319C26.2595 26.9119 26.933 27.3222 27.9085 27.5312C28.0014 28.3054 28.0556 29.0795 28.0865 29.8537C27.5833 30.0085 27.2582 30.2485 27.2582 30.5272C27.2582 30.8059 27.6065 31.0537 28.133 31.2085C28.133 31.7194 28.133 32.2226 28.0865 32.7568C25.242 32.9307 22.4617 33.6758 19.9114 34.9477C19.6404 34.5219 19.3695 34.0961 19.1372 33.6626C19.5166 33.26 19.6946 32.8884 19.5553 32.6252C19.4159 32.362 19.0056 32.3465 18.4947 32.4626C18.1386 31.7736 17.7979 31.0769 17.4883 30.3647C18.2624 29.6911 18.6108 29.0021 18.3708 28.5841C18.0224 27.988 16.5283 28.2047 15.0264 29.0718C13.5246 29.9389 12.5956 31.1233 12.9439 31.7194C13.1839 32.1297 13.9658 32.153 14.9181 31.8433C15.3825 32.4704 15.8238 33.1129 16.2341 33.7632C15.878 34.1503 15.7154 34.5374 15.8548 34.7619C15.9941 34.9864 16.4199 35.0483 16.9541 34.9245C17.2018 35.358 17.4341 35.807 17.6663 36.256C15.2952 37.8325 13.2632 39.8671 11.6898 42.2403C11.2408 42.008 10.7918 41.7758 10.3505 41.5203C10.4821 40.9861 10.4357 40.5604 10.1957 40.421C9.95568 40.2817 9.58408 40.421 9.197 40.8081C8.53897 40.39 7.89641 39.9565 7.27709 39.492C7.57901 38.5398 7.56353 37.7501 7.14548 37.5179C6.54938 37.1695 5.36491 38.0985 4.49785 39.6004C3.63079 41.1023 3.41403 42.5964 4.01787 42.937C4.42818 43.177 5.11718 42.7977 5.7907 42.0545C6.51067 42.3641 7.20741 42.7048 7.88867 43.0686C7.77255 43.5796 7.819 43.9821 8.05899 44.1215C8.29898 44.2608 8.6938 44.1215 9.08862 43.7112C9.52989 43.9589 9.94794 44.2299 10.3737 44.4853C9.07604 47.0248 8.30452 49.8001 8.10544 52.645C7.60223 52.645 7.09903 52.6915 6.59583 52.6915C6.44099 52.165 6.19326 51.8166 5.90682 51.8166C5.62038 51.8166 5.39588 52.1495 5.2333 52.6527C4.45914 52.6527 3.68498 52.5598 2.91082 52.4747C2.69406 51.4992 2.28375 50.8257 1.81151 50.8257C1.11477 50.8257 0.557373 52.227 0.557373 53.9224C0.557373 55.6178 1.11477 57.019 1.81151 57.019C2.28375 57.019 2.69406 56.3455 2.91082 55.3701C3.68498 55.2772 4.45914 55.223 5.2333 55.192C5.38813 55.6952 5.62812 56.0203 5.89908 56.0203C6.17004 56.0203 6.43325 55.6797 6.58808 55.1455C7.09129 55.1455 7.59449 55.1455 8.1364 55.192C8.30664 58.0362 9.04918 60.8167 10.3195 63.3671C9.89375 63.6381 9.46796 63.9168 9.03443 64.1413C8.63961 63.7619 8.26027 63.5839 8.0048 63.7232C7.74932 63.8626 7.71836 64.2729 7.83448 64.7838C7.15322 65.14 6.45648 65.4806 5.73651 65.7903C5.06299 65.0161 4.37398 64.6755 3.96368 64.9077C3.35983 65.2561 3.5766 66.7502 4.44366 68.2521C5.31072 69.754 6.49518 70.6829 7.09129 70.3346C7.50934 70.0946 7.52482 69.3127 7.2229 68.3605C7.84222 67.896 8.48478 67.4547 9.14281 67.0444C9.52989 67.4005 9.91697 67.5631 10.1415 67.4315C10.366 67.2999 10.4279 66.8586 10.2963 66.3244C10.7376 66.0767 11.1789 65.8444 11.6279 65.6122C13.1942 68.0142 15.2232 70.0801 17.5966 71.6894C17.3644 72.1384 17.1321 72.5874 16.8844 73.0209C16.3502 72.8893 15.9245 72.9358 15.7851 73.1758C15.6458 73.4157 15.7851 73.7873 16.1644 74.1744C15.7541 74.8325 15.3129 75.475 14.8561 76.1021C13.8962 75.7924 13.1143 75.8079 12.8743 76.2259C12.5259 76.822 13.4626 78.0065 14.9568 78.8736C16.4509 79.7406 17.9528 79.9574 18.3011 79.3536C18.5411 78.9432 18.1618 78.2542 17.4186 77.5807C17.7283 76.8685 18.0689 76.164 18.425 75.4827C18.9359 75.5989 19.3462 75.5524 19.4856 75.3124C19.6249 75.0724 19.4469 74.6854 19.0676 74.2828C19.323 73.8493 19.594 73.4235 19.8417 72.9977C22.3916 74.2705 25.1722 75.0157 28.0168 75.1886C28.0168 75.6918 28.0633 76.195 28.0633 76.6982C27.5369 76.853 27.1885 77.1007 27.1885 77.3872C27.1885 77.6736 27.5136 77.8981 28.0168 78.0607C28.0168 78.8349 27.9317 79.609 27.8465 80.3832C26.8633 80.6 26.1898 81.0103 26.1898 81.4825C26.1898 82.1792 27.5911 82.7366 29.3252 82.7366C31.0593 82.7366 32.4218 82.1792 32.4218 81.4825C32.4218 81.0103 31.756 80.6 30.7729 80.3832C30.6877 79.609 30.6258 78.8349 30.5948 78.0607C31.098 77.8981 31.4309 77.6581 31.4309 77.3872C31.4309 77.1162 31.0825 76.853 30.5561 76.6982C30.5561 76.195 30.5561 75.6918 30.6025 75.1886C33.4471 75.0146 36.2274 74.2695 38.7777 72.9977C39.0486 73.4235 39.3196 73.8493 39.5518 74.2828C39.1725 74.6854 38.9944 75.057 39.1338 75.3124C39.2731 75.5679 39.6757 75.5989 40.1944 75.4827C40.5505 76.164 40.8911 76.8685 41.2008 77.5807C40.4266 78.2542 40.0783 78.9432 40.3183 79.3536C40.6666 79.9574 42.1608 79.7406 43.6549 78.8736C45.149 78.0065 46.0858 76.822 45.7451 76.2259C45.5051 75.8079 44.7155 75.7924 43.7633 76.0943C43.2988 75.475 42.8652 74.8325 42.4472 74.1744C42.8111 73.7873 42.9736 73.4003 42.8343 73.1758C42.6949 72.9512 42.2691 72.8893 41.735 73.0209C41.4795 72.5796 41.2472 72.1306 41.015 71.6816C43.4146 70.1043 45.4732 68.0615 47.0689 65.6741C47.5179 65.9064 47.967 66.1386 48.4082 66.3864C48.2766 66.9205 48.3153 67.3463 48.5631 67.4934C48.8108 67.6405 49.1747 67.4934 49.5617 67.1063C50.212 67.5166 50.8546 67.9579 51.4817 68.4224C51.172 69.3746 51.1952 70.1565 51.6055 70.3965C52.2094 70.7449 53.3938 69.8082 54.2609 68.314C55.1279 66.8199 55.337 65.318 54.7409 64.9696C54.3228 64.7374 53.6338 65.109 52.9603 65.8522C52.2481 65.5425 51.5513 65.2019 50.8623 64.8458C50.9785 64.3348 50.9397 63.9245 50.6998 63.7852C50.4598 63.6458 50.0649 63.8239 49.6701 64.2032C49.2288 63.9478 48.8031 63.6768 48.3695 63.4291C49.646 60.8833 50.3914 58.1045 50.5604 55.2617C51.0714 55.2617 51.5746 55.2152 52.1087 55.2152C52.2636 55.7416 52.5113 56.09 52.79 56.09C53.0687 56.09 53.3087 55.7649 53.4635 55.2617C54.2377 55.2617 55.0118 55.3468 55.786 55.4397C55.995 56.4152 56.4053 57.0887 56.8853 57.0887C57.5743 57.0887 58.1394 55.6875 58.1394 53.992C58.1394 52.2966 57.5511 50.8257 56.8621 50.8257Z" fill="#B9DFFC"/>
<path d="M15.1268 47.2334C15.1268 47.5809 15.0238 47.9206 14.8307 48.2096C14.6376 48.4986 14.3631 48.7238 14.0421 48.8568C13.721 48.9898 13.3677 49.0246 13.0268 48.9568C12.6859 48.889 12.3728 48.7216 12.1271 48.4759C11.8813 48.2301 11.714 47.917 11.6462 47.5762C11.5784 47.2353 11.6132 46.882 11.7462 46.5609C11.8792 46.2398 12.1044 45.9654 12.3934 45.7723C12.6823 45.5792 13.0221 45.4762 13.3696 45.4762C13.6007 45.4751 13.8296 45.5199 14.0433 45.6078C14.2569 45.6958 14.451 45.8252 14.6144 45.9885C14.7778 46.1519 14.9072 46.346 14.9951 46.5597C15.0831 46.7734 15.1278 47.0023 15.1268 47.2334Z" fill="#EBF6FF"/>
<path d="M26.2979 69.2119C26.2994 69.6072 26.1836 69.9941 25.9651 70.3236C25.7466 70.653 25.4352 70.9102 25.0704 71.0625C24.7056 71.2149 24.3038 71.2556 23.9159 71.1794C23.5279 71.1032 23.1714 70.9136 22.8913 70.6346C22.6112 70.3556 22.4202 69.9997 22.3425 69.6121C22.2648 69.2245 22.3039 68.8225 22.4548 68.4571C22.6058 68.0917 22.8618 67.7794 23.1904 67.5596C23.519 67.3398 23.9054 67.2224 24.3007 67.2224C24.8291 67.2224 25.3359 67.4318 25.7102 67.8047C26.0845 68.1775 26.2959 68.6835 26.2979 69.2119Z" fill="#EBF6FF"/>
<path d="M21.2194 41.1485C21.2179 41.5417 21.0999 41.9255 20.8804 42.2517C20.6609 42.5778 20.3496 42.8316 19.986 42.981C19.6223 43.1304 19.2225 43.1687 18.8371 43.091C18.4517 43.0134 18.098 42.8233 17.8205 42.5448C17.5431 42.2663 17.3544 41.9118 17.2782 41.5261C17.2021 41.1404 17.2419 40.7407 17.3927 40.3777C17.5435 40.0146 17.7985 39.7043 18.1255 39.4861C18.4525 39.2678 18.8368 39.1513 19.23 39.1513C19.4919 39.1513 19.7512 39.203 19.9931 39.3035C20.235 39.404 20.4546 39.5512 20.6395 39.7368C20.8243 39.9223 20.9707 40.1425 21.0702 40.3848C21.1697 40.6271 21.2204 40.8866 21.2194 41.1485Z" fill="#EBF6FF"/>
<path d="M20.2828 41.1486C20.289 41.3581 20.2325 41.5646 20.1206 41.7417C20.0088 41.9189 19.8466 42.0586 19.6548 42.1431C19.4631 42.2275 19.2505 42.2528 19.0443 42.2158C18.8381 42.1787 18.6476 42.081 18.4972 41.9351C18.3469 41.7891 18.2435 41.6017 18.2003 41.3967C18.1571 41.1916 18.1761 40.9784 18.2548 40.7842C18.3335 40.59 18.4683 40.4237 18.642 40.3066C18.8158 40.1895 19.0205 40.1269 19.23 40.1268C19.504 40.1267 19.7671 40.2334 19.9637 40.4242C20.1603 40.6149 20.2747 40.8748 20.2828 41.1486Z" fill="#EBF6FF"/>
<path d="M28.2876 42.5107C29.8609 42.5107 31.1363 41.2353 31.1363 39.662C31.1363 38.0887 29.8609 36.8133 28.2876 36.8133C26.7143 36.8133 25.4389 38.0887 25.4389 39.662C25.4389 41.2353 26.7143 42.5107 28.2876 42.5107Z" fill="#EBF6FF"/>
<path d="M40.5038 41.0633C40.5038 41.4262 40.3962 41.7809 40.1946 42.0826C39.993 42.3843 39.7065 42.6194 39.3713 42.7583C39.036 42.8971 38.6672 42.9335 38.3113 42.8627C37.9554 42.7919 37.6285 42.6172 37.3719 42.3606C37.1153 42.104 36.9406 41.7771 36.8698 41.4212C36.799 41.0654 36.8354 40.6965 36.9742 40.3612C37.1131 40.026 37.3482 39.7395 37.6499 39.5379C37.9516 39.3363 38.3063 39.2287 38.6692 39.2287C39.1551 39.2307 39.6206 39.4247 39.9642 39.7683C40.3078 40.1119 40.5018 40.5774 40.5038 41.0633Z" fill="#EBF6FF"/>
<path d="M39.5673 41.0635C39.5673 41.2411 39.5146 41.4147 39.4159 41.5623C39.3173 41.71 39.177 41.8251 39.013 41.8931C38.8489 41.961 38.6683 41.9788 38.4941 41.9442C38.3199 41.9095 38.1599 41.824 38.0344 41.6984C37.9088 41.5728 37.8233 41.4128 37.7886 41.2386C37.754 41.0645 37.7718 40.8839 37.8397 40.7198C37.9077 40.5557 38.0228 40.4155 38.1704 40.3168C38.3181 40.2182 38.4917 40.1655 38.6693 40.1655C38.7875 40.1645 38.9048 40.187 39.0142 40.2317C39.1236 40.2765 39.223 40.3426 39.3066 40.4262C39.3902 40.5098 39.4563 40.6092 39.501 40.7186C39.5458 40.828 39.5683 40.9452 39.5673 41.0635Z" fill="#EBF6FF"/>
<path d="M40.1557 50.0825C40.1557 50.2754 40.0985 50.464 39.9913 50.6244C39.8841 50.7848 39.7318 50.9098 39.5536 50.9836C39.3753 51.0574 39.1792 51.0767 38.99 51.0391C38.8008 51.0015 38.627 50.9086 38.4906 50.7722C38.3542 50.6358 38.2613 50.462 38.2237 50.2728C38.186 50.0836 38.2053 49.8875 38.2792 49.7092C38.353 49.531 38.478 49.3787 38.6384 49.2715C38.7988 49.1643 38.9874 49.1071 39.1803 49.1071C39.4384 49.1091 39.6853 49.2126 39.8677 49.395C40.0502 49.5775 40.1536 49.8244 40.1557 50.0825Z" fill="#EBF6FF"/>
<path d="M26.801 49.1069C26.8025 49.7337 26.6179 50.3469 26.2706 50.8687C25.9233 51.3906 25.4289 51.7976 24.8501 52.0382C24.2712 52.2788 23.634 52.3421 23.0191 52.2202C22.4042 52.0983 21.8394 51.7966 21.3961 51.3533C20.9529 50.9101 20.6512 50.3452 20.5293 49.7304C20.4074 49.1155 20.4707 48.4783 20.7113 47.8994C20.9519 47.3206 21.3589 46.8262 21.8807 46.4789C22.4026 46.1316 23.0158 45.947 23.6426 45.9485C24.4796 45.9506 25.2818 46.284 25.8737 46.8758C26.4655 47.4677 26.7989 48.2698 26.801 49.1069Z" fill="#EBF6FF"/>
<path d="M45.5432 59.6895C45.5432 60.5698 45.2821 61.4304 44.793 62.1623C44.304 62.8943 43.6088 63.4648 42.7955 63.8017C41.9821 64.1386 41.0872 64.2268 40.2237 64.055C39.3603 63.8833 38.5672 63.4593 37.9447 62.8368C37.3222 62.2143 36.8983 61.4212 36.7265 60.5578C36.5548 59.6944 36.643 58.7994 36.9798 57.9861C37.3167 57.1728 37.8872 56.4776 38.6192 55.9885C39.3512 55.4994 40.2118 55.2384 41.0921 55.2384C42.272 55.2404 43.4029 55.71 44.2372 56.5443C45.0715 57.3786 45.5411 58.5096 45.5432 59.6895Z" fill="#EBF6FF"/>
<path d="M33.0795 62.6933C32.8551 63.3049 31.7403 63.4674 30.5869 63.0185C29.4335 62.5695 28.6826 61.7489 28.9071 61.1451C29.1316 60.5413 30.2463 60.371 31.3997 60.82C32.5532 61.269 33.2731 62.0895 33.0795 62.6933Z" fill="#EBF6FF"/>
<path d="M33.2422 71.4025C34.6659 71.4025 35.82 70.2484 35.82 68.8247C35.82 67.4011 34.6659 66.2469 33.2422 66.2469C31.8186 66.2469 30.6645 67.4011 30.6645 68.8247C30.6645 70.2484 31.8186 71.4025 33.2422 71.4025Z" fill="#EBF6FF"/>
<path d="M31.957 50.4385C31.957 50.7447 31.8662 51.044 31.6961 51.2986C31.526 51.5532 31.2842 51.7517 31.0013 51.8688C30.7184 51.986 30.4071 52.0167 30.1068 51.9569C29.8065 51.8972 29.5306 51.7498 29.3141 51.5332C29.0976 51.3167 28.9501 51.0409 28.8904 50.7405C28.8306 50.4402 28.8613 50.1289 28.9785 49.846C29.0957 49.5631 29.2941 49.3213 29.5487 49.1512C29.8033 48.9811 30.1026 48.8903 30.4088 48.8903C30.8194 48.8903 31.2132 49.0534 31.5036 49.3437C31.7939 49.6341 31.957 50.0279 31.957 50.4385Z" fill="#EBF6FF"/>
<path d="M13.2149 53.2875C11.0627 54.023 10.5208 59.3879 14.4381 64.0174C17.6741 67.8418 21.932 67.3308 21.5526 65.4961C21.1733 63.6613 18.8818 62.8639 18.0844 59.8292C17.1941 56.4693 16.6677 52.1341 13.2149 53.2875Z" fill="#EBF6FF"/>
<path d="M425.278 234.186C425.275 234.16 425.275 234.134 425.278 234.108C425.386 233.853 425.487 233.59 425.58 233.334L425.804 232.668C425.804 232.575 425.851 232.49 425.881 232.397C425.912 232.304 425.967 232.111 425.998 231.964C426.029 231.817 426.052 231.747 426.083 231.639C426.114 231.53 426.145 231.383 426.168 231.252C426.191 231.12 426.214 231.019 426.238 230.903L426.307 230.524C426.307 230.408 426.307 230.284 426.361 230.168C426.416 230.052 426.361 229.912 426.416 229.788C426.47 229.665 426.416 229.541 426.454 229.417C426.493 229.293 426.454 229.161 426.454 229.03C426.454 228.898 426.454 228.937 426.454 228.898C427.824 228.827 429.197 228.876 430.557 229.045V226.8C429.196 226.965 427.824 227.014 426.454 226.947C426.327 224.833 425.774 222.766 424.829 220.87C425.98 220.126 427.192 219.481 428.452 218.942L427.329 216.999C426.234 217.824 425.072 218.554 423.853 219.182C422.88 217.722 421.674 216.43 420.284 215.358C419.998 215.141 419.704 214.925 419.402 214.731C420.061 213.491 420.833 212.314 421.709 211.216L419.758 210.086C419.225 211.35 418.582 212.565 417.838 213.717C415.944 212.768 413.876 212.215 411.761 212.091C411.69 210.722 411.739 209.349 411.908 207.988H409.663C409.828 209.349 409.877 210.722 409.81 212.091L409.245 212.13H409.005L408.486 212.192L408.246 212.23L407.72 212.323L407.511 212.362L406.938 212.494H406.783C406.306 212.616 405.836 212.764 405.374 212.935L404.731 213.183L404.623 213.229L404.267 213.392L403.872 213.57L403.725 213.647C402.986 212.493 402.346 211.279 401.813 210.016L399.823 211.216C400.65 212.31 401.38 213.473 402.006 214.692L401.766 214.855L401.627 214.948L401.178 215.273C400.483 215.807 399.831 216.395 399.227 217.03L399.157 217.108C399.034 217.247 398.91 217.379 398.794 217.518L398.685 217.642C398.569 217.773 398.461 217.913 398.352 218.052L398.236 218.192L397.927 218.61L397.818 218.757L397.563 219.136C396.343 218.51 395.18 217.779 394.087 216.953L392.949 218.958C394.211 219.497 395.426 220.142 396.579 220.886C396.241 221.557 395.954 222.253 395.72 222.968C395.596 223.347 395.488 223.742 395.395 224.114V224.207C395.31 224.571 395.232 224.934 395.171 225.306C395.174 225.334 395.174 225.363 395.171 225.391C395.116 225.763 395.07 226.165 395.039 226.521V226.738C395.039 226.8 395.039 226.862 395.039 226.924C393.67 226.991 392.297 226.942 390.936 226.777V229.022C392.297 228.853 393.67 228.804 395.039 228.875C395.166 230.989 395.719 233.056 396.665 234.952C395.513 235.697 394.298 236.339 393.034 236.872L394.164 238.823C395.256 237.994 396.419 237.263 397.64 236.64C398.221 237.521 398.89 238.34 399.637 239.086L399.738 239.179C399.885 239.326 400.032 239.473 400.187 239.613C400.784 240.152 401.421 240.647 402.091 241.091C401.463 242.31 400.733 243.472 399.908 244.567L401.859 245.69C402.392 244.428 403.035 243.216 403.779 242.067C405.675 243.012 407.742 243.565 409.856 243.692C409.923 245.062 409.874 246.434 409.709 247.795H411.954C411.786 246.435 411.736 245.062 411.807 243.692H411.947H412.241C412.597 243.692 412.953 243.615 413.301 243.561L413.518 243.522C413.82 243.476 414.114 243.414 414.416 243.344L414.672 243.282C415.004 243.197 415.337 243.104 415.67 242.996H415.763L416.119 242.872L416.328 242.794L416.862 242.585L417.01 242.523C417.312 242.4 417.598 242.26 417.884 242.121C418.629 243.27 419.271 244.483 419.804 245.744L421.709 244.583C420.881 243.49 420.151 242.327 419.526 241.107L419.742 240.96L420.122 240.689L420.338 240.526L420.702 240.24L420.911 240.069L421.267 239.76L421.461 239.589L421.817 239.249L421.987 239.086L422.382 238.668L422.483 238.56C422.645 238.382 422.808 238.196 422.955 238.018C423.102 237.84 423.064 237.886 423.11 237.816C423.156 237.747 423.304 237.577 423.396 237.453C423.489 237.329 423.536 237.267 423.605 237.166L423.814 236.88L423.954 236.671C425.174 237.296 426.337 238.026 427.43 238.854L428.552 236.903C427.291 236.37 426.079 235.727 424.929 234.983C424.954 234.942 424.975 234.897 424.991 234.851C425.089 234.635 425.185 234.413 425.278 234.186Z" fill="#D4EEFF"/>
<g style="mix-blend-mode:screen" opacity="0.3">
<path d="M414.346 218.849C414.346 219.091 414.275 219.328 414.14 219.529C414.006 219.73 413.815 219.887 413.591 219.979C413.368 220.072 413.122 220.096 412.885 220.049C412.647 220.002 412.429 219.885 412.258 219.714C412.087 219.543 411.971 219.325 411.924 219.088C411.876 218.851 411.901 218.605 411.993 218.381C412.086 218.158 412.243 217.967 412.444 217.832C412.645 217.698 412.881 217.626 413.123 217.626C413.284 217.625 413.444 217.656 413.593 217.717C413.741 217.778 413.877 217.868 413.99 217.982C414.104 218.096 414.194 218.231 414.255 218.38C414.316 218.529 414.347 218.688 414.346 218.849Z" fill="#FFBE6E"/>
</g>
<path d="M423.411 230.524C423.411 230.782 423.335 231.035 423.191 231.251C423.047 231.466 422.843 231.633 422.604 231.732C422.365 231.831 422.102 231.857 421.848 231.807C421.594 231.756 421.361 231.632 421.178 231.449C420.995 231.266 420.871 231.033 420.82 230.779C420.77 230.525 420.796 230.262 420.895 230.023C420.994 229.784 421.161 229.58 421.376 229.436C421.591 229.292 421.844 229.216 422.103 229.216C422.45 229.216 422.783 229.353 423.028 229.599C423.274 229.844 423.411 230.177 423.411 230.524Z" fill="#B9DFFC"/>
<path d="M402.586 226.862C402.586 227.321 402.45 227.77 402.195 228.152C401.94 228.534 401.577 228.832 401.153 229.008C400.729 229.183 400.262 229.229 399.811 229.14C399.361 229.05 398.947 228.829 398.622 228.504C398.297 228.179 398.076 227.766 397.987 227.315C397.897 226.865 397.943 226.398 398.119 225.973C398.294 225.549 398.592 225.186 398.974 224.931C399.356 224.676 399.805 224.54 400.264 224.54C400.88 224.54 401.471 224.784 401.906 225.22C402.342 225.655 402.586 226.246 402.586 226.862Z" fill="#B9DFFC"/>
<path d="M415.918 223.727C415.919 224.09 415.813 224.445 415.612 224.748C415.411 225.051 415.125 225.287 414.79 225.427C414.455 225.567 414.086 225.605 413.73 225.535C413.373 225.465 413.046 225.291 412.788 225.034C412.531 224.778 412.356 224.451 412.284 224.095C412.213 223.739 412.249 223.37 412.387 223.034C412.526 222.698 412.761 222.411 413.063 222.209C413.365 222.007 413.72 221.9 414.083 221.9C414.323 221.899 414.562 221.945 414.784 222.037C415.007 222.128 415.209 222.262 415.38 222.432C415.55 222.602 415.685 222.803 415.778 223.026C415.87 223.248 415.918 223.486 415.918 223.727Z" fill="#B9DFFC"/>
<path d="M418.356 237.321C418.356 237.511 418.3 237.696 418.195 237.854C418.089 238.012 417.939 238.135 417.764 238.208C417.589 238.28 417.396 238.299 417.209 238.262C417.023 238.225 416.852 238.134 416.718 238C416.584 237.865 416.492 237.694 416.455 237.508C416.418 237.322 416.437 237.129 416.51 236.953C416.582 236.778 416.705 236.628 416.863 236.523C417.021 236.417 417.207 236.361 417.397 236.361C417.651 236.363 417.894 236.465 418.073 236.644C418.253 236.824 418.354 237.067 418.356 237.321Z" fill="#B9DFFC"/>
<g style="mix-blend-mode:screen" opacity="0.3">
<path d="M406.767 219.631C406.767 220.045 406.644 220.449 406.415 220.792C406.185 221.136 405.859 221.404 405.477 221.562C405.095 221.72 404.675 221.762 404.269 221.681C403.864 221.601 403.491 221.401 403.199 221.109C402.907 220.817 402.708 220.444 402.627 220.039C402.546 219.634 402.588 219.213 402.746 218.831C402.904 218.45 403.172 218.123 403.516 217.893C403.859 217.664 404.264 217.541 404.677 217.541C405.231 217.541 405.763 217.761 406.155 218.153C406.547 218.545 406.767 219.077 406.767 219.631Z" fill="#FFBE6E"/>
</g>
<path d="M409.733 216.767C410.203 216.767 410.584 216.386 410.584 215.915C410.584 215.445 410.203 215.064 409.733 215.064C409.262 215.064 408.881 215.445 408.881 215.915C408.881 216.386 409.262 216.767 409.733 216.767Z" fill="#B9DFFC"/>
<path d="M421.763 220.506C421.763 220.687 421.709 220.864 421.608 221.014C421.508 221.165 421.364 221.282 421.197 221.351C421.03 221.42 420.846 221.437 420.668 221.401C420.491 221.365 420.328 221.278 420.201 221.149C420.073 221.021 419.987 220.857 419.953 220.679C419.918 220.502 419.937 220.318 420.008 220.151C420.078 219.984 420.196 219.842 420.348 219.743C420.499 219.643 420.676 219.591 420.857 219.593C420.977 219.593 421.095 219.616 421.205 219.662C421.316 219.708 421.416 219.776 421.5 219.861C421.585 219.946 421.651 220.046 421.696 220.157C421.741 220.268 421.764 220.386 421.763 220.506Z" fill="#B9DFFC"/>
<g style="mix-blend-mode:screen" opacity="0.3">
<path d="M409.027 236.539C409.027 236.952 408.905 237.356 408.675 237.7C408.445 238.044 408.119 238.312 407.737 238.47C407.355 238.628 406.935 238.669 406.529 238.589C406.124 238.508 405.752 238.309 405.459 238.017C405.167 237.725 404.968 237.352 404.887 236.947C404.807 236.541 404.848 236.121 405.006 235.739C405.164 235.357 405.432 235.031 405.776 234.801C406.12 234.571 406.524 234.449 406.937 234.449C407.212 234.449 407.483 234.503 407.737 234.608C407.991 234.713 408.221 234.867 408.415 235.061C408.609 235.255 408.763 235.486 408.868 235.739C408.973 235.993 409.027 236.264 409.027 236.539Z" fill="#FFBE6E"/>
</g>
<g style="mix-blend-mode:screen" opacity="0.3">
<path d="M424.224 223.727C424.224 223.923 424.166 224.114 424.057 224.277C423.948 224.44 423.794 224.567 423.613 224.642C423.432 224.717 423.232 224.737 423.04 224.698C422.848 224.66 422.671 224.566 422.533 224.427C422.394 224.289 422.3 224.112 422.262 223.92C422.223 223.728 422.243 223.529 422.318 223.348C422.393 223.166 422.52 223.012 422.683 222.903C422.846 222.794 423.037 222.736 423.233 222.736C423.496 222.736 423.748 222.84 423.934 223.026C424.12 223.212 424.224 223.464 424.224 223.727Z" fill="#FFBE6E"/>
</g>
<path d="M88.5098 138.05V138.004C88.5718 137.857 88.6337 137.702 88.6879 137.555C88.7343 137.431 88.7731 137.307 88.8195 137.176V137.021C88.8195 136.936 88.8737 136.858 88.8969 136.773C88.9006 136.711 88.9006 136.649 88.8969 136.587C88.8969 136.51 88.8969 136.432 88.9511 136.363C88.9548 136.296 88.9548 136.228 88.9511 136.161C88.9678 136.09 88.9807 136.018 88.9898 135.945C88.9898 135.875 88.9898 135.805 88.9898 135.736V135.519V135.302C88.9937 135.23 88.9937 135.158 88.9898 135.085C88.9932 135.06 88.9932 135.034 88.9898 135.008C89.765 134.969 90.5421 134.997 91.3123 135.093V133.8C90.5418 133.892 89.765 133.921 88.9898 133.885C88.9181 132.668 88.5994 131.477 88.0531 130.386C88.7169 129.958 89.4162 129.588 90.1433 129.279L89.493 128.157C88.8663 128.634 88.1978 129.054 87.4957 129.411C86.9317 128.572 86.2364 127.83 85.4364 127.212L84.9332 126.848C85.2921 126.147 85.7118 125.479 86.1874 124.851L85.0648 124.201C84.7562 124.928 84.3859 125.627 83.9578 126.291C82.867 125.745 81.6764 125.426 80.4586 125.354C80.4238 124.566 80.4548 123.776 80.5515 122.993H79.5296C79.6262 123.776 79.6573 124.566 79.6225 125.354H79.2973H79.158L78.8561 125.393H78.7167L78.4148 125.447H78.2909L77.9658 125.524H77.8806C77.6019 125.594 77.331 125.679 77.1065 125.772L76.7349 125.919H76.6729L76.4639 126.012L76.2394 126.113L76.1542 126.159C75.7316 125.494 75.3639 124.794 75.0549 124.069L73.9324 124.719C74.3899 125.387 74.7863 126.094 75.1169 126.833L74.9775 126.933L74.9001 126.988L74.6446 127.173C74.2478 127.483 73.8751 127.822 73.5298 128.188L73.4834 128.234L73.2744 128.466L73.2124 128.536C73.1427 128.613 73.0808 128.699 73.0189 128.776L72.957 128.853L72.7711 129.093L72.717 129.178L72.5621 129.395C71.861 129.036 71.1926 128.617 70.5648 128.141L69.9145 129.264C70.6416 129.572 71.3409 129.943 72.0047 130.371C71.8112 130.758 71.6456 131.159 71.5093 131.571C71.4396 131.787 71.3777 132.004 71.3235 132.229C71.3235 132.229 71.3235 132.267 71.3235 132.283C71.277 132.492 71.2306 132.701 71.1919 132.918C71.1955 132.933 71.1955 132.949 71.1919 132.964C71.1919 133.181 71.1377 133.398 71.1144 133.614C71.1144 133.614 71.1144 133.7 71.1144 133.738C71.1144 133.777 71.1144 133.808 71.1144 133.847C70.3393 133.882 69.5625 133.853 68.792 133.762V135.054C69.5622 134.959 70.3393 134.93 71.1144 134.969C71.1881 136.187 71.5067 137.377 72.0512 138.468C71.3889 138.897 70.6893 139.265 69.9609 139.568L70.6112 140.69C71.2272 140.23 71.8797 139.821 72.5621 139.467C72.8993 139.974 73.2857 140.446 73.7156 140.876L73.7698 140.93C73.855 141.015 73.9401 141.101 74.033 141.178C74.3744 141.49 74.7394 141.774 75.1246 142.03C74.7675 142.732 74.3478 143.4 73.8705 144.027L74.993 144.677C75.3032 143.951 75.6735 143.252 76.1 142.587C77.1909 143.133 78.3814 143.452 79.5992 143.524C79.6342 144.312 79.6031 145.102 79.5064 145.885H80.8069C80.7102 145.102 80.6791 144.312 80.714 143.524H80.9695L81.5811 143.446H81.705C81.8753 143.446 82.0456 143.384 82.2159 143.346H82.3707L82.9436 143.175H82.9978L83.1991 143.106H83.3152L83.6326 142.982H83.7178C83.8881 142.912 84.0507 142.835 84.2133 142.75C84.6398 143.414 85.0101 144.113 85.3203 144.84L86.4428 144.189C85.9655 143.563 85.5458 142.894 85.1887 142.192C85.2268 142.159 85.2684 142.131 85.3126 142.107L85.5293 141.944L85.6532 141.852L85.8622 141.689L85.9861 141.588L86.1874 141.418L86.2957 141.317L86.5048 141.124L86.5977 141.023L86.8299 140.791L86.8918 140.721L87.1628 140.412L87.248 140.295L87.4183 140.086L87.5344 139.924L87.6505 139.754L87.7357 139.637C88.4362 139.997 89.1045 140.417 89.733 140.892L90.3833 139.769C89.6549 139.466 88.9553 139.098 88.2931 138.67V138.592C88.4015 138.298 88.4556 138.174 88.5098 138.05Z" fill="#D4EEFF"/>
<g style="mix-blend-mode:screen" opacity="0.3">
<path d="M82.2235 129.217C82.2251 129.357 82.185 129.494 82.1086 129.611C82.0321 129.727 81.9226 129.819 81.7941 129.873C81.6655 129.928 81.5236 129.943 81.3865 129.917C81.2493 129.89 81.1231 129.824 81.0238 129.726C80.9245 129.628 80.8566 129.502 80.8288 129.365C80.801 129.228 80.8145 129.086 80.8676 128.957C80.9207 128.828 81.0109 128.718 81.1269 128.64C81.2429 128.562 81.3794 128.52 81.5191 128.52C81.7046 128.52 81.8826 128.594 82.0145 128.724C82.1464 128.855 82.2215 129.032 82.2235 129.217Z" fill="#FFBE6E"/>
</g>
<path d="M87.4336 135.937C87.3916 136.104 87.2949 136.253 87.1589 136.359C87.0228 136.465 86.8552 136.523 86.6827 136.523C86.5101 136.523 86.3425 136.465 86.2065 136.359C86.0704 136.253 85.9737 136.104 85.9318 135.937C85.9737 135.769 86.0704 135.621 86.2065 135.515C86.3425 135.409 86.5101 135.351 86.6827 135.351C86.8552 135.351 87.0228 135.409 87.1589 135.515C87.2949 135.621 87.3916 135.769 87.4336 135.937Z" fill="#B9DFFC"/>
<path d="M75.4494 133.8C75.4556 134.07 75.381 134.335 75.2352 134.563C75.0895 134.79 74.8792 134.968 74.6314 135.075C74.3835 135.182 74.1094 135.212 73.8442 135.162C73.579 135.112 73.3347 134.984 73.1428 134.794C72.9508 134.605 72.8199 134.362 72.7669 134.097C72.7138 133.833 72.741 133.558 72.8449 133.309C72.9489 133.06 73.1249 132.848 73.3503 132.699C73.5757 132.551 73.8404 132.473 74.1102 132.476C74.4615 132.48 74.7976 132.621 75.0474 132.868C75.2973 133.114 75.4414 133.449 75.4494 133.8Z" fill="#B9DFFC"/>
<path d="M83.1215 132.027C83.1215 132.235 83.0597 132.439 82.9441 132.612C82.8284 132.785 82.664 132.92 82.4716 133C82.2792 133.08 82.0675 133.1 81.8633 133.06C81.6591 133.019 81.4715 132.919 81.3243 132.772C81.1771 132.624 81.0768 132.437 81.0362 132.233C80.9955 132.028 81.0164 131.817 81.0961 131.624C81.1758 131.432 81.3107 131.268 81.4838 131.152C81.6569 131.036 81.8605 130.974 82.0687 130.974C82.3479 130.974 82.6157 131.085 82.8131 131.283C83.0106 131.48 83.1215 131.748 83.1215 132.027Z" fill="#B9DFFC"/>
<path d="M84.5304 139.846C84.532 139.957 84.5006 140.065 84.4403 140.158C84.38 140.251 84.2935 140.323 84.1918 140.367C84.0901 140.41 83.9778 140.422 83.8692 140.402C83.7605 140.381 83.6605 140.329 83.5818 140.251C83.5031 140.173 83.4492 140.074 83.4271 139.966C83.4049 139.857 83.4155 139.745 83.4574 139.643C83.4994 139.54 83.5708 139.453 83.6626 139.391C83.7544 139.33 83.8625 139.297 83.9731 139.297C84.1196 139.297 84.2602 139.354 84.3645 139.457C84.4688 139.56 84.5284 139.7 84.5304 139.846Z" fill="#B9DFFC"/>
<g style="mix-blend-mode:screen" opacity="0.3">
<path d="M77.857 129.674C77.857 129.913 77.786 130.147 77.653 130.346C77.5199 130.544 77.3309 130.699 77.1098 130.79C76.8886 130.881 76.6454 130.905 76.411 130.858C76.1765 130.81 75.9614 130.695 75.7928 130.525C75.6242 130.355 75.5098 130.139 75.4641 129.905C75.4184 129.67 75.4434 129.427 75.536 129.206C75.6286 128.986 75.7846 128.798 75.9842 128.666C76.1838 128.534 76.418 128.465 76.6572 128.466C76.8154 128.466 76.9721 128.498 77.1181 128.558C77.2642 128.619 77.3968 128.708 77.5083 128.82C77.6199 128.933 77.7081 129.066 77.7679 129.212C77.8278 129.359 77.858 129.516 77.857 129.674Z" fill="#FFBE6E"/>
</g>
<path d="M79.5605 128.017C79.8298 128.017 80.0482 127.799 80.0482 127.529C80.0482 127.26 79.8298 127.042 79.5605 127.042C79.2912 127.042 79.0728 127.26 79.0728 127.529C79.0728 127.799 79.2912 128.017 79.5605 128.017Z" fill="#B9DFFC"/>
<path d="M86.497 130.154C86.506 130.228 86.4992 130.303 86.4771 130.374C86.4549 130.445 86.4179 130.511 86.3685 130.567C86.3192 130.622 86.2585 130.667 86.1905 130.698C86.1226 130.728 86.0489 130.744 85.9744 130.744C85.8999 130.744 85.8263 130.728 85.7583 130.698C85.6904 130.667 85.6297 130.622 85.5803 130.567C85.531 130.511 85.494 130.445 85.4718 130.374C85.4497 130.303 85.4429 130.228 85.4519 130.154C85.4675 130.026 85.5292 129.909 85.6255 129.824C85.7217 129.738 85.8459 129.691 85.9744 129.691C86.103 129.691 86.2271 129.738 86.3234 129.824C86.4197 129.909 86.4814 130.026 86.497 130.154Z" fill="#B9DFFC"/>
<g style="mix-blend-mode:screen" opacity="0.3">
<path d="M79.1655 139.397C79.1788 139.564 79.1576 139.731 79.1032 139.888C79.0487 140.046 78.9622 140.19 78.8491 140.313C78.7361 140.436 78.5988 140.533 78.4461 140.6C78.2934 140.667 78.1285 140.702 77.9617 140.702C77.795 140.702 77.6301 140.667 77.4774 140.6C77.3247 140.533 77.1874 140.436 77.0743 140.313C76.9613 140.19 76.8748 140.046 76.8203 139.888C76.7659 139.731 76.7447 139.564 76.758 139.397C76.7823 139.095 76.9197 138.812 77.1427 138.607C77.3658 138.401 77.6582 138.286 77.9617 138.286C78.2653 138.286 78.5577 138.401 78.7808 138.607C79.0038 138.812 79.1412 139.095 79.1655 139.397Z" fill="#FFBE6E"/>
</g>
<g style="mix-blend-mode:screen" opacity="0.3">
<path d="M87.9058 132.027C87.9058 132.141 87.8722 132.251 87.8093 132.346C87.7464 132.44 87.6569 132.513 87.5522 132.557C87.4475 132.6 87.3324 132.611 87.2212 132.589C87.1101 132.567 87.0081 132.513 86.9279 132.432C86.8478 132.352 86.7933 132.25 86.7712 132.139C86.7491 132.028 86.7604 131.913 86.8038 131.808C86.8471 131.704 86.9205 131.614 87.0147 131.551C87.1089 131.488 87.2197 131.455 87.333 131.455C87.4849 131.455 87.6306 131.515 87.7381 131.622C87.8455 131.73 87.9058 131.876 87.9058 132.027Z" fill="#FFBE6E"/>
</g>
<path d="M120.87 56.2062C116.38 59.6899 118.292 76.4427 137.901 80.5071C157.511 84.5714 165.593 71.7436 162.86 65.3722C160.127 59.0009 146.556 67.7954 137.901 61.8576C129.246 55.9197 125.36 52.7225 120.87 56.2062Z" fill="#D4EEFF"/>
<path d="M123.974 59.0549C122.194 60.6031 124.586 63.2738 126.165 63.057C126.488 62.9882 126.79 62.8436 127.047 62.6353C127.303 62.427 127.507 62.1608 127.64 61.8586C127.774 61.5565 127.834 61.2269 127.816 60.897C127.798 60.567 127.701 60.2461 127.535 59.9606C126.861 59.0549 123.974 59.0549 123.974 59.0549Z" fill="#B9DFFC"/>
<path d="M149.862 75.2116C149.723 77.5726 153.299 77.743 154.251 76.4657C154.432 76.1867 154.544 75.8682 154.577 75.537C154.61 75.2059 154.563 74.8716 154.441 74.5623C154.318 74.253 154.123 73.9776 153.871 73.7593C153.62 73.5409 153.32 73.386 152.997 73.3074C151.89 73.1603 149.862 75.2116 149.862 75.2116Z" fill="#B9DFFC"/>
<path d="M136.19 75.2737C133.868 76.5045 136.964 78.6178 139.07 78.4398C141.175 78.2617 141.741 76.6825 140.858 75.9781C139.976 75.2737 136.19 75.2737 136.19 75.2737Z" fill="#B9DFFC"/>
<g style="mix-blend-mode:screen" opacity="0.3">
<path d="M147.896 67.5708C146.727 68.1824 148.298 69.2352 149.328 69.119C150.357 69.0029 150.667 68.2366 150.226 67.8882C149.784 67.5399 147.896 67.5708 147.896 67.5708Z" fill="#FFBE6E"/>
</g>
<g style="mix-blend-mode:screen" opacity="0.3">
<path d="M126.629 70.5743C127.241 70.5743 127.736 70.0787 127.736 69.4673C127.736 68.856 127.241 68.3604 126.629 68.3604C126.018 68.3604 125.522 68.856 125.522 69.4673C125.522 70.0787 126.018 70.5743 126.629 70.5743Z" fill="#FFBE6E"/>
</g>
<path d="M156.914 69.4673C157.526 69.4673 158.021 68.9717 158.021 68.3603C158.021 67.7489 157.526 67.2533 156.914 67.2533C156.303 67.2533 155.807 67.7489 155.807 68.3603C155.807 68.9717 156.303 69.4673 156.914 69.4673Z" fill="#EBF6FF"/>
<path d="M137.057 70.048C137.989 70.048 138.745 69.2925 138.745 68.3605C138.745 67.4285 137.989 66.6729 137.057 66.6729C136.125 66.6729 135.37 67.4285 135.37 68.3605C135.37 69.2925 136.125 70.048 137.057 70.048Z" fill="#B9DFFC"/>
<path d="M354.48 70.3192C354.581 72.541 360.387 75.7383 366.093 70.3192C371.798 64.9 369.514 59.4809 366.867 58.9158C364.219 58.3506 363.971 64.6833 360.124 66.1232C356.276 67.5631 354.356 68.1128 354.48 70.3192Z" fill="#D4EEFF"/>
<path d="M356.091 69.9783C356.184 70.8995 357.577 70.7524 357.863 70.1796C357.926 70.0612 357.958 69.9285 357.954 69.7944C357.95 69.6603 357.912 69.5295 357.842 69.4148C357.773 69.3001 357.675 69.2054 357.558 69.14C357.441 69.0745 357.309 69.0407 357.174 69.0416C356.741 69.0571 356.091 69.9783 356.091 69.9783Z" fill="#B9DFFC"/>
<path d="M367.099 65.3179C367.819 65.8908 368.686 64.7838 368.485 64.1877C368.445 64.0599 368.372 63.9446 368.274 63.8531C368.177 63.7617 368.057 63.6972 367.926 63.666C367.796 63.6348 367.66 63.6379 367.531 63.6751C367.403 63.7123 367.286 63.7822 367.192 63.8781C366.898 64.2032 367.099 65.3179 367.099 65.3179Z" fill="#B9DFFC"/>
<path d="M364.042 69.715C363.91 70.7369 365.296 70.2105 365.706 69.506C366.116 68.8016 365.706 68.252 365.319 68.3758C364.932 68.4997 364.042 69.715 364.042 69.715Z" fill="#B9DFFC"/>
<g style="mix-blend-mode:screen" opacity="0.3">
<path d="M364.204 64.2264C364.142 64.7373 364.831 64.4741 365.032 64.118C365.233 63.762 365.032 63.491 364.839 63.5529C364.645 63.6149 364.204 64.2264 364.204 64.2264Z" fill="#FFBE6E"/>
</g>
<g style="mix-blend-mode:screen" opacity="0.3">
<path d="M360.031 71.9059C360.27 71.9059 360.464 71.7118 360.464 71.4724C360.464 71.233 360.27 71.0389 360.031 71.0389C359.791 71.0389 359.597 71.233 359.597 71.4724C359.597 71.7118 359.791 71.9059 360.031 71.9059Z" fill="#FFBE6E"/>
</g>
<path d="M366.488 61.9426C366.727 61.9426 366.921 61.7485 366.921 61.5091C366.921 61.2697 366.727 61.0756 366.488 61.0756C366.248 61.0756 366.054 61.2697 366.054 61.5091C366.054 61.7485 366.248 61.9426 366.488 61.9426Z" fill="#EBF6FF"/>
<path d="M362.021 68.5461C362.388 68.5461 362.686 68.2481 362.686 67.8804C362.686 67.5127 362.388 67.2147 362.021 67.2147C361.653 67.2147 361.355 67.5127 361.355 67.8804C361.355 68.2481 361.653 68.5461 362.021 68.5461Z" fill="#B9DFFC"/>
</svg>
