<svg width="86" height="122" viewBox="0 0 86 122" fill="none" xmlns="http://www.w3.org/2000/svg">
    <path d="M10.9199 117.466H9.68945L7.52881 110.296C7.42627 109.978 7.31152 109.578 7.18457 109.094C7.05762 108.611 6.9917 108.32 6.98682 108.223C6.87939 108.867 6.7085 109.573 6.47412 110.339L4.37939 117.466H3.14893L0.299805 106.758H1.61816L3.31006 113.372C3.54443 114.299 3.71533 115.139 3.82275 115.891C3.95459 114.998 4.1499 114.124 4.40869 113.269L6.32764 106.758H7.646L9.66016 113.328C9.89453 114.085 10.0923 114.939 10.2534 115.891C10.3462 115.198 10.522 114.353 10.7808 113.357L12.4653 106.758H13.7837L10.9199 117.466ZM20.2144 117.466L19.9727 116.323H19.9141C19.5137 116.826 19.1133 117.168 18.7129 117.349C18.3174 117.525 17.8218 117.612 17.2261 117.612C16.4302 117.612 15.8052 117.407 15.3511 116.997C14.9019 116.587 14.6772 116.004 14.6772 115.247C14.6772 113.626 15.9736 112.776 18.5664 112.698L19.9287 112.654V112.156C19.9287 111.526 19.792 111.062 19.5186 110.764C19.25 110.462 18.8179 110.31 18.2222 110.31C17.5532 110.31 16.7964 110.515 15.9517 110.925L15.5781 109.995C15.9736 109.78 16.4058 109.612 16.8745 109.49C17.3481 109.368 17.8218 109.307 18.2954 109.307C19.2524 109.307 19.9604 109.519 20.4194 109.944C20.8833 110.369 21.1152 111.05 21.1152 111.987V117.466H20.2144ZM17.4678 116.609C18.2246 116.609 18.8179 116.401 19.2476 115.986C19.6821 115.571 19.8994 114.99 19.8994 114.243V113.518L18.6836 113.569C17.7168 113.604 17.0186 113.755 16.5889 114.024C16.1641 114.287 15.9517 114.7 15.9517 115.261C15.9517 115.701 16.0835 116.035 16.3472 116.265C16.6157 116.494 16.9893 116.609 17.4678 116.609ZM26.2202 116.609C26.4351 116.609 26.6426 116.594 26.8428 116.565C27.043 116.531 27.2017 116.497 27.3188 116.463V117.393C27.187 117.456 26.9917 117.507 26.7329 117.547C26.479 117.59 26.2495 117.612 26.0444 117.612C24.4917 117.612 23.7153 116.795 23.7153 115.159V110.383H22.5654V109.797L23.7153 109.292L24.228 107.578H24.9312V109.439H27.2603V110.383H24.9312V115.108C24.9312 115.591 25.0459 115.962 25.2754 116.221C25.5049 116.48 25.8198 116.609 26.2202 116.609ZM32.1382 117.612C30.9761 117.612 30.0752 117.256 29.4355 116.543C28.8008 115.825 28.4834 114.812 28.4834 113.504C28.4834 112.161 28.8057 111.123 29.4502 110.391C30.0996 109.658 31.0225 109.292 32.2188 109.292C32.6045 109.292 32.9902 109.334 33.376 109.417C33.7617 109.5 34.0645 109.597 34.2842 109.71L33.9106 110.742C33.6421 110.635 33.3491 110.547 33.0317 110.479C32.7144 110.405 32.4336 110.369 32.1895 110.369C30.5586 110.369 29.7432 111.409 29.7432 113.489C29.7432 114.475 29.9409 115.232 30.3364 115.759C30.7368 116.287 31.3276 116.55 32.1089 116.55C32.7778 116.55 33.4639 116.406 34.167 116.118V117.195C33.6299 117.473 32.9536 117.612 32.1382 117.612ZM41.5718 117.466V112.273C41.5718 111.619 41.4229 111.13 41.125 110.808C40.8271 110.486 40.3608 110.325 39.7261 110.325C38.8813 110.325 38.2637 110.554 37.873 111.013C37.4873 111.472 37.2944 112.224 37.2944 113.269V117.466H36.0786V106.069H37.2944V109.519C37.2944 109.934 37.2749 110.278 37.2358 110.552H37.3091C37.5483 110.166 37.8877 109.863 38.3271 109.644C38.7715 109.419 39.2769 109.307 39.8433 109.307C40.8247 109.307 41.5596 109.541 42.0479 110.01C42.541 110.474 42.7876 111.214 42.7876 112.229V117.466H41.5718ZM50.9468 117.466L47.8999 109.439H49.2036L50.9321 114.199C51.3228 115.313 51.5522 116.035 51.6206 116.367H51.6792C51.7329 116.109 51.9014 115.574 52.1846 114.763C52.4727 113.948 53.1147 112.173 54.1108 109.439H55.4146L52.3677 117.466H50.9468ZM57.9194 117.466H56.7036V109.439H57.9194V117.466ZM56.6011 107.263C56.6011 106.985 56.6694 106.782 56.8062 106.655C56.9429 106.524 57.1138 106.458 57.3188 106.458C57.5142 106.458 57.6826 106.524 57.8242 106.655C57.9658 106.787 58.0366 106.99 58.0366 107.263C58.0366 107.537 57.9658 107.742 57.8242 107.879C57.6826 108.01 57.5142 108.076 57.3188 108.076C57.1138 108.076 56.9429 108.01 56.8062 107.879C56.6694 107.742 56.6011 107.537 56.6011 107.263ZM65.9614 116.389H65.8955C65.334 117.205 64.4941 117.612 63.376 117.612C62.3262 117.612 61.5083 117.254 60.9224 116.536C60.3413 115.818 60.0508 114.797 60.0508 113.474C60.0508 112.151 60.3438 111.123 60.9297 110.391C61.5156 109.658 62.3311 109.292 63.376 109.292C64.4648 109.292 65.2998 109.688 65.8809 110.479H65.9761L65.9248 109.9L65.8955 109.336V106.069H67.1113V117.466H66.1226L65.9614 116.389ZM63.5298 116.594C64.3599 116.594 64.9604 116.37 65.3315 115.921C65.7075 115.466 65.8955 114.736 65.8955 113.731V113.474C65.8955 112.337 65.7051 111.526 65.3242 111.043C64.9482 110.554 64.3452 110.31 63.5151 110.31C62.8022 110.31 62.2554 110.589 61.8745 111.145C61.4985 111.697 61.3105 112.478 61.3105 113.489C61.3105 114.514 61.4985 115.288 61.8745 115.811C62.2505 116.333 62.8022 116.594 63.5298 116.594ZM73.0879 117.612C71.9014 117.612 70.9639 117.251 70.2754 116.528C69.5918 115.806 69.25 114.802 69.25 113.518C69.25 112.224 69.5674 111.196 70.2021 110.435C70.8418 109.673 71.6987 109.292 72.7729 109.292C73.7788 109.292 74.5747 109.624 75.1606 110.288C75.7466 110.947 76.0396 111.819 76.0396 112.903V113.672H70.5098C70.5342 114.614 70.771 115.33 71.2202 115.818C71.6743 116.306 72.3115 116.55 73.1318 116.55C73.9961 116.55 74.8506 116.37 75.6953 116.008V117.092C75.2656 117.278 74.8579 117.41 74.4722 117.488C74.0913 117.571 73.6299 117.612 73.0879 117.612ZM72.7583 110.31C72.1138 110.31 71.5986 110.52 71.2129 110.94C70.832 111.36 70.6074 111.941 70.5391 112.683H74.7358C74.7358 111.917 74.5649 111.331 74.2231 110.925C73.8813 110.515 73.3931 110.31 72.7583 110.31ZM85.0483 113.445C85.0483 114.754 84.7188 115.776 84.0596 116.514C83.4004 117.246 82.4897 117.612 81.3276 117.612C80.6099 117.612 79.9727 117.444 79.416 117.107C78.8594 116.77 78.4297 116.287 78.127 115.657C77.8242 115.027 77.6729 114.29 77.6729 113.445C77.6729 112.136 78 111.118 78.6543 110.391C79.3086 109.658 80.2168 109.292 81.3789 109.292C82.502 109.292 83.3931 109.666 84.0522 110.413C84.7163 111.16 85.0483 112.171 85.0483 113.445ZM78.9326 113.445C78.9326 114.47 79.1377 115.252 79.5479 115.789C79.958 116.326 80.561 116.594 81.3569 116.594C82.1528 116.594 82.7559 116.328 83.166 115.796C83.5811 115.259 83.7886 114.475 83.7886 113.445C83.7886 112.424 83.5811 111.651 83.166 111.123C82.7559 110.591 82.1479 110.325 81.3423 110.325C80.5464 110.325 79.9458 110.586 79.5405 111.109C79.1353 111.631 78.9326 112.41 78.9326 113.445Z" fill="#EBF6FF"/>
    <path d="M43 83.1326C65.0914 83.1326 83 65.224 83 43.1326C83 21.0412 65.0914 3.13257 43 3.13257C20.9086 3.13257 3 21.0412 3 43.1326C3 65.224 20.9086 83.1326 43 83.1326Z" stroke="#DC304D" stroke-width="5" stroke-linecap="round" stroke-linejoin="round"/>
    <path d="M35 27.1326L59 43.1326L35 59.1326V27.1326Z" fill="#DC304D"/>
</svg>
