<svg width="266" height="24" viewBox="0 0 266 24" fill="none" xmlns="http://www.w3.org/2000/svg">
    <path d="M40.8125 9.90625C40.8125 11.0625 40.4167 11.9531 39.625 12.5781C38.8385 13.1979 37.7109 13.5078 36.2422 13.5078H34.8984V18H33.5703V6.57812H36.5312C39.3854 6.57812 40.8125 7.6875 40.8125 9.90625ZM34.8984 12.3672H36.0938C37.2708 12.3672 38.1224 12.1771 38.6484 11.7969C39.1745 11.4167 39.4375 10.8073 39.4375 9.96875C39.4375 9.21354 39.1901 8.65104 38.6953 8.28125C38.2005 7.91146 37.4297 7.72656 36.3828 7.72656H34.8984V12.3672ZM46.9219 9.28125C47.3021 9.28125 47.6432 9.3125 47.9453 9.375L47.7656 10.5781C47.4115 10.5 47.099 10.4609 46.8281 10.4609C46.1354 10.4609 45.5417 10.7422 45.0469 11.3047C44.5573 11.8672 44.3125 12.5677 44.3125 13.4062V18H43.0156V9.4375H44.0859L44.2344 11.0234H44.2969C44.6146 10.4661 44.9974 10.0365 45.4453 9.73438C45.8932 9.43229 46.3854 9.28125 46.9219 9.28125ZM56.9375 13.7109C56.9375 15.1068 56.5859 16.1979 55.8828 16.9844C55.1797 17.7656 54.2083 18.1562 52.9688 18.1562C52.2031 18.1562 51.5234 17.9766 50.9297 17.6172C50.3359 17.2578 49.8776 16.7422 49.5547 16.0703C49.2318 15.3984 49.0703 14.612 49.0703 13.7109C49.0703 12.3151 49.4193 11.2292 50.1172 10.4531C50.8151 9.67188 51.7839 9.28125 53.0234 9.28125C54.2214 9.28125 55.1719 9.67969 55.875 10.4766C56.5833 11.2734 56.9375 12.3516 56.9375 13.7109ZM50.4141 13.7109C50.4141 14.8047 50.6328 15.638 51.0703 16.2109C51.5078 16.7839 52.151 17.0703 53 17.0703C53.849 17.0703 54.4922 16.7865 54.9297 16.2188C55.3724 15.6458 55.5938 14.8099 55.5938 13.7109C55.5938 12.6224 55.3724 11.7969 54.9297 11.2344C54.4922 10.6667 53.8438 10.3828 52.9844 10.3828C52.1354 10.3828 51.4948 10.6615 51.0625 11.2188C50.6302 11.776 50.4141 12.6068 50.4141 13.7109ZM61.9844 17.0859C62.2135 17.0859 62.4349 17.0703 62.6484 17.0391C62.862 17.0026 63.0312 16.9661 63.1562 16.9297V17.9219C63.0156 17.9896 62.8073 18.0443 62.5312 18.0859C62.2604 18.1328 62.0156 18.1562 61.7969 18.1562C60.1406 18.1562 59.3125 17.2839 59.3125 15.5391V10.4453H58.0859V9.82031L59.3125 9.28125L59.8594 7.45312H60.6094V9.4375H63.0938V10.4453H60.6094V15.4844C60.6094 16 60.7318 16.3958 60.9766 16.6719C61.2214 16.9479 61.5573 17.0859 61.9844 17.0859ZM68.4922 18.1562C67.2266 18.1562 66.2266 17.7708 65.4922 17C64.763 16.2292 64.3984 15.1589 64.3984 13.7891C64.3984 12.4089 64.737 11.3125 65.4141 10.5C66.0964 9.6875 67.0104 9.28125 68.1562 9.28125C69.2292 9.28125 70.0781 9.63542 70.7031 10.3438C71.3281 11.0469 71.6406 11.9766 71.6406 13.1328V13.9531H65.7422C65.7682 14.9583 66.0208 15.7214 66.5 16.2422C66.9844 16.763 67.6641 17.0234 68.5391 17.0234C69.4609 17.0234 70.3724 16.8307 71.2734 16.4453V17.6016C70.8151 17.7995 70.3802 17.9401 69.9688 18.0234C69.5625 18.112 69.0703 18.1562 68.4922 18.1562ZM68.1406 10.3672C67.4531 10.3672 66.9036 10.5911 66.4922 11.0391C66.0859 11.487 65.8464 12.1068 65.7734 12.8984H70.25C70.25 12.0807 70.0677 11.4557 69.7031 11.0234C69.3385 10.5859 68.8177 10.3672 68.1406 10.3672ZM77.2812 18.1562C76.0417 18.1562 75.0807 17.776 74.3984 17.0156C73.7214 16.25 73.3828 15.1693 73.3828 13.7734C73.3828 12.3411 73.7266 11.2344 74.4141 10.4531C75.1068 9.67188 76.0911 9.28125 77.3672 9.28125C77.7786 9.28125 78.1901 9.32552 78.6016 9.41406C79.013 9.5026 79.3359 9.60677 79.5703 9.72656L79.1719 10.8281C78.8854 10.7135 78.5729 10.6198 78.2344 10.5469C77.8958 10.4688 77.5964 10.4297 77.3359 10.4297C75.5964 10.4297 74.7266 11.5391 74.7266 13.7578C74.7266 14.8099 74.9375 15.6172 75.3594 16.1797C75.7865 16.7422 76.4167 17.0234 77.25 17.0234C77.9635 17.0234 78.6953 16.8698 79.4453 16.5625V17.7109C78.8724 18.0078 78.151 18.1562 77.2812 18.1562ZM84.25 17.0859C84.4792 17.0859 84.7005 17.0703 84.9141 17.0391C85.1276 17.0026 85.2969 16.9661 85.4219 16.9297V17.9219C85.2812 17.9896 85.0729 18.0443 84.7969 18.0859C84.526 18.1328 84.2812 18.1562 84.0625 18.1562C82.4062 18.1562 81.5781 17.2839 81.5781 15.5391V10.4453H80.3516V9.82031L81.5781 9.28125L82.125 7.45312H82.875V9.4375H85.3594V10.4453H82.875V15.4844C82.875 16 82.9974 16.3958 83.2422 16.6719C83.487 16.9479 83.8229 17.0859 84.25 17.0859ZM94.3984 12.2891L97.4453 6.57812H98.8828L95.0703 13.5703V18H93.7266V13.6328L89.9219 6.57812H91.375L94.3984 12.2891ZM107.656 13.7109C107.656 15.1068 107.305 16.1979 106.602 16.9844C105.898 17.7656 104.927 18.1562 103.688 18.1562C102.922 18.1562 102.242 17.9766 101.648 17.6172C101.055 17.2578 100.596 16.7422 100.273 16.0703C99.9505 15.3984 99.7891 14.612 99.7891 13.7109C99.7891 12.3151 100.138 11.2292 100.836 10.4531C101.534 9.67188 102.503 9.28125 103.742 9.28125C104.94 9.28125 105.891 9.67969 106.594 10.4766C107.302 11.2734 107.656 12.3516 107.656 13.7109ZM101.133 13.7109C101.133 14.8047 101.352 15.638 101.789 16.2109C102.227 16.7839 102.87 17.0703 103.719 17.0703C104.568 17.0703 105.211 16.7865 105.648 16.2188C106.091 15.6458 106.312 14.8099 106.312 13.7109C106.312 12.6224 106.091 11.7969 105.648 11.2344C105.211 10.6667 104.562 10.3828 103.703 10.3828C102.854 10.3828 102.214 10.6615 101.781 11.2188C101.349 11.776 101.133 12.6068 101.133 13.7109ZM111.156 9.4375V14.9922C111.156 15.6901 111.315 16.2109 111.633 16.5547C111.951 16.8984 112.448 17.0703 113.125 17.0703C114.021 17.0703 114.674 16.8255 115.086 16.3359C115.503 15.8464 115.711 15.0469 115.711 13.9375V9.4375H117.008V18H115.938L115.75 16.8516H115.68C115.414 17.2734 115.044 17.5964 114.57 17.8203C114.102 18.0443 113.565 18.1562 112.961 18.1562C111.919 18.1562 111.138 17.9089 110.617 17.4141C110.102 16.9193 109.844 16.1276 109.844 15.0391V9.4375H111.156ZM123.672 9.28125C124.052 9.28125 124.393 9.3125 124.695 9.375L124.516 10.5781C124.161 10.5 123.849 10.4609 123.578 10.4609C122.885 10.4609 122.292 10.7422 121.797 11.3047C121.307 11.8672 121.062 12.5677 121.062 13.4062V18H119.766V9.4375H120.836L120.984 11.0234H121.047C121.365 10.4661 121.747 10.0365 122.195 9.73438C122.643 9.43229 123.135 9.28125 123.672 9.28125ZM131.82 15.6641C131.82 16.4609 131.523 17.0755 130.93 17.5078C130.336 17.9401 129.503 18.1562 128.43 18.1562C127.294 18.1562 126.409 17.9766 125.773 17.6172V16.4141C126.185 16.6224 126.625 16.7865 127.094 16.9062C127.568 17.026 128.023 17.0859 128.461 17.0859C129.138 17.0859 129.659 16.9792 130.023 16.7656C130.388 16.5469 130.57 16.2161 130.57 15.7734C130.57 15.4401 130.424 15.1562 130.133 14.9219C129.846 14.6823 129.284 14.401 128.445 14.0781C127.648 13.7812 127.081 13.5234 126.742 13.3047C126.409 13.0807 126.159 12.8281 125.992 12.5469C125.831 12.2656 125.75 11.9297 125.75 11.5391C125.75 10.8411 126.034 10.2917 126.602 9.89062C127.169 9.48438 127.948 9.28125 128.938 9.28125C129.859 9.28125 130.76 9.46875 131.641 9.84375L131.18 10.8984C130.32 10.5443 129.542 10.3672 128.844 10.3672C128.229 10.3672 127.766 10.4635 127.453 10.6562C127.141 10.849 126.984 11.1146 126.984 11.4531C126.984 11.6823 127.042 11.8776 127.156 12.0391C127.276 12.2005 127.466 12.3542 127.727 12.5C127.987 12.6458 128.487 12.8568 129.227 13.1328C130.242 13.5026 130.927 13.875 131.281 14.25C131.641 14.625 131.82 15.0964 131.82 15.6641ZM137.555 18.1562C136.289 18.1562 135.289 17.7708 134.555 17C133.826 16.2292 133.461 15.1589 133.461 13.7891C133.461 12.4089 133.799 11.3125 134.477 10.5C135.159 9.6875 136.073 9.28125 137.219 9.28125C138.292 9.28125 139.141 9.63542 139.766 10.3438C140.391 11.0469 140.703 11.9766 140.703 13.1328V13.9531H134.805C134.831 14.9583 135.083 15.7214 135.562 16.2422C136.047 16.763 136.727 17.0234 137.602 17.0234C138.523 17.0234 139.435 16.8307 140.336 16.4453V17.6016C139.878 17.7995 139.443 17.9401 139.031 18.0234C138.625 18.112 138.133 18.1562 137.555 18.1562ZM137.203 10.3672C136.516 10.3672 135.966 10.5911 135.555 11.0391C135.148 11.487 134.909 12.1068 134.836 12.8984H139.312C139.312 12.0807 139.13 11.4557 138.766 11.0234C138.401 10.5859 137.88 10.3672 137.203 10.3672ZM144.219 18H142.922V5.84375H144.219V18ZM150.828 10.4453H148.648V18H147.352V10.4453H145.82V9.85938L147.352 9.39062V8.91406C147.352 6.8099 148.271 5.75781 150.109 5.75781C150.562 5.75781 151.094 5.84896 151.703 6.03125L151.367 7.07031C150.867 6.90885 150.44 6.82812 150.086 6.82812C149.596 6.82812 149.234 6.99219 149 7.32031C148.766 7.64323 148.648 8.16406 148.648 8.88281V9.4375H150.828V10.4453ZM160.406 10.4453H158.227V18H156.93V10.4453H155.398V9.85938L156.93 9.39062V8.91406C156.93 6.8099 157.849 5.75781 159.688 5.75781C160.141 5.75781 160.672 5.84896 161.281 6.03125L160.945 7.07031C160.445 6.90885 160.018 6.82812 159.664 6.82812C159.174 6.82812 158.812 6.99219 158.578 7.32031C158.344 7.64323 158.227 8.16406 158.227 8.88281V9.4375H160.406V10.4453ZM165.875 9.28125C166.255 9.28125 166.596 9.3125 166.898 9.375L166.719 10.5781C166.365 10.5 166.052 10.4609 165.781 10.4609C165.089 10.4609 164.495 10.7422 164 11.3047C163.51 11.8672 163.266 12.5677 163.266 13.4062V18H161.969V9.4375H163.039L163.188 11.0234H163.25C163.568 10.4661 163.951 10.0365 164.398 9.73438C164.846 9.43229 165.339 9.28125 165.875 9.28125ZM175.891 13.7109C175.891 15.1068 175.539 16.1979 174.836 16.9844C174.133 17.7656 173.161 18.1562 171.922 18.1562C171.156 18.1562 170.477 17.9766 169.883 17.6172C169.289 17.2578 168.831 16.7422 168.508 16.0703C168.185 15.3984 168.023 14.612 168.023 13.7109C168.023 12.3151 168.372 11.2292 169.07 10.4531C169.768 9.67188 170.737 9.28125 171.977 9.28125C173.174 9.28125 174.125 9.67969 174.828 10.4766C175.536 11.2734 175.891 12.3516 175.891 13.7109ZM169.367 13.7109C169.367 14.8047 169.586 15.638 170.023 16.2109C170.461 16.7839 171.104 17.0703 171.953 17.0703C172.802 17.0703 173.445 16.7865 173.883 16.2188C174.326 15.6458 174.547 14.8099 174.547 13.7109C174.547 12.6224 174.326 11.7969 173.883 11.2344C173.445 10.6667 172.797 10.3828 171.938 10.3828C171.089 10.3828 170.448 10.6615 170.016 11.2188C169.583 11.776 169.367 12.6068 169.367 13.7109ZM189.086 18V12.4297C189.086 11.7474 188.94 11.237 188.648 10.8984C188.357 10.5547 187.904 10.3828 187.289 10.3828C186.482 10.3828 185.885 10.6146 185.5 11.0781C185.115 11.5417 184.922 12.2552 184.922 13.2188V18H183.625V12.4297C183.625 11.7474 183.479 11.237 183.188 10.8984C182.896 10.5547 182.44 10.3828 181.82 10.3828C181.008 10.3828 180.411 10.6276 180.031 11.1172C179.656 11.6016 179.469 12.3984 179.469 13.5078V18H178.172V9.4375H179.227L179.438 10.6094H179.5C179.745 10.1927 180.089 9.86719 180.531 9.63281C180.979 9.39844 181.479 9.28125 182.031 9.28125C183.37 9.28125 184.245 9.76562 184.656 10.7344H184.719C184.974 10.2865 185.344 9.93229 185.828 9.67188C186.312 9.41146 186.865 9.28125 187.484 9.28125C188.453 9.28125 189.177 9.53125 189.656 10.0312C190.141 10.526 190.383 11.3203 190.383 12.4141V18H189.086ZM202.305 7.60156C201.049 7.60156 200.057 8.02083 199.328 8.85938C198.604 9.69271 198.242 10.8359 198.242 12.2891C198.242 13.7839 198.591 14.9401 199.289 15.7578C199.992 16.5703 200.992 16.9766 202.289 16.9766C203.086 16.9766 203.995 16.8333 205.016 16.5469V17.7109C204.224 18.0078 203.247 18.1562 202.086 18.1562C200.404 18.1562 199.104 17.6458 198.188 16.625C197.276 15.6042 196.82 14.1536 196.82 12.2734C196.82 11.0964 197.039 10.0651 197.477 9.17969C197.919 8.29427 198.555 7.61198 199.383 7.13281C200.216 6.65365 201.195 6.41406 202.32 6.41406C203.518 6.41406 204.565 6.63281 205.461 7.07031L204.898 8.21094C204.034 7.80469 203.169 7.60156 202.305 7.60156ZM214.703 13.7109C214.703 15.1068 214.352 16.1979 213.648 16.9844C212.945 17.7656 211.974 18.1562 210.734 18.1562C209.969 18.1562 209.289 17.9766 208.695 17.6172C208.102 17.2578 207.643 16.7422 207.32 16.0703C206.997 15.3984 206.836 14.612 206.836 13.7109C206.836 12.3151 207.185 11.2292 207.883 10.4531C208.581 9.67188 209.549 9.28125 210.789 9.28125C211.987 9.28125 212.938 9.67969 213.641 10.4766C214.349 11.2734 214.703 12.3516 214.703 13.7109ZM208.18 13.7109C208.18 14.8047 208.398 15.638 208.836 16.2109C209.273 16.7839 209.917 17.0703 210.766 17.0703C211.615 17.0703 212.258 16.7865 212.695 16.2188C213.138 15.6458 213.359 14.8099 213.359 13.7109C213.359 12.6224 213.138 11.7969 212.695 11.2344C212.258 10.6667 211.609 10.3828 210.75 10.3828C209.901 10.3828 209.26 10.6615 208.828 11.2188C208.396 11.776 208.18 12.6068 208.18 13.7109ZM218.859 18L215.609 9.4375H217L218.844 14.5156C219.26 15.7031 219.505 16.474 219.578 16.8281H219.641C219.698 16.5521 219.878 15.9818 220.18 15.1172C220.487 14.2474 221.172 12.3542 222.234 9.4375H223.625L220.375 18H218.859ZM226.297 18H225V9.4375H226.297V18ZM224.891 7.11719C224.891 6.82031 224.964 6.60417 225.109 6.46875C225.255 6.32812 225.438 6.25781 225.656 6.25781C225.865 6.25781 226.044 6.32812 226.195 6.46875C226.346 6.60938 226.422 6.82552 226.422 7.11719C226.422 7.40885 226.346 7.6276 226.195 7.77344C226.044 7.91406 225.865 7.98438 225.656 7.98438C225.438 7.98438 225.255 7.91406 225.109 7.77344C224.964 7.6276 224.891 7.40885 224.891 7.11719ZM234.875 16.8516H234.805C234.206 17.7214 233.31 18.1562 232.117 18.1562C230.997 18.1562 230.125 17.7734 229.5 17.0078C228.88 16.2422 228.57 15.1536 228.57 13.7422C228.57 12.3307 228.883 11.2344 229.508 10.4531C230.133 9.67188 231.003 9.28125 232.117 9.28125C233.279 9.28125 234.169 9.70312 234.789 10.5469H234.891L234.836 9.92969L234.805 9.32812V5.84375H236.102V18H235.047L234.875 16.8516ZM232.281 17.0703C233.167 17.0703 233.807 16.8307 234.203 16.3516C234.604 15.8672 234.805 15.0885 234.805 14.0156V13.7422C234.805 12.5286 234.602 11.6641 234.195 11.1484C233.794 10.6276 233.151 10.3672 232.266 10.3672C231.505 10.3672 230.922 10.6641 230.516 11.2578C230.115 11.8464 229.914 12.6797 229.914 13.7578C229.914 14.8516 230.115 15.6771 230.516 16.2344C230.917 16.7917 231.505 17.0703 232.281 17.0703ZM238.141 14.3047V13.1172H241.977V14.3047H238.141ZM248.227 18H246.961V9.85938C246.961 9.18229 246.982 8.54167 247.023 7.9375C246.914 8.04688 246.792 8.16146 246.656 8.28125C246.521 8.40104 245.901 8.90885 244.797 9.80469L244.109 8.91406L247.133 6.57812H248.227V18ZM260.086 11.4531C260.086 15.9219 258.357 18.1562 254.898 18.1562C254.294 18.1562 253.815 18.1042 253.461 18V16.8828C253.878 17.0182 254.352 17.0859 254.883 17.0859C256.133 17.0859 257.076 16.7005 257.711 15.9297C258.352 15.1536 258.701 13.9661 258.758 12.3672H258.664C258.378 12.7995 257.997 13.1302 257.523 13.3594C257.049 13.5833 256.516 13.6953 255.922 13.6953C254.911 13.6953 254.109 13.3932 253.516 12.7891C252.922 12.1849 252.625 11.3411 252.625 10.2578C252.625 9.07031 252.956 8.13281 253.617 7.44531C254.284 6.75781 255.159 6.41406 256.242 6.41406C257.018 6.41406 257.695 6.61458 258.273 7.01562C258.857 7.41146 259.305 7.99219 259.617 8.75781C259.93 9.51823 260.086 10.4167 260.086 11.4531ZM256.242 7.52344C255.497 7.52344 254.922 7.76302 254.516 8.24219C254.109 8.72135 253.906 9.38802 253.906 10.2422C253.906 10.9922 254.094 11.5833 254.469 12.0156C254.844 12.4427 255.414 12.6562 256.18 12.6562C256.654 12.6562 257.089 12.5599 257.484 12.3672C257.885 12.1745 258.201 11.9115 258.43 11.5781C258.659 11.2448 258.773 10.8958 258.773 10.5312C258.773 9.98438 258.667 9.47917 258.453 9.01562C258.24 8.55208 257.94 8.1875 257.555 7.92188C257.174 7.65625 256.737 7.52344 256.242 7.52344ZM263.5 14.8516H262.68L262.281 6.57812H263.898L263.5 14.8516ZM262.141 17.1719C262.141 16.4635 262.453 16.1094 263.078 16.1094C263.38 16.1094 263.612 16.2005 263.773 16.3828C263.94 16.5651 264.023 16.8281 264.023 17.1719C264.023 17.5052 263.94 17.7656 263.773 17.9531C263.607 18.1354 263.375 18.2266 263.078 18.2266C262.807 18.2266 262.583 18.1458 262.406 17.9844C262.229 17.8177 262.141 17.5469 262.141 17.1719Z" fill="#16C6B4"/>
    <path d="M10.5114 11.2001C10.5967 11.3203 10.7191 11.4106 10.8606 11.4579C11.0022 11.5053 11.1555 11.5071 11.2982 11.4633C11.4409 11.4194 11.5655 11.3321 11.6539 11.214C11.7422 11.096 11.7897 10.9534 11.7894 10.8072C11.7897 10.6609 11.7422 10.5183 11.6539 10.4003C11.5655 10.2823 11.4409 10.1949 11.2982 10.151C11.1555 10.1072 11.0022 10.109 10.8606 10.1564C10.7191 10.2037 10.5967 10.294 10.5114 10.4142H10.1818C10.1818 9.79716 9.98088 9.23518 9.61918 8.76752L10.1577 8.24091C10.3828 8.28021 10.6118 8.21733 10.7847 8.0562C11.0539 7.78504 11.0539 7.34882 10.7847 7.07372C10.5074 6.81042 10.0613 6.81042 9.77994 7.07372C9.61516 7.24271 9.55086 7.46672 9.59105 7.68679L9.05252 8.2134C8.68279 7.94224 8.24875 7.76146 7.7705 7.69465V7.14446C7.89336 7.06101 7.98574 6.94135 8.03414 6.80294C8.08255 6.66453 8.08445 6.51462 8.03958 6.37507C7.9947 6.23553 7.9054 6.11366 7.78469 6.02725C7.66399 5.94084 7.51821 5.89442 7.36862 5.89475C7.21903 5.89442 7.07324 5.94084 6.95254 6.02725C6.83184 6.11366 6.74253 6.23553 6.69766 6.37507C6.65278 6.51462 6.65469 6.66453 6.70309 6.80294C6.7515 6.94135 6.84387 7.06101 6.96673 7.14446V7.69465C6.60503 7.74574 6.26745 7.85971 5.96201 8.03263L5.51592 7.40777C5.59228 7.20341 5.57218 6.96762 5.43554 6.77898C5.38257 6.70484 5.31516 6.64165 5.23718 6.59302C5.1592 6.54439 5.07217 6.51128 4.98109 6.49558C4.89 6.47988 4.79664 6.48191 4.70636 6.50154C4.61608 6.52118 4.53064 6.55803 4.45494 6.60999C4.13745 6.82614 4.05707 7.2545 4.28213 7.56496C4.41877 7.75753 4.63579 7.85971 4.85683 7.85971L5.33105 8.51994C5.15824 8.68892 5.0216 8.87756 4.90505 9.08584C4.77836 9.03744 4.64009 9.02579 4.50679 9.05227C4.3735 9.07876 4.25085 9.14227 4.15352 9.23518C3.88426 9.51028 3.88426 9.94257 4.15352 10.2177C4.27007 10.3238 4.41073 10.3866 4.55541 10.4142C4.55541 10.6264 4.58354 10.8307 4.62775 11.0272L4.10128 11.1648C3.93249 11.0272 3.69939 10.9683 3.4663 11.0272C3.28617 11.0752 3.13289 11.1911 3.04019 11.3496C2.94748 11.508 2.92295 11.696 2.97198 11.8722C3.02101 12.0483 3.13959 12.1982 3.30163 12.2888C3.46367 12.3795 3.6559 12.4035 3.83603 12.3555C4.06511 12.2927 4.23792 12.1276 4.31026 11.9232L4.91711 11.7621C5.09796 12.0726 5.33909 12.3477 5.62041 12.5756L5.17833 13.3616C4.9573 13.393 4.75635 13.5149 4.63981 13.7232C4.596 13.8026 4.56864 13.8898 4.55927 13.9796C4.5499 14.0694 4.55872 14.1602 4.58521 14.2466C4.61171 14.3331 4.65537 14.4137 4.71369 14.4837C4.77202 14.5536 4.84387 14.6117 4.92515 14.6545C5.00642 14.6974 5.09553 14.7241 5.18738 14.7333C5.27923 14.7425 5.37203 14.7338 5.46048 14.7079C5.54892 14.682 5.63128 14.6393 5.70286 14.5823C5.77443 14.5253 5.83381 14.455 5.87762 14.3755C5.99015 14.1712 5.98613 13.9354 5.88566 13.7428L6.31567 12.9686C6.6412 13.0944 6.99486 13.1651 7.36862 13.1651H7.44096C7.38871 13.2673 7.36862 13.3852 7.36862 13.5109C7.40077 13.8921 7.73835 14.1751 8.12416 14.1476C8.50997 14.1201 8.80335 13.786 8.77522 13.4088C8.75914 13.2123 8.65867 13.0393 8.51399 12.9254C8.70288 12.8429 8.88373 12.7367 9.05252 12.6149L9.99294 13.5345C9.95275 13.7546 10.017 13.9786 10.1818 14.1476C10.4631 14.4109 10.9052 14.4109 11.1865 14.1476C11.4679 13.8843 11.4558 13.4402 11.1865 13.1651C11.0137 13.004 10.7847 12.9411 10.5596 12.9804L9.61918 12.0608C9.81611 11.8054 9.96882 11.5145 10.0653 11.2001H10.5114ZM6.76579 10.4142C6.43222 10.4142 6.16296 10.1509 6.16296 9.82467C6.16296 9.49849 6.43222 9.23518 6.76579 9.23518C7.09935 9.23518 7.36862 9.49849 7.36862 9.82467C7.36862 10.1509 7.09935 10.4142 6.76579 10.4142ZM8.17239 11.5931C7.95135 11.5931 7.7705 11.4163 7.7705 11.2001C7.7705 10.984 7.95135 10.8072 8.17239 10.8072C8.39343 10.8072 8.57428 10.984 8.57428 11.2001C8.57428 11.4163 8.39343 11.5931 8.17239 11.5931Z" fill="#16C6B4"/>
    <path d="M11.1806 21.8948C11.2212 21.952 11.2795 21.995 11.3469 22.0176C11.4143 22.0401 11.4873 22.041 11.5552 22.0201C11.6232 21.9992 11.6825 21.9576 11.7246 21.9014C11.7667 21.8452 11.7893 21.7773 11.7891 21.7077C11.7893 21.638 11.7667 21.5701 11.7246 21.5139C11.6825 21.4577 11.6232 21.4161 11.5552 21.3952C11.4873 21.3743 11.4143 21.3752 11.3469 21.3978C11.2795 21.4203 11.2212 21.4633 11.1806 21.5205H11.0236C11.0236 21.2267 10.928 20.9591 10.7557 20.7364L11.0122 20.4856C11.1193 20.5044 11.2284 20.4744 11.3107 20.3977C11.4389 20.2686 11.4389 20.0608 11.3107 19.9298C11.1787 19.8045 10.9662 19.8045 10.8323 19.9298C10.7538 20.0103 10.7232 20.117 10.7423 20.2218L10.4859 20.4725C10.3098 20.3434 10.1031 20.2573 9.87539 20.2255V19.9635C9.9339 19.9238 9.97789 19.8668 10.0009 19.8009C10.024 19.735 10.0249 19.6636 10.0035 19.5971C9.98215 19.5307 9.93963 19.4727 9.88215 19.4315C9.82467 19.3904 9.75525 19.3683 9.68402 19.3684C9.61279 19.3683 9.54337 19.3904 9.48589 19.4315C9.42841 19.4727 9.38588 19.5307 9.36452 19.5971C9.34315 19.6636 9.34405 19.735 9.3671 19.8009C9.39015 19.8668 9.43414 19.9238 9.49264 19.9635V20.2255C9.32041 20.2498 9.15965 20.3041 9.01421 20.3865L8.80178 20.0889C8.83814 19.9916 8.82857 19.8793 8.76351 19.7895C8.73828 19.7542 8.70618 19.7241 8.66905 19.7009C8.63191 19.6778 8.59047 19.662 8.5471 19.6545C8.50373 19.6471 8.45927 19.648 8.41628 19.6574C8.37328 19.6667 8.3326 19.6843 8.29655 19.709C8.14537 19.8119 8.10709 20.0159 8.21426 20.1638C8.27933 20.2555 8.38267 20.3041 8.48793 20.3041L8.71375 20.6185C8.63146 20.699 8.56639 20.7888 8.51089 20.888C8.45056 20.8649 8.38472 20.8594 8.32125 20.872C8.25777 20.8846 8.19937 20.9149 8.15302 20.9591C8.0248 21.0901 8.0248 21.296 8.15302 21.4269C8.20852 21.4775 8.2755 21.5074 8.3444 21.5205C8.3444 21.6216 8.35779 21.7189 8.37884 21.8125L8.12814 21.878C8.04777 21.8125 7.93677 21.7844 7.82577 21.8125C7.73999 21.8353 7.66701 21.8905 7.62286 21.966C7.57872 22.0414 7.56703 22.1309 7.59038 22.2148C7.61373 22.2987 7.67019 22.3701 7.74736 22.4132C7.82452 22.4564 7.91606 22.4678 8.00184 22.445C8.11092 22.415 8.19321 22.3364 8.22766 22.2391L8.51663 22.1624C8.60275 22.3102 8.71758 22.4412 8.85154 22.5498L8.64103 22.9241C8.53577 22.939 8.44008 22.997 8.38459 23.0962C8.36373 23.1341 8.35069 23.1756 8.34623 23.2183C8.34177 23.2611 8.34597 23.3043 8.35859 23.3455C8.37121 23.3867 8.39199 23.425 8.41977 23.4584C8.44754 23.4917 8.48176 23.5194 8.52046 23.5398C8.55916 23.5601 8.6016 23.5729 8.64534 23.5773C8.68907 23.5816 8.73326 23.5775 8.77538 23.5652C8.8175 23.5528 8.85672 23.5325 8.8908 23.5053C8.92488 23.4782 8.95316 23.4447 8.97402 23.4069C9.0276 23.3096 9.02569 23.1973 8.97785 23.1056L9.18262 22.7369C9.33763 22.7968 9.50604 22.8305 9.68402 22.8305H9.71847C9.69359 22.8791 9.68402 22.9353 9.68402 22.9952C9.69933 23.1767 9.86008 23.3114 10.0438 23.2983C10.2275 23.2852 10.3672 23.1262 10.3538 22.9465C10.3462 22.8529 10.2983 22.7706 10.2294 22.7163C10.3194 22.677 10.4055 22.6265 10.4859 22.5685L10.9337 23.0064C10.9146 23.1112 10.9452 23.2179 11.0236 23.2983C11.1576 23.4237 11.3681 23.4237 11.5021 23.2983C11.636 23.173 11.6303 22.9615 11.5021 22.8305C11.4198 22.7538 11.3107 22.7238 11.2035 22.7425L10.7557 22.3046C10.8495 22.183 10.9222 22.0445 10.9681 21.8948H11.1806ZM9.39696 21.5205C9.23812 21.5205 9.1099 21.3951 9.1099 21.2398C9.1099 21.0845 9.23812 20.9591 9.39696 20.9591C9.5558 20.9591 9.68402 21.0845 9.68402 21.2398C9.68402 21.3951 9.5558 21.5205 9.39696 21.5205ZM10.0668 22.0819C9.96151 22.0819 9.87539 21.9977 9.87539 21.8948C9.87539 21.7919 9.96151 21.7077 10.0668 21.7077C10.172 21.7077 10.2581 21.7919 10.2581 21.8948C10.2581 21.9977 10.172 22.0819 10.0668 22.0819Z" fill="#16C6B4"/>
    <path d="M18.5263 8.84211C18.3411 8.8417 18.1606 8.89918 18.0111 9.00616C17.8617 9.11315 17.7511 9.26403 17.6956 9.4368C17.64 9.60956 17.6424 9.79517 17.7023 9.96654C17.7622 10.1379 17.8766 10.2861 18.0287 10.3894V11.0706C17.5809 11.1338 17.1629 11.2749 16.7848 11.489L16.2324 10.7154C16.327 10.4624 16.3021 10.1704 16.1329 9.93687C15.9588 9.69846 15.6901 9.57195 15.4164 9.57195C15.2423 9.57195 15.0681 9.62061 14.9188 9.72765C14.5258 9.99526 14.4262 10.5256 14.7049 10.91C14.8741 11.1484 15.1428 11.2749 15.4164 11.2749L16.0036 12.0923C15.7896 12.3016 15.6204 12.5351 15.4761 12.793C15.3766 12.7541 15.2721 12.7346 15.1676 12.7346C14.9437 12.7346 14.7198 12.8173 14.5457 12.9779C14.2123 13.3185 14.2123 13.8537 14.5457 14.1943C14.69 14.3257 14.8641 14.3986 15.0432 14.4376C15.0432 14.7003 15.0781 14.9533 15.1328 15.1966L14.481 15.3669C14.3267 15.2404 14.1277 15.1674 13.9237 15.1674C13.8491 15.1674 13.7694 15.1674 13.6948 15.1966C13.4718 15.256 13.2821 15.3996 13.1673 15.5958C13.0526 15.7919 13.0222 16.0246 13.0828 16.2427C13.1873 16.6271 13.5505 16.8704 13.9237 16.8704C13.9983 16.8704 14.073 16.8704 14.1526 16.8412C14.4362 16.7633 14.6501 16.559 14.7397 16.306L15.4911 16.1065C15.715 16.4909 16.0135 16.8315 16.3618 17.1137L15.8145 18.0868C15.5408 18.1257 15.292 18.2765 15.1477 18.5344C15.0935 18.6328 15.0596 18.7407 15.048 18.8519C15.0364 18.9631 15.0473 19.0755 15.0801 19.1825C15.1129 19.2896 15.167 19.3893 15.2392 19.476C15.3114 19.5626 15.4004 19.6345 15.501 19.6876C15.6016 19.7406 15.712 19.7737 15.8257 19.7851C15.9394 19.7964 16.0543 19.7857 16.1638 19.7537C16.2733 19.7216 16.3753 19.6687 16.4639 19.5981C16.5525 19.5275 16.626 19.4405 16.6803 19.3421C16.8196 19.0891 16.8146 18.7972 16.6902 18.5587L17.2226 17.6002C17.6257 17.7559 18.0635 17.8435 18.5263 17.8435H18.6158C18.5511 17.97 18.5263 18.116 18.5263 18.2717C18.5661 18.7193 18.9442 19.0599 19.397 19.0599H19.4617C19.9444 19.021 20.3026 18.6123 20.2678 18.1452C20.2479 17.9019 20.1235 17.6878 19.9444 17.5467C20.1782 17.4445 20.4021 17.3132 20.6111 17.1623L21.7754 18.3009C21.7257 18.5733 21.8053 18.8507 22.0093 19.0599C22.1835 19.2205 22.4074 19.3032 22.6313 19.3032C22.8552 19.3032 23.0791 19.2205 23.2532 19.0599C23.5866 18.7193 23.5866 18.1841 23.2532 17.8435C23.0791 17.6829 22.8552 17.6002 22.6313 17.6002C22.5815 17.6002 22.5318 17.6002 22.477 17.6148L21.3127 16.4763C21.5565 16.16 21.7456 15.7999 21.865 15.4107H22.4173C22.523 15.5594 22.6745 15.6713 22.8497 15.7299C23.025 15.7885 23.2148 15.7908 23.3915 15.7365C23.5681 15.6821 23.7224 15.574 23.8318 15.4279C23.9412 15.2817 24 15.1052 23.9996 14.9241C24 14.743 23.9412 14.5665 23.8318 14.4204C23.7224 14.2743 23.5681 14.1661 23.3915 14.1118C23.2148 14.0575 23.025 14.0598 22.8497 14.1184C22.6745 14.177 22.523 14.2888 22.4173 14.4376H22.0093C22.0093 13.6737 21.7605 12.9779 21.3127 12.3989L21.9795 11.7469C22.0342 11.7615 22.0839 11.7615 22.1337 11.7615C22.3576 11.7615 22.5815 11.6788 22.7557 11.5182C23.089 11.1825 23.089 10.6424 22.7557 10.3018C22.5815 10.1412 22.3576 10.0585 22.1337 10.0585C21.9098 10.0585 21.6859 10.1412 21.5117 10.3018C21.3077 10.511 21.2281 10.7884 21.2779 11.0608L20.6111 11.7128C20.1533 11.3771 19.616 11.1533 19.0238 11.0706V10.3894C19.176 10.2861 19.2903 10.1379 19.3503 9.96654C19.4102 9.79517 19.4125 9.60956 19.357 9.4368C19.3014 9.26403 19.1909 9.11315 19.0414 9.00616C18.892 8.89918 18.7115 8.8417 18.5263 8.84211ZM18.5263 16.8704C17.153 16.8704 16.0384 15.7805 16.0384 14.4376C16.0384 13.0947 17.153 12.0048 18.5263 12.0048C19.8996 12.0048 21.0142 13.0947 21.0142 14.4376C21.0142 15.7805 19.8996 16.8704 18.5263 16.8704ZM17.7799 12.9779C17.3669 12.9779 17.0335 13.3039 17.0335 13.7077C17.0335 14.1116 17.3669 14.4376 17.7799 14.4376C18.1929 14.4376 18.5263 14.1116 18.5263 13.7077C18.5263 13.3039 18.1929 12.9779 17.7799 12.9779ZM19.5214 14.9241C19.2478 14.9241 19.0238 15.1431 19.0238 15.4107C19.0238 15.6783 19.2478 15.8973 19.5214 15.8973C19.7951 15.8973 20.019 15.6783 20.019 15.4107C20.019 15.1431 19.7951 14.9241 19.5214 14.9241Z" fill="#16C6B4"/>
    <circle cx="12" cy="12" r="11.25" stroke="#16C6B4" stroke-width="1.5"/>
    <line x1="21.0406" y1="4.20306" x2="4.00244" y2="20.6916" stroke="#16C6B4" stroke-width="1.5"/>
</svg>
