<svg width="18" height="19" viewBox="0 0 18 19" fill="none" xmlns="http://www.w3.org/2000/svg">
<path d="M9 0.200195C4.02942 0.200195 0 4.22962 0 9.2002C0 14.1708 4.02942 18.2002 9 18.2002C13.9706 18.2002 18 14.1708 18 9.2002C18 4.22962 13.9706 0.200195 9 0.200195ZM9 1.94213C13.0112 1.94213 16.2581 5.18834 16.2581 9.2002C16.2581 13.2114 13.0119 16.4583 9 16.4583C4.98876 16.4583 1.74194 13.2121 1.74194 9.2002C1.74194 5.18895 4.98814 1.94213 9 1.94213ZM14.088 6.66956L13.2702 5.84512C13.1008 5.67437 12.8251 5.67325 12.6544 5.84265L7.52465 10.9311L5.35478 8.74366C5.18542 8.57292 4.90968 8.57179 4.73894 8.74116L3.91446 9.559C3.74371 9.72836 3.74258 10.0041 3.91199 10.1749L7.20646 13.496C7.37583 13.6668 7.65156 13.6679 7.82231 13.4985L14.0856 7.28545C14.2563 7.11604 14.2574 6.84031 14.088 6.66956Z" fill="#FFF615"/>
</svg>
