<svg width="174" height="139" viewBox="0 0 174 139" fill="none" xmlns="http://www.w3.org/2000/svg">
    <path d="M48.0952 42.6183L39.1743 69.6599L53.76 100.983L80.2886 111.51C81.2551 111.893 82.2897 112.075 83.329 112.044C84.3682 112.014 85.3903 111.771 86.3325 111.332L166.431 73.9084C168.005 73.1648 169.283 71.9114 170.055 70.3512L172.754 64.8426C173.255 63.8183 173.521 62.6951 173.532 61.555C173.544 60.4148 173.301 59.2865 172.821 58.2522L148.366 5.88643C147.884 4.85266 147.175 3.94032 146.293 3.21662C145.411 2.49291 144.378 1.97627 143.27 1.70475L137.204 0.221648C135.513 -0.194415 133.732 -0.021334 132.153 0.712299L52.1208 38.1021C51.1773 38.5405 50.3334 39.1674 49.6411 39.944C48.9488 40.7207 48.4227 41.6308 48.0952 42.6183Z" fill="#C8E9FC"/>
    <path d="M172.821 58.2186L164.391 40.1426C161.681 54.1707 163.643 65.9129 118.113 85.5055C102.111 92.3969 91.4398 101.284 75.962 94.1142C64.8109 88.9512 48.5413 76.0605 40.2783 66.3143L53.7601 100.983L80.2887 111.51C81.2552 111.893 82.2898 112.075 83.329 112.044C84.3683 112.014 85.3903 111.771 86.3326 111.332L166.431 73.9083C168.006 73.1646 169.283 71.9112 170.055 70.3511L172.754 64.8424C173.26 63.8137 173.529 62.6845 173.54 61.5381C173.552 60.3917 173.306 59.2573 172.821 58.2186Z" fill="#B7E2F7"/>
    <path d="M24.8056 73.5633L41.4238 109.136L56.8512 101.929L40.233 66.3562L24.8056 73.5633Z" fill="#001C61"/>
    <path d="M63.4844 55.4746L80.1025 91.0476L128.971 68.2182L112.353 32.6453L63.4844 55.4746Z" fill="#EBF6FF"/>
    <path d="M118.04 30.2249L134.658 65.7979L146.873 60.0917L130.255 24.5188L118.04 30.2249Z" fill="#EBF6FF"/>
    <path d="M40.2227 66.3479C42.7339 74.2517 44.1631 82.4592 44.4712 90.7466C44.8615 104.017 41.505 109.168 41.505 109.168L56.849 101.92L40.2227 66.3479Z" fill="#001C61"/>
    <path opacity="0.5" d="M41.5052 109.168L30.4655 85.5391C30.4655 85.5391 7.21538 93.9805 2.19737 123.286C1.40663 128.284 0.929911 133.327 0.77002 138.384H34.2235C36.1415 118.669 41.5052 109.168 41.5052 109.168Z" fill="#C5EAFF"/>
    <path d="M86.0227 72.4136L83.8494 70.3422L80.6562 71.8312L80.8569 74.8224L79.9196 75.2595L79.3391 65.7915L80.1183 65.4281L86.9817 71.9664L86.0227 72.4136ZM83.1718 69.6431L81.0944 67.6066C80.8288 67.3501 80.5266 67.0245 80.1877 66.6297C80.2704 67.0157 80.3347 67.4523 80.3806 67.9395L80.5944 70.845L83.1718 69.6431ZM88.7337 71.1494L87.8292 71.5712L83.8754 63.0923L84.78 62.6705L88.7337 71.1494ZM92.9778 69.303C92.1132 69.7062 91.3193 69.7536 90.596 69.4451C89.8748 69.1313 89.2871 68.4876 88.8332 67.514C88.3673 66.515 88.2471 65.6313 88.4725 64.8627C88.7016 64.0925 89.2611 63.4999 90.1512 63.0849C90.4381 62.9511 90.7395 62.8481 91.0553 62.776C91.3711 62.704 91.6302 62.6716 91.8326 62.6789L91.913 63.5768C91.6759 63.5901 91.4275 63.6263 91.1676 63.6856C90.9061 63.7412 90.6845 63.8114 90.5029 63.8961C89.2895 64.4619 89.0437 65.5185 89.7653 67.0661C90.1075 67.7999 90.5172 68.2944 90.9944 68.5495C91.4752 68.8029 92.0063 68.7941 92.5875 68.5231C93.0852 68.291 93.5456 67.9458 93.9688 67.4876L94.3423 68.2886C94.0393 68.682 93.5844 69.0201 92.9778 69.303ZM99.5068 62.4837C99.9608 63.4573 100.071 64.3327 99.8359 65.1099C99.5996 65.8835 99.0491 66.4719 98.1845 66.8751C97.6505 67.1241 97.118 67.2198 96.587 67.1623C96.0559 67.1048 95.5685 66.8942 95.1248 66.5306C94.681 66.167 94.3126 65.671 94.0196 65.0425C93.5656 64.0689 93.4558 63.198 93.6902 62.4297C93.9229 61.6578 94.4715 61.0703 95.3361 60.6671C96.1716 60.2775 96.9642 60.2462 97.7138 60.5734C98.467 60.8988 99.0647 61.5356 99.5068 62.4837ZM94.9568 64.6054C95.3126 65.3683 95.7362 65.8784 96.2277 66.1357C96.7192 66.393 97.261 66.3836 97.8531 66.1075C98.4452 65.8314 98.8016 65.4242 98.9221 64.8859C99.0445 64.3423 98.927 63.6873 98.5696 62.9208C98.2156 62.1615 97.7927 61.6577 97.3009 61.4094C96.8111 61.1557 96.2665 61.1686 95.6671 61.4481C95.075 61.7243 94.7188 62.127 94.5985 62.6563C94.4783 63.1856 94.5977 63.8353 94.9568 64.6054ZM106.468 62.8797L104.667 59.0162C104.44 58.5294 104.159 58.2178 103.826 58.0814C103.493 57.945 103.09 57.9869 102.618 58.2071C101.989 58.5001 101.609 58.8852 101.478 59.3622C101.35 59.8375 101.467 60.4638 101.83 61.2412L103.286 64.3636L102.381 64.7854L98.4276 56.3065L99.3322 55.8847L100.529 58.4513C100.673 58.7601 100.778 59.0229 100.844 59.2399L100.898 59.2145C100.942 58.8445 101.09 58.5016 101.341 58.1856C101.593 57.8644 101.93 57.6055 102.352 57.409C103.082 57.0685 103.71 56.9879 104.236 57.1673C104.764 57.3413 105.204 57.8061 105.556 58.5617L107.373 62.4578L106.468 62.8797ZM112.885 56.2456C113.339 57.2191 113.448 58.0945 113.214 58.8718C112.977 59.6454 112.427 60.2337 111.562 60.6369C111.028 60.8859 110.496 60.9817 109.965 60.9241C109.434 60.8666 108.946 60.656 108.503 60.2924C108.059 59.9288 107.69 59.4328 107.397 58.8043C106.943 57.8307 106.834 56.9598 107.068 56.1915C107.301 55.4196 107.849 54.8321 108.714 54.4289C109.549 54.0393 110.342 54.0081 111.092 54.3352C111.845 54.6606 112.443 55.2974 112.885 56.2456ZM108.335 58.3673C108.69 59.1301 109.114 59.6402 109.605 59.8975C110.097 60.1548 110.639 60.1454 111.231 59.8693C111.823 59.5932 112.179 59.186 112.3 58.6477C112.422 58.1042 112.305 57.4491 111.947 56.6826C111.593 55.9234 111.17 55.4196 110.679 55.1712C110.189 54.9175 109.644 54.9304 109.045 55.21C108.453 55.4861 108.097 55.8888 107.976 56.4181C107.856 56.9474 107.976 57.5971 108.335 58.3673ZM116.664 58.1254L115.759 58.5472L111.805 50.0684L112.71 49.6466L116.664 58.1254Z" fill="#001C61"/>
</svg>
