<svg width="112" height="110" viewBox="0 0 112 110" fill="none" xmlns="http://www.w3.org/2000/svg">
<path d="M18.4698 19.4466C10.0979 30.8389 21.6262 55.3814 30.4934 69.3279C39.3605 83.2745 40.9145 100.688 48.3248 105.399C55.7351 110.109 73.5763 110.808 83.5603 106.147C93.5444 101.485 109.628 92.6758 109.482 78.6904C109.336 64.705 112.094 53.8177 109.482 43.9793C106.869 34.141 105.383 23.2537 94.0494 15.9988C82.7154 8.74381 74.0425 6.63628 68.0404 2.49892C62.0383 -1.63844 37.1947 3.93631 28.8229 5.49025C20.451 7.04419 18.4698 19.4466 18.4698 19.4466Z" fill="#E3C900"/>
<path d="M6.54585 17.8425C-1.82599 28.6812 -0.349748 58.2448 8.48827 71.5407C17.3263 84.8366 23.8237 90.761 31.1855 95.1897C38.5472 99.6184 50.532 111.292 61.293 109.33C73.6468 107.068 87.642 93.7134 87.5157 80.4078C87.3894 67.1023 90.1283 56.7589 87.5157 47.3867C84.9031 38.0145 83.4075 27.6905 72.0734 20.7949C60.7394 13.8993 52.0665 11.9278 46.0547 7.98466C40.0429 4.04155 32.1664 6.50842 23.8237 7.98466C15.481 9.4609 6.54585 17.8425 6.54585 17.8425Z" fill="#FFF615"/>
<path d="M25.2973 16.5394C23.7531 17.0542 19.1398 19.1423 22.7333 20.2786C26.3268 21.4149 28.6286 22.726 28.6286 20.2786C28.6286 17.8311 25.2973 16.5394 25.2973 16.5394Z" fill="#E8B423"/>
<path d="M53.5927 68.848C54.5639 67.8768 57.1862 64.6718 54.1172 65.1477C51.0482 65.6236 48.8629 65.4974 49.7662 67.3135C50.6694 69.1297 53.5927 68.848 53.5927 68.848Z" fill="#E8B423"/>
<path d="M12.7792 43.7333C11.9828 44.9182 15.217 49.6771 16.3727 47.2976C17.5284 44.9182 12.7792 43.7333 12.7792 43.7333Z" fill="#E8B423"/>
<path d="M52.5989 89.3801C51.8025 90.5747 55.0366 95.3336 56.1923 92.9542C57.3481 90.5747 52.5989 89.3801 52.5989 89.3801Z" fill="#E8B423"/>
<path d="M56.7104 38.9927C57.8484 38.3356 57.8492 36.2063 56.7121 34.2367C55.5749 32.2671 53.7305 31.2031 52.5924 31.8602C51.4544 32.5173 51.4536 34.6466 52.5907 36.6162C53.7279 38.5857 55.5723 39.6497 56.7104 38.9927Z" fill="#E8B423"/>
<path d="M75.317 63.1964C76.1324 63.1964 76.7933 62.5354 76.7933 61.7201C76.7933 60.9048 76.1324 60.2439 75.317 60.2439C74.5017 60.2439 73.8408 60.9048 73.8408 61.7201C73.8408 62.5354 74.5017 63.1964 75.317 63.1964Z" fill="#E8B423"/>
<path d="M24.5324 73.3164C26.265 73.3164 27.6694 71.9119 27.6694 70.1794C27.6694 68.4468 26.265 67.0424 24.5324 67.0424C22.7999 67.0424 21.3954 68.4468 21.3954 70.1794C21.3954 71.9119 22.7999 73.3164 24.5324 73.3164Z" fill="#E8B423"/>
<path d="M109.873 43.9405C107.251 34.0924 105.774 23.2148 94.4404 15.9599C83.1064 8.70496 74.4335 6.63628 68.4314 2.49892C62.4293 -1.63844 37.5857 3.93631 29.2139 5.49025C27.7163 5.77105 26.3116 6.41837 25.1251 7.3744L23.8237 7.6172C15.413 9.09344 6.54585 17.475 6.54585 17.475C-1.82599 28.3137 -0.349748 57.8774 8.48827 71.1732C17.3263 84.4691 23.8237 90.3935 31.1855 94.8222C38.5472 99.2509 50.532 110.925 61.293 108.963C69.0627 109.759 77.9007 108.963 83.9416 106.108C93.9451 101.446 110.009 92.637 109.863 78.6516C109.718 64.6661 112.486 53.7789 109.873 43.9405Z" stroke="#FFF615" stroke-miterlimit="10"/>
</svg>
