<svg width="103" height="123" viewBox="0 0 103 123" fill="none" xmlns="http://www.w3.org/2000/svg">
    <g opacity="0.4">
        <path d="M106.316 81.5101V81.2968C106.657 80.4866 106.956 79.6763 107.254 78.866C107.51 78.1837 107.723 77.5014 107.937 76.8191L108.192 75.9662L108.576 74.6442L108.832 73.6208L109.088 72.4267C109.108 72.0716 109.108 71.7157 109.088 71.3606C109.183 70.9673 109.254 70.5685 109.301 70.1665C109.325 69.7973 109.325 69.427 109.301 69.0578C109.322 68.6743 109.322 68.2899 109.301 67.9064V66.7549C109.301 66.3711 109.301 65.9447 109.301 65.5609C109.282 65.4194 109.282 65.276 109.301 65.1345C113.571 64.9429 117.85 65.0998 122.095 65.6036V58.6525C117.853 59.1996 113.571 59.3566 109.301 59.1215C108.898 52.5931 107.186 46.2122 104.269 40.3578C107.816 38.0516 111.554 36.0542 115.442 34.3876L111.988 28.3746C108.615 30.9378 105.018 33.1928 101.241 35.1125C98.5183 30.6652 95.107 26.6781 91.1345 23.2999C90.2816 22.6176 89.3434 21.9779 88.4478 21.3809C90.3578 17.5987 92.6134 14.0012 95.1858 10.6344L89.1303 7.13754C87.5045 11.0509 85.5201 14.8054 83.2026 18.3531C77.3482 15.4359 70.9673 13.7247 64.4388 13.321C64.2037 9.05117 64.3607 4.76876 64.9078 0.527588H57.9567C58.4605 4.77223 58.6176 9.05088 58.426 13.321H56.6774H55.9098H54.2893H53.5644L51.9439 13.6196H51.3041L49.5131 14.0034H49.0441C47.5979 14.3772 46.1741 14.8328 44.7796 15.368C44.0973 15.5812 43.4575 15.8797 42.8178 16.1356H42.4769L41.3681 16.6473L40.1312 17.2017L39.7049 17.415C37.4035 13.8577 35.4199 10.1047 33.7772 6.19935L27.7644 9.69626C30.307 13.0836 32.5607 16.6783 34.5021 20.4427L33.7345 20.9545L33.3508 21.2103L31.9435 22.2338C29.7774 23.8669 27.7519 25.6786 25.888 27.6497V27.9055L24.7365 29.1423L24.438 29.5261L23.3718 30.8054L23.0309 31.2318L22.0925 32.5112L21.7513 32.9803L20.941 34.1317C17.1733 32.1962 13.5783 29.942 10.1947 27.3938L6.74052 33.4067C10.6425 35.0733 14.3947 37.0706 17.9561 39.377C16.8862 41.4465 15.9876 43.6001 15.2695 45.8163C14.8779 46.9773 14.5503 48.1589 14.2885 49.3559C14.27 49.4401 14.27 49.5275 14.2885 49.6118C14.0326 50.7632 13.7768 51.8719 13.6063 53.0233C13.5863 53.1074 13.5863 53.195 13.6063 53.2792C13.3987 54.4359 13.2561 55.6034 13.1797 56.7761C13.1571 57.003 13.1571 57.2315 13.1797 57.4584C13.1585 57.6426 13.1585 57.8286 13.1797 58.0127C8.90979 58.2452 4.62761 58.0882 0.38623 57.5436V64.4948C4.63106 63.9934 8.90952 63.8365 13.1797 64.0257C13.5577 70.5719 15.2704 76.9717 18.212 82.832C14.6402 85.1085 10.8893 87.0909 6.99638 88.7597L10.4506 94.7726C13.8443 92.2392 17.4381 89.9858 21.1969 88.0347C23.0077 90.759 25.0787 93.3011 27.3805 95.6255L27.679 95.8813L29.0863 97.246C30.9355 98.9069 32.9023 100.432 34.9714 101.809C33.0202 105.568 30.7668 109.162 28.2334 112.555L34.2462 116.01C35.8979 112.109 37.8811 108.356 40.1739 104.794C46.0342 107.736 52.4342 109.448 58.9804 109.826C59.172 114.096 59.0149 118.375 58.5111 122.62H65.4622C64.9151 118.378 64.7581 114.096 64.9932 109.826H66.3152L69.5989 109.4H70.2811L73.0531 108.845L73.8207 108.632L76.9337 107.779H77.2322L78.2983 107.395L78.9381 107.14L80.6013 106.5H81.0704C81.9896 106.125 82.8866 105.698 83.757 105.221C86.0659 108.773 88.0496 112.527 89.6844 116.436L95.7402 112.982C93.177 109.609 90.9219 106.012 89.0022 102.235L89.6844 101.766L90.8786 100.913L91.5184 100.402L92.6696 99.5488L93.3094 98.9944L94.3755 98.0562C94.5945 97.8941 94.7948 97.7083 94.9726 97.5019L96.0811 96.4784L96.5931 95.9666L97.8297 94.6873L98.171 94.3461C98.64 93.7917 99.1516 93.2374 99.6207 92.6404C99.7874 92.4496 99.9439 92.2504 100.09 92.0433L100.985 90.9345L101.625 90.039L102.265 89.1434L102.691 88.5038C106.45 90.4549 110.044 92.7083 113.438 95.2417L116.892 89.2288C113.005 87.5767 109.266 85.5936 105.719 83.3011C105.726 83.1591 105.726 83.0167 105.719 82.8747C105.719 82.8747 106.017 82.1924 106.316 81.5101Z" fill="#D4EEFF"/>
        <g style="mix-blend-mode:screen" opacity="0.3">
            <path d="M72.5415 34.1327C72.4423 35.0645 72.0019 35.9266 71.3051 36.5531C70.6083 37.1797 69.7044 37.5263 68.7674 37.5263C67.8303 37.5263 66.9264 37.1797 66.2296 36.5531C65.5328 35.9266 65.0924 35.0645 64.9933 34.1327C64.9369 33.6034 64.9925 33.0681 65.1565 32.5617C65.3204 32.0553 65.5892 31.589 65.9451 31.1932C66.301 30.7974 66.7364 30.4808 67.2226 30.2642C67.7088 30.0475 68.2351 29.9355 68.7674 29.9355C69.2997 29.9355 69.8259 30.0475 70.3121 30.2642C70.7984 30.4808 71.2337 30.7974 71.5896 31.1932C71.9455 31.589 72.214 32.0553 72.378 32.5617C72.542 33.0681 72.5978 33.6034 72.5415 34.1327Z" fill="#FFBE6E"/>
        </g>
        <path d="M100.559 70.2105C100.559 71.054 100.309 71.8785 99.8403 72.5798C99.3717 73.281 98.7059 73.8277 97.9267 74.1504C97.1474 74.4732 96.2898 74.5576 95.4626 74.3931C94.6353 74.2285 93.8754 73.8224 93.279 73.226C92.6826 72.6296 92.2765 71.8697 92.1119 71.0425C91.9474 70.2153 92.032 69.3578 92.3548 68.5786C92.6775 67.7994 93.224 67.1333 93.9253 66.6648C94.6266 66.1962 95.4512 65.946 96.2947 65.946C97.4257 65.946 98.5103 66.3953 99.3101 67.1951C100.11 67.9948 100.559 69.0795 100.559 70.2105Z" fill="#B9DFFC"/>
        <path d="M77.4029 49.3137C77.4114 50.4373 77.0858 51.538 76.4677 52.4763C75.8497 53.4146 74.9669 54.1482 73.9313 54.5841C72.8957 55.0199 71.7539 55.1383 70.6509 54.9243C69.5479 54.7103 68.5332 54.1735 67.7358 53.382C66.9383 52.5905 66.394 51.58 66.1717 50.4786C65.9494 49.3772 66.0592 48.2347 66.4872 47.1959C66.9152 46.157 67.6421 45.2686 68.5757 44.6435C69.5093 44.0184 70.6075 43.6846 71.7311 43.6846C73.228 43.6845 74.6643 44.2763 75.7267 45.3307C76.7892 46.3852 77.3917 47.8169 77.4029 49.3137Z" fill="#B9DFFC"/>
        <path d="M84.9511 91.1907C84.9511 91.9824 84.6367 92.7417 84.0769 93.3015C83.517 93.8613 82.7577 94.1759 81.966 94.1759C81.3756 94.1759 80.7986 94.0007 80.3077 93.6727C79.8168 93.3447 79.4342 92.8785 79.2083 92.333C78.9823 91.7876 78.9231 91.1874 79.0383 90.6083C79.1535 90.0293 79.4378 89.4974 79.8553 89.0799C80.2728 88.6624 80.8046 88.3781 81.3837 88.2629C81.9628 88.1478 82.5629 88.2068 83.1083 88.4328C83.6538 88.6587 84.12 89.0414 84.448 89.5323C84.776 90.0232 84.9511 90.6003 84.9511 91.1907Z" fill="#B9DFFC"/>
        <path d="M95.3992 39.1637C95.3991 39.7222 95.233 40.2681 94.9218 40.7318C94.6106 41.1955 94.1684 41.5561 93.6517 41.7678C93.1349 41.9796 92.5668 42.0328 92.0197 41.9207C91.4726 41.8086 90.9711 41.5362 90.5793 41.1383C90.1874 40.7404 89.9227 40.235 89.819 39.6862C89.7153 39.1375 89.7772 38.5703 89.9968 38.0568C90.2163 37.5433 90.5838 37.1067 91.0522 36.8026C91.5206 36.4985 92.0688 36.3407 92.6272 36.3492C93.3662 36.3604 94.0713 36.6619 94.59 37.1885C95.1086 37.7151 95.3993 38.4246 95.3992 39.1637Z" fill="#B9DFFC"/>
        <g style="mix-blend-mode:screen" opacity="0.3">
            <path d="M103.075 49.313C103.083 49.922 102.91 50.5197 102.578 51.0302C102.246 51.5408 101.77 51.941 101.209 52.1799C100.649 52.4189 100.03 52.4858 99.432 52.3721C98.8336 52.2585 98.2826 51.9695 97.849 51.5418C97.4153 51.1142 97.1185 50.5672 96.9965 49.9705C96.8746 49.3738 96.9328 48.7542 97.1639 48.1907C97.395 47.6272 97.7885 47.145 98.2943 46.8057C98.8001 46.4664 99.3955 46.2852 100.005 46.2852C100.812 46.2851 101.586 46.6027 102.161 47.1693C102.735 47.736 103.064 48.5061 103.075 49.313Z" fill="#FFBE6E"/>
        </g>
        <path d="M36.2081 58.9083C36.2081 60.3505 35.7803 61.7604 34.979 62.9596C34.1777 64.1588 33.039 65.0935 31.7065 65.6454C30.374 66.1974 28.9078 66.3418 27.4933 66.0604C26.0787 65.779 24.7794 65.0845 23.7595 64.0647C22.7397 63.0448 22.0451 61.7455 21.7637 60.3309C21.4823 58.9163 21.6266 57.4501 22.1786 56.1176C22.7305 54.7851 23.6652 53.6462 24.8644 52.845C26.0636 52.0437 27.4735 51.616 28.9157 51.616C30.8498 51.616 32.7046 52.3843 34.0722 53.7518C35.4398 55.1194 36.2081 56.9742 36.2081 58.9083Z" fill="#B9DFFC"/>
        <path d="M58.298 27.6937C59.7582 27.6937 60.942 26.51 60.942 25.0498C60.942 23.5896 59.7582 22.4058 58.298 22.4058C56.8378 22.4058 55.6541 23.5896 55.6541 25.0498C55.6541 26.51 56.8378 27.6937 58.298 27.6937Z" fill="#B9DFFC"/>
    </g>
</svg>
