<svg width="166" height="115" viewBox="0 0 166 115" fill="none" xmlns="http://www.w3.org/2000/svg">
    <g opacity="0.4">
        <path d="M6.00639 75.8075C1.9126 76.245 -3.36872 87.3233 7.16264 97.3077C17.694 107.292 27.5848 102.448 28.3504 97.4796C29.116 92.5108 17.4128 92.7921 14.2878 85.792C11.1627 78.7919 10.1158 75.37 6.00639 75.8075Z" fill="#D4EEFF"/>
        <path d="M6.81883 78.7441C5.13132 79.0254 5.58447 81.5879 6.64698 82.0567C6.87436 82.1285 7.11519 82.1474 7.35099 82.1119C7.58679 82.0763 7.8113 81.9873 8.00736 81.8515C8.20343 81.7158 8.36582 81.537 8.48211 81.3288C8.59839 81.1206 8.66548 80.8885 8.67823 80.6504C8.60011 79.8535 6.81883 78.7441 6.81883 78.7441Z" fill="#B9DFFC"/>
        <path d="M16.5691 98.6036C15.5691 100.01 17.7097 101.479 18.7878 101.041C18.9988 100.932 19.1821 100.776 19.3238 100.585C19.4655 100.395 19.5619 100.174 19.6056 99.9408C19.6492 99.7073 19.6391 99.4669 19.5759 99.2379C19.5128 99.0089 19.3982 98.7974 19.241 98.6193C18.6003 98.1037 16.5691 98.6036 16.5691 98.6036Z" fill="#B9DFFC"/>
        <path d="M8.11592 93.4318C6.20965 93.3068 7.33464 95.7912 8.67841 96.4787C10.0222 97.1662 10.9909 96.4787 10.7253 95.635C10.4597 94.7912 8.11592 93.4318 8.11592 93.4318Z" fill="#B9DFFC"/>
        <g style="mix-blend-mode:screen" opacity="0.3">
            <path d="M18.2879 93.1349C17.3348 93.0567 17.8973 94.3067 18.5692 94.6974C19.2411 95.088 19.7255 94.6974 19.6005 94.2755C19.4754 93.8536 18.2879 93.1349 18.2879 93.1349Z" fill="#E3373F"/>
        </g>
        <g style="mix-blend-mode:screen" opacity="0.3">
            <path d="M4.97425 86.7729C5.31292 86.4785 5.3488 85.9654 5.05441 85.6267C4.76001 85.288 4.24682 85.2521 3.90815 85.5465C3.56949 85.8409 3.53358 86.3541 3.82798 86.6928C4.12238 87.0315 4.63559 87.0673 4.97425 86.7729Z" fill="#E3373F"/>
        </g>
        <path d="M24.0597 97.6406C24.3983 97.3462 24.4342 96.8331 24.1398 96.4944C23.8454 96.1557 23.3322 96.1198 22.9936 96.4142C22.6549 96.7086 22.619 97.2218 22.9134 97.5605C23.2078 97.8991 23.721 97.935 24.0597 97.6406Z" fill="#E6F4FF"/>
        <path d="M12.1116 90.3655C12.6261 89.9183 12.6852 89.1439 12.2436 88.6359C11.802 88.1279 11.0269 88.0786 10.5124 88.5259C9.99788 88.9731 9.93881 89.7475 10.3804 90.2555C10.822 90.7635 11.5971 90.8128 12.1116 90.3655Z" fill="#B9DFFC"/>
    </g>
    <g opacity="0.4">
        <path d="M162.525 51.2842C161.585 51.2842 160.782 52.6673 160.367 54.5207C158.846 54.7005 157.338 54.8112 155.817 54.8803C155.513 53.8845 155.029 53.2344 154.503 53.2344C153.977 53.2344 153.452 53.926 153.12 54.9495C152.124 54.9495 151.142 54.9495 150.146 54.8665C149.815 49.2882 148.356 43.8349 145.859 38.8362C146.688 38.2968 147.532 37.7573 148.376 37.2594C149.164 38.0063 149.925 38.3521 150.409 38.0755C150.893 37.7988 150.962 37.0105 150.727 36.0008C152.11 35.2954 153.493 34.6177 154.876 34.0229C156.19 35.489 157.546 36.2221 158.362 35.7518C159.538 35.0741 159.109 32.1419 157.421 29.2097C155.734 26.2775 153.397 24.4379 152.221 25.0603C151.405 25.5306 151.377 27.0659 151.972 28.9469C150.746 29.869 149.487 30.7265 148.196 31.5195C147.449 30.8141 146.702 30.496 146.246 30.7588C145.789 31.0216 145.679 31.8653 145.928 32.9164C145.07 33.4144 144.199 33.8708 143.314 34.2996C140.229 29.6402 136.24 25.6472 131.585 22.5569C132.041 21.6855 132.484 20.8003 132.968 19.9428C134.019 20.1918 134.849 20.1226 135.126 19.6385C135.402 19.1544 135.126 18.4352 134.379 17.6745C135.195 16.3882 136.038 15.1296 136.951 13.9124C138.818 14.5072 140.368 14.4657 140.838 13.6635C141.516 12.4878 139.676 10.1642 136.688 8.46294C133.701 6.7617 130.81 6.34677 130.133 7.52242C129.662 8.32462 130.409 9.68007 131.861 11.0079C131.253 12.391 130.589 13.7741 129.884 15.1572C128.874 14.9359 128.085 15.0189 127.809 15.4892C127.532 15.9594 127.809 16.734 128.625 17.5085C128.127 18.3661 127.601 19.1959 127.062 20.0258C122.062 17.5318 116.609 16.0734 111.032 15.7381C111.032 14.7423 110.935 13.7603 110.935 12.7644C111.972 12.4601 112.65 11.9761 112.65 11.3813C112.65 10.7866 112 10.3716 111.018 9.9982C111.087 8.47677 111.198 6.95533 111.364 5.43391C113.286 5.01897 114.6 4.21677 114.6 3.29008C114.6 1.90696 111.834 0.828125 108.459 0.828125C105.084 0.828125 102.318 1.93463 102.318 3.29008C102.318 4.21677 103.632 5.01897 105.555 5.43391C105.734 6.95533 105.831 8.47677 105.9 9.9982C104.918 10.3025 104.268 10.7727 104.268 11.3813C104.268 11.9899 104.946 12.4186 105.983 12.7644C105.983 13.7603 105.983 14.7561 105.886 15.752C100.309 16.0872 94.8564 17.5456 89.8561 20.0396C89.3305 19.2098 88.7912 18.3661 88.2932 17.5085C89.0401 16.734 89.3859 15.9594 89.1093 15.4892C88.8326 15.0189 88.0443 14.9359 87.0346 15.1572C86.3292 13.7741 85.6515 12.391 85.0567 11.0079C86.509 9.62475 87.2559 8.32462 86.7856 7.52242C86.1079 6.34677 83.1757 6.7617 80.2296 8.46294C77.2836 10.1642 75.5271 12.557 76.2186 13.7049C76.675 14.5072 78.2241 14.5487 80.0913 13.9539C81.0042 15.1711 81.8617 16.4297 82.6639 17.716C81.9724 18.4767 81.6404 19.2098 81.917 19.68C82.1937 20.1503 83.0235 20.2333 84.0747 19.9843C84.5726 20.8418 85.0291 21.727 85.4578 22.5984C80.8115 25.7002 76.8253 29.6911 73.729 34.341C72.8577 33.8846 71.9724 33.4282 71.1149 32.9579C71.3639 31.9206 71.2809 31.0769 70.7968 30.8003C70.3127 30.5236 69.6073 30.8003 68.8466 31.561C67.5603 30.745 66.3017 29.8874 65.0707 28.9745C65.6793 27.1073 65.6378 25.5721 64.8217 25.1018C63.6461 24.4241 61.3224 26.2498 59.6212 29.2512C57.92 32.2526 57.5051 35.1156 58.6807 35.7933C59.4967 36.2636 60.8522 35.5305 62.1661 34.0644C63.5493 34.673 64.9324 35.3369 66.3155 36.0423C66.0804 37.052 66.1772 37.8542 66.6336 38.117C67.0901 38.3797 67.8784 38.117 68.6668 37.3009C69.5243 37.7988 70.3542 38.3383 71.184 38.8777C68.6861 43.8764 67.2275 49.3297 66.8964 54.908C65.9006 54.908 64.9185 54.991 63.9227 55.0048C63.6184 53.9675 63.1343 53.2759 62.5396 53.2759C61.9448 53.2759 61.5161 53.926 61.1565 54.9218C59.6489 54.9218 58.1275 54.742 56.606 54.5622C56.1911 52.6535 55.3889 51.3257 54.4483 51.3257C53.0652 51.3257 52.0002 54.0919 52.0002 57.4806C52.0002 60.8692 53.0929 63.6216 54.4483 63.6216C55.3889 63.6216 56.1911 62.2385 56.606 60.3851C58.1275 60.2053 59.6489 60.0947 61.1565 60.0255C61.4608 61.0214 61.9448 61.6714 62.5396 61.6714C63.1343 61.6714 63.5769 60.9799 63.9227 59.9425C64.9185 59.9425 65.9006 59.9425 66.8964 60.0394C67.2299 65.6217 68.6883 71.079 71.184 76.0835C70.3542 76.6091 69.5243 77.1485 68.6668 77.6464C67.8784 76.8995 67.1177 76.5538 66.6336 76.8304C66.1495 77.107 66.0804 77.8954 66.3155 78.9051C64.9324 79.6105 63.5493 80.2882 62.1661 80.8829C60.8522 79.4168 59.4967 78.6838 58.6807 79.154C57.5051 79.8317 57.9338 82.764 59.6212 85.6962C61.3086 88.6284 63.6599 90.4679 64.8217 89.8455C65.6378 89.3753 65.6793 87.84 65.0707 85.9728C66.3017 85.0599 67.5603 84.2024 68.8466 83.3864C69.6073 84.0918 70.3403 84.4099 70.7968 84.1471C71.2532 83.8843 71.3639 83.0267 71.1149 81.9894C71.9724 81.4915 72.8438 81.0351 73.729 80.6063C76.8176 85.2626 80.8052 89.2549 85.4578 92.349C85.0152 93.2203 84.5588 94.1055 84.0747 94.9631C83.0235 94.7141 82.1937 94.7833 81.917 95.2673C81.6404 95.7514 81.9171 96.4706 82.6778 97.2314C81.8617 98.5177 81.0042 99.7763 80.0913 100.993C78.2241 100.399 76.675 100.426 76.2186 101.242C75.5271 102.418 77.3666 104.742 80.2988 106.443C83.231 108.144 86.1771 108.559 86.8548 107.383C87.325 106.581 86.5782 105.226 85.1259 103.898C85.7345 102.515 86.3983 101.132 87.1037 99.7486C88.1134 99.9699 88.9018 99.887 89.1784 99.4167C89.455 98.9464 89.1093 98.1719 88.3624 97.3973C88.8603 96.5398 89.3859 95.7099 89.9253 94.8801C94.9255 97.3741 100.378 98.8324 105.956 99.1677C105.956 100.15 106.052 101.146 106.052 102.141C105.015 102.446 104.337 102.93 104.337 103.525C104.337 104.119 104.987 104.534 105.969 104.839C105.9 106.36 105.803 107.881 105.624 109.389C103.701 109.818 102.387 110.62 102.387 111.547C102.387 112.93 105.153 114.009 108.528 114.009C111.903 114.009 114.683 112.902 114.669 111.547C114.669 110.62 113.355 109.818 111.433 109.403C111.267 107.881 111.156 106.36 111.087 104.839C112.069 104.534 112.719 104.064 112.719 103.525C112.719 102.985 112.041 102.487 111.004 102.141C111.004 101.146 111.004 100.164 111.101 99.1677C116.679 98.8281 122.132 97.365 127.131 94.8662C127.671 95.7099 128.196 96.5398 128.694 97.3973C127.947 98.1719 127.601 98.9326 127.878 99.4167C128.155 99.9008 128.943 99.9699 129.953 99.7486C130.658 101.132 131.336 102.515 131.931 103.898C130.547 105.281 129.731 106.581 130.202 107.383C130.879 108.559 133.812 108.144 136.758 106.443C139.704 104.742 141.529 102.418 140.907 101.242C140.437 100.426 138.888 100.399 137.02 100.993C136.108 99.7763 135.264 98.5177 134.448 97.2314C135.139 96.4706 135.471 95.7376 135.195 95.2673C134.918 94.7971 134.088 94.7003 133.037 94.9631C132.539 94.1055 132.083 93.2203 131.654 92.3351C136.31 89.2466 140.303 85.2589 143.397 80.6063C144.282 81.0627 145.153 81.5192 146.011 81.9894C145.762 83.0267 145.845 83.8705 146.329 84.1471C146.813 84.4237 147.518 84.1471 148.279 83.3864C149.57 84.1978 150.829 85.0553 152.055 85.959C151.46 87.84 151.488 89.3753 152.304 89.8455C153.48 90.5233 155.803 88.6975 157.504 85.6962C159.206 82.6948 159.621 79.8318 158.445 79.1402C157.629 78.6838 156.273 79.4168 154.959 80.8829C153.576 80.2743 152.193 79.6105 150.81 78.9051C151.045 77.8954 150.962 77.0932 150.492 76.8304C150.022 76.5676 149.247 76.8995 148.459 77.6464C147.601 77.1485 146.771 76.6091 145.928 76.0697C148.428 71.0424 149.887 65.5615 150.215 59.9564C151.197 59.9564 152.193 59.8595 153.189 59.8595C153.493 60.8969 153.977 61.5884 154.572 61.5884C155.167 61.5884 155.596 60.9384 155.955 59.9425C157.477 60.0117 158.984 60.1223 160.506 60.3022C160.921 62.2109 161.723 63.5386 162.663 63.5386C164.047 63.5386 165.112 60.7724 165.125 57.3838C165.139 53.9951 163.881 51.2842 162.525 51.2842Z" fill="#B9DFFC"/>
        <path d="M80.645 44.2015C80.645 44.8827 80.443 45.5485 80.0646 46.1149C79.6862 46.6812 79.1483 47.1227 78.519 47.3833C77.8897 47.644 77.1972 47.7122 76.5291 47.5793C75.8611 47.4464 75.2474 47.1184 74.7658 46.6368C74.2841 46.1551 73.9561 45.5415 73.8233 44.8734C73.6904 44.2053 73.7586 43.5129 74.0192 42.8836C74.2799 42.2543 74.7213 41.7164 75.2877 41.338C75.854 40.9596 76.5199 40.7576 77.201 40.7576C77.6533 40.7576 78.1011 40.8467 78.519 41.0197C78.9368 41.1928 79.3165 41.4465 79.6363 41.7663C79.9561 42.0861 80.2098 42.4658 80.3828 42.8836C80.5559 43.3014 80.645 43.7493 80.645 44.2015Z" fill="#E6F4FF"/>
        <path d="M102.553 87.3279C102.556 88.1032 102.328 88.8619 101.899 89.5077C101.47 90.1535 100.859 90.6574 100.143 90.9553C99.4276 91.2533 98.6394 91.332 97.8789 91.1814C97.1183 91.0308 96.4195 90.6577 95.8713 90.1095C95.3231 89.5612 94.95 88.8625 94.7994 88.1019C94.6488 87.3414 94.7275 86.5532 95.0255 85.8374C95.3234 85.1216 95.8273 84.5104 96.4731 84.0814C97.1189 83.6524 97.8776 83.4248 98.6529 83.4275C99.6862 83.4312 100.676 83.8432 101.407 84.5739C102.138 85.3046 102.55 86.2946 102.553 87.3279Z" fill="#E6F4FF"/>
        <path d="M92.595 32.251C92.5977 33.0263 92.3701 33.785 91.9411 34.4308C91.5121 35.0766 90.9009 35.5804 90.1851 35.8784C89.4693 36.1764 88.6811 36.2551 87.9206 36.1045C87.16 35.9539 86.4613 35.5808 85.9131 35.0326C85.3648 34.4843 84.9917 33.7856 84.8411 33.025C84.6906 32.2645 84.7692 31.4763 85.0672 30.7605C85.3652 30.0447 85.869 29.4336 86.5148 29.0045C87.1606 28.5755 87.9193 28.3479 88.6946 28.3506C89.7279 28.3543 90.7179 28.7664 91.4486 29.497C92.1793 30.2277 92.5914 31.2177 92.595 32.251Z" fill="#E6F4FF"/>
        <path d="M90.7413 32.2513C90.7441 32.6628 90.6244 33.0658 90.3975 33.4091C90.1705 33.7524 89.8467 34.0205 89.467 34.1792C89.0874 34.3379 88.6691 34.3802 88.2653 34.3006C87.8616 34.221 87.4907 34.0231 87.1997 33.7321C86.9087 33.4411 86.7109 33.0702 86.6312 32.6665C86.5516 32.2627 86.5939 31.8445 86.7526 31.4648C86.9113 31.0851 87.1794 30.7613 87.5227 30.5344C87.866 30.3074 88.269 30.1877 88.6805 30.1905C89.226 30.1941 89.748 30.4124 90.1337 30.7981C90.5194 31.1838 90.7377 31.7059 90.7413 32.2513Z" fill="#E6F4FF"/>
        <path d="M106.467 34.9344C109.553 34.9344 112.055 32.4326 112.055 29.3466C112.055 26.2605 109.553 23.7588 106.467 23.7588C103.381 23.7588 100.88 26.2605 100.88 29.3466C100.88 32.4326 103.381 34.9344 106.467 34.9344Z" fill="#E6F4FF"/>
        <path d="M130.437 32.1C130.44 32.8152 130.23 33.515 129.834 34.1108C129.439 34.7066 128.875 35.1714 128.215 35.4463C127.555 35.7213 126.828 35.7939 126.126 35.6551C125.425 35.5162 124.78 35.1721 124.274 34.6665C123.769 34.1608 123.425 33.5163 123.286 32.8147C123.147 32.1132 123.22 31.3862 123.494 30.726C123.769 30.0658 124.234 29.5022 124.83 29.1066C125.426 28.7109 126.126 28.5012 126.841 28.5039C127.793 28.5076 128.706 28.8876 129.38 29.5612C130.053 30.2348 130.433 31.1474 130.437 32.1Z" fill="#E6F4FF"/>
        <path d="M128.597 32.0991C128.6 32.4505 128.498 32.7946 128.305 33.0879C128.111 33.3811 127.835 33.6102 127.511 33.7459C127.187 33.8816 126.83 33.9178 126.485 33.8499C126.14 33.7821 125.824 33.6132 125.575 33.3648C125.327 33.1164 125.158 32.7996 125.09 32.4549C125.022 32.1102 125.058 31.7531 125.194 31.4291C125.33 31.105 125.559 30.8287 125.852 30.6352C126.145 30.4417 126.49 30.3398 126.841 30.3426C127.307 30.3426 127.753 30.5277 128.083 30.8571C128.412 31.1865 128.597 31.6333 128.597 32.0991Z" fill="#E6F4FF"/>
        <path d="M129.745 49.8047C129.745 50.1855 129.632 50.5578 129.42 50.8742C129.209 51.1907 128.908 51.437 128.555 51.5821C128.203 51.7272 127.816 51.7645 127.443 51.6892C127.069 51.6139 126.727 51.4294 126.459 51.1591C126.19 50.8889 126.008 50.545 125.936 50.1712C125.863 49.7973 125.903 49.4104 126.051 49.0593C126.198 48.7083 126.447 48.409 126.765 48.1994C127.083 47.9898 127.456 47.8794 127.837 47.8821C128.089 47.8821 128.338 47.932 128.57 48.0287C128.803 48.1255 129.014 48.2674 129.191 48.4461C129.369 48.6248 129.509 48.8368 129.604 49.07C129.699 49.3032 129.747 49.5528 129.745 49.8047Z" fill="#E6F4FF"/>
        <path d="M103.549 47.8809C103.552 49.1104 103.19 50.313 102.508 51.3363C101.827 52.3597 100.857 53.1578 99.722 53.6296C98.5867 54.1013 97.3369 54.2255 96.131 53.9863C94.925 53.7471 93.8172 53.1554 92.9478 52.286C92.0785 51.4167 91.4867 50.3089 91.2476 49.1029C91.0084 47.897 91.1326 46.6472 91.6043 45.5119C92.0761 44.3765 92.8742 43.4068 93.8975 42.7254C94.9209 42.0441 96.1235 41.6819 97.3529 41.6846C98.9952 41.6882 100.569 42.3422 101.73 43.5035C102.892 44.6647 103.546 46.2387 103.549 47.8809Z" fill="#E6F4FF"/>
        <path d="M140.312 68.642C140.312 70.3682 139.801 72.0555 138.842 73.4907C137.883 74.926 136.519 76.0446 134.925 76.7052C133.33 77.3657 131.575 77.5385 129.882 77.2018C128.189 76.865 126.634 76.0338 125.414 74.8133C124.193 73.5927 123.362 72.0376 123.025 70.3447C122.688 68.6517 122.861 66.8969 123.522 65.3022C124.182 63.7074 125.301 62.3444 126.736 61.3854C128.171 60.4264 129.859 59.9146 131.585 59.9146C132.732 59.9127 133.867 60.1372 134.927 60.5752C135.987 61.0131 136.949 61.6559 137.76 62.4667C138.571 63.2775 139.214 64.2403 139.652 65.3C140.09 66.3597 140.314 67.4954 140.312 68.642Z" fill="#E6F4FF"/>
        <path d="M115.804 74.5341C115.361 75.7236 113.176 76.014 110.907 75.1703C108.639 74.3266 107.187 72.6807 107.629 71.4912C108.072 70.3018 110.257 70.0251 112.512 70.8689C114.766 71.7126 116.246 73.4138 115.804 74.5341Z" fill="#E6F4FF"/>
        <path d="M116.191 91.6286C118.987 91.6286 121.253 89.3621 121.253 86.5663C121.253 83.7706 118.987 81.5042 116.191 81.5042C113.395 81.5042 111.129 83.7706 111.129 86.5663C111.129 89.3621 113.395 91.6286 116.191 91.6286Z" fill="#E6F4FF"/>
        <path d="M113.66 50.4819C113.66 51.0728 113.485 51.6504 113.156 52.1417C112.828 52.633 112.362 53.0159 111.816 53.242C111.27 53.4682 110.669 53.5273 110.09 53.4121C109.51 53.2968 108.978 53.0123 108.56 52.5944C108.142 52.1766 107.857 51.6443 107.742 51.0648C107.627 50.4852 107.686 49.8845 107.912 49.3386C108.138 48.7927 108.521 48.3262 109.013 47.9979C109.504 47.6696 110.081 47.4944 110.672 47.4944C111.465 47.4944 112.225 47.8092 112.785 48.3694C113.345 48.9297 113.66 49.6896 113.66 50.4819Z" fill="#E6F4FF"/>
        <path d="M76.9105 56.1106C72.692 57.4937 71.627 68.0746 79.3171 77.1616C85.6518 84.6581 94.0058 83.6623 93.2728 80.0524C92.5397 76.4424 88.0308 74.9072 86.4679 68.9874C84.7113 62.3485 83.674 53.8146 76.9105 56.1106Z" fill="#E6F4FF"/>
    </g>
</svg>
