<svg width="64" height="112" viewBox="0 0 64 112" fill="none" xmlns="http://www.w3.org/2000/svg">
    <g opacity="0.4">
        <path d="M3.73074 93.6707C10.7925 92.5196 7.31695 79.6137 16.1054 80.0564C24.8938 80.4992 16.8138 111.159 24.4732 111.735C32.1327 112.31 26.687 79.016 31.1144 79.1709C35.5418 79.3259 35.2319 96.2165 40.3677 93.9807C45.5035 91.7448 38.4639 80.2999 39.5265 78.3519C40.5891 76.4038 43.9539 74.9649 48.1821 82.3365C52.4103 89.7082 59.3835 94.2463 62.5934 91.6563C65.8033 89.0662 63.9437 79.5694 50.5729 74.6328C45.0165 72.5741 41.4967 66.7741 46.1455 67.1947C57.369 68.1466 63.7224 62.3246 58.2545 56.9231C52.3882 51.1453 40.0356 52.7835 48.4699 49.6621C50.3965 48.9745 52.221 48.0287 53.8935 46.8507C58.3209 43.6851 59.7377 39.7447 56.4614 38.1287C50.7057 35.2508 38.4196 43.2645 36.9364 40.5638C35.4533 37.863 49.3332 32.86 51.6133 26.883C53.8935 20.906 44.4631 15.9473 37.357 26.883C32.1105 35.0516 24.6946 33.7898 28.148 25.6212C35.9403 7.31378 27.1961 -0.655589 18.9832 0.141348C2.95594 1.69095 9.70777 26.7059 -0.143257 27.2151C-6.96149 27.5028 -9.77291 5.58709 -18.6056 6.31761C-28.6559 7.13669 -20.3102 24.8907 -14.1782 33.0593C-8.04622 41.2279 -19.4468 37.4646 -26.2208 35.915C-42.1817 32.5058 -44.5946 36.4905 -44.9931 39.8775C-45.3916 43.2645 -38.197 48.1789 -24.4056 46.2973C-10.6141 44.4156 -14.3774 52.9384 -16.3698 54.0674C-23.4094 58.1628 -33.5039 60.5536 -30.8032 66.4199C-28.1025 72.2863 -14.6431 63.1879 -11.079 65.136C-6.80653 67.3497 -16.0156 71.5336 -18.7827 76.5809C-20.7529 80.2114 -16.1927 85.2365 -10.2599 79.0602C-3.88443 72.4191 2.33611 76.3152 0.188805 83.3327C-1.9585 90.3502 -1.07302 94.4455 3.73074 93.6707Z" fill="#D4EEFF"/>
        <path d="M59.5828 89.5091C58.9852 89.3946 58.4098 89.1854 57.8782 88.8893C57.2866 88.5553 56.7303 88.1622 56.2179 87.716C50.4623 82.8458 42.4929 69.5193 36.9808 77.0238C35.5197 79.0161 38.3975 85.303 39.3494 88.69C39.6815 89.9076 39.7922 90.7488 39.3494 90.9037C38.9067 91.0587 38.5304 90.2618 38.1098 89.0221C36.9144 85.5244 35.564 78.3298 33.0182 77.0238C32.4154 76.7067 31.7505 76.5254 31.0702 76.4925C30.5965 76.4721 30.1238 76.5501 29.6819 76.7216C29.2399 76.893 28.8382 77.1542 28.5023 77.4886C27.0412 78.8611 26.5763 81.4955 26.2885 86.1664C26.2885 87.8488 26.2885 89.7969 26.2885 92.0549C26.2885 92.3205 26.2885 92.5862 26.2885 92.8961C26.2885 97.9655 26.0672 106.887 24.584 108.879C23.4771 107.285 23.455 100.467 23.4329 96.7037C23.4329 95.0212 23.4329 93.3831 23.4329 91.7892C23.4184 89.277 23.1664 86.7717 22.6802 84.3069C22.5313 83.0517 22.1093 81.8443 21.4438 80.7696C20.7784 79.6949 19.8856 78.779 18.8283 78.0863C18.607 77.9535 18.3634 77.865 18.1421 77.7543C17.5465 77.5295 16.9186 77.4024 16.2826 77.3779C14.5835 77.2016 12.8724 77.5697 11.3962 78.4291C9.91997 79.2886 8.75508 80.5949 8.06968 82.1596C7.38828 83.4413 6.82514 84.7824 6.38725 86.1664C5.34681 89.3541 4.72697 90.7709 3.24378 91.0144C2.87514 91.122 2.48342 91.122 2.11478 91.0144C2.11478 91.0144 1.11862 89.7305 2.80104 84.1962C2.80104 84.0634 2.80104 83.9527 2.80104 83.842C3.23364 82.3172 3.34669 80.7195 3.13311 79.1489C2.97279 78.1525 2.6354 77.1929 2.13692 76.3154C1.49731 75.2696 0.597248 74.4076 -0.475258 73.8139L-1.0951 73.5261C-3.8401 72.375 -8.06829 72.7956 -12.3408 77.2451C-14.1117 79.0604 -15.5949 79.4588 -16.2148 79.1932C-16.314 79.1324 -16.4 79.0521 -16.4674 78.9572C-16.5348 78.8623 -16.5824 78.7548 -16.6072 78.6411C-16.632 78.5273 -16.6336 78.4098 -16.6118 78.2954C-16.59 78.1811 -16.5453 78.0723 -16.4804 77.9757C-15.5864 76.5679 -14.4728 75.3124 -13.182 74.2566L-11.9866 73.194C-9.35224 70.9803 -7.07212 68.7666 -7.3599 66.2208C-7.45813 65.4828 -7.74088 64.7815 -8.18199 64.1818C-8.6231 63.582 -9.20832 63.1032 -9.88354 62.7896C-12.385 61.4392 -15.6613 62.5461 -19.8231 63.9628C-22.4353 64.8705 -26.8406 66.3758 -28.1909 65.6231C-28.1909 65.6231 -28.3238 65.6231 -28.4345 65.3353C-28.7001 64.7598 -28.9215 64.2728 -27.6154 63.1216C-25.5477 61.6315 -23.3202 60.3767 -20.9742 59.3805C-19.0483 58.4728 -17.0338 57.5209 -15.1964 56.4584C-14.2927 55.9074 -13.5337 55.1484 -12.9827 54.2446C-12.207 52.9714 -11.8007 51.5074 -11.8095 50.0164C-11.8087 49.5996 -11.8533 49.184 -11.9423 48.7768C-12.1336 47.8995 -12.5167 47.0754 -13.064 46.3635C-13.6112 45.6516 -14.3092 45.0696 -15.1079 44.6593C-18.2156 43.3367 -21.6555 43.0043 -24.9589 43.7074C-33.9466 44.947 -38.7504 42.9768 -40.4549 42.0914C-41.3161 41.7196 -42.037 41.084 -42.5137 40.2761C-42.5086 39.9287 -42.4217 39.5873 -42.2602 39.2796C-42.0987 38.972 -41.867 38.7066 -41.5839 38.5051C-40.4328 37.6639 -37.0015 36.6013 -27.0398 38.7265C-26.0658 38.9479 -25.0032 39.1914 -23.8963 39.4792C-8.71027 43.1539 -7.58128 37.7082 -12.1637 31.6205C-21.0185 19.6886 -23.3872 6.18492 -17.1224 9.59404C-14.798 10.878 -12.695 15.2611 -10.7026 19.1351C-8.4889 23.5626 -6.47442 27.7244 -3.39736 29.4068C-2.69238 29.8414 -1.90692 30.1293 -1.08804 30.2532C-0.26915 30.377 0.566315 30.3343 1.36831 30.1276C2.1703 29.9209 2.92232 29.5545 3.57932 29.0502C4.23632 28.546 4.78479 27.9143 5.19186 27.1931C5.56383 26.6679 5.90388 26.1209 6.21016 25.5549C7.01257 24.0459 7.65792 22.4584 8.13609 20.8176C8.46814 19.7107 8.80021 18.6039 9.06586 17.1871C13.9139 -5.23784 35.2319 1.69108 25.4473 24.7358C22.6138 31.377 25.4473 35.2731 29.8747 34.6975C30.9067 34.5523 31.904 34.2223 32.819 33.7235C34.3603 32.9645 35.7545 31.9376 36.9365 30.6907C37.8867 29.7076 38.7461 28.6407 39.5044 27.503C44.5517 19.9542 49.931 23.7175 49.0898 25.9091C48.2486 28.1007 43.954 31.0007 40.8548 33.0151C30.4282 39.8334 32.664 48.002 44.773 42.2906C46.395 41.5002 48.0841 40.8557 49.8203 40.3647C50.8523 40.0488 51.9295 39.9067 53.0081 39.944C56.2179 40.1654 55.3989 43.2425 52.1004 45.3455C51.7 45.5966 51.2862 45.8257 50.8608 46.0318C49.7626 46.5396 48.601 46.897 47.4074 47.0943C45.1937 47.4707 42.9799 48.7546 42.7807 51.0348C42.5593 53.7798 46.5883 54.3775 50.1302 55.595C54.4248 57.1003 58.3431 59.0927 57.2584 61.4835C56.6164 62.9445 53.0081 65.0254 46.1898 64.4499C42.4044 64.1399 41.3197 66.4865 41.1647 67.2391C39.5487 75.1421 58.8744 77.4222 61.4866 87.5832C62.0179 89.177 60.9774 89.7305 59.5828 89.5091Z" fill="#B9DFFC"/>
        <path d="M21.2193 13.3339C21.0246 13.6918 20.728 13.9839 20.3672 14.1731C20.0064 14.3624 19.5975 14.4404 19.1923 14.3971C18.7872 14.3539 18.404 14.1914 18.0912 13.9303C17.7785 13.6691 17.5503 13.321 17.4355 12.9301C17.3207 12.5391 17.3244 12.1229 17.4463 11.7341C17.5682 11.3453 17.8028 11.0014 18.1202 10.746C18.4376 10.4906 18.8238 10.3351 19.2296 10.2992C19.6355 10.2634 20.0429 10.3488 20.4002 10.5446C20.8738 10.8106 21.2245 11.2513 21.3776 11.7725C21.5306 12.2937 21.4738 12.854 21.2193 13.3339Z" fill="#E6F4FF"/>
        <path d="M24.6949 74.4762C24.5001 74.8341 24.2036 75.1262 23.8428 75.3155C23.482 75.5048 23.0731 75.5827 22.6679 75.5395C22.2628 75.4962 21.8796 75.3338 21.5668 75.0726C21.2541 74.8115 21.0258 74.4634 20.911 74.0724C20.7962 73.6815 20.8 73.2653 20.9219 72.8765C21.0438 72.4877 21.2783 72.1438 21.5958 71.8884C21.9132 71.6329 22.2993 71.4774 22.7052 71.4416C23.1111 71.4057 23.5185 71.4911 23.8758 71.6869C24.3536 71.9488 24.7082 72.3894 24.8617 72.9123C25.0153 73.4351 24.9553 73.9975 24.6949 74.4762Z" fill="#E6F4FF"/>
        <path d="M16.0166 31.2647C15.7084 31.8359 15.2375 32.3027 14.6636 32.6058C14.0897 32.909 13.4387 33.0349 12.7932 32.9675C12.1477 32.9002 11.5367 32.6426 11.0378 32.2275C10.5388 31.8124 10.1745 31.2584 9.99081 30.6359C9.80717 30.0134 9.81257 29.3504 10.0063 28.731C10.2 28.1115 10.5734 27.5636 11.079 27.1566C11.5846 26.7497 12.1997 26.5021 12.8462 26.4452C13.4928 26.3884 14.1416 26.5248 14.7105 26.8373C15.4641 27.2577 16.0229 27.9567 16.2671 28.7844C16.5112 29.6121 16.4213 30.5025 16.0166 31.2647Z" fill="#E6F4FF"/>
        <path d="M36.7593 70.0489C36.4511 70.6201 35.9802 71.0868 35.4063 71.39C34.8324 71.6932 34.1814 71.8191 33.5359 71.7517C32.8904 71.6843 32.2794 71.4268 31.7805 71.0117C31.2815 70.5966 30.9171 70.0426 30.7335 69.4201C30.5498 68.7976 30.5552 68.1346 30.749 67.5151C30.9427 66.8957 31.3161 66.3477 31.8217 65.9408C32.3273 65.5339 32.9424 65.2863 33.5889 65.2294C34.2354 65.1725 34.8843 65.309 35.4532 65.6214C36.2111 66.0377 36.7737 66.7367 37.0183 67.5661C37.263 68.3954 37.1699 69.2879 36.7593 70.0489Z" fill="#E6F4FF"/>
        <path d="M33.7709 56.3256C33.5366 56.7562 33.1799 57.1077 32.7459 57.3356C32.3119 57.5635 31.8201 57.6576 31.3326 57.6061C30.8451 57.5546 30.3838 57.3598 30.0071 57.0462C29.6303 56.7326 29.3549 56.3144 29.2158 55.8443C29.0766 55.3743 29.0799 54.8736 29.2253 54.4054C29.3706 53.9372 29.6514 53.5227 30.0323 53.2141C30.4132 52.9055 30.877 52.7167 31.3651 52.6716C31.8532 52.6266 32.3438 52.7272 32.7747 52.9608C33.0613 53.1161 33.3144 53.3264 33.5195 53.5797C33.7247 53.8329 33.878 54.1241 33.9705 54.4367C34.063 54.7492 34.093 55.0769 34.0588 55.401C34.0245 55.7252 33.9267 56.0394 33.7709 56.3256Z" fill="#E6F4FF"/>
        <path d="M41.1424 58.8929C40.9735 59.1937 40.7193 59.4379 40.412 59.5946C40.1046 59.7514 39.7577 59.8137 39.415 59.7737C39.0723 59.7338 38.7491 59.5934 38.486 59.3701C38.2229 59.1469 38.0317 58.8508 37.9365 58.5192C37.8413 58.1875 37.8464 57.8351 37.951 57.5064C38.0556 57.1776 38.2552 56.8871 38.5245 56.6714C38.7939 56.4558 39.121 56.3247 39.4647 56.2945C39.8084 56.2644 40.1534 56.3366 40.4561 56.502C40.6591 56.613 40.8381 56.7631 40.9827 56.9437C41.1273 57.1243 41.2346 57.3318 41.2984 57.5542C41.3623 57.7766 41.3814 58.0094 41.3546 58.2392C41.3278 58.469 41.2557 58.6911 41.1424 58.8929Z" fill="#E6F4FF"/>
        <path d="M12.1208 47.604C11.9377 47.9435 11.6279 48.1968 11.2588 48.3088C10.8897 48.4208 10.4914 48.3823 10.1506 48.2017C9.8095 48.0144 9.55571 47.7005 9.4439 47.3278C9.3321 46.9551 9.37122 46.5534 9.55284 46.2093C9.73778 45.8688 10.0504 45.6157 10.422 45.5057C10.7935 45.3957 11.1936 45.4378 11.5341 45.6227C11.8746 45.8076 12.1277 46.1203 12.2378 46.4918C12.3478 46.8634 12.3057 47.2634 12.1208 47.604Z" fill="#E6F4FF"/>
        <path d="M5.45077 61.6326C5.75529 61.0745 5.54974 60.3752 4.99167 60.0707C4.43359 59.7662 3.73433 59.9717 3.4298 60.5298C3.12528 61.0879 3.33082 61.7871 3.88889 62.0917C4.44697 62.3962 5.14624 62.1907 5.45077 61.6326Z" fill="#E6F4FF"/>
        <path d="M30.9595 39.9222C30.8876 40.0567 30.7897 40.1755 30.6715 40.2718C30.5532 40.3682 30.4171 40.44 30.2708 40.4833C30.1246 40.5266 29.9712 40.5403 29.8196 40.5238C29.668 40.5073 29.5212 40.4608 29.3877 40.3871C29.1246 40.2336 28.9299 39.9855 28.8435 39.6934C28.7571 39.4013 28.7855 39.0872 28.9229 38.8153C28.9969 38.6801 29.0969 38.5608 29.2171 38.4642C29.3373 38.3676 29.4754 38.2957 29.6234 38.2525C29.7715 38.2093 29.9266 38.1958 30.0798 38.2126C30.2331 38.2294 30.3816 38.2762 30.5167 38.3505C30.6493 38.4242 30.7661 38.5235 30.8602 38.6426C30.9543 38.7617 31.0239 38.8981 31.065 39.0442C31.1062 39.1903 31.118 39.3431 31.0999 39.4937C31.0818 39.6444 31.0341 39.79 30.9595 39.9222Z" fill="#E6F4FF"/>
        <path d="M44.7951 27.0382C44.6823 27.2483 44.4913 27.4055 44.2635 27.4759C44.0357 27.5464 43.7893 27.5243 43.5776 27.4145C43.4064 27.2822 43.2882 27.0931 43.2441 26.8814C43.2001 26.6696 43.2331 26.4491 43.3372 26.2595C43.4413 26.0699 43.6098 25.9237 43.8121 25.8473C44.0145 25.7709 44.2375 25.7693 44.4409 25.8427C44.6456 25.955 44.7977 26.1437 44.8641 26.3675C44.9304 26.5914 44.9056 26.8325 44.7951 27.0382Z" fill="#E6F4FF"/>
        <path d="M49.4219 43.7291C49.2722 43.9539 49.0456 44.1162 48.7847 44.1855C48.5238 44.2548 48.2465 44.2263 48.0051 44.1055C47.7505 43.9609 47.5621 43.7231 47.4795 43.4423C47.3969 43.1615 47.4266 42.8595 47.5623 42.6002C47.6296 42.4698 47.7225 42.3544 47.8356 42.261C47.9487 42.1677 48.0796 42.0982 48.2203 42.0568C48.361 42.0154 48.5086 42.003 48.6543 42.0203C48.7999 42.0376 48.9406 42.0842 49.0677 42.1574C49.1976 42.2342 49.3104 42.3368 49.3992 42.4588C49.488 42.5808 49.5509 42.7196 49.584 42.8668C49.6172 43.014 49.6199 43.1664 49.5921 43.3147C49.5642 43.463 49.5062 43.6041 49.4219 43.7291Z" fill="#E6F4FF"/>
        <path d="M8.15822 75.8725C8.01366 76.1271 7.77589 76.3155 7.49504 76.3981C7.2142 76.4807 6.91225 76.451 6.65289 76.3152C6.52254 76.248 6.40718 76.155 6.31379 76.0419C6.22039 75.9289 6.1509 75.798 6.10951 75.6573C6.06813 75.5166 6.0557 75.3689 6.073 75.2233C6.0903 75.0776 6.13696 74.937 6.21016 74.8099C6.35106 74.5516 6.58882 74.3598 6.87112 74.2768C7.15342 74.1937 7.45715 74.2263 7.71548 74.3672C7.97381 74.5081 8.16558 74.7458 8.24861 75.0281C8.33164 75.3105 8.29912 75.6142 8.15822 75.8725Z" fill="#E6F4FF"/>
        <path d="M54.1373 82.4256C54.0322 82.6173 53.8725 82.7736 53.6786 82.8747C53.4847 82.9758 53.2652 83.0172 53.0478 82.9937C52.8304 82.9701 52.6248 82.8827 52.457 82.7424C52.2892 82.6022 52.1667 82.4154 52.105 82.2056C52.0433 81.9958 52.0452 81.7724 52.1103 81.5636C52.1754 81.3548 52.3009 81.17 52.471 81.0325C52.641 80.895 52.848 80.811 53.0658 80.791C53.2836 80.771 53.5024 80.816 53.6946 80.9203C53.9492 81.0648 54.1376 81.3026 54.2202 81.5835C54.3028 81.8643 54.2731 82.1662 54.1373 82.4256Z" fill="#E6F4FF"/>
    </g>
</svg>
