<svg width="62" height="61" viewBox="0 0 62 61" fill="none" xmlns="http://www.w3.org/2000/svg">
    <g opacity="0.4">
        <path d="M12.0387 0.527433C3.01324 1.49199 -8.63039 25.916 14.5879 47.9286C37.8062 69.9412 59.6122 59.2621 61.3002 48.3075C62.9882 37.3529 37.1862 37.973 30.2965 22.54C23.4068 7.1071 21.0987 -0.437126 12.0387 0.527433Z" fill="#D4EEFF"/>
        <path d="M13.8303 7.0022C10.1098 7.62227 11.1089 13.2718 13.4514 14.3053C13.9527 14.4637 14.4836 14.5054 15.0035 14.427C15.5234 14.3486 16.0183 14.1523 16.4506 13.853C16.8829 13.5537 17.2409 13.1595 17.4973 12.7005C17.7536 12.2415 17.9015 11.7299 17.9296 11.2049C17.7574 9.44805 13.8303 7.0022 13.8303 7.0022Z" fill="#B9DFFC"/>
        <path d="M35.326 50.786C33.1213 53.8864 37.8407 57.1246 40.2176 56.16C40.6827 55.9193 41.087 55.5757 41.3994 55.1553C41.7117 54.7349 41.9241 54.2489 42.0205 53.7341C42.1168 53.2193 42.0945 52.6893 41.9552 52.1844C41.8159 51.6796 41.5633 51.2131 41.2166 50.8205C39.8043 49.6837 35.326 50.786 35.326 50.786Z" fill="#B9DFFC"/>
        <path d="M16.69 39.3833C12.4872 39.1077 14.9675 44.585 17.9301 46.1008C20.8926 47.6165 23.0284 46.1008 22.4428 44.2406C21.8572 42.3804 16.69 39.3833 16.69 39.3833Z" fill="#B9DFFC"/>
        <g style="mix-blend-mode:screen" opacity="0.3">
            <path d="M39.1157 38.7287C37.0144 38.5564 38.2545 41.3123 39.7358 42.1735C41.2171 43.0347 42.285 42.1736 42.0094 41.2435C41.7338 40.3133 39.1157 38.7287 39.1157 38.7287Z" fill="#E3373F"/>
        </g>
        <g style="mix-blend-mode:screen" opacity="0.3">
            <path d="M9.76294 24.7027C10.5096 24.0536 10.5887 22.9222 9.93965 22.1756C9.2906 21.4289 8.15918 21.3498 7.41253 21.9988C6.66588 22.6479 6.58672 23.7794 7.23577 24.526C7.88482 25.2727 9.01629 25.3517 9.76294 24.7027Z" fill="#E3373F"/>
        </g>
        <path d="M51.8405 48.6624C52.5871 48.0134 52.6663 46.882 52.0172 46.1354C51.3682 45.3887 50.2367 45.3095 49.4901 45.9586C48.7434 46.6077 48.6644 47.7391 49.3134 48.4857C49.9625 49.2324 51.0938 49.3115 51.8405 48.6624Z" fill="#E6F4FF"/>
        <path d="M25.4984 32.6235C26.6328 31.6374 26.7631 29.9301 25.7895 28.8101C24.816 27.6902 23.1071 27.5816 21.9728 28.5677C20.8384 29.5537 20.7082 31.261 21.6818 32.381C22.6554 33.5009 24.3641 33.6095 25.4984 32.6235Z" fill="#B9DFFC"/>
    </g>
</svg>
