<svg width="472" height="250" viewBox="0 0 472 250" fill="none" xmlns="http://www.w3.org/2000/svg"><g clip-path="url(#clip0)"><path d="M249.45 151.852l10.981 10.981-10.756 10.747m10.756-10.756h-30.822" stroke="#7CC7EC" stroke-width="7" stroke-linecap="round" stroke-linejoin="bevel"/><path d="M183.127 239.432h-70.329a12.8 12.8 0 01-11.969-8.244 12.826 12.826 0 01-.831-5.049l3.724-91.019h88.473l3.732 91.062a12.81 12.81 0 01-7.796 12.232 12.803 12.803 0 01-5.004 1.018z" fill="#DFEDF7"/><path d="M144.018 218.172c10.895 0 19.728-8.833 19.728-19.728 0-10.896-8.833-19.728-19.728-19.728-10.896 0-19.728 8.832-19.728 19.728 0 10.895 8.832 19.728 19.728 19.728z" fill="#E8B423"/><path d="M140.562 219.904c10.896 0 19.728-8.833 19.728-19.728 0-10.896-8.832-19.728-19.728-19.728-10.895 0-19.727 8.832-19.727 19.728 0 10.895 8.832 19.728 19.727 19.728z" fill="#F7C939"/><path d="M146.677 212.594a1.732 1.732 0 100-3.464 1.732 1.732 0 000 3.464zm4.971-21.771a1.733 1.733 0 10-.001-3.465 1.733 1.733 0 00.001 3.465zm-20.257 11.726c.746 0 1.351-.919 1.351-2.053 0-1.133-.605-2.052-1.351-2.052s-1.351.919-1.351 2.052c0 1.134.605 2.053 1.351 2.053zm9.59-10.99c.982-.566 1.475-1.55 1.102-2.196-.373-.646-1.471-.71-2.453-.144-.982.567-1.475 1.55-1.102 2.197.373.646 1.471.71 2.453.143zm-10.941-1.169a.65.65 0 100-1.3.65.65 0 000 1.3zm19.876 10.756a.65.65 0 10-.002-1.3.65.65 0 00.002 1.3zm-19.2 10.418c.732 0 1.325-.314 1.325-.702 0-.387-.593-.701-1.325-.701s-1.325.314-1.325.701c0 .388.593.702 1.325.702z" fill="#E8B423"/><path d="M105.16 219.583s-.996 9.596 6.72 12.289c7.716 2.693 13.25 3.707 13.501 1.801.251-1.905-6.989-.493-12.228-4.33a28.202 28.202 0 01-7.993-9.76zm84.134-14.731c-2.001 0-2.165 19.408 0 19.72 2.165.311 1.991-19.72 0-19.72z" fill="#FAFDFF"/><path opacity=".5" d="M167.106 101.934l1.377-13.536s-16.835 1.732-23.599 23.928a47.258 47.258 0 00-1.975 11.735h25.981c-4.858-15.337-1.784-22.127-1.784-22.127z" fill="#C5EAFF"/><path opacity=".5" d="M192.489 198.444s-20.784-19.113-23.564-50.637a126.595 126.595 0 01-.044-23.746h-25.98c-.866 22.621 2.97 52.135-5.603 63.306-10.167 13.242-33.775 9.604-33.775 9.604l-1.169 27.237a12.183 12.183 0 0012.124 12.635h66.831a12.173 12.173 0 008.768-3.733 12.17 12.17 0 003.399-8.902l-.987-25.764z" fill="#FAFDFF"/><path opacity=".8" d="M192.195 124.061h-88.473v11.016h88.473v-11.016z" fill="#5CB9E7"/><path d="M192.195 133.457h-88.473v1.62h88.473v-1.62z" fill="#FEFEFE"/><path d="M379.471 246.843c47.77 0 86.495-38.726 86.495-86.495 0-47.77-38.725-86.496-86.495-86.496s-86.495 38.726-86.495 86.496c0 47.769 38.725 86.495 86.495 86.495z" fill="#fff"/><mask id="a" maskUnits="userSpaceOnUse" x="292" y="73" width="174" height="174"><path d="M379.471 246.843c47.77 0 86.495-38.726 86.495-86.495 0-47.77-38.725-86.496-86.495-86.496s-86.495 38.726-86.495 86.496c0 47.769 38.725 86.495 86.495 86.495z" fill="#fff"/></mask><g mask="url(#a)"><path d="M416.823 225.093h-77.565a14.144 14.144 0 01-10.178-4.332 14.147 14.147 0 01-3.944-10.335l4.111-100.447h97.587l4.112 100.447c.071 1.9-.242 3.794-.92 5.569a14.129 14.129 0 01-7.672 7.969 14.148 14.148 0 01-5.531 1.129z" fill="#DFEDF7"/><path d="M387.651 164.569c0-.391-3.047-23.366-4.477-31.087-.332-1.771-1.439-7.576.698-9.125 1.226.102 2.903 3.251 3.788 5.056 1.472 3.005 3.958 6.955 6.81 6.759 1.787-.119 2.468-1.252 2.29-2.247-.46-2.622-2.111-11.441-3.499-13.765-1.515-2.554-8.189-15.952-16.31-17.808l.111-87.534-8.513-8.512-15.96 16.08 1.03 80.715c-1.533 1.37-3.474 4.622-4.921 7.661-2.187 4.554-.519 15.178-1.166 20.192a164.061 164.061 0 01-4.877 21.059c-.784 2.41-.639 4.316.408 5.006 1.047.689 3.184 0 4.095-2.818 2.307-7.133 6.341-15.927 6.341-15.927s.545.145.732.213c.188.068-.851 21.12-1.523 28.466-.409 3.481.74 5.014 2.136 5.218 1.09.162 2.707-.851 3.507-2.681.401-.937 4.938-29.173 5.108-29.164h.681c.306 0 2.366 23.409 2.758 31.496.094 3.507 1.413 4.478 3.975 4.469 1.703 0 2.852-1.754 3.218-4.18.094-.604 0-32.602.153-32.645l.647-.119c1.2 6.657 3.754 14.25 6.436 26.389.757 3.405 2.817 4.12 4.111 3.737 1.294-.384 2.375-2.239 2.213-4.904z" fill="#EAA192"/><path d="M373.691 201.642c12.016 0 21.758-9.742 21.758-21.758 0-12.017-9.742-21.758-21.758-21.758-12.017 0-21.758 9.741-21.758 21.758 0 12.016 9.741 21.758 21.758 21.758z" fill="#E8B423"/><path d="M369.877 203.548c12.017 0 21.758-9.742 21.758-21.758 0-12.017-9.741-21.758-21.758-21.758-12.016 0-21.758 9.741-21.758 21.758 0 12.016 9.742 21.758 21.758 21.758z" fill="#F7C939"/><path d="M376.619 195.487a1.907 1.907 0 100-3.815 1.907 1.907 0 000 3.815zm5.482-24.005a1.907 1.907 0 100-3.815 1.907 1.907 0 000 3.815zm-22.337 12.93c.823 0 1.49-1.014 1.49-2.264 0-1.251-.667-2.265-1.49-2.265-.822 0-1.489 1.014-1.489 2.265 0 1.25.667 2.264 1.489 2.264zm10.568-12.12c1.083-.625 1.627-1.71 1.216-2.422-.411-.713-1.623-.783-2.706-.158s-1.627 1.71-1.216 2.422c.411.713 1.623.783 2.706.158zm-12.057-1.287a.715.715 0 100-1.43.715.715 0 000 1.43zm21.919 11.858a.715.715 0 100-1.43.715.715 0 000 1.43zm-21.179 11.491c.804 0 1.456-.347 1.456-.774 0-.428-.652-.775-1.456-.775-.804 0-1.455.347-1.455.775 0 .427.651.774 1.455.774z" fill="#E8B423"/><path d="M373.546 173.167c0-.383 3.039-23.358 4.478-31.079.332-1.779 1.438-7.584-.698-9.134-1.235.111-2.903 3.261-3.788 5.065-1.473 2.997-3.959 6.955-6.81 6.759-1.788-.127-2.469-1.26-2.299-2.256.46-2.613 2.12-11.44 3.507-13.756 1.516-2.553 8.189-15.961 16.31-17.808l-.119-87.542 8.513-8.512 15.952 16.046-.996 80.757c1.532 1.371 3.482 4.631 4.929 7.662 2.187 4.554.51 15.177 1.166 20.191a162.507 162.507 0 004.878 21.06c.774 2.417.638 4.324-.418 5.005-1.055.681-3.183 0-4.094-2.809-2.298-7.142-6.333-15.935-6.333-15.935s-.545.145-.732.221c-.188.077.851 21.111 1.523 28.466.4 3.481-.749 5.005-2.136 5.209-1.098.162-2.707-.851-3.507-2.681-.4-.928-4.938-29.172-5.108-29.164h-.672c-.307 0-2.375 23.401-2.767 31.454-.094 3.507-1.413 4.477-3.967 4.469-1.702 0-2.86-1.703-3.217-4.171-.094-.613 0-32.611-.162-32.654l-.639-.119c-1.208 6.657-3.754 14.25-6.435 26.388-.758 3.405-2.818 4.112-4.12 3.729s-2.426-2.188-2.239-4.861z" fill="#F3AB99"/><path opacity=".8" d="M426.826 97.84h-97.579v12.156h97.579V97.84z" fill="#5CB9E7"/><path d="M426.826 108.209h-97.579v1.788h97.579v-1.788z" fill="#FEFEFE"/><path opacity=".5" d="M414.9 222.233h-73.701a13.42 13.42 0 01-9.672-4.114 13.409 13.409 0 01-2.873-4.529 13.444 13.444 0 01-.871-5.292l1.226-30.041a90.671 90.671 0 0050.487.852c26.976-7.662 47.67.783 47.67.783l1.166 28.414a13.433 13.433 0 01-3.752 9.822 13.437 13.437 0 01-9.68 4.105z" fill="#FAFDFF"/><path d="M330.831 203.199s-1.098 10.589 7.44 13.552c8.537 2.962 14.59 4.043 14.845 1.991.256-2.051-7.661-.544-13.492-4.758a31.186 31.186 0 01-8.793-10.785zm92.794-16.25c-2.205 0-2.384 21.409 0 21.758 2.383.349 2.205-21.758 0-21.758z" fill="#FAFDFF"/></g><path d="M379.471 246.843c47.77 0 86.495-38.726 86.495-86.495 0-47.77-38.725-86.496-86.495-86.496s-86.495 38.726-86.495 86.496c0 47.769 38.725 86.495 86.495 86.495z" stroke="#EBF6FF" stroke-width="7" stroke-miterlimit="10"/><path d="M406.183 99.807H352.75c-.639 0-1.158.518-1.158 1.158v4.051c0 .64.519 1.158 1.158 1.158h53.433c.639 0 1.158-.518 1.158-1.158v-4.051c0-.64-.519-1.158-1.158-1.158zm-229.178 25.709h-54.361c-.65 0-1.177.527-1.177 1.178v4.122c0 .65.527 1.178 1.177 1.178h54.361c.65 0 1.178-.528 1.178-1.178v-4.122c0-.651-.528-1.178-1.178-1.178z" fill="#001C61"/><path d="M291.787 52.493a8.51 8.51 0 00-4.503-4.4l-1.29-2.806a9.034 9.034 0 00-.425-6.278 8.537 8.537 0 00-4.494-4.408l-1.291-2.797a9.03 9.03 0 00-.433-6.28 8.884 8.884 0 00-6.391-5.091 5.965 5.965 0 00-4.633 0l-40.972 18.879a7.931 7.931 0 00-3.109 3.29l-.649 1.205a4.746 4.746 0 01-5.855 2.702 10.182 10.182 0 00-7.906.242l-12.991 5.984a24.762 24.762 0 00-12.99 14.627 23.276 23.276 0 01-2.823 5.933l.104.207a18.115 18.115 0 01-6.929 5.716l-1.532.702-.113-.251a1.11 1.11 0 00-.629-.583 1.119 1.119 0 00-1.406 1.518l.112.26-2.797 1.29 8.323 18.065 2.295-1.056.112.25a1.213 1.213 0 001.49.555c1.022-.476 1.29-1.212.944-1.983l1.403-.953a17.986 17.986 0 018.842-1.567l.104.225c2.201.186 4.349.773 6.339 1.732a24.327 24.327 0 0019.572-.381l14.506-6.686c2.035-.944 2.97-2.918 3.542-5.031.546-1.481 4.114-3.127 5.595-2.598 1.974.944 4.087 1.515 6.122.571l41.517-19.122a5.984 5.984 0 002.98-3.533 8.89 8.89 0 00.259-8.15z" fill="#EBF6FF"/><path d="M160.542 87.688l6.564 14.246a2.805 2.805 0 001.574 1.455 2.785 2.785 0 002.141-.087l5.855-2.693-8.912-19.338-5.854 2.693a2.812 2.812 0 00-1.368 3.724z" fill="#5CB9E7"/><path d="M257.995 25.356l-26.467 12.196 20.107 43.637 26.467-12.196-20.107-43.637z" fill="#54C0EB"/><mask id="b" maskUnits="userSpaceOnUse" x="167" y="19" width="126" height="82"><path d="M291.787 52.493a8.51 8.51 0 00-4.503-4.4l-1.29-2.806a9.034 9.034 0 00-.425-6.278 8.537 8.537 0 00-4.494-4.408l-1.291-2.797a9.03 9.03 0 00-.433-6.28 8.884 8.884 0 00-6.391-5.091 5.965 5.965 0 00-4.633 0l-40.972 18.879a7.931 7.931 0 00-3.109 3.29l-.649 1.205a4.746 4.746 0 01-5.855 2.702 10.182 10.182 0 00-7.906.242l-12.991 5.984a24.762 24.762 0 00-12.99 14.627 23.273 23.273 0 01-2.823 5.933l.104.207a18.116 18.116 0 01-6.929 5.716l-1.532.702-.113-.251a1.11 1.11 0 00-.629-.583 1.119 1.119 0 00-1.406 1.518l.112.26-2.797 1.29 8.323 18.065 2.295-1.056.112.25a1.213 1.213 0 001.49.555c1.022-.476 1.29-1.212.944-1.983l1.403-.953a17.986 17.986 0 018.842-1.567l.104.225c2.201.186 4.349.773 6.339 1.732a24.327 24.327 0 0019.572-.381l14.506-6.686c2.035-.944 2.97-2.918 3.542-5.031.546-1.481 4.114-3.127 5.595-2.598 1.974.944 4.087 1.515 6.122.571l41.517-19.122a5.984 5.984 0 002.98-3.533 8.89 8.89 0 00.259-8.15z" fill="#EBF6FF"/></mask><g mask="url(#b)"><path d="M169.453 86.623a39.683 39.683 0 0028.302-2.209c14.592-7.075 14.722-20.342 39.837-22.11 25.114-1.766 40.382-10.33 44.167-16.809 3.784-6.477 7.967-17.242 7.967-17.242s19.919 51.355-7.075 69.013c-26.994 17.658-97.739 12.8-99.065 12.35-1.325-.451-14.133-22.993-14.133-22.993z" fill="#C8E9FC"/></g><path d="M257.995 25.356l-26.467 12.196 20.107 43.637 26.467-12.196-20.107-43.637z" fill="#5CB9E7"/><path d="M203.426 69.873l-.699.428-3.724-3.325a14.968 14.968 0 01-.614-.563c-.241-.231-.379-.373-.416-.427.163.404.312.864.445 1.382l1.289 4.781-.699.428-5.347-5.097.75-.459 3.263 3.172c.457.446.846.864 1.169 1.255a12.235 12.235 0 01-.58-1.695l-1.175-4.37.75-.46 3.432 3.035c.397.349.806.766 1.229 1.251a14.851 14.851 0 01-.582-1.624l-1.339-4.339.75-.459 2.098 7.086zm5.285-3.235l-.535-.566-.033.02c-.053.426-.161.76-.326 1.002-.164.238-.415.46-.754.667-.452.277-.879.378-1.28.303-.398-.077-.729-.33-.992-.76-.565-.922-.123-1.857 1.324-2.804l.759-.499-.173-.283c-.219-.358-.459-.574-.718-.648-.258-.08-.556-.015-.895.193-.38.232-.739.612-1.077 1.14l-.536-.4c.15-.26.337-.505.561-.738.227-.234.475-.434.745-.599.544-.333 1.02-.458 1.429-.376.412.08.781.386 1.107.92l1.907 3.114-.513.314zm-1.86.469c.431-.264.696-.588.796-.974.102-.387.024-.793-.236-1.218l-.253-.412-.673.452c-.538.356-.882.685-1.033.987-.15.298-.127.607.068.926.153.25.345.394.574.433.233.037.485-.028.757-.194zm4.977-3.046c.122-.075.235-.156.339-.242.102-.09.18-.164.235-.224l.324.529a1.46 1.46 0 01-.28.291 2.695 2.695 0 01-.369.277c-.883.54-1.609.346-2.178-.584l-1.662-2.716-.654.4-.204-.333.478-.687-.305-1.153.4-.245.648 1.058 1.324-.81.329.537-1.325.81 1.645 2.686c.168.275.362.446.583.514.22.067.444.03.672-.108zm3.818-1.553c-.674.413-1.333.533-1.976.362-.64-.173-1.184-.624-1.631-1.355-.45-.735-.627-1.43-.532-2.084.099-.656.454-1.17 1.065-1.545.572-.35 1.14-.438 1.704-.264.563.17 1.032.564 1.41 1.18l.267.438-3.144 1.924c.342.528.726.852 1.151.973.428.12.875.037 1.342-.248a4.328 4.328 0 001.269-1.2l.377.616c-.18.255-.366.471-.558.65-.187.18-.435.364-.744.553zm-2.728-4.038c-.367.225-.587.523-.66.896-.07.372.004.78.224 1.226l2.386-1.46c-.267-.436-.568-.71-.903-.822-.337-.114-.686-.06-1.047.16zm4.776-3.72a3.24 3.24 0 01.576-.283l.297.7a2.756 2.756 0 00-.538.243c-.369.226-.594.57-.674 1.031-.078.46.02.913.294 1.36l1.499 2.45-.691.422-2.794-4.564.57-.35.597.797.033-.02c-.012-.4.052-.755.192-1.062.14-.307.353-.548.639-.723z" fill="#5CBEF6"/></g><path d="M96.882 35.848H87.78v6.071h9.102v-6.07zm-66.744 0H5.872v6.071h24.266v-6.07z" fill="#F7C939"/><path d="M25.53 38.888h-8.582v65.22h8.582v-65.22z" fill="#C8E9FC"/><path d="M20.386 32.02h65.506a4.859 4.859 0 014.859 4.859v79.241H25.53V37.217a5.144 5.144 0 00-5.145-5.197z" fill="#EBF6FF"/><path d="M90.75 83.514H25.53v22.309h65.22V83.514z" fill="#5CB9E7"/><path d="M25.53 71.494h-8.582v22.309h8.582v-22.31z" fill="#4AACD3"/><path d="M25.53 38.888v-2.537a4.33 4.33 0 00-8.582 0v2.598l8.582-.061z" fill="#C8E9FC"/><path d="M26.552 121.221a.99.99 0 01-.978-.979v-4.607a.977.977 0 01.978-.979.977.977 0 01.979.979v4.616a.976.976 0 01-.979.97zm7.024 0a.99.99 0 01-.979-.979v-4.607a.977.977 0 011.67-.692.977.977 0 01.287.692v4.616a.977.977 0 01-.978.97z" fill="#5CB9E7"/><path d="M17.935 109.391a.988.988 0 01-.987-.979v-4.607a.985.985 0 011.382-.995.987.987 0 01.584.995v4.607a.988.988 0 01-.979.979zm6.045 0a.988.988 0 01-.987-.979v-4.607a.985.985 0 011.382-.995.988.988 0 01.584.995v4.607a.988.988 0 01-.979.979z" fill="#4AACD3"/><path d="M40.6 121.221a.99.99 0 01-.98-.979v-4.607a.977.977 0 011.671-.692.977.977 0 01.287.692v4.616a.977.977 0 01-.979.97zm7.031 0a.99.99 0 01-.978-.979v-4.607a.989.989 0 011.647-.638.989.989 0 01.319.638v4.616a.988.988 0 01-.988.97zm7.024 0a.989.989 0 01-.961-.97v-4.616a.989.989 0 011.647-.638.989.989 0 01.318.638v4.616a.989.989 0 01-1.004.97zm7.023 0a.977.977 0 01-.978-.979v-4.607a.977.977 0 011.67-.692.977.977 0 01.287.692v4.616a.988.988 0 01-.979.97zm7.024 0a.977.977 0 01-.979-.979v-4.607a.977.977 0 011.67-.692.977.977 0 01.287.692v4.616a.988.988 0 01-.978.97zm7.023 0a.99.99 0 01-.979-.979v-4.607a.977.977 0 011.671-.692.977.977 0 01.287.692v4.616a.977.977 0 01-.979.97zm7.023 0a.99.99 0 01-.978-.979v-4.607a.977.977 0 01.978-.979.977.977 0 01.98.979v4.616a.977.977 0 01-.98.97zm7.024 0a.99.99 0 01-.979-.979v-4.607a.977.977 0 011.67-.692.977.977 0 01.288.692v4.616a.977.977 0 01-.98.97z" fill="#5CB9E7"/><path d="M96.873 35.848H89.86v6.071h7.014v-6.07zm-71.914 0H5.872v6.071h19.087v-6.07z" fill="#F7C939"/><path d="M90.222 88.814c-6.478-8.296-7.318-8.296-12.626-13.83-5.31-5.534-7.795-10.011-5.534-15.935a13.859 13.859 0 012.953-4.46 16.455 16.455 0 00-6.261 7.223c-2.235 5.932.225 10.392 5.533 15.943 5.31 5.551 6.158 5.525 12.636 13.857 5.534 7.092 15.268 3.334 20.724-2.252-5.534 3.802-12.878 5.274-17.425-.546z" fill="#F7C6C6"/><path d="M103.516 70.636c-4.98-3.55-6.877-13.856-14.81-17.78-4.546-2.26-9.699-.934-13.691 1.733a13.856 13.856 0 00-2.953 4.46c-2.243 5.924.225 10.392 5.534 15.935 5.308 5.542 6.148 5.534 12.626 13.856 4.547 5.82 11.891 4.33 17.425.546a18.733 18.733 0 002.398-2.97c4.486-6.998-1.55-12.22-6.529-15.78z" fill="#FFD2D2"/><path d="M80.228 54.892c.13-.675 4.712-2.035 7.56.07 2.85 2.104.997 1.584-1.506.926a46.517 46.517 0 00-6.054-.996zm25.02 31.688c1.325.918 3.931-1.845 4.33-3.958.398-2.113-1.524-1.446-1.94-.39-.416 1.057-2.39 4.348-2.39 4.348z" fill="#FFE6E6"/><path d="M6.227 44.474a6.227 6.227 0 100-12.454 6.227 6.227 0 000 12.454zm93.894 0a6.227 6.227 0 100-12.454 6.227 6.227 0 000 12.454z" fill="#F7C939"/><defs><clipPath id="clip0"><path fill="#fff" d="M32 .021h440v249.856H32z"/></clipPath></defs></svg>