<svg width="350" height="189" viewBox="0 0 350 189" fill="none" xmlns="http://www.w3.org/2000/svg">
<path opacity="0.75" d="M87.4473 117.163C91.5653 112.252 99.8506 103.245 114.899 106.303C129.947 109.362 137.769 93.8228 148.292 96.5378C158.815 99.2528 157.7 110.197 168.293 113.677C178.887 117.156 191.627 134.996 183.208 140.812C174.789 146.628 166.16 164.714 150.67 164.7C135.18 164.686 124.811 154.92 116.877 159.789C108.943 164.658 86.9912 167.92 84.7042 153.798C82.4172 139.676 70.961 140.377 67.32 130.457C63.6789 120.538 83.3292 122.06 87.4473 117.163Z" fill="#E0F1FF"/>
<path opacity="0.75" d="M238.632 55.8692C235.686 58.8788 229.758 64.4281 218.989 62.5479C208.22 60.6678 202.615 70.2228 195.088 68.5531C187.56 66.8835 188.353 60.1346 180.769 58.03C173.185 55.9254 164.093 44.9181 170.099 41.3403C176.104 37.7624 182.298 26.6078 193.383 26.6429C204.467 26.678 211.89 32.6622 217.565 29.6455C223.241 26.6289 238.955 24.6505 240.597 33.3356C242.238 42.0207 250.418 41.6068 253.035 47.7103C255.652 53.8137 241.579 52.8526 238.632 55.8692Z" fill="#E0F1FF"/>
<path d="M304.989 117.675C303.151 117.872 300.78 122.846 305.508 127.329C310.237 131.812 314.677 129.637 315.021 127.406C315.365 125.175 310.11 125.301 308.707 122.158C307.304 119.015 306.834 117.479 304.989 117.675Z" fill="#D4EEFF"/>
<path d="M305.354 118.994C304.596 119.12 304.8 120.271 305.277 120.481C305.379 120.514 305.487 120.522 305.593 120.506C305.699 120.49 305.799 120.45 305.887 120.389C305.976 120.328 306.048 120.248 306.101 120.155C306.153 120.061 306.183 119.957 306.189 119.85C306.154 119.492 305.354 118.994 305.354 118.994Z" fill="#B9DFFC"/>
<path d="M309.731 127.911C309.282 128.542 310.244 129.202 310.728 129.005C310.822 128.956 310.905 128.886 310.968 128.801C311.032 128.715 311.075 128.616 311.095 128.511C311.114 128.406 311.11 128.298 311.082 128.195C311.053 128.093 311.002 127.998 310.931 127.918C310.643 127.686 309.731 127.911 309.731 127.911Z" fill="#B9DFFC"/>
<path d="M305.936 125.588C305.08 125.532 305.585 126.648 306.189 126.956C306.792 127.265 307.227 126.956 307.108 126.578C306.988 126.199 305.936 125.588 305.936 125.588Z" fill="#B9DFFC"/>
<g style="mix-blend-mode:screen" opacity="0.3">
<path d="M310.503 125.455C310.075 125.42 310.328 125.981 310.629 126.157C310.931 126.332 311.149 126.157 311.092 125.967C311.036 125.778 310.503 125.455 310.503 125.455Z" fill="#E3373F"/>
</g>
<g style="mix-blend-mode:screen" opacity="0.3">
<path d="M304.526 122.599C304.678 122.467 304.694 122.236 304.562 122.084C304.429 121.932 304.199 121.916 304.047 122.048C303.895 122.18 303.879 122.411 304.011 122.563C304.143 122.715 304.373 122.731 304.526 122.599Z" fill="#E3373F"/>
</g>
<path d="M313.095 127.478C313.247 127.346 313.263 127.116 313.131 126.964C312.998 126.812 312.768 126.795 312.616 126.928C312.464 127.06 312.448 127.29 312.58 127.442C312.712 127.594 312.943 127.61 313.095 127.478Z" fill="#E6F4FF"/>
<path d="M307.73 124.212C307.961 124.011 307.988 123.663 307.789 123.435C307.591 123.207 307.243 123.185 307.012 123.386C306.781 123.587 306.755 123.934 306.953 124.162C307.151 124.391 307.499 124.413 307.73 124.212Z" fill="#B9DFFC"/>
<path d="M329.262 115.711V115.661C329.333 115.5 329.396 115.332 329.459 115.163C329.515 115.023 329.564 114.876 329.606 114.735C329.627 114.678 329.643 114.62 329.655 114.56C329.655 114.469 329.711 114.378 329.732 114.286C329.754 114.195 329.768 114.146 329.789 114.076C329.81 114.006 329.789 113.908 329.845 113.823L329.887 113.599C329.887 113.522 329.922 113.438 329.936 113.353C329.95 113.269 329.936 113.199 329.971 113.122C330.006 113.045 329.971 112.96 329.971 112.883C329.971 112.806 329.971 112.722 329.971 112.645V112.392C329.968 112.364 329.968 112.336 329.971 112.308C330.851 112.265 331.734 112.295 332.609 112.399V110.968C331.734 111.078 330.851 111.111 329.971 111.066C329.886 109.702 329.528 108.368 328.919 107.145C329.661 106.667 330.442 106.254 331.255 105.91L330.553 104.654C329.849 105.185 329.1 105.654 328.315 106.057C327.686 105.118 326.909 104.287 326.014 103.595C325.825 103.455 325.643 103.321 325.446 103.195C325.85 102.409 326.32 101.658 326.849 100.95L325.593 100.249C325.251 101.062 324.837 101.843 324.359 102.585C323.138 101.975 321.806 101.62 320.444 101.539C320.401 100.657 320.431 99.7721 320.535 98.8945H319.09C319.2 99.7716 319.233 100.657 319.188 101.539H318.823H318.669L318.332 101.581H318.178L317.841 101.638H317.701L317.336 101.722H317.238C316.929 101.798 316.625 101.892 316.326 102.002L315.912 102.164H315.842L315.617 102.269L315.365 102.381L315.267 102.43C314.788 101.689 314.375 100.907 314.032 100.094L312.776 100.796C313.308 101.502 313.778 102.253 314.179 103.041L314.025 103.146L313.941 103.202L313.653 103.412C313.205 103.755 312.785 104.133 312.397 104.542L312.348 104.598L312.117 104.858L312.047 104.935L311.829 105.201L311.759 105.293L311.556 105.559L311.492 105.657C311.432 105.734 311.375 105.813 311.324 105.896C310.536 105.494 309.785 105.025 309.079 104.493L308.378 105.749C309.191 106.091 309.972 106.505 310.714 106.983C310.497 107.419 310.312 107.869 310.159 108.33C310.085 108.569 310.014 108.814 309.949 109.067C309.947 109.086 309.947 109.104 309.949 109.123C309.893 109.362 309.844 109.593 309.802 109.825C309.802 109.825 309.802 109.825 309.802 109.881C309.767 110.119 309.738 110.365 309.717 110.582C309.714 110.629 309.714 110.676 309.717 110.723C309.717 110.758 309.717 110.8 309.717 110.842C308.835 110.886 307.95 110.853 307.073 110.744V112.371C307.95 112.267 308.835 112.237 309.717 112.28C309.798 113.642 310.154 114.974 310.763 116.195C310.021 116.673 309.24 117.087 308.427 117.429L309.128 118.685C309.836 118.155 310.587 117.686 311.373 117.282C311.748 117.849 312.178 118.378 312.657 118.86L312.72 118.917L313.015 119.197C313.396 119.546 313.804 119.865 314.235 120.151C313.832 120.936 313.363 121.685 312.832 122.389L314.088 123.091C314.432 122.278 314.845 121.497 315.323 120.755C316.547 121.364 317.88 121.722 319.244 121.807C319.289 122.687 319.256 123.57 319.146 124.445H320.591C320.487 123.57 320.457 122.687 320.5 121.807H320.591H320.781C321.012 121.807 321.237 121.758 321.482 121.723H321.623C321.819 121.723 322.009 121.653 322.198 121.611L322.366 121.568C322.582 121.518 322.795 121.457 323.005 121.386H323.068L323.299 121.302L323.433 121.253L323.776 121.119L323.875 121.077C324.064 121 324.253 120.909 324.436 120.818C324.913 121.56 325.326 122.341 325.671 123.154L326.926 122.452C326.398 121.746 325.929 120.998 325.523 120.214L325.664 120.123L325.909 119.948L326.049 119.843L326.281 119.66L326.414 119.548L326.646 119.352L326.772 119.239L327.003 119.022L327.109 118.917L327.361 118.65L327.431 118.573C327.537 118.461 327.635 118.341 327.733 118.222L327.831 118.096L328.021 117.864L328.154 117.682L328.287 117.492C328.328 117.418 328.375 117.348 328.428 117.282C329.211 117.688 329.959 118.157 330.666 118.685L331.367 117.429C330.555 117.085 329.773 116.672 329.031 116.195L329.073 116.11C329.129 115.991 329.199 115.879 329.262 115.711Z" fill="#D4EEFF"/>
<g style="mix-blend-mode:screen" opacity="0.3">
<path d="M322.219 105.833C322.219 105.988 322.173 106.14 322.087 106.27C322 106.399 321.878 106.5 321.734 106.559C321.59 106.618 321.432 106.634 321.28 106.604C321.128 106.573 320.988 106.499 320.878 106.389C320.768 106.279 320.693 106.139 320.663 105.986C320.632 105.834 320.648 105.676 320.707 105.532C320.767 105.389 320.868 105.266 320.997 105.18C321.126 105.093 321.278 105.047 321.433 105.047C321.642 105.047 321.841 105.13 321.989 105.278C322.136 105.425 322.219 105.625 322.219 105.833Z" fill="#E3373F"/>
</g>
<path d="M328.056 113.354C328.056 113.52 328.006 113.683 327.914 113.821C327.821 113.96 327.69 114.068 327.536 114.131C327.382 114.195 327.213 114.212 327.05 114.179C326.886 114.147 326.736 114.067 326.619 113.949C326.501 113.831 326.421 113.681 326.388 113.518C326.356 113.355 326.372 113.185 326.436 113.031C326.5 112.878 326.608 112.746 326.746 112.654C326.885 112.561 327.047 112.512 327.214 112.512C327.437 112.512 327.651 112.6 327.809 112.758C327.967 112.916 328.056 113.13 328.056 113.354Z" fill="#B9DFFC"/>
<path d="M314.642 110.968C314.642 111.268 314.553 111.561 314.387 111.81C314.22 112.06 313.984 112.254 313.707 112.368C313.43 112.483 313.125 112.513 312.831 112.455C312.537 112.396 312.267 112.252 312.055 112.04C311.844 111.828 311.699 111.558 311.641 111.264C311.582 110.97 311.612 110.665 311.727 110.389C311.842 110.112 312.036 109.875 312.285 109.709C312.534 109.542 312.827 109.453 313.127 109.453C313.529 109.453 313.914 109.613 314.198 109.897C314.483 110.181 314.642 110.567 314.642 110.968Z" fill="#B9DFFC"/>
<path d="M323.229 108.976C323.229 109.209 323.16 109.437 323.031 109.631C322.901 109.825 322.717 109.976 322.502 110.065C322.286 110.154 322.049 110.177 321.821 110.132C321.592 110.086 321.382 109.974 321.217 109.809C321.052 109.645 320.94 109.435 320.895 109.206C320.849 108.977 320.872 108.74 320.962 108.525C321.051 108.31 321.202 108.126 321.396 107.996C321.59 107.866 321.817 107.797 322.051 107.797C322.363 107.797 322.663 107.922 322.884 108.143C323.105 108.364 323.229 108.663 323.229 108.976Z" fill="#B9DFFC"/>
<path d="M324.801 117.731C324.801 117.853 324.764 117.973 324.697 118.074C324.629 118.176 324.532 118.255 324.42 118.302C324.307 118.348 324.183 118.36 324.063 118.337C323.943 118.313 323.833 118.254 323.747 118.168C323.66 118.081 323.602 117.971 323.578 117.852C323.554 117.732 323.566 117.608 323.613 117.495C323.66 117.382 323.739 117.286 323.84 117.218C323.942 117.15 324.061 117.114 324.183 117.114C324.265 117.113 324.345 117.128 324.421 117.159C324.496 117.19 324.564 117.235 324.622 117.293C324.679 117.35 324.725 117.418 324.756 117.494C324.786 117.569 324.802 117.65 324.801 117.731Z" fill="#B9DFFC"/>
<g style="mix-blend-mode:screen" opacity="0.3">
<path d="M317.336 106.339C317.336 106.605 317.257 106.865 317.109 107.087C316.961 107.309 316.751 107.481 316.505 107.583C316.259 107.685 315.988 107.712 315.726 107.66C315.465 107.608 315.225 107.479 315.037 107.291C314.848 107.103 314.72 106.863 314.668 106.601C314.616 106.34 314.643 106.069 314.745 105.823C314.847 105.577 315.019 105.367 315.241 105.219C315.462 105.071 315.723 104.992 315.989 104.992C316.346 104.992 316.689 105.134 316.942 105.386C317.194 105.639 317.336 105.981 317.336 106.339Z" fill="#E3373F"/>
</g>
<path d="M319.244 104.486C319.547 104.486 319.792 104.241 319.792 103.939C319.792 103.637 319.547 103.392 319.244 103.392C318.942 103.392 318.697 103.637 318.697 103.939C318.697 104.241 318.942 104.486 319.244 104.486Z" fill="#B9DFFC"/>
<path d="M327.025 106.879C327.026 106.996 326.993 107.11 326.929 107.208C326.865 107.306 326.773 107.382 326.666 107.428C326.558 107.474 326.439 107.486 326.325 107.465C326.21 107.443 326.104 107.387 326.021 107.305C325.938 107.223 325.881 107.118 325.858 107.003C325.835 106.889 325.846 106.77 325.89 106.662C325.935 106.554 326.01 106.461 326.107 106.396C326.204 106.331 326.318 106.296 326.435 106.296C326.512 106.296 326.589 106.31 326.66 106.339C326.732 106.368 326.797 106.41 326.852 106.464C326.906 106.519 326.95 106.583 326.98 106.654C327.009 106.725 327.025 106.802 327.025 106.879Z" fill="#B9DFFC"/>
<g style="mix-blend-mode:screen" opacity="0.3">
<path d="M318.795 117.226C318.795 117.493 318.716 117.753 318.568 117.975C318.42 118.196 318.21 118.369 317.964 118.471C317.718 118.573 317.447 118.599 317.186 118.547C316.924 118.495 316.684 118.367 316.496 118.179C316.308 117.99 316.179 117.75 316.127 117.489C316.075 117.228 316.102 116.957 316.204 116.711C316.306 116.465 316.479 116.254 316.7 116.106C316.922 115.958 317.182 115.879 317.448 115.879C317.806 115.879 318.148 116.021 318.401 116.274C318.654 116.527 318.795 116.869 318.795 117.226Z" fill="#E3373F"/>
</g>
<g style="mix-blend-mode:screen" opacity="0.3">
<path d="M328.582 108.976C328.582 109.103 328.545 109.226 328.474 109.331C328.404 109.436 328.305 109.518 328.188 109.566C328.071 109.614 327.943 109.627 327.819 109.602C327.695 109.578 327.582 109.517 327.492 109.428C327.403 109.338 327.342 109.225 327.318 109.101C327.293 108.977 327.306 108.849 327.354 108.732C327.402 108.615 327.484 108.516 327.589 108.445C327.694 108.375 327.817 108.338 327.944 108.338C328.113 108.338 328.275 108.405 328.395 108.525C328.515 108.645 328.582 108.807 328.582 108.976Z" fill="#E3373F"/>
</g>
<path d="M150.895 53.4418C148.089 57.3985 153.883 70.5384 170.84 68.9179C187.796 67.2973 191.142 54.8449 187.319 50.362C183.496 45.8792 174.691 56.4234 166.153 53.7715C157.616 51.1197 153.666 49.4921 150.895 53.4418Z" fill="#D4EEFF"/>
<path d="M154.129 54.9927C153.077 56.7045 155.686 58.2689 156.935 57.6937C157.177 57.5547 157.383 57.3606 157.536 57.1271C157.689 56.8935 157.785 56.6272 157.816 56.3497C157.847 56.0722 157.812 55.7913 157.713 55.5299C157.615 55.2686 157.457 55.034 157.251 54.8454C156.479 54.2702 154.129 54.9927 154.129 54.9927Z" fill="#B9DFFC"/>
<path d="M179.237 61.6219C179.714 63.5722 182.661 62.8145 183.117 61.5307C183.193 61.2586 183.204 60.9723 183.147 60.6954C183.09 60.4185 182.969 60.1591 182.791 59.9389C182.614 59.7186 182.387 59.5438 182.129 59.429C181.871 59.3141 181.589 59.2627 181.307 59.2788C180.402 59.4401 179.237 61.6219 179.237 61.6219Z" fill="#B9DFFC"/>
<path d="M168.139 65.1082C166.56 66.6937 169.633 67.6197 171.268 66.9532C172.902 66.2868 173.008 64.8486 172.11 64.5048C171.212 64.1611 168.139 65.1082 168.139 65.1082Z" fill="#B9DFFC"/>
<g style="mix-blend-mode:screen" opacity="0.3">
<path d="M175.716 55.9044C174.923 56.6901 176.459 57.1601 177.28 56.8234C178.101 56.4866 178.143 55.7781 177.701 55.6027C177.259 55.4273 175.716 55.9044 175.716 55.9044Z" fill="#E3373F"/>
</g>
<g style="mix-blend-mode:screen" opacity="0.3">
<path d="M158.914 63.7268C159.433 63.7268 159.854 63.3059 159.854 62.7867C159.854 62.2676 159.433 61.8467 158.914 61.8467C158.394 61.8467 157.973 62.2676 157.973 62.7867C157.973 63.3059 158.394 63.7268 158.914 63.7268Z" fill="#E3373F"/>
</g>
<path d="M183.243 55.2244C183.762 55.2244 184.183 54.8035 184.183 54.2843C184.183 53.7651 183.762 53.3442 183.243 53.3442C182.724 53.3442 182.303 53.7651 182.303 54.2843C182.303 54.8035 182.724 55.2244 183.243 55.2244Z" fill="#E6F4FF"/>
<path d="M167.108 60.703C167.902 60.703 168.546 60.0591 168.546 59.2648C168.546 58.4706 167.902 57.8267 167.108 57.8267C166.313 57.8267 165.669 58.4706 165.669 59.2648C165.669 60.0591 166.313 60.703 167.108 60.703Z" fill="#B9DFFC"/>
<path d="M138.892 134.695C141.129 134.33 140.028 130.233 142.806 130.38C145.584 130.528 143.038 140.237 145.465 140.412C147.892 140.588 146.167 130.051 147.57 130.1C148.973 130.149 148.832 135.523 150.474 134.821C152.116 134.12 149.864 130.478 150.2 129.861C150.537 129.244 151.603 128.788 152.943 131.131C154.283 133.474 156.5 134.905 157.517 134.084C158.535 133.264 157.945 130.254 153.708 128.683C151.947 128.037 150.832 126.199 152.305 126.325C155.855 126.634 157.875 124.789 156.135 123.077C154.283 121.246 150.369 121.758 153.042 120.776C153.652 120.557 154.23 120.257 154.76 119.885C156.164 118.882 156.613 117.633 155.574 117.121C153.764 116.237 149.878 118.742 149.429 117.886C148.98 117.03 153.35 115.451 154.08 113.557C154.81 111.663 151.814 110.092 149.562 113.557C147.892 116.146 145.549 115.746 146.644 113.157C149.113 107.356 146.342 104.83 143.732 105.083C138.653 105.574 140.8 113.501 137.678 113.662C135.517 113.747 134.626 106.808 131.827 107.033C128.642 107.299 131.287 112.926 133.23 115.508C135.173 118.089 131.539 116.855 129.393 116.391C124.334 115.311 123.57 116.574 123.443 117.647C123.317 118.721 125.597 120.271 129.961 119.682C134.324 119.092 133.139 121.786 132.514 122.144C130.277 123.442 127.078 124.2 127.933 126.052C128.789 127.904 133.055 125.035 134.184 125.652C135.538 126.353 132.627 127.672 131.75 129.279C131.125 130.429 132.571 132.015 134.451 130.065C136.471 127.96 138.436 129.188 137.755 131.412C137.075 133.635 137.383 134.94 138.892 134.695Z" fill="#D4EEFF"/>
<path d="M156.605 133.369C156.414 133.339 156.231 133.272 156.065 133.173C155.876 133.069 155.7 132.944 155.539 132.801C153.708 131.264 151.19 127.041 149.443 129.419C148.98 130.051 149.885 132.043 150.193 133.116C150.299 133.502 150.334 133.762 150.193 133.818C150.053 133.874 149.934 133.614 149.801 133.222C149.422 132.113 148.994 129.826 148.187 129.419C147.997 129.316 147.786 129.259 147.57 129.251C147.42 129.245 147.271 129.269 147.131 129.322C146.991 129.375 146.864 129.456 146.756 129.56C146.293 130.002 146.145 130.836 146.089 132.31C146.089 132.85 146.089 133.467 146.054 134.176C146.054 134.26 146.054 134.351 146.054 134.442C146.054 136.056 145.977 138.883 145.514 139.514C145.163 139.009 145.149 136.842 145.149 135.656C145.149 135.123 145.149 134.597 145.149 134.092C145.141 133.298 145.061 132.507 144.911 131.727C144.865 131.329 144.731 130.946 144.52 130.606C144.309 130.265 144.026 129.975 143.69 129.756C143.619 129.714 143.544 129.679 143.466 129.651C143.279 129.58 143.083 129.537 142.883 129.524C142.345 129.471 141.804 129.588 141.336 129.86C140.869 130.133 140.5 130.545 140.281 131.04C140.073 131.449 139.904 131.876 139.775 132.317C139.446 133.327 139.249 133.776 138.779 133.853C138.661 133.88 138.539 133.88 138.421 133.853C138.421 133.853 138.099 133.439 138.639 131.692C138.639 131.65 138.639 131.615 138.639 131.58C138.783 131.098 138.819 130.59 138.744 130.093C138.7 129.775 138.592 129.47 138.428 129.195C138.233 128.86 137.949 128.586 137.608 128.402L137.411 128.311C136.534 127.946 135.201 128.079 133.847 129.482C133.286 130.065 132.816 130.184 132.613 130.107C132.551 130.064 132.509 129.999 132.495 129.926C132.48 129.853 132.495 129.777 132.536 129.714C132.819 129.272 133.169 128.876 133.574 128.542L133.953 128.206C134.787 127.504 135.51 126.838 135.412 125.989C135.384 125.756 135.297 125.534 135.158 125.344C135.019 125.155 134.833 125.005 134.619 124.908C133.826 124.473 132.788 124.831 131.469 125.28C130.641 125.568 129.245 126.038 128.817 125.806C128.817 125.806 128.768 125.806 128.74 125.708C128.712 125.61 128.586 125.378 129 125.007C129.654 124.534 130.36 124.139 131.104 123.828C131.715 123.54 132.346 123.239 132.935 122.902C133.225 122.716 133.466 122.464 133.637 122.165C133.88 121.76 134.008 121.297 134.009 120.825C134.01 120.473 133.912 120.128 133.728 119.828C133.543 119.528 133.278 119.285 132.963 119.128C131.98 118.702 130.888 118.596 129.842 118.826C126.993 119.212 125.471 118.594 124.931 118.314C124.391 118.033 124.299 117.809 124.278 117.739C124.279 117.627 124.306 117.518 124.357 117.419C124.408 117.32 124.482 117.235 124.573 117.17C124.938 116.911 126.018 116.574 129.182 117.247C129.491 117.311 129.821 117.395 130.178 117.479C134.984 118.651 135.349 116.925 133.897 114.996C131.055 111.214 130.34 106.935 132.318 108.015C133.062 108.415 133.721 109.811 134.36 111.039C135.061 112.442 135.699 113.761 136.675 114.294C136.898 114.433 137.147 114.525 137.406 114.565C137.666 114.604 137.931 114.591 138.186 114.525C138.44 114.46 138.679 114.343 138.887 114.183C139.095 114.023 139.268 113.822 139.397 113.592C139.515 113.426 139.623 113.253 139.719 113.073C139.976 112.596 140.181 112.093 140.33 111.572C140.435 111.228 140.533 110.87 140.624 110.421C142.161 103.322 148.917 105.511 145.816 112.821C144.918 114.925 145.816 116.16 147.219 115.978C147.545 115.927 147.86 115.823 148.152 115.669C148.608 115.422 149.023 115.105 149.38 114.729C149.682 114.419 149.954 114.08 150.193 113.719C151.793 111.333 153.498 112.526 153.224 113.221C152.95 113.915 151.603 114.834 150.621 115.473C147.317 117.633 148.026 120.215 151.863 118.412C152.375 118.157 152.911 117.953 153.463 117.802C153.787 117.699 154.126 117.653 154.466 117.668C155.49 117.739 155.223 118.714 154.185 119.38C154.058 119.457 153.927 119.528 153.792 119.591C153.446 119.757 153.077 119.873 152.698 119.934C151.996 120.054 151.295 120.461 151.225 121.183C151.162 122.053 152.438 122.242 153.561 122.628C154.922 123.098 156.164 123.737 155.82 124.494C155.616 124.957 154.473 125.617 152.312 125.434C151.119 125.329 150.776 126.08 150.727 126.318C150.214 128.823 156.339 129.546 157.167 132.766C157.377 133.271 157.047 133.418 156.605 133.369Z" fill="#B9DFFC"/>
<path d="M144.441 109.236C144.378 109.348 144.284 109.44 144.169 109.499C144.055 109.558 143.925 109.581 143.798 109.567C143.67 109.552 143.549 109.501 143.45 109.418C143.352 109.335 143.28 109.225 143.244 109.101C143.208 108.977 143.21 108.846 143.248 108.723C143.287 108.6 143.361 108.492 143.461 108.411C143.561 108.33 143.683 108.281 143.811 108.269C143.939 108.257 144.068 108.283 144.181 108.345C144.258 108.385 144.325 108.441 144.38 108.508C144.435 108.575 144.476 108.652 144.5 108.735C144.524 108.818 144.531 108.905 144.521 108.991C144.511 109.077 144.484 109.161 144.441 109.236Z" fill="#E6F4FF"/>
<path d="M145.549 128.613C145.487 128.726 145.393 128.819 145.279 128.879C145.165 128.939 145.035 128.963 144.907 128.95C144.778 128.936 144.657 128.884 144.558 128.802C144.459 128.719 144.386 128.609 144.35 128.485C144.314 128.361 144.315 128.229 144.353 128.106C144.392 127.982 144.466 127.874 144.567 127.793C144.668 127.712 144.79 127.662 144.919 127.651C145.047 127.64 145.176 127.667 145.29 127.729C145.44 127.813 145.551 127.953 145.599 128.118C145.648 128.283 145.63 128.461 145.549 128.613Z" fill="#E6F4FF"/>
<path d="M136.906 119.612C136.845 119.722 136.753 119.811 136.641 119.869C136.528 119.927 136.402 119.95 136.277 119.936C136.151 119.922 136.033 119.871 135.936 119.79C135.84 119.709 135.77 119.601 135.735 119.48C135.7 119.359 135.701 119.23 135.739 119.11C135.777 118.99 135.85 118.883 135.948 118.804C136.046 118.725 136.166 118.677 136.291 118.666C136.417 118.655 136.543 118.681 136.654 118.742C136.727 118.782 136.793 118.836 136.845 118.902C136.898 118.968 136.937 119.043 136.961 119.124C136.984 119.205 136.992 119.29 136.982 119.373C136.973 119.457 136.947 119.538 136.906 119.612Z" fill="#E6F4FF"/>
<path d="M142.792 114.918C142.694 115.099 142.545 115.247 142.363 115.343C142.181 115.439 141.975 115.479 141.771 115.458C141.566 115.436 141.372 115.355 141.214 115.223C141.056 115.092 140.941 114.916 140.882 114.719C140.824 114.522 140.826 114.311 140.887 114.115C140.949 113.919 141.067 113.745 141.227 113.616C141.388 113.487 141.582 113.409 141.787 113.391C141.992 113.373 142.198 113.416 142.378 113.515C142.618 113.647 142.797 113.868 142.874 114.131C142.952 114.394 142.922 114.677 142.792 114.918Z" fill="#E6F4FF"/>
<path d="M149.373 127.209C149.275 127.393 149.125 127.543 148.942 127.641C148.759 127.739 148.551 127.78 148.344 127.759C148.138 127.738 147.942 127.656 147.782 127.524C147.622 127.391 147.506 127.214 147.447 127.015C147.388 126.816 147.39 126.604 147.452 126.405C147.515 126.207 147.634 126.032 147.797 125.903C147.959 125.773 148.156 125.695 148.363 125.677C148.57 125.66 148.777 125.705 148.959 125.806C149.197 125.94 149.375 126.161 149.452 126.423C149.529 126.686 149.501 126.968 149.373 127.209Z" fill="#E6F4FF"/>
<path d="M148.425 122.853C148.376 122.945 148.309 123.027 148.228 123.093C148.148 123.159 148.055 123.209 147.955 123.239C147.855 123.27 147.75 123.28 147.646 123.27C147.542 123.259 147.441 123.229 147.349 123.179C147.256 123.13 147.175 123.063 147.109 122.982C147.042 122.901 146.993 122.808 146.962 122.708C146.932 122.608 146.922 122.503 146.932 122.399C146.942 122.296 146.973 122.195 147.022 122.102C147.122 121.916 147.291 121.777 147.493 121.716C147.695 121.655 147.913 121.677 148.099 121.776C148.285 121.876 148.424 122.045 148.485 122.247C148.547 122.449 148.525 122.667 148.425 122.853Z" fill="#E6F4FF"/>
<path d="M134.591 123.723C134.531 123.834 134.439 123.925 134.327 123.984C134.215 124.043 134.088 124.067 133.962 124.054C133.836 124.04 133.717 123.99 133.62 123.909C133.523 123.828 133.453 123.719 133.417 123.598C133.382 123.477 133.383 123.347 133.421 123.227C133.459 123.106 133.532 122.999 133.631 122.92C133.729 122.841 133.849 122.793 133.975 122.783C134.101 122.772 134.228 122.799 134.338 122.86C134.486 122.941 134.595 123.078 134.642 123.239C134.69 123.401 134.671 123.575 134.591 123.723Z" fill="#E6F4FF"/>
<path d="M134.1 112.456C134.04 112.561 133.95 112.647 133.842 112.702C133.734 112.757 133.611 112.778 133.491 112.764C133.37 112.75 133.256 112.7 133.164 112.622C133.071 112.543 133.004 112.439 132.97 112.323C132.936 112.206 132.938 112.082 132.974 111.966C133.01 111.85 133.08 111.748 133.175 111.671C133.269 111.595 133.384 111.548 133.505 111.536C133.626 111.525 133.747 111.549 133.854 111.607C133.927 111.646 133.991 111.699 134.043 111.763C134.095 111.827 134.133 111.9 134.156 111.98C134.179 112.059 134.186 112.141 134.176 112.223C134.166 112.305 134.141 112.384 134.1 112.456Z" fill="#E6F4FF"/>
<path d="M150.762 123.674C150.709 123.771 150.628 123.852 150.53 123.904C150.432 123.956 150.32 123.978 150.21 123.966C150.099 123.955 149.994 123.911 149.909 123.84C149.823 123.769 149.761 123.674 149.729 123.567C149.698 123.461 149.698 123.347 149.731 123.241C149.764 123.135 149.828 123.041 149.915 122.971C150.002 122.901 150.107 122.859 150.218 122.849C150.328 122.839 150.44 122.862 150.537 122.916C150.602 122.95 150.659 122.998 150.706 123.055C150.753 123.111 150.787 123.177 150.808 123.248C150.829 123.318 150.836 123.392 150.828 123.465C150.82 123.538 150.797 123.609 150.762 123.674Z" fill="#E6F4FF"/>
<path d="M141.564 120.088C141.521 120.169 141.454 120.235 141.373 120.278C141.292 120.321 141.2 120.338 141.108 120.329C141.017 120.319 140.931 120.283 140.86 120.224C140.79 120.165 140.738 120.086 140.712 119.998C140.687 119.91 140.688 119.816 140.715 119.729C140.743 119.641 140.796 119.564 140.868 119.506C140.94 119.449 141.027 119.414 141.119 119.407C141.21 119.399 141.302 119.419 141.382 119.464C141.488 119.523 141.567 119.622 141.601 119.738C141.635 119.855 141.622 119.981 141.564 120.088Z" fill="#E6F4FF"/>
<path d="M139.445 124.542C139.542 124.365 139.477 124.143 139.3 124.047C139.123 123.95 138.901 124.016 138.805 124.192C138.708 124.369 138.773 124.591 138.95 124.687C139.127 124.784 139.349 124.719 139.445 124.542Z" fill="#E6F4FF"/>
<path d="M147.535 117.661C147.481 117.734 147.403 117.786 147.314 117.805C147.226 117.825 147.133 117.811 147.054 117.767C146.974 117.723 146.914 117.652 146.884 117.566C146.853 117.481 146.855 117.387 146.889 117.303C146.938 117.22 147.016 117.158 147.109 117.131C147.202 117.103 147.301 117.112 147.387 117.156C147.43 117.179 147.468 117.211 147.498 117.249C147.529 117.287 147.552 117.331 147.566 117.378C147.579 117.425 147.584 117.474 147.578 117.523C147.573 117.571 147.558 117.618 147.535 117.661Z" fill="#E6F4FF"/>
<path d="M151.919 113.578C151.902 113.611 151.878 113.641 151.848 113.664C151.819 113.688 151.786 113.705 151.75 113.716C151.714 113.726 151.676 113.73 151.639 113.725C151.602 113.721 151.566 113.709 151.533 113.691C151.5 113.673 151.471 113.649 151.447 113.62C151.424 113.591 151.406 113.557 151.396 113.521C151.385 113.485 151.382 113.448 151.387 113.411C151.391 113.373 151.403 113.337 151.421 113.305C151.458 113.239 151.519 113.191 151.591 113.17C151.663 113.149 151.741 113.157 151.807 113.193C151.871 113.231 151.918 113.292 151.939 113.363C151.96 113.435 151.953 113.512 151.919 113.578Z" fill="#E6F4FF"/>
<path d="M153.385 118.861C153.364 118.902 153.335 118.939 153.299 118.968C153.263 118.998 153.221 119.02 153.177 119.033C153.132 119.046 153.085 119.05 153.039 119.045C152.993 119.039 152.949 119.024 152.908 119.001C152.868 118.979 152.832 118.949 152.803 118.913C152.774 118.877 152.752 118.836 152.739 118.792C152.726 118.747 152.722 118.701 152.727 118.655C152.732 118.609 152.746 118.565 152.768 118.524C152.79 118.484 152.82 118.448 152.856 118.419C152.892 118.39 152.933 118.368 152.977 118.355C153.022 118.342 153.068 118.338 153.114 118.343C153.16 118.348 153.205 118.362 153.245 118.384C153.326 118.43 153.385 118.505 153.412 118.594C153.438 118.683 153.428 118.779 153.385 118.861Z" fill="#E6F4FF"/>
<path d="M140.267 129.055C140.244 129.095 140.215 129.131 140.179 129.16C140.143 129.189 140.101 129.211 140.057 129.224C140.013 129.237 139.966 129.241 139.92 129.236C139.874 129.231 139.83 129.217 139.789 129.195C139.709 129.149 139.649 129.074 139.623 128.985C139.597 128.896 139.606 128.8 139.649 128.718C139.671 128.676 139.701 128.64 139.738 128.61C139.774 128.58 139.816 128.558 139.861 128.545C139.907 128.532 139.954 128.528 140.001 128.534C140.047 128.539 140.092 128.554 140.133 128.578C140.174 128.599 140.21 128.629 140.239 128.665C140.268 128.702 140.289 128.743 140.301 128.788C140.314 128.832 140.317 128.879 140.311 128.925C140.305 128.971 140.29 129.015 140.267 129.055Z" fill="#E6F4FF"/>
<path d="M154.88 131.131C154.835 131.213 154.76 131.273 154.67 131.3C154.581 131.326 154.484 131.316 154.403 131.271C154.321 131.226 154.26 131.151 154.234 131.062C154.207 130.972 154.218 130.876 154.262 130.794C154.284 130.753 154.313 130.716 154.349 130.687C154.385 130.657 154.426 130.635 154.471 130.622C154.515 130.609 154.562 130.605 154.608 130.61C154.655 130.616 154.699 130.631 154.739 130.654C154.78 130.676 154.816 130.706 154.845 130.742C154.874 130.777 154.896 130.819 154.909 130.863C154.922 130.907 154.926 130.954 154.921 131C154.916 131.046 154.902 131.09 154.88 131.131Z" fill="#E6F4FF"/>
<path d="M47.81 60.7311C50.048 60.3663 48.9465 56.2763 51.7317 56.4166C54.5168 56.557 51.9562 66.2733 54.3835 66.4557C56.8108 66.6381 55.085 56.0869 56.4881 56.136C57.8912 56.1851 57.793 61.5379 59.4206 60.8294C61.0482 60.1208 58.8173 56.4938 59.154 55.8765C59.4907 55.2591 60.5571 54.8031 61.897 57.1392C63.237 59.4754 65.4468 60.9135 66.4641 60.0927C67.4813 59.2719 66.892 56.2623 62.6547 54.6979C60.8938 54.0454 59.7784 52.2074 61.2516 52.3407C64.8084 52.6423 66.8219 50.7973 65.0891 49.0855C63.23 47.2545 59.3153 47.7736 61.9882 46.7844C62.5988 46.5665 63.177 46.2668 63.707 45.8935C65.1101 44.8903 65.5591 43.6415 64.5208 43.1294C62.6968 42.2174 58.8032 44.757 58.3332 43.9011C57.8632 43.0452 62.2618 41.4597 62.9844 39.5656C63.707 37.6714 60.7184 36.0999 58.4665 39.5656C56.8038 42.1543 54.4537 41.7544 55.5481 39.1657C58.0175 33.3639 55.2464 30.8383 52.6437 31.0909C47.5645 31.582 49.7042 39.5094 46.5823 39.6708C44.4216 39.762 43.5306 32.8167 40.7315 33.0482C37.5464 33.3078 40.1913 38.9342 42.1345 41.5229C44.0778 44.1116 40.4649 42.9189 38.3181 42.4279C33.26 41.3475 32.4953 42.6103 32.3691 43.6836C32.2428 44.757 34.5228 46.3144 38.8934 45.7181C43.264 45.1218 42.0714 47.8227 41.44 48.1805C39.2091 49.4784 36.0101 50.236 36.8659 52.0951C37.7218 53.9542 41.9872 51.0709 43.1167 51.6882C44.4707 52.3898 41.5523 53.7157 40.6753 55.3152C40.051 56.4658 41.4961 58.0583 43.3763 56.101C45.3967 53.9963 47.3681 55.231 46.6876 57.4549C46.0071 59.6788 46.2877 60.9767 47.81 60.7311Z" fill="#D4EEFF"/>
<path d="M65.51 59.412C65.3206 59.3757 65.1383 59.3094 64.9698 59.2156C64.7823 59.1097 64.606 58.9852 64.4437 58.8438C62.6197 57.3004 60.0941 53.0771 58.3473 55.4553C57.8842 56.0867 58.7962 58.0791 59.0979 59.1524C59.2031 59.5383 59.2382 59.8049 59.0979 59.854C58.9576 59.9031 58.8383 59.6505 58.705 59.2577C58.3262 58.1492 57.8983 55.8692 57.0915 55.4553C56.9004 55.3548 56.6897 55.2974 56.4741 55.2869C56.324 55.2805 56.1742 55.3052 56.0342 55.3595C55.8941 55.4139 55.7668 55.4966 55.6603 55.6026C55.1973 56.0376 55.05 56.8724 54.9588 58.3527C54.9588 58.8859 54.9588 59.5032 54.9588 60.2188C54.9588 60.303 54.9588 60.3872 54.9588 60.4854C54.9588 62.0919 54.8886 64.9191 54.4186 65.5505C54.0678 65.0454 54.0608 62.8847 54.0538 61.692C54.0538 61.1589 54.0538 60.6397 54.0538 60.1346C54.0492 59.3384 53.9694 58.5445 53.8153 57.7634C53.7681 57.3656 53.6344 56.983 53.4235 56.6424C53.2126 56.3018 52.9297 56.0116 52.5946 55.792C52.5244 55.75 52.4473 55.7219 52.3771 55.6868C52.1884 55.6156 51.9894 55.5753 51.7878 55.5675C51.2494 55.5117 50.7071 55.6283 50.2393 55.9007C49.7715 56.173 49.4023 56.587 49.1851 57.0829C48.9692 57.4891 48.7907 57.9141 48.6519 58.3527C48.3222 59.3629 48.1258 59.8119 47.6557 59.8891C47.5389 59.9232 47.4148 59.9232 47.2979 59.8891C47.2979 59.8891 46.9822 59.4822 47.5154 57.7283C47.5154 57.6862 47.5154 57.6511 47.5154 57.6161C47.6525 57.1328 47.6883 56.6265 47.6207 56.1288C47.5698 55.813 47.4629 55.5089 47.305 55.2308C47.1023 54.8994 46.817 54.6262 46.4771 54.4381L46.2807 54.3469C45.4108 53.9821 44.0708 54.1154 42.7169 55.5255C42.1556 56.1007 41.6856 56.227 41.4892 56.1428C41.4577 56.1235 41.4305 56.0981 41.4091 56.068C41.3877 56.038 41.3726 56.0039 41.3648 55.9678C41.3569 55.9318 41.3564 55.8945 41.3633 55.8583C41.3702 55.8221 41.3844 55.7876 41.405 55.757C41.6883 55.3109 42.0412 54.913 42.4503 54.5784L42.8291 54.2416C43.6639 53.5401 44.3865 52.8385 44.2953 52.0318C44.2642 51.7979 44.1746 51.5756 44.0348 51.3856C43.895 51.1955 43.7096 51.0438 43.4956 50.9444C42.7028 50.5164 41.6645 50.8672 40.3456 51.3162C39.5178 51.6038 38.1217 52.0809 37.6938 51.8424C37.6938 51.8424 37.6517 51.8424 37.6166 51.7511C37.5325 51.5687 37.4623 51.4144 37.8762 51.0496C38.5315 50.5774 39.2374 50.1797 39.9808 49.864C40.5912 49.5764 41.2296 49.2747 41.8119 48.938C42.0983 48.7634 42.3388 48.5228 42.5134 48.2364C42.7593 47.8329 42.888 47.369 42.8852 46.8965C42.8855 46.7644 42.8714 46.6326 42.8431 46.5036C42.7825 46.2256 42.6611 45.9644 42.4877 45.7388C42.3142 45.5132 42.093 45.3288 41.8399 45.1987C40.8551 44.7796 39.7649 44.6743 38.7181 44.8971C35.8698 45.2899 34.3474 44.6656 33.8073 44.3849C33.5343 44.2671 33.3059 44.0657 33.1548 43.8097C33.1564 43.6996 33.184 43.5914 33.2351 43.4939C33.2863 43.3964 33.3597 43.3123 33.4495 43.2484C33.8143 42.9819 34.9017 42.6451 38.0586 43.3186C38.3673 43.3887 38.704 43.4659 39.0548 43.5571C43.8674 44.7217 44.2252 42.9959 42.773 41.0666C39.9668 37.2853 39.2162 33.0059 41.2015 34.0863C41.9381 34.4932 42.6046 35.8822 43.236 37.1099C43.9375 38.513 44.576 39.8319 45.5511 40.3651C45.7745 40.5028 46.0234 40.5941 46.2829 40.6333C46.5425 40.6726 46.8072 40.659 47.0614 40.5935C47.3155 40.528 47.5539 40.4119 47.7621 40.2521C47.9703 40.0923 48.1441 39.8921 48.2731 39.6635C48.391 39.4971 48.4987 39.3238 48.5958 39.1444C48.8501 38.6662 49.0546 38.1631 49.2061 37.6431C49.3114 37.2923 49.4166 36.9416 49.5008 36.4926C51.0372 29.3859 57.793 31.5818 54.6922 38.8848C53.7942 40.9895 54.6922 42.2242 56.0953 42.0418C56.4223 41.9957 56.7384 41.8912 57.0284 41.7331C57.5168 41.4926 57.9586 41.1671 58.3332 40.772C58.6343 40.4604 58.9067 40.1223 59.147 39.7618C60.7465 37.3695 62.4513 38.5621 62.1847 39.2566C61.9181 39.9512 60.5571 40.8702 59.575 41.5086C56.2707 43.6694 56.9792 46.2581 60.8167 44.4481C61.3307 44.1976 61.866 43.9933 62.4162 43.8377C62.7432 43.7376 63.0846 43.6926 63.4264 43.7044C64.4437 43.7746 64.1841 44.7497 63.1388 45.4162C63.0119 45.4958 62.8808 45.5684 62.7459 45.6337C62.3979 45.7946 62.0298 45.9079 61.6515 45.9704C60.95 46.0897 60.2484 46.4966 60.1853 47.2192C60.1152 48.0891 61.392 48.2785 62.5144 48.6644C63.8754 49.1414 65.1172 49.7728 64.7734 50.5305C64.57 50.9935 63.4264 51.6529 61.2657 51.4705C60.066 51.3723 59.7223 52.116 59.6732 52.3545C59.1611 54.859 65.2855 55.5816 66.1133 58.8017C66.2817 59.3068 65.952 59.4822 65.51 59.412Z" fill="#B9DFFC"/>
<path d="M53.3523 35.2718C53.2906 35.3853 53.1966 35.4778 53.0822 35.5378C52.9679 35.5978 52.8383 35.6225 52.7099 35.6088C52.5815 35.5951 52.4601 35.5436 52.361 35.4608C52.2618 35.3781 52.1895 35.2678 52.1531 35.1439C52.1168 35.02 52.118 34.8881 52.1566 34.7649C52.1952 34.6417 52.2695 34.5327 52.3701 34.4517C52.4707 34.3708 52.5931 34.3215 52.7217 34.3101C52.8504 34.2988 52.9795 34.3258 53.0927 34.3879C53.2428 34.4722 53.3539 34.6119 53.4024 34.777C53.4509 34.9422 53.4329 35.1198 53.3523 35.2718Z" fill="#E6F4FF"/>
<path d="M54.4537 54.6483C54.392 54.7617 54.298 54.8543 54.1837 54.9143C54.0693 54.9743 53.9398 54.999 53.8114 54.9853C53.683 54.9716 53.5615 54.9201 53.4624 54.8373C53.3633 54.7546 53.291 54.6442 53.2546 54.5203C53.2182 54.3965 53.2194 54.2646 53.258 54.1413C53.2967 54.0181 53.371 53.9091 53.4716 53.8282C53.5722 53.7473 53.6945 53.698 53.8232 53.6866C53.9518 53.6752 54.0809 53.7023 54.1941 53.7644C54.3456 53.8474 54.4579 53.987 54.5066 54.1527C54.5552 54.3184 54.5362 54.4966 54.4537 54.6483Z" fill="#E6F4FF"/>
<path d="M45.8247 45.6478C45.7419 45.7957 45.6042 45.9051 45.4415 45.9523C45.2787 45.9996 45.1039 45.9809 44.9547 45.9004C44.8445 45.8392 44.7548 45.7468 44.6969 45.6348C44.6391 45.5227 44.6158 45.3961 44.6298 45.2708C44.6439 45.1455 44.6948 45.0272 44.776 44.9307C44.8572 44.8343 44.9652 44.7641 45.0863 44.7289C45.2074 44.6938 45.3361 44.6953 45.4564 44.7332C45.5766 44.7711 45.6829 44.8438 45.7619 44.9421C45.8409 45.0404 45.889 45.1599 45.9002 45.2855C45.9113 45.4111 45.8851 45.5371 45.8247 45.6478Z" fill="#E6F4FF"/>
<path d="M51.7036 40.9542C51.606 41.1352 51.4567 41.2831 51.2749 41.3792C51.093 41.4753 50.8867 41.5152 50.6821 41.4938C50.4775 41.4725 50.2839 41.3908 50.1258 41.2593C49.9677 41.1277 49.8522 40.9522 49.794 40.7549C49.7358 40.5576 49.7375 40.3475 49.7989 40.1512C49.8603 39.9549 49.9786 39.7813 50.1389 39.6523C50.2991 39.5233 50.494 39.4449 50.6989 39.4268C50.9038 39.4088 51.1094 39.4521 51.2897 39.5511C51.5285 39.6843 51.7056 39.9059 51.783 40.1682C51.8604 40.4305 51.8319 40.7126 51.7036 40.9542Z" fill="#E6F4FF"/>
<path d="M58.2771 53.2452C58.1794 53.4262 58.0302 53.5741 57.8483 53.6702C57.6665 53.7663 57.4601 53.8062 57.2556 53.7848C57.051 53.7635 56.8574 53.6819 56.6993 53.5503C56.5411 53.4188 56.4257 53.2432 56.3675 53.0459C56.3093 52.8487 56.311 52.6385 56.3724 52.4422C56.4338 52.2459 56.5521 52.0723 56.7123 51.9433C56.8726 51.8143 57.0675 51.7359 57.2724 51.7179C57.4773 51.6998 57.6829 51.7431 57.8632 51.8421C58.1034 51.974 58.2816 52.1955 58.3592 52.4584C58.4367 52.7212 58.4072 53.004 58.2771 53.2452Z" fill="#E6F4FF"/>
<path d="M57.33 48.8962C57.2557 49.0326 57.1427 49.144 57.0052 49.2162C56.8676 49.2885 56.7118 49.3183 56.5573 49.302C56.4028 49.2857 56.2566 49.2239 56.1372 49.1245C56.0178 49.0251 55.9305 48.8926 55.8864 48.7436C55.8423 48.5947 55.8434 48.436 55.8894 48.2876C55.9355 48.1393 56.0245 48.0079 56.1452 47.9101C56.2659 47.8123 56.4129 47.7525 56.5676 47.7382C56.7223 47.7239 56.8777 47.7558 57.0143 47.8298C57.1051 47.8791 57.1853 47.9457 57.2503 48.026C57.3154 48.1062 57.3639 48.1985 57.3932 48.2975C57.4226 48.3966 57.4321 48.5004 57.4212 48.6032C57.4104 48.7059 57.3794 48.8054 57.33 48.8962Z" fill="#E6F4FF"/>
<path d="M43.4955 49.7584C43.4353 49.8697 43.3433 49.9605 43.2314 50.0193C43.1194 50.0782 42.9925 50.1025 42.8667 50.0892C42.7409 50.0758 42.622 50.0253 42.5249 49.9443C42.4278 49.8632 42.357 49.755 42.3215 49.6336C42.286 49.5123 42.2873 49.383 42.3253 49.2624C42.3634 49.1418 42.4364 49.0351 42.5351 48.9561C42.6338 48.877 42.7538 48.829 42.8798 48.8182C43.0059 48.8075 43.1323 48.8344 43.243 48.8955C43.3904 48.977 43.4996 49.1134 43.5469 49.275C43.5942 49.4366 43.5757 49.6104 43.4955 49.7584Z" fill="#E6F4FF"/>
<path d="M43.0255 38.4918C42.9664 38.5984 42.8771 38.6851 42.7689 38.7411C42.6606 38.797 42.5382 38.8196 42.4171 38.8061C42.2959 38.7926 42.1815 38.7435 42.0883 38.6651C41.995 38.5867 41.927 38.4824 41.8929 38.3654C41.8587 38.2484 41.86 38.1239 41.8965 38.0077C41.933 37.8914 42.0031 37.7885 42.098 37.712C42.1928 37.6355 42.3082 37.5888 42.4296 37.5777C42.5509 37.5667 42.6729 37.5918 42.78 37.6499C42.8516 37.6888 42.9149 37.7415 42.9661 37.805C43.0173 37.8684 43.0554 37.9414 43.0782 38.0197C43.101 38.098 43.1081 38.18 43.0991 38.261C43.09 38.342 43.065 38.4205 43.0255 38.4918Z" fill="#E6F4FF"/>
<path d="M59.6661 49.7098C59.6126 49.8052 59.532 49.8826 59.4346 49.9322C59.3372 49.9819 59.2273 50.0016 59.1187 49.989C59.0101 49.9763 58.9076 49.9318 58.8243 49.8611C58.7409 49.7903 58.6803 49.6965 58.6501 49.5914C58.62 49.4863 58.6216 49.3746 58.6547 49.2704C58.6879 49.1662 58.7511 49.0742 58.8365 49.0058C58.9218 48.9375 59.0255 48.8959 59.1344 48.8864C59.2434 48.8768 59.3527 48.8997 59.4486 48.9522C59.513 48.9873 59.5697 49.0349 59.6155 49.0921C59.6613 49.1494 59.6953 49.2151 59.7156 49.2856C59.7358 49.3561 59.7418 49.4298 59.7333 49.5027C59.7249 49.5755 59.702 49.6459 59.6661 49.7098Z" fill="#E6F4FF"/>
<path d="M50.4689 46.1323C50.4109 46.2399 50.3127 46.3201 50.1957 46.3556C50.0788 46.3911 49.9525 46.3789 49.8445 46.3217C49.7364 46.2623 49.656 46.1629 49.6206 46.0448C49.5851 45.9266 49.5975 45.7993 49.6551 45.6903C49.7137 45.5824 49.8128 45.5022 49.9305 45.4673C50.0483 45.4324 50.1751 45.4458 50.283 45.5044C50.3909 45.563 50.4711 45.6621 50.506 45.7798C50.5408 45.8976 50.5275 46.0243 50.4689 46.1323Z" fill="#E6F4FF"/>
<path d="M48.355 50.5781C48.4515 50.4012 48.3864 50.1796 48.2095 50.0831C48.0327 49.9866 47.8111 50.0517 47.7146 50.2286C47.6181 50.4055 47.6832 50.6271 47.8601 50.7236C48.0369 50.8201 48.2585 50.7549 48.355 50.5781Z" fill="#E6F4FF"/>
<path d="M56.439 43.6978C56.4163 43.7404 56.3852 43.7781 56.3478 43.8086C56.3103 43.8392 56.2671 43.8619 56.2208 43.8756C56.1745 43.8893 56.1258 43.8937 56.0778 43.8885C56.0298 43.8832 55.9832 43.8685 55.9409 43.8451C55.8575 43.7965 55.7959 43.7179 55.7685 43.6253C55.7411 43.5327 55.7501 43.4332 55.7936 43.347C55.8171 43.3042 55.8488 43.2664 55.8869 43.2358C55.925 43.2052 55.9687 43.1824 56.0156 43.1687C56.0625 43.155 56.1117 43.1507 56.1603 43.156C56.2088 43.1614 56.2559 43.1762 56.2987 43.1997C56.3408 43.2231 56.3777 43.2546 56.4076 43.2923C56.4374 43.33 56.4594 43.3733 56.4725 43.4196C56.4855 43.4659 56.4893 43.5143 56.4835 43.562C56.4778 43.6098 56.4627 43.6559 56.439 43.6978Z" fill="#E6F4FF"/>
<path d="M60.8237 39.6147C60.788 39.6813 60.7275 39.7311 60.6552 39.7534C60.583 39.7757 60.505 39.7687 60.4379 39.7339C60.3836 39.692 60.3462 39.6321 60.3322 39.565C60.3182 39.4979 60.3287 39.428 60.3617 39.3679C60.3947 39.3078 60.4481 39.2615 60.5122 39.2373C60.5763 39.2131 60.647 39.2126 60.7115 39.2358C60.7764 39.2714 60.8245 39.3312 60.8456 39.4022C60.8666 39.4731 60.8587 39.5495 60.8237 39.6147Z" fill="#E6F4FF"/>
<path d="M62.2899 44.9043C62.2425 44.9755 62.1707 45.027 62.088 45.0489C62.0053 45.0709 61.9174 45.0619 61.8409 45.0236C61.7603 44.9778 61.7005 44.9024 61.6744 44.8134C61.6482 44.7244 61.6576 44.6287 61.7006 44.5465C61.7219 44.5052 61.7514 44.4687 61.7872 44.4391C61.8231 44.4095 61.8645 44.3874 61.9091 44.3743C61.9537 44.3612 62.0005 44.3573 62.0467 44.3628C62.0928 44.3682 62.1374 44.383 62.1777 44.4062C62.2188 44.4306 62.2546 44.4631 62.2827 44.5017C62.3109 44.5404 62.3308 44.5844 62.3413 44.631C62.3518 44.6777 62.3527 44.726 62.3439 44.773C62.335 44.82 62.3167 44.8647 62.2899 44.9043Z" fill="#E6F4FF"/>
<path d="M49.2131 55.0908C49.1673 55.1715 49.0919 55.2312 49.0029 55.2574C48.9139 55.2835 48.8182 55.2741 48.7361 55.2311C48.6947 55.2098 48.6582 55.1803 48.6286 55.1445C48.599 55.1086 48.577 55.0672 48.5639 55.0226C48.5507 54.978 48.5468 54.9312 48.5523 54.885C48.5578 54.8389 48.5726 54.7943 48.5957 54.754C48.6404 54.6722 48.7157 54.6114 48.8052 54.5851C48.8947 54.5588 48.9909 54.5691 49.0728 54.6137C49.1547 54.6584 49.2154 54.7337 49.2417 54.8232C49.2681 54.9127 49.2578 55.0089 49.2131 55.0908Z" fill="#E6F4FF"/>
<path d="M63.7842 57.1674C63.7509 57.2282 63.7003 57.2777 63.6389 57.3098C63.5774 57.3418 63.5078 57.3549 63.4389 57.3475C63.37 57.34 63.3049 57.3123 63.2517 57.2678C63.1985 57.2234 63.1597 57.1642 63.1402 57.0977C63.1206 57.0312 63.1212 56.9604 63.1418 56.8943C63.1625 56.8281 63.2022 56.7695 63.2561 56.726C63.31 56.6824 63.3756 56.6557 63.4446 56.6494C63.5137 56.6431 63.583 56.6573 63.6439 56.6904C63.7246 56.7362 63.7843 56.8115 63.8105 56.9005C63.8367 56.9896 63.8272 57.0852 63.7842 57.1674Z" fill="#E6F4FF"/>
<path d="M180.802 168.355C220.213 168.355 252.163 136.405 252.163 96.9939C252.163 57.5822 220.213 25.6328 180.802 25.6328C141.39 25.6328 109.441 57.5822 109.441 96.9939C109.441 136.405 141.39 168.355 180.802 168.355Z" stroke="#F13454" stroke-width="7" stroke-miterlimit="10"/>
<path d="M180.802 0.826172V38.2606" stroke="#F13454" stroke-width="7" stroke-miterlimit="10"/>
<path d="M180.802 151.392V188.826" stroke="#F13454" stroke-width="7" stroke-miterlimit="10"/>
<path d="M88.9696 96.9941H126.397" stroke="#F13454" stroke-width="7" stroke-miterlimit="10"/>
<path d="M235.199 96.9941H272.634" stroke="#F13454" stroke-width="7" stroke-miterlimit="10"/>
<path d="M230.141 106.058C229.664 106.058 229.257 106.76 229.047 107.7C228.275 107.791 227.511 107.847 226.739 107.882C226.584 107.377 226.339 107.047 226.072 107.047C225.806 107.047 225.539 107.398 225.371 107.917C224.866 107.917 224.368 107.917 223.862 107.875C223.695 105.046 222.955 102.28 221.688 99.7443C222.109 99.4706 222.537 99.197 222.965 98.9445C223.364 99.3233 223.75 99.4987 223.996 99.3584C224.241 99.2181 224.276 98.8182 224.157 98.3061C224.859 97.9483 225.56 97.6045 226.262 97.3029C226.928 98.0465 227.616 98.4183 228.03 98.1798C228.626 97.8361 228.408 96.3488 227.553 94.8615C226.697 93.3742 225.511 92.4412 224.915 92.7569C224.501 92.9954 224.487 93.7741 224.789 94.7282C224.166 95.1959 223.528 95.6309 222.873 96.0331C222.494 95.6753 222.116 95.5139 221.884 95.6472C221.653 95.7805 221.597 96.2085 221.723 96.7416C221.288 96.9942 220.846 97.2257 220.397 97.4432C218.832 95.0799 216.809 93.0545 214.448 91.4871C214.679 91.0451 214.904 90.5961 215.149 90.1612C215.682 90.2874 216.103 90.2524 216.244 90.0068C216.384 89.7613 216.244 89.3965 215.865 89.0106C216.279 88.3582 216.707 87.7198 217.17 87.1024C218.117 87.4041 218.903 87.383 219.141 86.9762C219.485 86.3798 218.552 85.2012 217.036 84.3383C215.521 83.4754 214.055 83.265 213.711 83.8613C213.473 84.2682 213.851 84.9557 214.588 85.6292C214.279 86.3307 213.943 87.0323 213.585 87.7338C213.073 87.6216 212.673 87.6637 212.533 87.9022C212.392 88.1407 212.533 88.5336 212.946 88.9264C212.694 89.3614 212.427 89.7823 212.154 90.2033C209.618 88.9382 206.852 88.1985 204.023 88.0285C204.023 87.5234 203.974 87.0253 203.974 86.5201C204.5 86.3658 204.844 86.1203 204.844 85.8186C204.844 85.5169 204.514 85.3065 204.016 85.1171C204.051 84.3454 204.107 83.5737 204.191 82.802C205.166 82.5915 205.833 82.1846 205.833 81.7146C205.833 81.013 204.43 80.4658 202.718 80.4658C201.006 80.4658 199.603 81.0271 199.603 81.7146C199.603 82.1846 200.27 82.5915 201.245 82.802C201.336 83.5737 201.385 84.3454 201.42 85.1171C200.922 85.2714 200.592 85.5099 200.592 85.8186C200.592 86.1273 200.936 86.3448 201.462 86.5201C201.462 87.0253 201.462 87.5304 201.413 88.0355C198.584 88.2055 195.818 88.9453 193.282 90.2103C193.016 89.7893 192.742 89.3614 192.489 88.9264C192.868 88.5336 193.044 88.1407 192.903 87.9022C192.763 87.6637 192.363 87.6216 191.851 87.7338C191.493 87.0323 191.15 86.3307 190.848 85.6292C191.584 84.9276 191.963 84.2682 191.725 83.8613C191.381 83.265 189.894 83.4754 188.399 84.3383C186.905 85.2012 186.014 86.4149 186.365 86.9972C186.596 87.4041 187.382 87.4251 188.329 87.1235C188.792 87.7408 189.227 88.3792 189.634 89.0317C189.283 89.4175 189.115 89.7893 189.255 90.0279C189.396 90.2664 189.817 90.3085 190.35 90.1822C190.602 90.6172 190.834 91.0661 191.051 91.5081C188.695 93.0814 186.673 95.1057 185.102 97.4642C184.66 97.2327 184.211 97.0012 183.776 96.7627C183.903 96.2365 183.86 95.8086 183.615 95.6683C183.369 95.528 183.012 95.6683 182.626 96.0541C181.973 95.6402 181.335 95.2053 180.711 94.7422C181.019 93.7952 180.998 93.0164 180.584 92.7779C179.988 92.4342 178.809 93.3602 177.946 94.8826C177.084 96.4049 176.873 97.8571 177.469 98.2009C177.883 98.4394 178.571 98.0676 179.237 97.3239C179.939 97.6326 180.64 97.9693 181.342 98.3271C181.223 98.8393 181.272 99.2462 181.503 99.3794C181.735 99.5127 182.135 99.3794 182.535 98.9655C182.969 99.2181 183.39 99.4917 183.811 99.7653C182.544 102.301 181.805 105.067 181.637 107.896C181.131 107.896 180.633 107.938 180.128 107.945C179.974 107.419 179.728 107.068 179.427 107.068C179.125 107.068 178.908 107.398 178.725 107.903C177.96 107.903 177.189 107.812 176.417 107.721C176.207 106.753 175.8 106.079 175.323 106.079C174.621 106.079 174.081 107.482 174.081 109.201C174.081 110.92 174.635 112.316 175.323 112.316C175.8 112.316 176.207 111.614 176.417 110.674C177.189 110.583 177.96 110.527 178.725 110.492C178.879 110.997 179.125 111.327 179.427 111.327C179.728 111.327 179.953 110.976 180.128 110.45C180.633 110.45 181.131 110.45 181.637 110.499C181.806 113.33 182.545 116.098 183.811 118.637C183.39 118.903 182.969 119.177 182.535 119.43C182.135 119.051 181.749 118.875 181.503 119.016C181.258 119.156 181.223 119.556 181.342 120.068C180.64 120.426 179.939 120.77 179.237 121.071C178.571 120.328 177.883 119.956 177.469 120.194C176.873 120.538 177.091 122.025 177.946 123.513C178.802 125 179.995 125.933 180.584 125.617C180.998 125.379 181.019 124.6 180.711 123.653C181.335 123.19 181.973 122.755 182.626 122.341C183.012 122.699 183.383 122.86 183.615 122.727C183.846 122.594 183.903 122.159 183.776 121.632C184.211 121.38 184.653 121.148 185.102 120.931C186.669 123.293 188.691 125.318 191.051 126.887C190.827 127.329 190.595 127.778 190.35 128.213C189.817 128.087 189.396 128.122 189.255 128.367C189.115 128.613 189.255 128.978 189.641 129.363C189.227 130.016 188.792 130.654 188.329 131.272C187.382 130.97 186.596 130.984 186.365 131.398C186.014 131.994 186.947 133.173 188.435 134.036C189.922 134.899 191.416 135.109 191.76 134.513C191.998 134.106 191.62 133.418 190.883 132.745C191.192 132.043 191.528 131.342 191.886 130.64C192.398 130.752 192.798 130.71 192.938 130.472C193.079 130.233 192.903 129.84 192.525 129.448C192.777 129.013 193.044 128.592 193.317 128.171C195.853 129.436 198.619 130.176 201.448 130.346C201.448 130.844 201.497 131.349 201.497 131.854C200.971 132.008 200.627 132.254 200.627 132.555C200.627 132.857 200.957 133.068 201.455 133.222C201.42 133.994 201.371 134.765 201.28 135.53C200.305 135.747 199.638 136.154 199.638 136.624C199.638 137.326 201.041 137.873 202.753 137.873C204.465 137.873 205.875 137.312 205.868 136.624C205.868 136.154 205.201 135.747 204.226 135.537C204.142 134.765 204.086 133.994 204.051 133.222C204.549 133.068 204.879 132.829 204.879 132.555C204.879 132.282 204.535 132.029 204.009 131.854C204.009 131.349 204.009 130.851 204.058 130.346C206.887 130.173 209.653 129.431 212.189 128.164C212.462 128.592 212.729 129.013 212.982 129.448C212.603 129.84 212.427 130.226 212.568 130.472C212.708 130.717 213.108 130.752 213.62 130.64C213.978 131.342 214.321 132.043 214.623 132.745C213.922 133.446 213.508 134.106 213.746 134.513C214.09 135.109 215.577 134.899 217.072 134.036C218.566 133.173 219.492 131.994 219.176 131.398C218.938 130.984 218.152 130.97 217.205 131.272C216.742 130.654 216.314 130.016 215.9 129.363C216.251 128.978 216.419 128.606 216.279 128.367C216.139 128.129 215.718 128.08 215.184 128.213C214.932 127.778 214.7 127.329 214.483 126.88C216.845 125.313 218.87 123.291 220.439 120.931C220.888 121.162 221.33 121.394 221.765 121.632C221.639 122.159 221.681 122.587 221.926 122.727C222.172 122.867 222.53 122.727 222.915 122.341C223.57 122.753 224.209 123.188 224.831 123.646C224.529 124.6 224.543 125.379 224.957 125.617C225.553 125.961 226.732 125.035 227.595 123.513C228.458 121.99 228.668 120.538 228.072 120.187C227.658 119.956 226.97 120.328 226.304 121.071C225.602 120.763 224.901 120.426 224.199 120.068C224.318 119.556 224.276 119.149 224.038 119.016C223.799 118.882 223.406 119.051 223.007 119.43C222.572 119.177 222.151 118.903 221.723 118.63C222.991 116.08 223.731 113.3 223.898 110.457C224.396 110.457 224.901 110.408 225.406 110.408C225.56 110.934 225.806 111.285 226.107 111.285C226.409 111.285 226.627 110.955 226.809 110.45C227.581 110.485 228.345 110.541 229.117 110.632C229.328 111.6 229.734 112.274 230.211 112.274C230.913 112.274 231.453 110.871 231.46 109.152C231.467 107.433 230.829 106.058 230.141 106.058Z" fill="#B9DFFC"/>
<path d="M188.61 102.466C188.61 102.811 188.507 103.149 188.316 103.436C188.124 103.723 187.851 103.947 187.532 104.079C187.212 104.212 186.861 104.246 186.522 104.179C186.183 104.111 185.872 103.945 185.628 103.701C185.384 103.457 185.217 103.145 185.15 102.806C185.082 102.468 185.117 102.116 185.249 101.797C185.381 101.478 185.605 101.205 185.893 101.013C186.18 100.821 186.518 100.719 186.863 100.719C187.092 100.719 187.32 100.764 187.532 100.852C187.743 100.94 187.936 101.068 188.098 101.23C188.26 101.393 188.389 101.585 188.477 101.797C188.565 102.009 188.61 102.236 188.61 102.466Z" fill="#E6F4FF"/>
<path d="M199.722 124.34C199.724 124.733 199.608 125.118 199.391 125.446C199.173 125.773 198.863 126.029 198.5 126.18C198.137 126.331 197.737 126.371 197.351 126.295C196.966 126.218 196.611 126.029 196.333 125.751C196.055 125.473 195.866 125.119 195.789 124.733C195.713 124.347 195.753 123.947 195.904 123.584C196.055 123.221 196.311 122.911 196.638 122.693C196.966 122.476 197.351 122.36 197.744 122.362C198.268 122.364 198.77 122.573 199.141 122.943C199.511 123.314 199.721 123.816 199.722 124.34Z" fill="#E6F4FF"/>
<path d="M194.671 96.4042C194.673 96.7974 194.557 97.1822 194.34 97.5098C194.122 97.8374 193.812 98.0929 193.449 98.244C193.086 98.3952 192.686 98.4351 192.3 98.3587C191.915 98.2823 191.56 98.0931 191.282 97.815C191.004 97.5369 190.815 97.1825 190.738 96.7968C190.662 96.411 190.702 96.0112 190.853 95.6482C191.004 95.2851 191.26 94.9751 191.587 94.7575C191.915 94.5398 192.3 94.4244 192.693 94.4258C193.217 94.4276 193.719 94.6367 194.09 95.0073C194.46 95.3779 194.669 95.88 194.671 96.4042Z" fill="#E6F4FF"/>
<path d="M193.731 96.4042C193.733 96.6129 193.672 96.8174 193.557 96.9915C193.442 97.1656 193.277 97.3016 193.085 97.3821C192.892 97.4626 192.68 97.484 192.475 97.4436C192.271 97.4033 192.082 97.3029 191.935 97.1553C191.787 97.0077 191.687 96.8196 191.646 96.6148C191.606 96.41 191.627 96.1978 191.708 96.0053C191.789 95.8127 191.924 95.6484 192.099 95.5333C192.273 95.4182 192.477 95.3575 192.686 95.3589C192.963 95.3607 193.227 95.4715 193.423 95.6671C193.619 95.8627 193.729 96.1276 193.731 96.4042Z" fill="#E6F4FF"/>
<path d="M201.708 97.7651C203.273 97.7651 204.542 96.4962 204.542 94.9309C204.542 93.3656 203.273 92.0967 201.708 92.0967C200.142 92.0967 198.873 93.3656 198.873 94.9309C198.873 96.4962 200.142 97.7651 201.708 97.7651Z" fill="#E6F4FF"/>
<path d="M213.865 96.3275C213.867 96.6902 213.76 97.0452 213.56 97.3473C213.359 97.6495 213.073 97.8853 212.738 98.0248C212.404 98.1642 212.035 98.2011 211.679 98.1306C211.323 98.0602 210.996 97.8857 210.74 97.6292C210.483 97.3727 210.309 97.0458 210.238 96.6899C210.168 96.3341 210.205 95.9654 210.344 95.6305C210.484 95.2956 210.719 95.0098 211.022 94.8091C211.324 94.6084 211.679 94.502 212.041 94.5034C212.525 94.5053 212.988 94.698 213.329 95.0397C213.671 95.3814 213.864 95.8443 213.865 96.3275Z" fill="#E6F4FF"/>
<path d="M212.932 96.327C212.934 96.5052 212.882 96.6798 212.784 96.8285C212.686 96.9773 212.546 97.0935 212.381 97.1623C212.217 97.2311 212.036 97.2495 211.861 97.2151C211.686 97.1806 211.526 97.095 211.4 96.969C211.274 96.843 211.188 96.6823 211.153 96.5075C211.119 96.3326 211.137 96.1515 211.206 95.9871C211.275 95.8228 211.391 95.6826 211.54 95.5845C211.689 95.4863 211.863 95.4347 212.041 95.4361C212.278 95.4361 212.504 95.5299 212.671 95.697C212.839 95.8641 212.932 96.0907 212.932 96.327Z" fill="#E6F4FF"/>
<path d="M213.515 105.308C213.515 105.501 213.457 105.69 213.35 105.85C213.242 106.011 213.09 106.136 212.911 106.209C212.733 106.283 212.536 106.302 212.347 106.264C212.157 106.225 211.984 106.132 211.848 105.995C211.711 105.858 211.619 105.683 211.582 105.494C211.545 105.304 211.566 105.108 211.641 104.93C211.716 104.752 211.842 104.6 212.003 104.493C212.164 104.387 212.353 104.331 212.547 104.333C212.674 104.333 212.801 104.358 212.919 104.407C213.037 104.456 213.144 104.528 213.234 104.619C213.324 104.709 213.395 104.817 213.443 104.935C213.491 105.053 213.516 105.18 213.515 105.308Z" fill="#E6F4FF"/>
<path d="M200.227 104.332C200.229 104.955 200.045 105.565 199.7 106.085C199.354 106.604 198.862 107.008 198.286 107.248C197.71 107.487 197.076 107.55 196.465 107.429C195.853 107.307 195.291 107.007 194.85 106.566C194.409 106.125 194.109 105.563 193.988 104.952C193.866 104.34 193.929 103.706 194.169 103.13C194.408 102.554 194.813 102.062 195.332 101.717C195.851 101.371 196.461 101.188 197.085 101.189C197.918 101.191 198.716 101.523 199.305 102.112C199.894 102.701 200.226 103.499 200.227 104.332Z" fill="#E6F4FF"/>
<path d="M218.874 114.862C218.874 115.738 218.615 116.594 218.128 117.322C217.642 118.05 216.951 118.617 216.142 118.952C215.333 119.287 214.443 119.375 213.584 119.204C212.725 119.033 211.937 118.612 211.318 117.992C210.698 117.373 210.277 116.585 210.106 115.726C209.935 114.867 210.023 113.977 210.358 113.168C210.693 112.359 211.26 111.668 211.988 111.182C212.716 110.695 213.572 110.436 214.448 110.436C215.029 110.435 215.605 110.548 216.143 110.771C216.68 110.993 217.169 111.319 217.58 111.73C217.991 112.141 218.317 112.63 218.539 113.167C218.762 113.705 218.875 114.281 218.874 114.862Z" fill="#E6F4FF"/>
<path d="M206.443 117.851C206.219 118.454 205.11 118.602 203.96 118.174C202.809 117.746 202.073 116.911 202.297 116.307C202.521 115.704 203.63 115.564 204.773 115.992C205.917 116.42 206.668 117.283 206.443 117.851Z" fill="#E6F4FF"/>
<path d="M206.64 126.522C208.058 126.522 209.207 125.372 209.207 123.954C209.207 122.536 208.058 121.386 206.64 121.386C205.222 121.386 204.072 122.536 204.072 123.954C204.072 125.372 205.222 126.522 206.64 126.522Z" fill="#E6F4FF"/>
<path d="M205.356 105.651C205.356 105.951 205.267 106.244 205.1 106.493C204.934 106.742 204.697 106.936 204.42 107.051C204.143 107.166 203.839 107.196 203.545 107.137C203.251 107.079 202.981 106.935 202.769 106.723C202.557 106.511 202.413 106.241 202.354 105.947C202.296 105.653 202.326 105.348 202.44 105.071C202.555 104.794 202.749 104.558 202.999 104.391C203.248 104.225 203.541 104.136 203.84 104.136C204.242 104.136 204.628 104.295 204.912 104.58C205.196 104.864 205.356 105.249 205.356 105.651Z" fill="#E6F4FF"/>
<path d="M186.716 108.506C184.576 109.208 184.036 114.575 187.936 119.184C191.15 122.986 195.387 122.481 195.015 120.65C194.643 118.819 192.356 118.04 191.563 115.038C190.672 111.67 190.146 107.342 186.716 108.506Z" fill="#E6F4FF"/>
<path d="M318.29 139.157C331.855 139.157 342.851 128.107 342.851 114.476C342.851 100.846 331.855 89.7959 318.29 89.7959C304.726 89.7959 293.729 100.846 293.729 114.476C293.729 128.107 304.726 139.157 318.29 139.157Z" stroke="#F7C939" stroke-width="3" stroke-miterlimit="10"/>
<path d="M318.29 81.2163V95.3735" stroke="#F7C939" stroke-width="3" stroke-miterlimit="10"/>
<path d="M318.29 132.078V146.242" stroke="#F7C939" stroke-width="3" stroke-miterlimit="10"/>
<path d="M286.686 114.477H300.78" stroke="#F7C939" stroke-width="3" stroke-miterlimit="10"/>
<path d="M335.808 114.477H349.895" stroke="#F7C939" stroke-width="3" stroke-miterlimit="10"/>
<path d="M36.5853 68.7913C36.6344 68.686 36.6765 68.5738 36.7186 68.4686C36.7186 68.3774 36.7817 68.2862 36.8098 68.1879C36.8257 68.152 36.8374 68.1143 36.8449 68.0757C36.8449 68.0196 36.8449 67.9564 36.901 67.8933C36.9571 67.8302 36.901 67.8021 36.901 67.76L36.9431 67.5916C36.9431 67.5425 36.9431 67.4934 36.9431 67.4513C36.9431 67.4092 36.9431 67.3391 36.9431 67.29V67.1356V66.9743V66.8199C36.9431 66.7708 36.9431 66.7147 36.9431 66.6586C36.9465 66.64 36.9465 66.621 36.9431 66.6025C37.5191 66.5744 38.0965 66.5955 38.6689 66.6656V65.6764C38.0965 65.7465 37.5191 65.7676 36.9431 65.7396C36.8866 64.8471 36.6479 63.9756 36.2415 63.1789C36.7971 62.8536 37.3819 62.5812 37.9884 62.3651L37.5184 61.5513C37.0562 61.8962 36.5657 62.2012 36.0521 62.4634C35.6395 61.8498 35.1301 61.3073 34.5438 60.8568C34.4246 60.7656 34.3053 60.6744 34.179 60.5902C34.4411 60.0766 34.7462 59.5861 35.091 59.124L34.2772 58.654C34.0494 59.1857 33.7772 59.6973 33.4634 60.1833C32.6668 59.777 31.7953 59.5383 30.9028 59.4818C30.8779 58.9102 30.9013 58.3376 30.973 57.77H30.0118C30.0819 58.3424 30.103 58.9198 30.075 59.4958C29.9978 59.4958 29.9136 59.4958 29.8365 59.4958H29.7382H29.5208H29.4155L29.1981 59.5379H29.1068L28.8683 59.587H28.8052C28.603 59.6362 28.4039 59.6971 28.2089 59.7694L27.9353 59.8747H27.8932L27.7388 59.9378L27.5775 60.015H27.5143C27.2042 59.528 26.9344 59.0165 26.7076 58.4856L25.8868 58.9556C26.2338 59.4176 26.5413 59.9081 26.8058 60.4219L26.7006 60.492L26.6444 60.5341L26.455 60.6674C26.1633 60.8792 25.8889 61.1138 25.6342 61.3689V61.404L25.4799 61.5794L25.4378 61.6285L25.2975 61.7969L25.2484 61.86C25.2063 61.9161 25.1642 61.9793 25.1151 62.0354L25.073 62.0985C25.073 62.1477 25.0028 62.2038 24.9607 62.2529C24.4494 61.9907 23.9612 61.6856 23.5015 61.3409L23.0245 62.1547C23.5562 62.3825 24.0678 62.6547 24.5538 62.9685C24.4137 63.2527 24.2918 63.5456 24.189 63.8454C24.1329 63.9997 24.0908 64.1611 24.0487 64.3224V64.3645C24.0066 64.5189 23.9786 64.6732 23.9505 64.8276C23.9505 64.9819 23.9084 65.1433 23.8944 65.3046C23.8944 65.3046 23.8944 65.3607 23.8944 65.3958C23.8975 65.4214 23.8975 65.4473 23.8944 65.473C23.3184 65.501 22.741 65.4799 22.1686 65.4098V66.3569C22.741 66.2869 23.3184 66.2657 23.8944 66.2938C23.9551 67.1856 24.1936 68.0562 24.5959 68.8544C24.1097 69.1659 23.5981 69.4358 23.0666 69.6612L23.5436 70.482C24.0045 70.1334 24.4952 69.8259 25.0098 69.563C25.2533 69.9354 25.5355 70.2811 25.8517 70.5942V70.6363L26.0481 70.8187C26.2993 71.0459 26.5666 71.2546 26.8479 71.4431C26.5833 71.9546 26.2759 72.4428 25.9289 72.9023L26.7497 73.3794C26.9751 72.8478 27.2449 72.3362 27.5564 71.85C28.3546 72.2523 29.2253 72.4909 30.1171 72.5516C30.1451 73.1276 30.124 73.7049 30.0539 74.2773H30.973C30.9029 73.7049 30.8818 73.1276 30.9098 72.5516H31.0922L31.5412 72.4954H31.6324L32.0112 72.4183H32.1165C32.2568 72.4183 32.3971 72.3481 32.5374 72.299H32.5795L32.7268 72.2429H32.818L33.0425 72.1517H33.1056C33.2304 72.1027 33.3522 72.0465 33.4705 71.9833C33.7842 72.4693 34.0564 72.9809 34.2842 73.5127L35.098 73.0356C34.7533 72.5759 34.4482 72.0877 34.186 71.5764L34.2772 71.5133L34.4386 71.394L34.5298 71.3309L34.6841 71.2046L34.7683 71.1344L34.9226 71.0082L34.9998 70.931L35.1542 70.7907L35.2243 70.7205C35.2817 70.6655 35.3356 70.6069 35.3857 70.5451L35.4348 70.503L35.6312 70.2715L35.6943 70.1874L35.8206 70.033L35.9048 69.9138L35.989 69.7945L36.0521 69.7033C36.5659 69.9678 37.0564 70.2752 37.5184 70.6223L37.9884 69.9278C37.4568 69.7024 36.9452 69.4325 36.459 69.121C36.4615 69.1024 36.4615 69.0835 36.459 69.0649C36.5292 68.9737 36.5853 68.8755 36.5853 68.7913Z" fill="#D4EEFF"/>
<g style="mix-blend-mode:screen" opacity="0.3">
<path d="M32.0042 62.3305C32.0056 62.4338 31.9762 62.5351 31.9196 62.6216C31.8631 62.708 31.7821 62.7756 31.687 62.8158C31.5919 62.8559 31.4869 62.8668 31.3855 62.847C31.2842 62.8272 31.191 62.7776 31.118 62.7046C31.045 62.6316 30.9954 62.5384 30.9756 62.4371C30.9558 62.3357 30.9667 62.2308 31.0068 62.1356C31.047 62.0405 31.1146 61.9595 31.2011 61.903C31.2875 61.8465 31.3888 61.817 31.4921 61.8184C31.6279 61.8184 31.7582 61.8724 31.8542 61.9684C31.9503 62.0644 32.0042 62.1947 32.0042 62.3305Z" fill="#E3373F"/>
</g>
<path d="M35.8206 67.2489C35.822 67.3591 35.7905 67.4672 35.7302 67.5594C35.6698 67.6516 35.5833 67.7238 35.4818 67.7666C35.3802 67.8094 35.2682 67.8209 35.1601 67.7998C35.0519 67.7786 34.9525 67.7257 34.8746 67.6478C34.7966 67.5698 34.7437 67.4704 34.7226 67.3623C34.7014 67.2541 34.713 67.1421 34.7558 67.0406C34.7986 66.939 34.8707 66.8525 34.9629 66.7922C35.0551 66.7318 35.1632 66.7003 35.2734 66.7017C35.4186 66.7017 35.5578 66.7594 35.6604 66.862C35.763 66.9646 35.8206 67.1038 35.8206 67.2489Z" fill="#B9DFFC"/>
<path d="M27.0513 65.7047C27.0629 65.842 27.0458 65.9803 27.0012 66.1107C26.9565 66.2412 26.8853 66.3609 26.792 66.4624C26.6987 66.5639 26.5853 66.6449 26.4591 66.7003C26.3329 66.7558 26.1965 66.7844 26.0587 66.7844C25.9208 66.7844 25.7844 66.7558 25.6582 66.7003C25.532 66.6449 25.4186 66.5639 25.3253 66.4624C25.232 66.3609 25.1608 66.2412 25.1161 66.1107C25.0715 65.9803 25.0544 65.842 25.066 65.7047C25.0869 65.4558 25.2006 65.2239 25.3844 65.0548C25.5683 64.8858 25.8089 64.792 26.0587 64.792C26.3084 64.792 26.549 64.8858 26.7329 65.0548C26.9168 65.2239 27.0304 65.4558 27.0513 65.7047Z" fill="#B9DFFC"/>
<path d="M32.6637 64.3864C32.6637 64.5391 32.6184 64.6883 32.5336 64.8152C32.4488 64.9421 32.3283 65.041 32.1873 65.0994C32.0463 65.1578 31.8911 65.1731 31.7414 65.1433C31.5918 65.1135 31.4542 65.04 31.3463 64.9321C31.2384 64.8242 31.1649 64.6867 31.1351 64.537C31.1054 64.3873 31.1206 64.2321 31.179 64.0911C31.2375 63.9501 31.3364 63.8296 31.4633 63.7448C31.5902 63.66 31.7394 63.6147 31.892 63.6147C32.0967 63.6147 32.293 63.696 32.4377 63.8408C32.5824 63.9855 32.6637 64.1818 32.6637 64.3864Z" fill="#B9DFFC"/>
<path d="M33.695 70.1104C33.695 70.2183 33.6521 70.3218 33.5758 70.3981C33.4995 70.4744 33.396 70.5173 33.2881 70.5173C33.235 70.5173 33.1824 70.5067 33.1334 70.4862C33.0844 70.4657 33.04 70.4356 33.0028 70.3977C32.9656 70.3598 32.9363 70.3149 32.9166 70.2656C32.8969 70.2162 32.8873 70.1635 32.8882 70.1104C32.8872 70.0576 32.8969 70.0052 32.9167 69.9562C32.9364 69.9073 32.9659 69.8628 33.0032 69.8255C33.0405 69.7882 33.085 69.7588 33.1339 69.739C33.1829 69.7193 33.2353 69.7096 33.2881 69.7105C33.3412 69.7096 33.3939 69.7192 33.4432 69.7389C33.4926 69.7586 33.5375 69.7879 33.5754 69.8251C33.6132 69.8623 33.6433 69.9067 33.6639 69.9557C33.6844 70.0047 33.695 70.0573 33.695 70.1104Z" fill="#B9DFFC"/>
<g style="mix-blend-mode:screen" opacity="0.3">
<path d="M28.8122 62.6606C28.8136 62.8357 28.763 63.0073 28.6667 63.1536C28.5704 63.2999 28.4328 63.4143 28.2715 63.4823C28.1101 63.5502 27.9321 63.5688 27.7602 63.5354C27.5883 63.5021 27.4301 63.4185 27.3058 63.2952C27.1814 63.1718 27.0966 63.0143 27.0619 62.8427C27.0272 62.671 27.0443 62.4929 27.111 62.331C27.1777 62.1691 27.291 62.0306 27.4365 61.9332C27.582 61.8357 27.7532 61.7837 27.9283 61.7837C28.1615 61.7837 28.3853 61.8758 28.5509 62.0401C28.7164 62.2044 28.8104 62.4274 28.8122 62.6606Z" fill="#E3373F"/>
</g>
<path d="M30.061 61.4539C30.2586 61.4539 30.4188 61.2937 30.4188 61.0961C30.4188 60.8985 30.2586 60.7383 30.061 60.7383C29.8634 60.7383 29.7032 60.8985 29.7032 61.0961C29.7032 61.2937 29.8634 61.4539 30.061 61.4539Z" fill="#B9DFFC"/>
<path d="M35.1261 63.0183C35.1136 63.1108 35.0679 63.1956 34.9976 63.257C34.9273 63.3184 34.8371 63.3523 34.7438 63.3523C34.6504 63.3523 34.5603 63.3184 34.49 63.257C34.4197 63.1956 34.374 63.1108 34.3614 63.0183C34.354 62.9638 34.3584 62.9083 34.3742 62.8555C34.39 62.8028 34.417 62.7541 34.4532 62.7126C34.4894 62.6711 34.5341 62.6379 34.5842 62.6151C34.6343 62.5923 34.6887 62.5806 34.7438 62.5806C34.7988 62.5806 34.8533 62.5923 34.9034 62.6151C34.9535 62.6379 34.9982 62.6711 35.0344 62.7126C35.0706 62.7541 35.0975 62.8028 35.1134 62.8555C35.1292 62.9083 35.1335 62.9638 35.1261 63.0183Z" fill="#B9DFFC"/>
<g style="mix-blend-mode:screen" opacity="0.3">
<path d="M29.7663 69.7806C29.7622 69.9539 29.7072 70.1221 29.6082 70.2644C29.5092 70.4066 29.3705 70.5166 29.2095 70.5807C29.0485 70.6448 28.8722 70.6601 28.7025 70.6248C28.5328 70.5895 28.3772 70.5051 28.2552 70.382C28.1331 70.259 28.0499 70.1028 28.0159 69.9329C27.9819 69.7629 27.9986 69.5867 28.0639 69.4262C28.1293 69.2656 28.2404 69.1279 28.3834 69.03C28.5264 68.9321 28.6951 68.8784 28.8683 68.8756C28.9874 68.8737 29.1056 68.8958 29.2159 68.9407C29.3262 68.9856 29.4262 69.0523 29.5101 69.1368C29.594 69.2213 29.6599 69.3219 29.7039 69.4326C29.748 69.5432 29.7692 69.6616 29.7663 69.7806Z" fill="#E3373F"/>
</g>
<g style="mix-blend-mode:screen" opacity="0.3">
<path d="M36.1644 64.3858C36.1653 64.4407 36.1553 64.4953 36.1349 64.5463C36.1145 64.5974 36.0842 64.6438 36.0456 64.683C36.0071 64.7222 35.9612 64.7533 35.9105 64.7745C35.8598 64.7958 35.8054 64.8067 35.7505 64.8067C35.6388 64.8067 35.5318 64.7623 35.4528 64.6834C35.3739 64.6045 35.3295 64.4974 35.3295 64.3858C35.3295 64.2741 35.3739 64.1671 35.4528 64.0881C35.5318 64.0092 35.6388 63.9648 35.7505 63.9648C35.8054 63.9648 35.8598 63.9758 35.9105 63.997C35.9612 64.0182 36.0071 64.0494 36.0456 64.0885C36.0842 64.1277 36.1145 64.1742 36.1349 64.2252C36.1553 64.2763 36.1653 64.3308 36.1644 64.3858Z" fill="#E3373F"/>
</g>
<path d="M47.6697 90.9748C68.0845 90.9748 84.634 74.3405 84.634 53.821C84.634 33.3015 68.0845 16.6672 47.6697 16.6672C27.2548 16.6672 10.7053 33.3015 10.7053 53.821C10.7053 74.3405 27.2548 90.9748 47.6697 90.9748Z" stroke="#F7C939" stroke-width="4" stroke-miterlimit="10"/>
<path d="M47.6697 3.75122V25.0641" stroke="#F7C939" stroke-width="4" stroke-miterlimit="10"/>
<path d="M47.6697 80.311V101.624" stroke="#F7C939" stroke-width="4" stroke-miterlimit="10"/>
<path d="M0.105042 53.8203H21.3127" stroke="#F7C939" stroke-width="4" stroke-miterlimit="10"/>
<path d="M74.0338 53.8203H95.2414" stroke="#F7C939" stroke-width="4" stroke-miterlimit="10"/>
</svg>
