<svg width="570" height="607" viewBox="260 120 130 130" fill="none" xmlns="http://www.w3.org/2000/svg">
    <g opacity="0.4" filter="url(#filter0_dddddd)">
        <path d="M329.99 128L339.747 136.238L352.113 133.05L357.33 144.705L369.855 147.198L369.498 159.963L379.701 167.643L373.841 178.99L379.701 190.336L369.498 198.016L369.855 210.781L357.33 213.274L352.113 224.93L339.747 221.741L329.99 229.979L320.232 221.741L307.866 224.93L302.649 213.274L290.124 210.781L290.481 198.016L280.278 190.336L286.139 178.99L280.278 167.643L290.481 159.963L290.124 147.198L302.649 144.705L307.866 133.05L320.232 136.238L329.99 128Z" fill="#FFF615"/>
    </g>
    <g filter="url(#filter1_dddddd)">
        <path d="M326.909 127L336.667 135.238L349.033 132.05L354.25 143.705L366.774 146.198L366.418 158.963L376.62 166.643L370.76 177.99L376.62 189.336L366.418 197.016L366.774 209.781L354.25 212.274L349.033 223.93L336.667 220.741L326.909 228.979L317.151 220.741L304.786 223.93L299.568 212.274L287.044 209.781L287.401 197.016L277.198 189.336L283.058 177.99L277.198 166.643L287.401 158.963L287.044 146.198L299.568 143.705L304.786 132.05L317.151 135.238L326.909 127Z" fill="#FFF615"/>
    </g>
<!--    <path d="M311.006 182.597C311.006 183.331 310.812 184.011 310.426 184.637C310.052 185.251 309.492 185.757 308.746 186.157C308.012 186.544 307.139 186.757 306.126 186.797V188.417H304.846V186.777C303.432 186.657 302.292 186.237 301.426 185.517C300.559 184.784 300.099 183.791 300.046 182.537H303.686C303.766 183.337 304.152 183.851 304.846 184.077V180.917C303.806 180.651 302.972 180.391 302.346 180.137C301.732 179.884 301.192 179.477 300.726 178.917C300.259 178.357 300.026 177.591 300.026 176.617C300.026 175.404 300.472 174.431 301.366 173.697C302.272 172.964 303.432 172.551 304.846 172.457V170.837H306.126V172.457C307.526 172.564 308.632 172.971 309.446 173.677C310.259 174.384 310.712 175.364 310.806 176.617H307.146C307.066 175.897 306.726 175.431 306.126 175.217V178.317C307.232 178.624 308.086 178.897 308.686 179.137C309.286 179.377 309.819 179.777 310.286 180.337C310.766 180.884 311.006 181.637 311.006 182.597ZM303.646 176.457C303.646 176.791 303.746 177.071 303.946 177.297C304.159 177.524 304.459 177.724 304.846 177.897V175.117C304.472 175.184 304.179 175.331 303.966 175.557C303.752 175.771 303.646 176.071 303.646 176.457ZM306.126 184.137C306.526 184.071 306.839 183.911 307.066 183.657C307.306 183.404 307.426 183.091 307.426 182.717C307.426 182.371 307.312 182.091 307.086 181.877C306.872 181.651 306.552 181.457 306.126 181.297V184.137ZM313.33 176.197C313.383 174.771 313.85 173.671 314.73 172.897C315.61 172.124 316.803 171.737 318.31 171.737C319.31 171.737 320.163 171.911 320.87 172.257C321.59 172.604 322.13 173.077 322.49 173.677C322.863 174.277 323.05 174.951 323.05 175.697C323.05 176.577 322.83 177.297 322.39 177.857C321.95 178.404 321.436 178.777 320.85 178.977V179.057C321.61 179.311 322.21 179.731 322.65 180.317C323.09 180.904 323.31 181.657 323.31 182.577C323.31 183.404 323.116 184.137 322.73 184.777C322.356 185.404 321.803 185.897 321.07 186.257C320.35 186.617 319.49 186.797 318.49 186.797C316.89 186.797 315.61 186.404 314.65 185.617C313.703 184.831 313.203 183.644 313.15 182.057H316.47C316.483 182.644 316.65 183.111 316.97 183.457C317.29 183.791 317.756 183.957 318.37 183.957C318.89 183.957 319.29 183.811 319.57 183.517C319.863 183.211 320.01 182.811 320.01 182.317C320.01 181.677 319.803 181.217 319.39 180.937C318.99 180.644 318.343 180.497 317.45 180.497H316.81V177.717H317.45C318.13 177.717 318.676 177.604 319.09 177.377C319.516 177.137 319.73 176.717 319.73 176.117C319.73 175.637 319.596 175.264 319.33 174.997C319.063 174.731 318.696 174.597 318.23 174.597C317.723 174.597 317.343 174.751 317.09 175.057C316.85 175.364 316.71 175.744 316.67 176.197H313.33ZM327.259 186.837C326.659 186.837 326.166 186.664 325.779 186.317C325.406 185.957 325.219 185.517 325.219 184.997C325.219 184.464 325.406 184.017 325.779 183.657C326.166 183.297 326.659 183.117 327.259 183.117C327.846 183.117 328.326 183.297 328.699 183.657C329.086 184.017 329.279 184.464 329.279 184.997C329.279 185.517 329.086 185.957 328.699 186.317C328.326 186.664 327.846 186.837 327.259 186.837ZM334.643 182.397C334.843 183.451 335.457 183.977 336.483 183.977C337.19 183.977 337.69 183.664 337.983 183.037C338.277 182.411 338.423 181.391 338.423 179.977C338.13 180.391 337.73 180.711 337.223 180.937C336.717 181.164 336.15 181.277 335.523 181.277C334.67 181.277 333.91 181.104 333.243 180.757C332.577 180.397 332.05 179.871 331.663 179.177C331.29 178.471 331.103 177.617 331.103 176.617C331.103 175.631 331.303 174.771 331.703 174.037C332.117 173.304 332.697 172.737 333.443 172.337C334.203 171.937 335.097 171.737 336.123 171.737C338.097 171.737 339.477 172.351 340.263 173.577C341.05 174.804 341.443 176.611 341.443 178.997C341.443 180.731 341.283 182.164 340.963 183.297C340.657 184.417 340.13 185.271 339.383 185.857C338.65 186.444 337.643 186.737 336.363 186.737C335.35 186.737 334.483 186.537 333.763 186.137C333.057 185.737 332.51 185.211 332.123 184.557C331.75 183.904 331.537 183.184 331.483 182.397H334.643ZM336.303 178.577C336.863 178.577 337.31 178.411 337.643 178.077C337.977 177.731 338.143 177.264 338.143 176.677C338.143 176.037 337.97 175.544 337.623 175.197C337.277 174.851 336.81 174.677 336.223 174.677C335.637 174.677 335.17 174.857 334.823 175.217C334.49 175.564 334.323 176.044 334.323 176.657C334.323 177.231 334.49 177.697 334.823 178.057C335.17 178.404 335.663 178.577 336.303 178.577ZM346.948 182.397C347.148 183.451 347.761 183.977 348.788 183.977C349.495 183.977 349.995 183.664 350.288 183.037C350.581 182.411 350.728 181.391 350.728 179.977C350.435 180.391 350.035 180.711 349.528 180.937C349.021 181.164 348.455 181.277 347.828 181.277C346.975 181.277 346.215 181.104 345.548 180.757C344.881 180.397 344.355 179.871 343.968 179.177C343.595 178.471 343.408 177.617 343.408 176.617C343.408 175.631 343.608 174.771 344.008 174.037C344.421 173.304 345.001 172.737 345.748 172.337C346.508 171.937 347.401 171.737 348.428 171.737C350.401 171.737 351.781 172.351 352.568 173.577C353.355 174.804 353.748 176.611 353.748 178.997C353.748 180.731 353.588 182.164 353.268 183.297C352.961 184.417 352.435 185.271 351.688 185.857C350.955 186.444 349.948 186.737 348.668 186.737C347.655 186.737 346.788 186.537 346.068 186.137C345.361 185.737 344.815 185.211 344.428 184.557C344.055 183.904 343.841 183.184 343.788 182.397H346.948ZM348.608 178.577C349.168 178.577 349.615 178.411 349.948 178.077C350.281 177.731 350.448 177.264 350.448 176.677C350.448 176.037 350.275 175.544 349.928 175.197C349.581 174.851 349.115 174.677 348.528 174.677C347.941 174.677 347.475 174.857 347.128 175.217C346.795 175.564 346.628 176.044 346.628 176.657C346.628 177.231 346.795 177.697 347.128 178.057C347.475 178.404 347.968 178.577 348.608 178.577Z" fill="#F13454"/>-->
    <defs>
        <filter id="filter0_dddddd" x="3.27832" y="-49" width="653.423" height="655.979" filterUnits="userSpaceOnUse" color-interpolation-filters="sRGB">
            <feFlood flood-opacity="0" result="BackgroundImageFix"/>
            <feColorMatrix in="SourceAlpha" type="matrix" values="0 0 0 0 0 0 0 0 0 0 0 0 0 0 0 0 0 0 127 0"/>
            <feOffset dy="2.76726"/>
            <feGaussianBlur stdDeviation="3.83265"/>
            <feColorMatrix type="matrix" values="0 0 0 0 0.027451 0 0 0 0 0.0470588 0 0 0 0 0.286275 0 0 0 0.0506062 0"/>
            <feBlend mode="normal" in2="BackgroundImageFix" result="effect1_dropShadow"/>
            <feColorMatrix in="SourceAlpha" type="matrix" values="0 0 0 0 0 0 0 0 0 0 0 0 0 0 0 0 0 0 127 0"/>
            <feOffset dy="6.6501"/>
            <feGaussianBlur stdDeviation="9.21039"/>
            <feColorMatrix type="matrix" values="0 0 0 0 0.027451 0 0 0 0 0.0470588 0 0 0 0 0.286275 0 0 0 0.0727007 0"/>
            <feBlend mode="normal" in2="effect1_dropShadow" result="effect2_dropShadow"/>
            <feColorMatrix in="SourceAlpha" type="matrix" values="0 0 0 0 0 0 0 0 0 0 0 0 0 0 0 0 0 0 127 0"/>
            <feOffset dy="12.5216"/>
            <feGaussianBlur stdDeviation="17.3424"/>
            <feColorMatrix type="matrix" values="0 0 0 0 0.027451 0 0 0 0 0.0470588 0 0 0 0 0.286275 0 0 0 0.09 0"/>
            <feBlend mode="normal" in2="effect2_dropShadow" result="effect3_dropShadow"/>
            <feColorMatrix in="SourceAlpha" type="matrix" values="0 0 0 0 0 0 0 0 0 0 0 0 0 0 0 0 0 0 127 0"/>
            <feOffset dy="22.3363"/>
            <feGaussianBlur stdDeviation="30.9358"/>
            <feColorMatrix type="matrix" values="0 0 0 0 0.027451 0 0 0 0 0.0470588 0 0 0 0 0.286275 0 0 0 0.107299 0"/>
            <feBlend mode="normal" in2="effect3_dropShadow" result="effect4_dropShadow"/>
            <feColorMatrix in="SourceAlpha" type="matrix" values="0 0 0 0 0 0 0 0 0 0 0 0 0 0 0 0 0 0 127 0"/>
            <feOffset dy="41.7776"/>
            <feGaussianBlur stdDeviation="57.862"/>
            <feColorMatrix type="matrix" values="0 0 0 0 0.027451 0 0 0 0 0.0470588 0 0 0 0 0.286275 0 0 0 0.129394 0"/>
            <feBlend mode="normal" in2="effect4_dropShadow" result="effect5_dropShadow"/>
            <feColorMatrix in="SourceAlpha" type="matrix" values="0 0 0 0 0 0 0 0 0 0 0 0 0 0 0 0 0 0 127 0"/>
            <feOffset dy="100"/>
            <feGaussianBlur stdDeviation="138.5"/>
            <feColorMatrix type="matrix" values="0 0 0 0 0.027451 0 0 0 0 0.0470588 0 0 0 0 0.286275 0 0 0 0.18 0"/>
            <feBlend mode="normal" in2="effect5_dropShadow" result="effect6_dropShadow"/>
            <feBlend mode="normal" in="SourceGraphic" in2="effect6_dropShadow" result="shape"/>
        </filter>
        <filter id="filter1_dddddd" x="0.197754" y="-50" width="653.423" height="655.979" filterUnits="userSpaceOnUse" color-interpolation-filters="sRGB">
            <feFlood flood-opacity="0" result="BackgroundImageFix"/>
            <feColorMatrix in="SourceAlpha" type="matrix" values="0 0 0 0 0 0 0 0 0 0 0 0 0 0 0 0 0 0 127 0"/>
            <feOffset dy="2.76726"/>
            <feGaussianBlur stdDeviation="3.83265"/>
            <feColorMatrix type="matrix" values="0 0 0 0 0.027451 0 0 0 0 0.0470588 0 0 0 0 0.286275 0 0 0 0.0506062 0"/>
            <feBlend mode="normal" in2="BackgroundImageFix" result="effect1_dropShadow"/>
            <feColorMatrix in="SourceAlpha" type="matrix" values="0 0 0 0 0 0 0 0 0 0 0 0 0 0 0 0 0 0 127 0"/>
            <feOffset dy="6.6501"/>
            <feGaussianBlur stdDeviation="9.21039"/>
            <feColorMatrix type="matrix" values="0 0 0 0 0.027451 0 0 0 0 0.0470588 0 0 0 0 0.286275 0 0 0 0.0727007 0"/>
            <feBlend mode="normal" in2="effect1_dropShadow" result="effect2_dropShadow"/>
            <feColorMatrix in="SourceAlpha" type="matrix" values="0 0 0 0 0 0 0 0 0 0 0 0 0 0 0 0 0 0 127 0"/>
            <feOffset dy="12.5216"/>
            <feGaussianBlur stdDeviation="17.3424"/>
            <feColorMatrix type="matrix" values="0 0 0 0 0.027451 0 0 0 0 0.0470588 0 0 0 0 0.286275 0 0 0 0.09 0"/>
            <feBlend mode="normal" in2="effect2_dropShadow" result="effect3_dropShadow"/>
            <feColorMatrix in="SourceAlpha" type="matrix" values="0 0 0 0 0 0 0 0 0 0 0 0 0 0 0 0 0 0 127 0"/>
            <feOffset dy="22.3363"/>
            <feGaussianBlur stdDeviation="30.9358"/>
            <feColorMatrix type="matrix" values="0 0 0 0 0.027451 0 0 0 0 0.0470588 0 0 0 0 0.286275 0 0 0 0.107299 0"/>
            <feBlend mode="normal" in2="effect3_dropShadow" result="effect4_dropShadow"/>
            <feColorMatrix in="SourceAlpha" type="matrix" values="0 0 0 0 0 0 0 0 0 0 0 0 0 0 0 0 0 0 127 0"/>
            <feOffset dy="41.7776"/>
            <feGaussianBlur stdDeviation="57.862"/>
            <feColorMatrix type="matrix" values="0 0 0 0 0.027451 0 0 0 0 0.0470588 0 0 0 0 0.286275 0 0 0 0.129394 0"/>
            <feBlend mode="normal" in2="effect4_dropShadow" result="effect5_dropShadow"/>
            <feColorMatrix in="SourceAlpha" type="matrix" values="0 0 0 0 0 0 0 0 0 0 0 0 0 0 0 0 0 0 127 0"/>
            <feOffset dy="100"/>
            <feGaussianBlur stdDeviation="138.5"/>
            <feColorMatrix type="matrix" values="0 0 0 0 0.027451 0 0 0 0 0.0470588 0 0 0 0 0.286275 0 0 0 0.18 0"/>
            <feBlend mode="normal" in2="effect5_dropShadow" result="effect6_dropShadow"/>
            <feBlend mode="normal" in="SourceGraphic" in2="effect6_dropShadow" result="shape"/>
        </filter>
    </defs>
</svg>
