<svg width="472" height="250" viewBox="0 0 472 250" fill="none" xmlns="http://www.w3.org/2000/svg">
<g clip-path="url(#clip0)">
<path d="M249.45 151.852L260.431 162.833L249.675 173.58" stroke="#7CC7EC" stroke-width="7" stroke-linecap="round" stroke-linejoin="bevel"/>
<path d="M260.431 162.824H229.609" stroke="#7CC7EC" stroke-width="7" stroke-linecap="round" stroke-linejoin="bevel"/>
<path d="M183.127 239.432H112.798C111.075 239.433 109.37 239.085 107.784 238.411C106.199 237.736 104.766 236.749 103.571 235.508C102.376 234.267 101.443 232.798 100.829 231.188C100.216 229.578 99.9328 227.861 99.998 226.139L103.722 135.12H192.195L195.927 226.182C195.987 227.9 195.699 229.613 195.083 231.218C194.466 232.822 193.533 234.287 192.339 235.523C191.144 236.76 189.713 237.743 188.131 238.414C186.548 239.086 184.847 239.432 183.127 239.432Z" fill="#DFEDF7"/>
<path d="M144.018 218.172C154.913 218.172 163.746 209.339 163.746 198.444C163.746 187.548 154.913 178.716 144.018 178.716C133.122 178.716 124.29 187.548 124.29 198.444C124.29 209.339 133.122 218.172 144.018 218.172Z" fill="#E8B423"/>
<path d="M140.562 219.904C151.458 219.904 160.29 211.071 160.29 200.176C160.29 189.28 151.458 180.448 140.562 180.448C129.667 180.448 120.835 189.28 120.835 200.176C120.835 211.071 129.667 219.904 140.562 219.904Z" fill="#F7C939"/>
<path d="M146.677 212.594C147.633 212.594 148.409 211.819 148.409 210.862C148.409 209.906 147.633 209.13 146.677 209.13C145.72 209.13 144.945 209.906 144.945 210.862C144.945 211.819 145.72 212.594 146.677 212.594Z" fill="#E8B423"/>
<path d="M151.648 190.823C152.604 190.823 153.38 190.047 153.38 189.091C153.38 188.134 152.604 187.359 151.648 187.359C150.691 187.359 149.916 188.134 149.916 189.091C149.916 190.047 150.691 190.823 151.648 190.823Z" fill="#E8B423"/>
<path d="M131.391 202.549C132.137 202.549 132.742 201.63 132.742 200.496C132.742 199.363 132.137 198.444 131.391 198.444C130.645 198.444 130.04 199.363 130.04 200.496C130.04 201.63 130.645 202.549 131.391 202.549Z" fill="#E8B423"/>
<path d="M140.981 191.559C141.963 190.993 142.456 190.009 142.083 189.363C141.71 188.717 140.612 188.653 139.63 189.219C138.648 189.786 138.155 190.769 138.528 191.416C138.901 192.062 139.999 192.126 140.981 191.559Z" fill="#E8B423"/>
<path d="M130.04 190.39C130.399 190.39 130.69 190.099 130.69 189.74C130.69 189.381 130.399 189.091 130.04 189.091C129.682 189.091 129.391 189.381 129.391 189.74C129.391 190.099 129.682 190.39 130.04 190.39Z" fill="#E8B423"/>
<path d="M149.916 201.146C150.274 201.146 150.565 200.855 150.565 200.496C150.565 200.137 150.274 199.847 149.916 199.847C149.557 199.847 149.266 200.137 149.266 200.496C149.266 200.855 149.557 201.146 149.916 201.146Z" fill="#E8B423"/>
<path d="M130.716 211.564C131.448 211.564 132.041 211.25 132.041 210.862C132.041 210.475 131.448 210.161 130.716 210.161C129.984 210.161 129.391 210.475 129.391 210.862C129.391 211.25 129.984 211.564 130.716 211.564Z" fill="#E8B423"/>
<path d="M105.16 219.583C105.16 219.583 104.164 229.179 111.88 231.872C119.596 234.565 125.13 235.579 125.381 233.673C125.632 231.768 118.392 233.18 113.153 229.343C109.786 226.735 107.053 223.398 105.16 219.583Z" fill="#FAFDFF"/>
<path d="M189.294 204.852C187.293 204.852 187.129 224.26 189.294 224.572C191.459 224.883 191.285 204.852 189.294 204.852Z" fill="#FAFDFF"/>
<path opacity="0.5" d="M167.106 101.934L168.483 88.3982C168.483 88.3982 151.648 90.1302 144.884 112.326C143.734 116.139 143.07 120.082 142.909 124.061H168.89C164.032 108.724 167.106 101.934 167.106 101.934Z" fill="#C5EAFF"/>
<path opacity="0.5" d="M192.489 198.444C192.489 198.444 171.705 179.331 168.925 147.807C168.166 139.911 168.152 131.96 168.881 124.061H142.901C142.035 146.682 145.871 176.196 137.298 187.367C127.131 200.609 103.523 196.971 103.523 196.971L102.354 224.208C102.293 225.84 102.562 227.468 103.143 228.995C103.725 230.522 104.607 231.916 105.738 233.095C106.869 234.273 108.226 235.213 109.727 235.857C111.229 236.501 112.844 236.836 114.478 236.843H181.309C182.946 236.842 184.566 236.511 186.073 235.869C187.579 235.228 188.941 234.29 190.077 233.11C191.213 231.931 192.099 230.535 192.683 229.005C193.267 227.476 193.537 225.844 193.476 224.208L192.489 198.444Z" fill="#FAFDFF"/>
<path opacity="0.8" d="M192.195 124.061H103.722V135.077H192.195V124.061Z" fill="#5CB9E7"/>
<path d="M192.195 133.457H103.722V135.077H192.195V133.457Z" fill="#FEFEFE"/>
<path d="M379.471 246.843C427.241 246.843 465.966 208.117 465.966 160.348C465.966 112.578 427.241 73.8525 379.471 73.8525C331.701 73.8525 292.976 112.578 292.976 160.348C292.976 208.117 331.701 246.843 379.471 246.843Z" fill="white"/>
<mask id="mask0" mask-type="alpha" maskUnits="userSpaceOnUse" x="292" y="73" width="174" height="174">
<path d="M379.471 246.843C427.241 246.843 465.966 208.117 465.966 160.348C465.966 112.578 427.241 73.8525 379.471 73.8525C331.701 73.8525 292.976 112.578 292.976 160.348C292.976 208.117 331.701 246.843 379.471 246.843Z" fill="white"/>
</mask>
<g mask="url(#mask0)">
<path d="M416.823 225.093H339.258C337.357 225.092 335.477 224.708 333.728 223.964C331.979 223.219 330.398 222.13 329.08 220.761C327.762 219.392 326.733 217.771 326.055 215.995C325.378 214.22 325.065 212.326 325.136 210.426L329.247 109.979H426.834L430.946 210.426C431.017 212.326 430.704 214.22 430.026 215.995C429.349 217.771 428.32 219.392 427.002 220.761C425.683 222.13 424.103 223.219 422.354 223.964C420.605 224.708 418.724 225.092 416.823 225.093Z" fill="#DFEDF7"/>
<path d="M387.651 164.569C387.651 164.178 384.604 141.203 383.174 133.482C382.842 131.711 381.735 125.906 383.872 124.357C385.098 124.459 386.775 127.608 387.66 129.413C389.132 132.418 391.618 136.368 394.47 136.172C396.257 136.053 396.938 134.92 396.76 133.925C396.3 131.303 394.649 122.484 393.261 120.16C391.746 117.606 385.072 104.208 376.951 102.352L377.062 14.8184L368.549 6.30591L352.589 22.3859L353.619 103.101C352.086 104.471 350.145 107.723 348.698 110.762C346.511 115.316 348.179 125.94 347.532 130.954C346.371 138.073 344.742 145.108 342.655 152.013C341.871 154.423 342.016 156.329 343.063 157.019C344.11 157.708 346.247 157.019 347.158 154.201C349.465 147.068 353.499 138.274 353.499 138.274C353.499 138.274 354.044 138.419 354.231 138.487C354.419 138.555 353.38 159.607 352.708 166.953C352.299 170.434 353.448 171.967 354.844 172.171C355.934 172.333 357.551 171.32 358.351 169.49C358.752 168.553 363.289 140.317 363.459 140.326H364.14C364.446 140.326 366.506 163.735 366.898 171.822C366.992 175.329 368.311 176.3 370.873 176.291C372.576 176.291 373.725 174.537 374.091 172.111C374.185 171.507 374.091 139.509 374.244 139.466L374.891 139.347C376.091 146.004 378.645 153.597 381.327 165.736C382.084 169.141 384.144 169.856 385.438 169.473C386.732 169.089 387.813 167.234 387.651 164.569Z" fill="#EAA192"/>
<path d="M373.691 201.642C385.707 201.642 395.449 191.9 395.449 179.884C395.449 167.867 385.707 158.126 373.691 158.126C361.674 158.126 351.933 167.867 351.933 179.884C351.933 191.9 361.674 201.642 373.691 201.642Z" fill="#E8B423"/>
<path d="M369.877 203.548C381.894 203.548 391.635 193.806 391.635 181.79C391.635 169.773 381.894 160.032 369.877 160.032C357.861 160.032 348.119 169.773 348.119 181.79C348.119 193.806 357.861 203.548 369.877 203.548Z" fill="#F7C939"/>
<path d="M376.619 195.487C377.672 195.487 378.526 194.633 378.526 193.58C378.526 192.527 377.672 191.673 376.619 191.673C375.566 191.673 374.712 192.527 374.712 193.58C374.712 194.633 375.566 195.487 376.619 195.487Z" fill="#E8B423"/>
<path d="M382.101 171.482C383.154 171.482 384.008 170.628 384.008 169.575C384.008 168.522 383.154 167.668 382.101 167.668C381.048 167.668 380.194 168.522 380.194 169.575C380.194 170.628 381.048 171.482 382.101 171.482Z" fill="#E8B423"/>
<path d="M359.764 184.412C360.587 184.412 361.254 183.398 361.254 182.148C361.254 180.897 360.587 179.883 359.764 179.883C358.942 179.883 358.275 180.897 358.275 182.148C358.275 183.398 358.942 184.412 359.764 184.412Z" fill="#E8B423"/>
<path d="M370.332 172.292C371.415 171.667 371.959 170.582 371.548 169.87C371.137 169.157 369.925 169.087 368.842 169.712C367.759 170.337 367.215 171.422 367.626 172.134C368.037 172.847 369.249 172.917 370.332 172.292Z" fill="#E8B423"/>
<path d="M358.275 171.005C358.67 171.005 358.99 170.685 358.99 170.29C358.99 169.895 358.67 169.575 358.275 169.575C357.88 169.575 357.56 169.895 357.56 170.29C357.56 170.685 357.88 171.005 358.275 171.005Z" fill="#E8B423"/>
<path d="M380.194 182.863C380.589 182.863 380.909 182.543 380.909 182.148C380.909 181.753 380.589 181.433 380.194 181.433C379.799 181.433 379.479 181.753 379.479 182.148C379.479 182.543 379.799 182.863 380.194 182.863Z" fill="#E8B423"/>
<path d="M359.015 194.354C359.819 194.354 360.471 194.007 360.471 193.58C360.471 193.152 359.819 192.805 359.015 192.805C358.211 192.805 357.56 193.152 357.56 193.58C357.56 194.007 358.211 194.354 359.015 194.354Z" fill="#E8B423"/>
<path d="M373.546 173.167C373.546 172.784 376.585 149.809 378.024 142.088C378.356 140.309 379.462 134.504 377.326 132.954C376.091 133.065 374.423 136.215 373.538 138.019C372.065 141.016 369.579 144.974 366.728 144.778C364.94 144.651 364.259 143.518 364.429 142.522C364.889 139.909 366.549 131.082 367.936 128.766C369.452 126.213 376.125 112.805 384.246 110.958L384.127 23.4163L392.64 14.9038L408.592 30.9498L407.596 111.707C409.128 113.078 411.078 116.338 412.525 119.369C414.712 123.923 413.035 134.546 413.691 139.56C414.848 146.68 416.477 153.716 418.569 160.62C419.343 163.037 419.207 164.944 418.151 165.625C417.096 166.306 414.968 165.625 414.057 162.816C411.759 155.674 407.724 146.881 407.724 146.881C407.724 146.881 407.179 147.026 406.992 147.102C406.804 147.179 407.843 168.213 408.515 175.568C408.915 179.049 407.766 180.573 406.379 180.777C405.281 180.939 403.672 179.926 402.872 178.096C402.472 177.168 397.934 148.924 397.764 148.932H397.092C396.785 148.932 394.717 172.333 394.325 180.386C394.231 183.893 392.912 184.863 390.358 184.855C388.656 184.855 387.498 183.152 387.141 180.684C387.047 180.071 387.141 148.073 386.979 148.03L386.34 147.911C385.132 154.568 382.586 162.161 379.905 174.299C379.147 177.704 377.087 178.411 375.785 178.028C374.483 177.645 373.359 175.84 373.546 173.167Z" fill="#F3AB99"/>
<path opacity="0.8" d="M426.826 97.8403H329.247V109.996H426.826V97.8403Z" fill="#5CB9E7"/>
<path d="M426.826 108.209H329.247V109.997H426.826V108.209Z" fill="#FEFEFE"/>
<path opacity="0.5" d="M414.9 222.233H341.199C339.393 222.233 337.605 221.869 335.944 221.162C334.282 220.455 332.779 219.42 331.527 218.119C330.274 216.818 329.297 215.278 328.654 213.59C328.011 211.902 327.715 210.102 327.783 208.298L329.009 178.257C345.418 183.316 362.926 183.611 379.496 179.109C406.472 171.447 427.166 179.892 427.166 179.892L428.332 208.306C428.4 210.112 428.102 211.912 427.458 213.6C426.813 215.288 425.834 216.828 424.58 218.128C423.325 219.428 421.821 220.462 420.158 221.167C418.495 221.873 416.706 222.235 414.9 222.233Z" fill="#FAFDFF"/>
<path d="M330.831 203.199C330.831 203.199 329.733 213.788 338.271 216.751C346.808 219.713 352.861 220.794 353.116 218.742C353.372 216.691 345.455 218.198 339.624 213.984C335.918 211.097 332.912 207.41 330.831 203.199Z" fill="#FAFDFF"/>
<path d="M423.625 186.949C421.42 186.949 421.241 208.358 423.625 208.707C426.008 209.056 425.83 186.949 423.625 186.949Z" fill="#FAFDFF"/>
</g>
<path d="M379.471 246.843C427.241 246.843 465.966 208.117 465.966 160.348C465.966 112.578 427.241 73.8525 379.471 73.8525C331.701 73.8525 292.976 112.578 292.976 160.348C292.976 208.117 331.701 246.843 379.471 246.843Z" stroke="#EBF6FF" stroke-width="7" stroke-miterlimit="10"/>
<path d="M406.183 99.8069H352.75C352.111 99.8069 351.592 100.325 351.592 100.965V105.016C351.592 105.656 352.111 106.174 352.75 106.174H406.183C406.822 106.174 407.341 105.656 407.341 105.016V100.965C407.341 100.325 406.822 99.8069 406.183 99.8069Z" fill="#001C61"/>
<path d="M177.005 125.516H122.644C121.994 125.516 121.467 126.043 121.467 126.694V130.816C121.467 131.466 121.994 131.994 122.644 131.994H177.005C177.655 131.994 178.183 131.466 178.183 130.816V126.694C178.183 126.043 177.655 125.516 177.005 125.516Z" fill="#001C61"/>
<path d="M291.787 52.4928C290.904 50.5048 289.292 48.9305 287.284 48.0934L285.994 45.2875C286.609 43.2114 286.459 40.9832 285.569 39.0088C284.687 37.0207 283.08 35.4441 281.075 34.6008L279.784 31.8035C280.397 29.7264 280.244 27.4982 279.351 25.5249C278.771 24.2266 277.888 23.0865 276.776 22.2004C275.664 21.3143 274.355 20.7081 272.96 20.4327C272.227 20.1237 271.439 19.9646 270.643 19.9646C269.848 19.9646 269.06 20.1237 268.327 20.4327L227.355 39.3119C226.021 40.0832 224.941 41.2269 224.246 42.6028L223.597 43.8066C223.141 44.9115 222.284 45.8035 221.199 46.3044C220.114 46.8054 218.879 46.8783 217.742 46.5086C216.475 46.0196 215.122 45.7892 213.765 45.8308C212.407 45.8724 211.071 46.1853 209.836 46.7511L196.845 52.7353C193.8 54.1637 191.078 56.1972 188.845 58.712C186.611 61.2268 184.914 64.1701 183.855 67.3624C183.199 69.4633 182.249 71.4606 181.032 73.2947L181.136 73.5025C179.343 75.9591 176.96 77.9247 174.207 79.2182L172.675 79.9197L172.562 79.6686C172.501 79.535 172.414 79.4147 172.306 79.3148C172.198 79.2148 172.071 79.1371 171.933 79.086C171.795 79.035 171.649 79.0115 171.502 79.0171C171.355 79.0227 171.21 79.0572 171.077 79.1187C170.943 79.1801 170.823 79.2672 170.723 79.3751C170.623 79.4829 170.545 79.6095 170.494 79.7474C170.443 79.8853 170.42 80.0319 170.425 80.1789C170.431 80.3258 170.465 80.4703 170.527 80.6039L170.639 80.8637L167.842 82.1541L176.165 100.219L178.46 99.1627L178.572 99.4139C178.712 99.6701 178.94 99.8673 179.214 99.9691C179.487 100.071 179.788 100.071 180.062 99.9681C181.084 99.4918 181.352 98.7557 181.006 97.9849L182.409 97.0323C185.176 95.7707 188.218 95.2314 191.251 95.4648L191.355 95.69C193.556 95.8761 195.704 96.4631 197.694 97.422C200.805 98.7176 204.151 99.3527 207.52 99.2871C210.889 99.2215 214.208 98.4566 217.266 97.041L231.772 90.3553C233.807 89.4113 234.742 87.4368 235.314 85.3237C235.86 83.8428 239.428 82.1974 240.909 82.7256C242.883 83.6696 244.996 84.2412 247.031 83.2972L288.548 64.1754C289.255 63.8138 289.882 63.3151 290.393 62.7084C290.905 62.1018 291.29 61.3993 291.528 60.6421C292.218 59.4031 292.602 58.0168 292.647 56.599C292.693 55.1812 292.398 53.7733 291.787 52.4928Z" fill="#EBF6FF"/>
<path d="M160.542 87.688L167.106 101.934C167.26 102.268 167.478 102.568 167.748 102.818C168.018 103.068 168.335 103.261 168.68 103.389C169.025 103.516 169.392 103.573 169.759 103.559C170.127 103.544 170.488 103.457 170.821 103.302L176.676 100.609L167.764 81.2708L161.91 83.9641C161.236 84.2783 160.714 84.8463 160.458 85.5439C160.202 86.2416 160.232 87.0124 160.542 87.688Z" fill="#5CB9E7"/>
<path d="M257.995 25.3559L231.528 37.5518L251.635 81.1888L278.102 68.9929L257.995 25.3559Z" fill="#54C0EB"/>
<mask id="mask1" mask-type="alpha" maskUnits="userSpaceOnUse" x="167" y="19" width="126" height="82">
<path d="M291.787 52.4928C290.904 50.5048 289.292 48.9306 287.284 48.0934L285.994 45.2875C286.609 43.2114 286.459 40.9832 285.569 39.0088C284.687 37.0207 283.08 35.4441 281.075 34.6008L279.784 31.8035C280.397 29.7264 280.244 27.4982 279.351 25.5249C278.771 24.2266 277.888 23.0865 276.776 22.2004C275.664 21.3143 274.355 20.7081 272.96 20.4327C272.227 20.1237 271.439 19.9646 270.643 19.9646C269.848 19.9646 269.06 20.1237 268.327 20.4327L227.355 39.3119C226.021 40.0832 224.941 41.2269 224.246 42.6028L223.597 43.8066C223.141 44.9115 222.284 45.8035 221.199 46.3044C220.114 46.8054 218.879 46.8783 217.742 46.5086C216.475 46.0196 215.122 45.7892 213.765 45.8308C212.407 45.8724 211.071 46.1853 209.836 46.7511L196.845 52.7353C193.8 54.1637 191.078 56.1972 188.845 58.712C186.611 61.2268 184.914 64.1701 183.855 67.3624C183.199 69.4634 182.249 71.4607 181.032 73.2947L181.136 73.5025C179.343 75.9591 176.96 77.9247 174.207 79.2183L172.675 79.9197L172.562 79.6686C172.501 79.535 172.414 79.4147 172.306 79.3148C172.198 79.2148 172.071 79.1371 171.933 79.086C171.795 79.035 171.649 79.0116 171.502 79.0172C171.355 79.0228 171.21 79.0572 171.077 79.1187C170.943 79.1801 170.823 79.2672 170.723 79.3751C170.623 79.483 170.545 79.6095 170.494 79.7474C170.443 79.8853 170.42 80.0319 170.425 80.1789C170.431 80.3258 170.465 80.4703 170.527 80.6039L170.639 80.8637L167.842 82.1541L176.165 100.219L178.46 99.1628L178.572 99.4139C178.712 99.6702 178.94 99.8673 179.214 99.9691C179.487 100.071 179.788 100.071 180.062 99.9682C181.084 99.4918 181.352 98.7557 181.006 97.985L182.409 97.0323C185.176 95.7707 188.218 95.2314 191.251 95.4648L191.355 95.69C193.556 95.8761 195.704 96.4631 197.694 97.422C200.805 98.7176 204.151 99.3527 207.52 99.2871C210.889 99.2215 214.208 98.4566 217.266 97.041L231.772 90.3553C233.807 89.4113 234.742 87.4368 235.314 85.3237C235.86 83.8428 239.428 82.1974 240.909 82.7256C242.883 83.6696 244.996 84.2412 247.031 83.2972L288.548 64.1754C289.255 63.8138 289.882 63.3151 290.393 62.7084C290.905 62.1018 291.29 61.3993 291.528 60.6421C292.218 59.4031 292.602 58.0168 292.647 56.599C292.693 55.1812 292.398 53.7733 291.787 52.4928Z" fill="#EBF6FF"/>
</mask>
<g mask="url(#mask1)">
<path d="M169.453 86.6228C178.836 89.4018 188.916 88.6153 197.755 84.4145C212.347 77.3391 212.477 64.0716 237.592 62.3049C262.706 60.5382 277.974 51.9733 281.759 45.4954C285.543 39.0176 289.726 28.2529 289.726 28.2529C289.726 28.2529 309.645 79.6081 282.651 97.2663C255.657 114.924 184.912 110.066 183.586 109.616C182.261 109.165 169.453 86.6228 169.453 86.6228Z" fill="#C8E9FC"/>
</g>
<path d="M257.995 25.3559L231.528 37.5518L251.635 81.1888L278.102 68.9929L257.995 25.3559Z" fill="#5CB9E7"/>
<path d="M203.426 69.8728L202.727 70.3011L199.003 66.9759C198.834 66.8311 198.629 66.6434 198.389 66.4127C198.148 66.182 198.01 66.0398 197.973 65.9859C198.136 66.3898 198.285 66.8505 198.418 67.368L199.707 72.1492L199.008 72.5774L193.661 67.4803L194.411 67.0215L197.674 70.1933C198.131 70.6393 198.52 71.0573 198.843 71.4475C198.607 70.8935 198.414 70.3286 198.263 69.7526L197.088 65.3824L197.838 64.9236L201.27 67.9583C201.667 68.307 202.076 68.7241 202.499 69.2094C202.311 68.7829 202.117 68.2414 201.917 67.5849L200.578 63.2463L201.328 62.7875L203.426 69.8728ZM208.711 66.638L208.176 66.0725L208.143 66.0929C208.09 66.5182 207.982 66.8519 207.817 67.094C207.653 67.3316 207.402 67.554 207.063 67.7614C206.611 68.0384 206.184 68.1393 205.783 68.0641C205.385 67.9872 205.054 67.7336 204.791 67.3033C204.226 66.3815 204.668 65.4472 206.115 64.5004L206.874 64.0013L206.701 63.7181C206.482 63.36 206.242 63.1438 205.983 63.0696C205.725 62.9909 205.427 63.0552 205.088 63.2626C204.708 63.4954 204.349 63.8754 204.011 64.4026L203.475 64.0037C203.625 63.7439 203.812 63.4977 204.036 63.2652C204.263 63.0309 204.511 62.8314 204.781 62.6665C205.325 62.3334 205.801 62.2078 206.21 62.2896C206.622 62.3697 206.991 62.6763 207.317 63.2094L209.224 66.3245L208.711 66.638ZM206.851 67.1067C207.282 66.8433 207.547 66.5188 207.647 66.1333C207.749 65.746 207.671 65.34 207.411 64.9152L207.158 64.5029L206.485 64.9552C205.947 65.3111 205.603 65.6402 205.452 65.9425C205.302 66.2402 205.325 66.5488 205.52 66.8681C205.673 67.1179 205.865 67.2622 206.094 67.301C206.327 67.338 206.579 67.2732 206.851 67.1067ZM211.828 64.0605C211.95 63.9858 212.063 63.9052 212.167 63.8189C212.269 63.7298 212.347 63.6551 212.402 63.5949L212.726 64.1238C212.673 64.2058 212.579 64.3029 212.446 64.4152C212.317 64.5285 212.194 64.6209 212.077 64.6923C211.194 65.2327 210.468 65.0378 209.899 64.1077L208.237 61.3924L207.583 61.7926L207.379 61.4594L207.857 60.7719L207.552 59.6189L207.952 59.3742L208.6 60.432L209.924 59.6214L210.253 60.1587L208.928 60.9693L210.573 63.6554C210.741 63.9303 210.935 64.1014 211.156 64.1687C211.376 64.2359 211.6 64.1999 211.828 64.0605ZM215.646 62.5077C214.972 62.9207 214.313 63.0415 213.67 62.8702C213.03 62.6972 212.486 62.2456 212.039 61.5154C211.589 60.7797 211.412 60.0848 211.507 59.4307C211.606 58.775 211.961 58.2602 212.572 57.8863C213.144 57.5362 213.712 57.448 214.276 57.6217C214.839 57.7926 215.308 58.1862 215.686 58.8026L215.953 59.2399L212.809 61.1644C213.151 61.6918 213.535 62.0161 213.96 62.1374C214.388 62.257 214.835 62.174 215.302 61.8885C215.793 61.5878 216.216 61.1876 216.571 60.6882L216.948 61.3046C216.768 61.5596 216.582 61.7765 216.39 61.9551C216.203 62.1349 215.955 62.3191 215.646 62.5077ZM212.918 58.4703C212.551 58.6946 212.331 58.9933 212.258 59.3663C212.188 59.7376 212.262 60.1462 212.482 60.592L214.868 59.1314C214.601 58.6955 214.3 58.4218 213.965 58.3103C213.628 58.196 213.279 58.2494 212.918 58.4703ZM217.694 54.7509C217.897 54.6269 218.089 54.5322 218.27 54.467L218.567 55.167C218.353 55.2409 218.173 55.322 218.029 55.4104C217.66 55.6364 217.435 55.9801 217.355 56.4414C217.277 56.901 217.375 57.3543 217.649 57.8013L219.148 60.2501L218.457 60.6732L215.663 56.1088L216.233 55.7596L216.83 56.5565L216.863 56.5362C216.851 56.1354 216.915 55.7815 217.055 55.4743C217.195 55.1671 217.408 54.926 217.694 54.7509Z" fill="#5CBEF6"/>
</g>
<path d="M96.8819 35.8484H87.78V41.9192H96.8819V35.8484Z" fill="#F7C939"/>
<path d="M30.1376 35.8484H5.87163V41.9192H30.1376V35.8484Z" fill="#F7C939"/>
<path d="M25.5303 38.8882H16.9481V104.108H25.5303V38.8882Z" fill="#C8E9FC"/>
<path d="M20.3862 32.0205H85.8921C87.1806 32.0205 88.4164 32.5324 89.3275 33.4435C90.2386 34.3546 90.7505 35.5904 90.7505 36.8789V116.12H25.5303V37.2166C25.5372 36.5367 25.4092 35.8622 25.1538 35.2321C24.8983 34.602 24.5205 34.0287 24.0421 33.5455C23.5638 33.0623 22.9944 32.6788 22.3668 32.417C21.7393 32.1552 21.0661 32.0205 20.3862 32.0205Z" fill="#EBF6FF"/>
<path d="M90.7505 83.5142H25.5303V105.823H90.7505V83.5142Z" fill="#5CB9E7"/>
<path d="M25.5303 71.4939H16.9481V93.8026H25.5303V71.4939Z" fill="#4AACD3"/>
<path d="M25.5303 38.888V36.3506C25.39 35.312 24.8779 34.3595 24.0888 33.6699C23.2997 32.9802 22.2872 32.6001 21.2392 32.6001C20.1912 32.6001 19.1787 32.9802 18.3896 33.6699C17.6005 34.3595 17.0883 35.312 16.9481 36.3506V38.9486L25.5303 38.888Z" fill="#C8E9FC"/>
<path d="M26.5522 121.221C26.2934 121.218 26.0458 121.115 25.8628 120.932C25.6797 120.749 25.5759 120.501 25.5736 120.242V115.635C25.5736 115.375 25.6767 115.126 25.8603 114.943C26.0438 114.759 26.2927 114.656 26.5522 114.656C26.8118 114.656 27.0607 114.759 27.2442 114.943C27.4277 115.126 27.5308 115.375 27.5308 115.635V120.251C27.5286 120.509 27.4245 120.756 27.2412 120.937C27.0579 121.119 26.8103 121.221 26.5522 121.221Z" fill="#5CB9E7"/>
<path d="M33.5757 121.221C33.3168 121.218 33.0692 121.115 32.8862 120.932C32.7032 120.749 32.5993 120.501 32.5971 120.242V115.635C32.5971 115.375 32.7002 115.126 32.8837 114.943C33.0672 114.759 33.3161 114.656 33.5757 114.656C33.8352 114.656 34.0841 114.759 34.2677 114.943C34.4512 115.126 34.5543 115.375 34.5543 115.635V120.251C34.552 120.509 34.4479 120.756 34.2646 120.937C34.0813 121.119 33.8337 121.221 33.5757 121.221Z" fill="#5CB9E7"/>
<path d="M17.9353 109.391C17.675 109.391 17.4252 109.288 17.2403 109.105C17.0554 108.922 16.9503 108.673 16.9481 108.412V103.805C16.9352 103.668 16.9511 103.53 16.9946 103.4C17.0382 103.27 17.1084 103.15 17.201 103.048C17.2935 102.947 17.4062 102.865 17.5319 102.81C17.6576 102.754 17.7936 102.726 17.931 102.726C18.0684 102.726 18.2044 102.754 18.3301 102.81C18.4558 102.865 18.5685 102.947 18.661 103.048C18.7535 103.15 18.8238 103.27 18.8674 103.4C18.9109 103.53 18.9268 103.668 18.9139 103.805V108.412C18.9117 108.671 18.8078 108.919 18.6248 109.102C18.4418 109.285 18.1942 109.389 17.9353 109.391Z" fill="#4AACD3"/>
<path d="M23.9802 109.391C23.7198 109.391 23.47 109.288 23.2851 109.105C23.1002 108.922 22.9952 108.673 22.9929 108.412V103.805C22.98 103.668 22.9959 103.53 23.0394 103.4C23.083 103.27 23.1533 103.15 23.2458 103.048C23.3383 102.947 23.4511 102.865 23.5768 102.81C23.7025 102.754 23.8384 102.726 23.9758 102.726C24.1133 102.726 24.2492 102.754 24.3749 102.81C24.5006 102.865 24.6133 102.947 24.7059 103.048C24.7984 103.15 24.8687 103.27 24.9122 103.4C24.9558 103.53 24.9716 103.668 24.9588 103.805V108.412C24.9565 108.671 24.8527 108.919 24.6696 109.102C24.4866 109.285 24.239 109.389 23.9802 109.391Z" fill="#4AACD3"/>
<path d="M40.5991 121.221C40.3403 121.218 40.0927 121.115 39.9096 120.932C39.7266 120.749 39.6228 120.501 39.6205 120.242V115.635C39.6205 115.375 39.7236 115.126 39.9071 114.943C40.0907 114.759 40.3396 114.656 40.5991 114.656C40.8587 114.656 41.1076 114.759 41.2911 114.943C41.4746 115.126 41.5777 115.375 41.5777 115.635V120.251C41.5754 120.509 41.4713 120.756 41.2881 120.937C41.1048 121.119 40.8572 121.221 40.5991 121.221Z" fill="#5CB9E7"/>
<path d="M47.6312 121.221C47.3724 121.218 47.1248 121.115 46.9418 120.932C46.7587 120.749 46.6549 120.501 46.6526 120.242V115.635C46.6756 115.39 46.7891 115.163 46.9709 114.997C47.1527 114.832 47.3897 114.74 47.6356 114.74C47.8814 114.74 48.1184 114.832 48.3002 114.997C48.482 115.163 48.5955 115.39 48.6185 115.635V120.251C48.614 120.51 48.5079 120.756 48.3233 120.938C48.1386 121.119 47.8901 121.221 47.6312 121.221Z" fill="#5CB9E7"/>
<path d="M54.6547 121.221C54.4003 121.214 54.1584 121.109 53.9793 120.929C53.8002 120.748 53.6978 120.505 53.6934 120.251V115.635C53.7164 115.39 53.8299 115.163 54.0117 114.997C54.1935 114.832 54.4305 114.74 54.6763 114.74C54.9222 114.74 55.1592 114.832 55.341 114.997C55.5228 115.163 55.6363 115.39 55.6593 115.635V120.251C55.657 120.38 55.6292 120.508 55.5775 120.627C55.5258 120.746 55.4512 120.854 55.3579 120.944C55.2646 121.034 55.1545 121.105 55.0338 121.152C54.9132 121.2 54.7843 121.223 54.6547 121.221Z" fill="#5CB9E7"/>
<path d="M61.6781 121.221C61.4186 121.221 61.1696 121.118 60.9861 120.934C60.8026 120.751 60.6995 120.502 60.6995 120.242V115.635C60.6995 115.375 60.8026 115.126 60.9861 114.943C61.1696 114.759 61.4186 114.656 61.6781 114.656C61.9377 114.656 62.1866 114.759 62.3701 114.943C62.5536 115.126 62.6567 115.375 62.6567 115.635V120.251C62.6522 120.508 62.5474 120.754 62.3646 120.935C62.1818 121.116 61.9355 121.219 61.6781 121.221Z" fill="#5CB9E7"/>
<path d="M68.7016 121.221C68.442 121.221 68.1931 121.118 68.0096 120.934C67.8261 120.751 67.723 120.502 67.723 120.242V115.635C67.723 115.375 67.8261 115.126 68.0096 114.943C68.1931 114.759 68.442 114.656 68.7016 114.656C68.9611 114.656 69.21 114.759 69.3935 114.943C69.5771 115.126 69.6802 115.375 69.6802 115.635V120.251C69.6757 120.508 69.5708 120.754 69.388 120.935C69.2052 121.116 68.9589 121.219 68.7016 121.221Z" fill="#5CB9E7"/>
<path d="M75.725 121.221C75.4661 121.218 75.2185 121.115 75.0355 120.932C74.8525 120.749 74.7486 120.501 74.7464 120.242V115.635C74.7464 115.375 74.8495 115.126 75.033 114.943C75.2165 114.759 75.4654 114.656 75.725 114.656C75.9845 114.656 76.2334 114.759 76.417 114.943C76.6005 115.126 76.7036 115.375 76.7036 115.635V120.251C76.7013 120.509 76.5972 120.756 76.4139 120.937C76.2307 121.119 75.983 121.221 75.725 121.221Z" fill="#5CB9E7"/>
<path d="M82.7484 121.221C82.4896 121.218 82.242 121.115 82.059 120.932C81.8759 120.749 81.7721 120.501 81.7698 120.242V115.635C81.7698 115.375 81.8729 115.126 82.0565 114.943C82.24 114.759 82.4889 114.656 82.7484 114.656C83.008 114.656 83.2569 114.759 83.4404 114.943C83.6239 115.126 83.7271 115.375 83.7271 115.635V120.251C83.7248 120.509 83.6207 120.756 83.4374 120.937C83.2541 121.119 83.0065 121.221 82.7484 121.221Z" fill="#5CB9E7"/>
<path d="M89.7719 121.221C89.513 121.218 89.2654 121.115 89.0824 120.932C88.8994 120.749 88.7955 120.501 88.7933 120.242V115.635C88.7933 115.375 88.8964 115.126 89.0799 114.943C89.2634 114.759 89.5123 114.656 89.7719 114.656C90.0314 114.656 90.2803 114.759 90.4639 114.943C90.6474 115.126 90.7505 115.375 90.7505 115.635V120.251C90.7482 120.509 90.6441 120.756 90.4608 120.937C90.2775 121.119 90.0299 121.221 89.7719 121.221Z" fill="#5CB9E7"/>
<path d="M96.8733 35.8484H89.8585V41.9192H96.8733V35.8484Z" fill="#F7C939"/>
<path d="M24.9588 35.8484H5.87163V41.9192H24.9588V35.8484Z" fill="#F7C939"/>
<path d="M90.2222 88.8143C83.7444 80.5178 82.9043 80.5178 77.5956 74.9839C72.2869 69.4501 69.8014 64.9727 72.0617 59.0491C72.7471 57.3848 73.7502 55.8699 75.0149 54.5891C72.259 56.324 70.08 58.8377 68.7535 61.8117C66.5192 67.744 68.9787 72.204 74.2874 77.7552C79.5961 83.3064 80.4448 83.2804 86.9227 91.6116C92.4566 98.7043 102.191 94.9458 107.647 89.3599C102.113 93.1618 94.7688 94.634 90.2222 88.8143Z" fill="#F7C6C6"/>
<path d="M103.516 70.6363C98.536 67.0857 96.6394 56.78 88.7067 52.8569C84.16 50.5966 79.0072 51.9216 75.0149 54.5889C73.7501 55.8697 72.7471 57.3846 72.0617 59.049C69.8187 64.9726 72.2869 69.4412 77.5956 74.9838C82.9043 80.5263 83.7444 80.5177 90.2222 88.8401C94.7688 94.6598 102.113 93.1702 107.647 89.3857C108.545 88.48 109.349 87.4847 110.045 86.4153C114.531 79.4178 108.495 74.1957 103.516 70.6363Z" fill="#FFD2D2"/>
<path d="M80.2283 54.8923C80.3582 54.2168 84.9395 52.8571 87.7887 54.9615C90.6379 57.066 88.7846 56.5464 86.2818 55.8882C84.2881 55.4234 82.2659 55.0907 80.2283 54.8923Z" fill="#FFE6E6"/>
<path d="M105.248 86.58C106.573 87.498 109.179 84.7354 109.578 82.6223C109.976 80.5092 108.054 81.176 107.638 82.2326C107.222 83.2891 105.248 86.58 105.248 86.58Z" fill="#FFE6E6"/>
<path d="M6.2267 44.4739C9.66561 44.4739 12.4534 41.6861 12.4534 38.2472C12.4534 34.8083 9.66561 32.0205 6.2267 32.0205C2.78779 32.0205 0 34.8083 0 38.2472C0 41.6861 2.78779 44.4739 6.2267 44.4739Z" fill="#F7C939"/>
<path d="M100.121 44.4739C103.56 44.4739 106.348 41.6861 106.348 38.2472C106.348 34.8083 103.56 32.0205 100.121 32.0205C96.6819 32.0205 93.8941 34.8083 93.8941 38.2472C93.8941 41.6861 96.6819 44.4739 100.121 44.4739Z" fill="#F7C939"/>
<defs>
<clipPath id="clip0">
<rect x="32" y="0.0205078" width="440" height="249.856" fill="white"/>
</clipPath>
</defs>
</svg>
